<svg width="35" height="46" viewBox="0 0 35 46" fill="none" xmlns="http://www.w3.org/2000/svg">
<path d="M2.29216 20.8012C1.11462 19.7604 0.577328 18.5774 0.507818 17.3222C0.437405 16.0507 0.845242 14.6583 1.64894 13.2221C3.25919 10.3444 6.38608 7.4214 9.94254 5.19186C13.5015 2.96079 17.4092 1.475 20.5414 1.39052C22.1024 1.34842 23.4299 1.65495 24.4314 2.34558C25.4214 3.02827 26.1479 4.12404 26.4474 5.77831C28.1483 15.1728 31.1543 29.6488 32.976 38.2868C33.4404 40.4891 31.0175 42.1118 29.1776 40.8466C21.6662 35.6815 9.10804 26.8255 2.29216 20.8012Z" stroke="white"/>
<path d="M2.31095 20.6289C9.55922 3.82874 26.25 4.53257 26.25 4.53257" stroke="white"/>
<circle cx="11.1156" cy="19.2459" r="1.37338" stroke="white"/>
<circle cx="25.1034" cy="29.7369" r="1.37338" stroke="white"/>
<circle cx="19.6877" cy="16.9284" r="2.41667" stroke="white"/>
<circle cx="21.3563" cy="10.7533" r="1.37338" stroke="white"/>
<circle cx="17.1103" cy="25.4906" r="1.87295" stroke="white"/>
</svg>
