<svg width="480" height="408" viewBox="0 0 480 408" fill="none" xmlns="http://www.w3.org/2000/svg">
<path d="M316.736 277.528L317.008 277.6C381.309 294.746 438.429 332.034 480 384C477.954 343.092 463.742 303.727 439.185 270.946C414.628 238.165 380.844 213.462 342.16 200L316.736 277.528Z" fill="#80AC00"/>
<path d="M459.264 360.68C450.282 329.965 434.258 301.769 412.467 278.333C390.676 254.898 363.718 236.869 333.736 225.68L316.736 277.528L317.008 277.6C371.024 292.025 420.161 320.722 459.264 360.68Z" fill="#709300"/>
<path d="M309.6 141.6C334.303 150.497 356.738 164.737 375.304 183.304L376 184L361.704 145.888C351.805 119.483 334.082 96.7292 310.905 80.6667C287.727 64.6042 260.199 55.9986 232 56C234.214 73.7838 241.181 90.6419 252.168 104.8L309.6 141.6Z" fill="#80AC00"/>
<path d="M235.56 72.512C239.075 84.1998 244.704 95.1436 252.168 104.8L309.6 141.6C325.936 147.505 341.322 155.762 355.272 166.112L353.672 161.856C344.458 137.312 328.468 115.888 307.56 100.072C286.652 84.2563 261.685 74.6994 235.56 72.512ZM168 56H120.872C99.2545 55.9995 77.934 61.0338 58.6 70.704C42.9879 78.508 29.5009 89.9811 19.2948 104.14C9.08871 118.299 2.46797 134.721 0 152C26.5028 136.098 55.3399 124.461 85.456 117.512L91.712 116.064C108.067 112.29 123.387 104.949 136.575 94.5659C149.763 84.1825 160.494 71.0133 168 56Z" fill="#709300"/>
<path d="M163.432 64H128.872C107.255 63.9995 85.934 69.0338 66.6 78.704C53.1682 85.4282 41.2884 94.8829 31.7211 106.463C22.1538 118.043 15.1098 131.493 11.04 145.952C34.4391 133.15 59.4675 123.582 85.44 117.512L91.696 116.064C106.528 112.625 120.519 106.246 132.841 97.3028C145.163 88.3599 155.565 77.0354 163.432 64Z" fill="#80AC00"/>
<path d="M182.464 216C201.966 216.002 220.669 223.75 234.459 237.541C248.25 251.331 255.998 270.034 256 289.536C256 309.43 250.328 328.912 239.648 345.696L222.848 372.096C215.852 383.098 206.193 392.156 194.765 398.432C183.337 404.708 170.51 407.999 157.472 408C136.925 408 117.22 399.838 102.691 385.309C88.1622 370.78 80 351.075 80 330.528C79.9996 317.045 82.6551 303.694 87.8149 291.237C92.9747 278.78 100.538 267.462 110.072 257.928L130.464 237.536C137.293 230.708 145.4 225.291 154.322 221.596C163.244 217.901 172.807 215.999 182.464 216Z" fill="#94A221"/>
<path d="M194.4 264.416L177.6 238.016C173.514 231.579 170.091 224.744 167.384 217.616C153.398 220.533 140.565 227.464 130.456 237.56L110.064 257.952C90.8173 277.202 80.0034 303.307 80 330.528C80 331.328 80.096 332.128 80.12 332.928C86.2078 345.235 95.4593 355.7 106.926 363.252C118.392 370.804 131.661 375.171 145.371 375.903C159.082 376.636 172.741 373.709 184.947 367.422C197.153 361.136 207.467 351.716 214.832 340.128L231.632 313.728C234.522 309.164 237.052 304.381 239.2 299.424C220.688 293.248 204.868 280.886 194.4 264.416Z" fill="#C0C839"/>
<path d="M136 376H152C151.987 365.395 147.769 355.228 140.27 347.73C132.772 340.231 122.605 336.013 112 336V352C118.365 352 124.47 354.529 128.971 359.029C133.471 363.53 136 369.635 136 376Z" fill="#94A221"/>
<path d="M152 136L141.4 141.784C91.2596 169.133 51.7686 212.543 29.272 265.04C20.4634 285.59 14.4006 307.21 11.24 329.344L0 408L23.928 364.128C39.4045 335.777 65.0441 314.339 95.688 304.128C116.749 297.108 135.067 283.638 148.046 265.627C161.024 247.615 168.006 225.976 168 203.776C167.998 180.248 162.521 157.044 152 136Z" fill="#709300"/>
<path d="M61.2721 257.04C52.4635 277.59 46.4006 299.21 43.2401 321.344L40.4561 340.8C55.3067 323.928 74.3482 311.275 95.6561 304.12C116.722 297.106 135.046 283.639 148.03 265.629C161.015 247.619 168.002 225.979 168 203.776C167.998 183.346 163.864 163.128 155.848 144.336C113.919 171.778 81.0194 210.983 61.2721 257.04Z" fill="#80AC00"/>
<path d="M238.8 51.096L223.6 5.49599C223.118 4.04403 222.229 2.76086 221.039 1.79862C219.85 0.836375 218.409 0.235422 216.889 0.0670154C215.368 -0.101391 213.831 0.169812 212.46 0.848468C211.088 1.52712 209.94 2.58476 209.152 3.89599L197.28 23.656C193.542 29.983 190.57 36.7317 188.424 43.76L166.68 48.112C133.913 53.5248 102.68 65.875 75.0721 84.336L67.5601 89.344L76.4401 102.656L83.9521 97.648C109.763 80.3981 138.966 68.8707 169.6 63.84L184.76 60.816C184.298 64.3902 184.044 67.9883 184 71.592C184 74.248 184.152 76.88 184.376 79.496L145.6 131.2C145.016 131.981 144.579 132.862 144.312 133.8C134.043 169.536 116.052 202.581 91.6081 230.6L74.0081 250.744L86.0561 261.272L103.656 241.136C129.315 211.719 148.293 177.089 159.28 139.632L188.672 100.432C189.296 102.36 189.904 104.296 190.664 106.192L212.696 158.48L227.408 152.192L210.24 112.048L205.52 100.256C201.101 89.209 199.296 77.2898 200.247 65.4297C201.198 53.5697 204.878 42.0901 211 31.888L213.912 27.032L224.408 58.528C224.923 60.0727 225.897 61.4235 227.2 62.4C248.552 78.4 270.64 94.04 292.8 108.84L307.52 118.656L316.4 105.344L301.68 95.528C280.335 81.2695 259.368 66.4537 238.8 51.096Z" fill="#916657"/>
<path d="M398.64 268.664C381.716 255.135 363.374 243.483 343.936 233.912L325.536 225.552L318.92 240.12L337.08 248.368C355.4 257.409 372.687 268.406 388.64 281.168L394.992 286.248L404.992 273.752L398.64 268.664Z" fill="#795348"/>
<path d="M241.536 104C222.034 104.002 203.331 111.75 189.541 125.541C175.75 139.331 168.002 158.034 168 177.536C168 197.43 173.672 216.912 184.352 233.696L201.152 260.096C208.148 271.098 217.807 280.156 229.235 286.432C240.663 292.708 253.49 295.999 266.528 296C287.075 296 306.78 287.838 321.309 273.309C335.838 258.78 344 239.075 344 218.528C344 205.045 341.345 191.694 336.185 179.237C331.025 166.78 323.462 155.462 313.928 145.928L293.536 125.536C286.707 118.708 278.6 113.291 269.678 109.596C260.756 105.901 251.193 103.999 241.536 104Z" fill="#C0C839"/>
<path d="M313.928 145.928L293.536 125.536C285.335 117.33 275.307 111.183 264.274 107.597C253.241 104.012 241.515 103.089 230.057 104.906C218.598 106.723 207.733 111.227 198.35 118.05C188.967 124.872 181.333 133.82 176.072 144.16C176.072 144.624 176 145.072 176 145.536C176 165.43 181.672 184.912 192.352 201.696L209.152 228.096C216.517 239.684 226.831 249.104 239.037 255.39C251.243 261.677 264.902 264.604 278.613 263.871C292.323 263.139 305.592 258.772 317.058 251.22C328.525 243.668 337.776 233.203 343.864 220.896C343.864 220.096 343.984 219.296 343.984 218.496C343.981 191.279 333.17 165.177 313.928 145.928Z" fill="#D1D845"/>
<path d="M288 264H272C272.013 253.395 276.231 243.228 283.73 235.73C291.228 228.231 301.395 224.013 312 224V240C305.635 240 299.53 242.529 295.029 247.029C290.529 251.53 288 257.635 288 264Z" fill="#94A221"/>
</svg>
