<svg width="512" height="491" viewBox="0 0 512 491" fill="none" xmlns="http://www.w3.org/2000/svg">
<path d="M507.55 157.2C512.91 162.64 513.52 171.227 508.875 177.29C492.609 198.516 499.738 211.922 475.488 235.813C447.699 263.191 434.293 249.582 406.504 276.961C378.719 304.336 392.129 317.945 364.344 345.321C336.559 372.697 323.152 359.086 295.367 386.461C267.582 413.84 280.992 427.449 253.207 454.824C228.957 478.714 215.657 471.387 194.195 487.336C188.066 491.891 179.488 491.156 174.129 485.711L80.4797 390.668C73.5937 383.68 74.8867 372.074 83.1867 366.848C102.063 354.961 115.129 359.628 137.597 337.488C165.383 310.113 151.977 296.504 179.762 269.128C207.543 241.754 220.953 255.363 248.738 227.988C276.523 200.613 263.113 187.004 290.898 159.628C318.684 132.25 332.094 145.859 359.878 118.48C382.352 96.34 377.878 83.203 390.047 64.508C395.398 56.285 407.016 55.164 413.902 62.156L507.55 157.2Z" fill="#EA4444"/>
<path d="M508.875 177.285C492.609 198.52 499.735 211.918 475.488 235.813C447.695 263.188 434.289 249.582 406.504 276.957C378.723 304.332 392.121 317.941 364.34 345.317C336.559 372.695 323.148 359.086 295.367 386.465C267.586 413.84 280.984 427.449 253.203 454.825C228.961 478.719 215.653 471.387 194.195 487.335C188.059 491.891 179.492 491.156 174.129 485.711L159.816 471.188C165.164 475.227 172.648 475.406 178.168 471.313C199.628 455.363 212.934 462.695 237.18 438.801C264.96 411.426 251.559 397.816 279.344 370.441C307.125 343.063 320.535 356.671 348.316 329.297C376.109 301.918 362.699 288.312 390.48 260.934C418.262 233.559 431.672 247.168 459.465 219.789C483.707 195.895 476.582 182.496 492.852 161.262C497.496 155.203 496.882 146.617 491.523 141.172L412.168 60.637C412.77 61.09 413.355 61.597 413.902 62.157L507.543 157.191C512.906 162.641 513.52 171.227 508.875 177.285Z" fill="#D93131"/>
<path d="M480.91 130.164C453.125 157.539 466.535 171.148 438.746 198.527C410.961 225.907 397.551 212.297 369.766 239.672C341.98 267.051 355.391 280.66 327.606 308.035C299.82 335.41 286.41 321.801 258.629 349.175C230.844 376.551 244.25 390.16 216.465 417.535C188.684 444.91 175.273 431.301 147.488 458.675L105.359 415.918C133.145 388.543 146.551 402.152 174.336 374.778C202.121 347.402 188.715 333.793 216.5 306.418C244.281 279.043 257.691 292.652 285.477 265.278C313.262 237.898 299.852 224.293 327.637 196.914C355.422 169.539 368.832 183.148 396.617 155.77C424.407 128.39 410.997 114.785 438.781 87.406L480.91 130.164Z" fill="#FDD79B"/>
<path d="M480.914 130.168C453.125 157.543 466.535 171.152 438.75 198.528C410.96 225.906 397.55 212.297 369.766 239.672C341.984 267.051 355.386 280.656 327.602 308.035C299.82 335.41 286.41 321.801 258.629 349.18C230.848 376.555 244.246 390.164 216.465 417.54C188.684 444.906 175.273 431.3 147.492 458.676L129.23 440.14C156.918 412.944 170.328 426.456 198.066 399.136C225.848 371.761 212.446 358.156 240.226 330.776C268.012 303.401 281.422 317.006 309.203 289.632C336.984 262.252 323.586 248.647 351.367 221.269C379.148 193.894 392.559 207.503 420.352 180.124C448.132 152.749 434.722 139.14 462.516 111.764L438.648 87.54C438.688 87.493 438.734 87.458 438.781 87.411L480.914 130.168Z" fill="#FCCD7F"/>
<path d="M239.785 27.996C247.258 29.578 252.5 36.406 251.969 44.023C250.102 70.699 263.441 77.953 256.383 111.258C248.301 149.418 229.609 145.461 221.527 183.621C213.441 221.781 232.133 225.738 224.047 263.898C215.965 302.055 197.273 298.098 189.191 336.254C181.105 374.414 199.797 378.371 191.711 416.531C184.656 449.832 169.523 451.055 160.411 476.191C157.809 483.375 150.246 487.488 142.773 485.902L12.243 458.25C2.64496 456.215 -2.67604 445.824 1.36696 436.887C10.555 416.562 24.031 413.25 30.57 382.391C38.652 344.234 19.965 340.273 28.047 302.117C36.133 263.957 54.82 267.918 62.907 229.757C70.988 191.602 52.301 187.641 60.383 149.48C68.469 111.32 87.16 115.281 95.243 77.121C101.781 46.258 90.805 37.766 90.648 15.457C90.578 5.648 99.652 -1.695 109.25 0.340001L239.785 27.996Z" fill="#EA4444"/>
<path d="M251.969 44.02C250.102 70.703 263.434 77.953 256.387 111.254C248.297 149.418 229.605 145.461 221.523 183.617C213.441 221.773 232.125 225.738 224.043 263.895C215.961 302.055 197.273 298.098 189.191 336.254C181.109 374.41 199.789 378.375 191.707 416.531C184.66 449.832 169.516 451.055 160.407 476.191C157.805 483.375 150.25 487.488 142.777 485.898L122.824 481.676C129.516 482.098 135.859 478.121 138.204 471.66C147.313 446.52 162.457 445.3 169.504 412C177.586 373.844 158.906 369.879 166.988 331.723C175.07 293.563 193.758 297.523 201.84 259.363C209.93 221.203 191.238 217.243 199.32 179.086C207.402 140.926 226.094 144.886 234.184 106.723C241.234 73.422 227.902 66.172 229.766 39.488C230.296 31.875 225.051 25.047 217.578 23.461L106.968 0.0299988C107.723 0.0769988 108.492 0.178999 109.254 0.338999L239.78 27.992C247.253 29.578 252.5 36.406 251.969 44.02Z" fill="#D93131"/>
<path d="M202.656 20.129C194.57 58.289 213.258 62.25 205.176 100.41C197.09 138.57 178.402 134.61 170.316 172.77C162.234 210.93 180.922 214.89 172.84 253.05C164.754 291.207 146.066 287.246 137.98 325.406C129.898 363.562 148.586 367.523 140.504 405.68C132.418 443.84 113.727 439.879 105.644 478.04L46.9219 465.598C55.0079 427.438 73.6949 431.398 81.7819 393.242C89.8629 355.082 71.1759 351.122 79.2579 312.965C87.3439 274.805 106.031 278.765 114.118 240.609C122.199 202.449 103.512 198.489 111.594 160.332C119.68 122.168 138.371 126.129 146.454 87.969C154.539 49.809 135.848 45.848 143.934 7.688L202.656 20.129Z" fill="#FDD79B"/>
<path d="M202.66 20.129C194.57 58.293 213.262 62.25 205.18 100.41C197.09 138.57 178.398 134.613 170.316 172.77C162.234 210.93 180.918 214.89 172.836 253.05C164.754 291.207 146.062 287.25 137.98 325.406C129.898 363.562 148.582 367.527 140.5 405.684C132.414 443.836 113.723 439.879 105.64 478.035L80.187 472.641C88.289 434.684 106.93 438.562 115.004 400.481C123.086 362.324 104.402 358.359 112.484 320.203C120.566 282.043 139.254 286.003 147.336 247.843C155.418 209.688 136.738 205.723 144.82 167.566C152.902 129.406 171.59 133.367 179.68 95.203C187.762 57.047 169.07 53.086 177.16 14.926L143.895 7.87499C143.898 7.81199 143.918 7.75799 143.93 7.69099L202.66 20.129Z" fill="#FCCD7F"/>
</svg>
