<svg width="492" height="492" viewBox="0 0 492 492" fill="none" xmlns="http://www.w3.org/2000/svg">
<path d="M390.181 81.072C384.555 84.4258 378.055 86.0229 371.515 85.6586C369.236 84.8949 367.183 83.5751 365.541 81.8186C362.808 78.4176 361.439 74.1206 361.701 69.7653C360.942 65.0571 358.872 60.658 355.728 57.072C354.021 54.6186 351.568 52.3786 353.061 49.4986C355.408 44.912 364.795 43.952 370.128 43.4186C374.722 42.7978 379.392 43.704 383.42 45.9975C387.448 48.291 390.611 51.8448 392.421 56.112C395.195 62.6186 398.075 76.0586 390.181 81.072ZM418.555 159.269C413.936 165.305 407.228 169.395 399.748 170.737C392.268 172.079 384.557 170.576 378.128 166.523C375.086 164.714 372.61 162.091 370.981 158.949C368.827 154.628 368.153 149.718 369.061 144.976C369.809 141.042 372.068 137.557 375.355 135.269C381.506 130.561 389.144 128.219 396.877 128.669C404.61 129.12 411.925 132.332 417.488 137.723C419.346 140.046 420.691 142.736 421.435 145.616C422.266 149.001 422.118 152.552 421.008 155.856C420.431 157.149 419.596 158.31 418.555 159.269Z" fill="#E0900D"/>
<path d="M83.9628 168.869C88.5049 172.831 93.7026 175.972 99.3228 178.149C101.199 178.895 102.878 180.063 104.229 181.563C106.643 185.569 107.726 190.236 107.323 194.896C107.405 196.121 107.26 197.35 106.896 198.523C106.598 199.227 106.161 199.864 105.611 200.395C105.062 200.927 104.41 201.342 103.696 201.616C98.9365 203.443 93.7493 203.85 88.7628 202.789C78.2028 201.296 67.7495 198.629 57.3068 196.069C53.7868 195.109 46.2135 193.296 44.0801 189.029C41.6268 184.016 45.7868 173.456 46.7468 168.229C46.9218 166.431 47.4666 164.688 48.3468 163.109C49.1932 162.229 50.2278 161.552 51.3732 161.129C52.5186 160.706 53.7449 160.548 54.9601 160.667C59.8668 160.667 64.6561 160.667 69.4561 160.987C72.3133 160.911 75.1419 161.572 77.6695 162.907C79.9936 164.641 82.1059 166.642 83.9628 168.869Z" fill="#C97D0D"/>
<path d="M171.643 115.867C174.692 116.762 177.403 118.549 179.429 120.997C180.916 123.507 181.787 126.332 181.973 129.243C182.158 132.153 181.652 135.066 180.496 137.744C178.412 142.567 174.499 146.365 169.616 148.304C165.148 149.766 160.439 150.346 155.749 150.011C147.289 150.405 138.848 148.905 131.042 145.62C123.236 142.335 116.262 137.348 110.629 131.024C109.487 129.802 108.612 128.355 108.061 126.775C107.51 125.195 107.295 123.518 107.429 121.851C107.685 120.704 108.217 119.637 108.98 118.743C109.742 117.849 110.711 117.154 111.803 116.72C113.778 116.133 115.823 115.81 117.883 115.76C123.492 114.733 128.943 112.976 134.096 110.533C138.373 108.428 143.089 107.367 147.856 107.44C150.07 107.459 152.281 107.637 154.469 107.973C156.976 108.667 159.434 109.522 161.829 110.533C165.136 111.899 168.229 114.565 171.643 115.867Z" fill="#E0900D"/>
<path d="M371.515 85.6587C378.055 86.023 384.555 84.4258 390.181 81.072C398.075 76.0587 395.195 62.6187 392.421 56.112C390.611 51.8449 387.448 48.2911 383.42 45.9975C379.392 43.704 374.722 42.7979 370.128 43.4187C364.795 43.952 355.408 44.912 353.061 49.4987C351.568 52.3787 354.021 54.6187 355.728 57.072C358.872 60.6581 360.942 65.0572 361.701 69.7653C361.439 74.1207 362.808 78.4176 365.541 81.8187C367.183 83.5752 369.235 84.8949 371.515 85.6587ZM468.251 94.9387C474.363 147.378 462.886 200.363 435.621 245.573C392.133 288.56 352.955 299.333 250.779 299.333H131.109C59.0134 299.333 0.666748 247.493 0.666748 170.267C0.666748 116.699 68.7094 62.6187 152.869 62.6187C196.204 60.8014 237.953 45.8048 272.539 19.632C326.821 -23.3653 457.371 8.85867 468.251 94.9387ZM421.008 155.856C422.118 152.552 422.266 149.001 421.435 145.616C420.691 142.736 419.346 140.046 417.488 137.723C411.925 132.332 404.61 129.12 396.877 128.669C389.144 128.219 381.506 130.561 375.355 135.269C372.068 137.557 369.809 141.042 369.061 144.976C368.153 149.718 368.827 154.628 370.981 158.949C372.61 162.091 375.086 164.714 378.128 166.523C384.557 170.576 392.268 172.079 399.748 170.737C407.228 169.395 413.936 165.305 418.555 159.269C419.596 158.31 420.431 157.149 421.008 155.856ZM180.496 137.723C181.652 135.045 182.158 132.132 181.973 129.221C181.787 126.311 180.916 123.485 179.429 120.976C177.403 118.528 174.692 116.741 171.643 115.845C168.229 114.565 165.136 111.899 161.829 110.512C159.434 109.5 156.976 108.645 154.469 107.952C152.281 107.615 150.07 107.437 147.856 107.419C143.089 107.346 138.373 108.406 134.096 110.512C128.943 112.954 123.492 114.712 117.883 115.739C115.823 115.789 113.778 116.112 111.803 116.699C110.711 117.133 109.742 117.827 108.98 118.721C108.217 119.616 107.685 120.683 107.429 121.829C107.295 123.497 107.51 125.174 108.061 126.754C108.612 128.333 109.487 129.78 110.629 131.003C116.261 137.329 123.235 142.318 131.041 145.605C138.847 148.891 147.289 150.393 155.749 150C160.439 150.335 165.148 149.756 169.616 148.293C172.035 147.332 174.241 145.904 176.107 144.09C177.974 142.276 179.466 140.113 180.496 137.723ZM106.896 198.523C107.26 197.35 107.405 196.121 107.323 194.896C107.726 190.236 106.643 185.569 104.229 181.563C102.878 180.063 101.199 178.895 99.3227 178.149C93.7026 175.972 88.5048 172.831 83.9628 168.869C82.1065 166.638 79.9942 164.633 77.6694 162.896C75.1418 161.562 72.3133 160.9 69.4561 160.976C64.6667 160.667 59.8668 160.667 54.9601 160.667C53.744 160.549 52.5172 160.709 51.3718 161.134C50.2263 161.559 49.1921 162.238 48.3467 163.12C47.4665 164.698 46.9218 166.441 46.7468 168.24C45.7868 173.467 41.6268 184.027 44.0801 189.04C46.2134 193.307 53.7867 195.12 57.3067 196.08C67.7494 198.64 78.2027 201.307 88.7627 202.8C93.7493 203.861 98.9364 203.453 103.696 201.627C104.411 201.352 105.063 200.935 105.613 200.401C106.163 199.868 106.599 199.229 106.896 198.523Z" fill="#F0A224"/>
<path d="M158.638 275.877C162.074 272.44 160.984 265.778 156.201 260.996C151.419 256.214 144.757 255.123 141.32 258.56C137.884 261.996 138.974 268.659 143.756 273.441C148.539 278.223 155.201 279.314 158.638 275.877Z" fill="#C97D0D"/>
<path d="M438 190.8C444.763 190.8 450.246 186.86 450.246 182C450.246 177.14 444.763 173.2 438 173.2C431.237 173.2 425.755 177.14 425.755 182C425.755 186.86 431.237 190.8 438 190.8Z" fill="#E0900D"/>
<path d="M331.333 52.1333C338.096 52.1333 343.579 48.1934 343.579 43.3333C343.579 38.4732 338.096 34.5333 331.333 34.5333C324.571 34.5333 319.088 38.4732 319.088 43.3333C319.088 48.1934 324.571 52.1333 331.333 52.1333Z" fill="#C97D0D"/>
<path d="M86.3927 158.374C88.7838 155.983 89.3274 152.65 87.6071 150.93C85.8867 149.209 82.5537 149.753 80.1626 152.144C77.7716 154.535 77.2279 157.868 78.9483 159.589C80.6687 161.309 84.0017 160.765 86.3927 158.374Z" fill="#E0900D"/>
<path d="M317.957 86.7893C320.39 86.7893 322.363 84.0481 322.363 80.6667C322.363 77.2852 320.39 74.544 317.957 74.544C315.524 74.544 313.552 77.2852 313.552 80.6667C313.552 84.0481 315.524 86.7893 317.957 86.7893Z" fill="#C97D0D"/>
<path d="M161.035 201.025C163.426 198.633 163.97 195.301 162.249 193.58C160.529 191.86 157.196 192.403 154.805 194.794C152.414 197.186 151.87 200.518 153.591 202.239C155.311 203.959 158.644 203.416 161.035 201.025Z" fill="#E0900D"/>
<path d="M66.2858 212.908C68.0061 211.188 67.4625 207.855 65.0714 205.464C62.6804 203.073 59.3474 202.529 57.627 204.249C55.9066 205.97 56.4503 209.303 58.8413 211.694C61.2324 214.085 64.5654 214.628 66.2858 212.908Z" fill="#C97D0D"/>
<path d="M285.957 65.456C288.39 65.456 290.363 62.7148 290.363 59.3334C290.363 55.9519 288.39 53.2107 285.957 53.2107C283.524 53.2107 281.552 55.9519 281.552 59.3334C281.552 62.7148 283.524 65.456 285.957 65.456Z" fill="#C97D0D"/>
<path d="M81.5264 134.946C86.3085 130.164 87.3993 123.501 83.9627 120.064C80.526 116.628 73.8635 117.718 69.0814 122.501C64.2993 127.283 63.2085 133.945 66.6451 137.382C70.0818 140.818 76.7443 139.728 81.5264 134.946Z" fill="#C97D0D"/>
<path d="M348.22 124.365C353.002 119.583 354.093 112.92 350.656 109.484C347.219 106.047 340.557 107.138 335.775 111.92C330.993 116.702 329.902 123.365 333.339 126.801C336.775 130.238 343.438 129.147 348.22 124.365Z" fill="#C97D0D"/>
<path d="M444.24 103.059C449.022 98.2767 450.113 91.6141 446.676 88.1775C443.239 84.7409 436.577 85.8316 431.795 90.6137C427.013 95.3958 425.922 102.058 429.359 105.495C432.795 108.932 439.458 107.841 444.24 103.059Z" fill="#C97D0D"/>
<path d="M201.282 211.886C204.718 208.45 203.628 201.787 198.846 197.005C194.063 192.223 187.401 191.132 183.964 194.569C180.528 198.006 181.618 204.668 186.4 209.45C191.183 214.232 197.845 215.323 201.282 211.886Z" fill="#E0900D"/>
<path d="M96.6667 258.245C101.527 258.245 105.467 252.763 105.467 246C105.467 239.237 101.527 233.755 96.6667 233.755C91.8066 233.755 87.8667 239.237 87.8667 246C87.8667 252.763 91.8066 258.245 96.6667 258.245Z" fill="#E0900D"/>
<path d="M208.88 413.787C213.487 413.325 218.12 413.182 222.747 413.36C225.256 413.576 227.655 414.489 229.672 415.997C231.689 417.505 233.244 419.548 234.16 421.893C234.981 424.295 235.378 426.822 235.333 429.36C235.589 432.728 234.767 436.09 232.987 438.96C229.253 443.973 222.747 442.053 218.16 444.613C215.067 446.213 214.427 447.707 210.8 448.347C206.581 448.845 202.317 448.809 198.107 448.24C193.796 447.973 189.603 446.733 185.84 444.613C180.285 440.818 176.068 435.369 173.787 429.04C172.159 425.98 171.325 422.559 171.362 419.093C171.399 415.626 172.306 412.225 174 409.2C175.267 407.779 176.921 406.76 178.759 406.267C180.597 405.774 182.54 405.83 184.347 406.427C187.922 407.609 191.385 409.108 194.693 410.907C199.152 412.9 203.997 413.884 208.88 413.787ZM443.547 376.24C446.55 380.107 448.327 384.784 448.651 389.669C448.974 394.554 447.828 399.425 445.36 403.653C442.045 408.278 437.335 411.718 431.92 413.467C426.48 415.123 420.854 416.091 415.173 416.347C411.057 416.809 406.898 416.737 402.8 416.133C398.192 415.746 393.862 413.768 390.553 410.537C387.244 407.306 385.163 403.024 384.667 398.427C384.591 397.551 384.737 396.67 385.093 395.867C387.44 391.813 392.027 393.093 395.547 393.307C399.977 393.803 404.439 392.707 408.133 390.213C411.867 387.547 413.893 383.173 417.413 380.187C422.427 375.707 437.787 371.12 443.547 376.24Z" fill="#C97D0D"/>
<path d="M448.56 331.227C448.8 332.838 448.654 334.483 448.133 336.027C447.503 337.255 446.439 338.206 445.147 338.693C442.067 340.86 438.389 342.013 434.623 341.994C430.858 341.975 427.191 340.784 424.133 338.587C420.289 334.765 416.955 330.463 414.213 325.787C412.247 323.398 411.29 320.337 411.547 317.253C411.76 316.08 412.293 315.013 412.4 313.84C413.36 308.187 407.067 304.88 406.107 299.227C405.891 297.873 405.983 296.489 406.375 295.176C406.767 293.863 407.449 292.655 408.37 291.641C409.292 290.627 410.43 289.833 411.7 289.318C412.97 288.804 414.339 288.581 415.707 288.667C418.921 288.956 422.037 289.923 424.85 291.504C427.663 293.085 430.109 295.245 432.027 297.84C440.727 307.083 446.482 318.704 448.56 331.227Z" fill="#E0900D"/>
<path d="M491.333 352.667C491.333 417.52 443.867 470 370.48 470C353.725 470.291 337.136 466.637 322.053 459.333C304.347 479.28 256.24 491.333 225.413 491.333C171.973 491.333 128.667 453.147 128.667 406C128.667 311.707 231.387 235.333 358.32 235.333C431.813 235.333 491.333 287.813 491.333 352.667ZM414.213 325.787C416.955 330.463 420.289 334.765 424.133 338.587C427.191 340.784 430.858 341.975 434.623 341.994C438.389 342.013 442.067 340.86 445.147 338.693C446.439 338.205 447.503 337.255 448.133 336.027C448.654 334.483 448.8 332.838 448.56 331.227C446.482 318.704 440.727 307.083 432.027 297.84C430.109 295.245 427.663 293.085 424.85 291.504C422.037 289.923 418.921 288.956 415.707 288.667C414.339 288.581 412.97 288.804 411.7 289.318C410.43 289.833 409.292 290.627 408.37 291.641C407.449 292.655 406.767 293.863 406.375 295.176C405.983 296.489 405.891 297.873 406.107 299.227C407.067 304.88 413.36 308.187 412.4 313.84C412.293 315.013 411.76 316.08 411.547 317.253C411.29 320.337 412.247 323.398 414.213 325.787ZM445.36 403.653C447.828 399.425 448.974 394.554 448.651 389.669C448.327 384.784 446.55 380.107 443.547 376.24C437.787 371.12 422.427 375.707 417.413 380.187C413.893 383.173 411.867 387.547 408.133 390.213C404.439 392.707 399.977 393.803 395.547 393.307C392.027 393.093 387.44 391.813 385.093 395.867C384.737 396.67 384.591 397.551 384.667 398.427C385.163 403.024 387.244 407.306 390.553 410.537C393.862 413.768 398.192 415.746 402.8 416.133C406.898 416.737 411.057 416.809 415.173 416.347C420.854 416.091 426.48 415.123 431.92 413.467C437.335 411.718 442.045 408.278 445.36 403.653ZM235.333 429.36C235.378 426.822 234.981 424.295 234.16 421.893C233.244 419.548 231.689 417.505 229.672 415.997C227.655 414.489 225.256 413.576 222.747 413.36C218.12 413.182 213.487 413.325 208.88 413.787C203.997 413.884 199.152 412.9 194.693 410.907C191.385 409.108 187.922 407.609 184.347 406.427C182.54 405.83 180.597 405.774 178.759 406.267C176.921 406.76 175.266 407.779 174 409.2C172.306 412.225 171.399 415.626 171.362 419.093C171.325 422.559 172.158 425.98 173.787 429.04C176.068 435.369 180.285 440.818 185.84 444.613C189.603 446.733 193.796 447.973 198.107 448.24C202.317 448.809 206.581 448.844 210.8 448.347C214.427 447.707 215.067 446.213 218.16 444.613C222.747 442.053 229.253 443.973 232.987 438.96C234.767 436.09 235.589 432.728 235.333 429.36Z" fill="#F0A224"/>
<path d="M243.97 467.789C247.407 464.353 246.316 457.69 241.534 452.908C236.752 448.126 230.089 447.035 226.652 450.472C223.216 453.908 224.307 460.571 229.089 465.353C233.871 470.135 240.533 471.226 243.97 467.789Z" fill="#E0900D"/>
<path d="M374 446.8C380.763 446.8 386.246 442.86 386.246 438C386.246 433.14 380.763 429.2 374 429.2C367.237 429.2 361.755 433.14 361.755 438C361.755 442.86 367.237 446.8 374 446.8Z" fill="#E0900D"/>
<path d="M427.333 286.8C434.096 286.8 439.579 282.86 439.579 278C439.579 273.14 434.096 269.2 427.333 269.2C420.571 269.2 415.088 273.14 415.088 278C415.088 282.86 420.571 286.8 427.333 286.8Z" fill="#E0900D"/>
<path d="M406.313 360.933C408.704 358.542 409.247 355.209 407.527 353.488C405.807 351.768 402.474 352.312 400.083 354.703C397.691 357.094 397.148 360.427 398.868 362.147C400.589 363.867 403.922 363.324 406.313 360.933Z" fill="#C97D0D"/>
<path d="M203.709 318.311C206.1 315.92 206.643 312.587 204.923 310.866C203.203 309.146 199.87 309.69 197.479 312.081C195.087 314.472 194.544 317.805 196.264 319.525C197.985 321.245 201.318 320.702 203.709 318.311Z" fill="#E0900D"/>
<path d="M182.396 392.942C184.787 390.551 185.331 387.218 183.61 385.498C181.89 383.778 178.557 384.321 176.166 386.712C173.775 389.103 173.231 392.436 174.952 394.157C176.672 395.877 180.005 395.333 182.396 392.942Z" fill="#C97D0D"/>
<path d="M470.288 382.25C472.679 379.859 473.223 376.526 471.503 374.805C469.782 373.085 466.449 373.629 464.058 376.02C461.667 378.411 461.123 381.744 462.844 383.464C464.564 385.184 467.897 384.641 470.288 382.25Z" fill="#E0900D"/>
<path d="M467.291 342.789C469.724 342.789 471.696 340.048 471.696 336.667C471.696 333.285 469.724 330.544 467.291 330.544C464.858 330.544 462.885 333.285 462.885 336.667C462.885 340.048 464.858 342.789 467.291 342.789Z" fill="#E0900D"/>
<path d="M151.621 404.828C153.342 403.107 152.798 399.774 150.407 397.383C148.016 394.992 144.683 394.449 142.962 396.169C141.242 397.889 141.786 401.222 144.177 403.613C146.568 406.004 149.901 406.548 151.621 404.828Z" fill="#C97D0D"/>
<path d="M257.038 435.593C259.429 433.202 259.973 429.869 258.253 428.148C256.532 426.428 253.199 426.971 250.808 429.363C248.417 431.754 247.874 435.087 249.594 436.807C251.314 438.527 254.647 437.984 257.038 435.593Z" fill="#C97D0D"/>
<path d="M162.285 447.487C164.005 445.766 163.461 442.433 161.07 440.042C158.679 437.651 155.346 437.108 153.626 438.828C151.905 440.548 152.449 443.881 154.84 446.273C157.231 448.664 160.564 449.207 162.285 447.487Z" fill="#C97D0D"/>
<path d="M268.915 394.151C270.635 392.431 270.092 389.098 267.701 386.706C265.31 384.315 261.977 383.772 260.256 385.492C258.536 387.213 259.079 390.546 261.471 392.937C263.862 395.328 267.195 395.871 268.915 394.151Z" fill="#C97D0D"/>
<path d="M381.957 300.123C384.39 300.123 386.363 297.381 386.363 294C386.363 290.619 384.39 287.877 381.957 287.877C379.524 287.877 377.552 290.619 377.552 294C377.552 297.381 379.524 300.123 381.957 300.123Z" fill="#C97D0D"/>
<path d="M371.917 372.173C375.354 368.737 374.263 362.074 369.481 357.292C364.699 352.51 358.036 351.419 354.599 354.856C351.163 358.293 352.254 364.955 357.036 369.737C361.818 374.519 368.48 375.61 371.917 372.173Z" fill="#E0900D"/>
<path d="M348.16 327.057C352.942 322.275 354.032 315.612 350.596 312.175C347.159 308.739 340.497 309.83 335.714 314.612C330.932 319.394 329.842 326.056 333.278 329.493C336.715 332.93 343.377 331.839 348.16 327.057Z" fill="#E0900D"/>
<path d="M177.445 369.672C182.227 364.89 183.318 358.228 179.881 354.791C176.445 351.355 169.782 352.445 165 357.227C160.218 362.009 159.127 368.672 162.564 372.109C166 375.545 172.663 374.455 177.445 369.672Z" fill="#C97D0D"/>
<path d="M358.788 412.406C363.571 407.624 364.661 400.961 361.225 397.524C357.788 394.088 351.125 395.179 346.343 399.961C341.561 404.743 340.471 411.405 343.907 414.842C347.344 418.279 354.006 417.188 358.788 412.406Z" fill="#E0900D"/>
<path d="M307.952 457.121C311.388 453.685 310.298 447.022 305.515 442.24C300.733 437.458 294.071 436.367 290.634 439.804C287.198 443.24 288.288 449.903 293.07 454.685C297.852 459.467 304.515 460.558 307.952 457.121Z" fill="#C97D0D"/>
<path d="M358.32 235.333C382.629 235.258 406.571 241.269 427.963 252.816C430.501 250.501 433.051 248.101 435.621 245.573C435.621 245.573 436.443 244.315 437.755 242.085C411.185 216.837 375.823 202.937 339.173 203.333C266.64 203.333 202.021 228.368 159.973 267.333C160.754 269.387 160.807 271.646 160.123 273.733C159.238 275.536 157.676 276.917 155.778 277.574C153.881 278.231 151.8 278.112 149.989 277.243C143.697 284.117 137.992 291.507 132.933 299.333H179.205C221.232 260.347 285.765 235.333 358.32 235.333Z" fill="#C97D0D"/>
<path d="M160.101 273.797C160.785 271.71 160.733 269.451 159.952 267.397C156.475 270.597 153.125 273.915 149.968 277.317C151.78 278.186 153.862 278.303 155.76 277.644C157.658 276.985 159.218 275.602 160.101 273.797Z" fill="#A8640B"/>
<path d="M360.133 64.1547C360.998 65.9139 361.54 67.8144 361.733 69.7653C361.471 74.1207 362.84 78.4176 365.573 81.8187C367.214 83.5751 369.267 84.8949 371.547 85.6587C378.087 86.023 384.587 84.4258 390.213 81.072C390.634 80.7505 391.027 80.3937 391.387 80.0053C381.639 73.4938 371.146 68.1724 360.133 64.1547Z" fill="#F0A224"/>
<path d="M417.488 137.723C411.925 132.332 404.61 129.12 396.877 128.669C389.144 128.219 381.506 130.561 375.355 135.269C372.068 137.557 369.809 141.042 369.061 144.976C368.153 149.718 368.827 154.628 370.981 158.949C372.61 162.091 375.086 164.714 378.128 166.523C384.557 170.576 392.268 172.079 399.748 170.737C407.228 169.395 413.936 165.305 418.555 159.269C419.596 158.31 420.431 157.149 421.008 155.856C422.118 152.552 422.266 149.001 421.435 145.616C420.691 142.736 419.346 140.046 417.488 137.723ZM107.429 121.829C107.295 123.497 107.51 125.174 108.061 126.754C108.612 128.333 109.487 129.78 110.629 131.003C116.261 137.329 123.235 142.318 131.041 145.604C138.847 148.891 147.289 150.393 155.749 150C160.439 150.335 165.148 149.756 169.616 148.293C174.499 146.355 178.412 142.556 180.496 137.733C181.652 135.056 182.158 132.143 181.973 129.232C181.787 126.321 180.916 123.496 179.429 120.987C177.41 118.531 174.696 116.743 171.643 115.856C168.229 114.576 165.136 111.909 161.829 110.523L161.285 110.341C148.047 113.624 134.501 115.508 120.869 115.963C118.512 115.963 116.219 116.155 113.893 116.24C113.168 116.324 112.453 116.481 111.76 116.709C110.676 117.147 109.716 117.841 108.961 118.733C108.207 119.626 107.681 120.688 107.429 121.829Z" fill="#E0900D"/>
<path d="M465.104 169.819C464.816 171.205 464.486 172.528 464.187 173.883C464.486 172.517 464.816 171.216 465.104 169.819ZM469.691 132.069C469.616 133.936 469.552 135.803 469.435 137.637C469.552 135.803 469.616 134 469.691 132.069ZM469.733 113.733C469.808 115.632 469.819 117.488 469.84 119.355C469.819 117.445 469.808 115.6 469.733 113.733ZM461.467 184.741L460.4 188.624C460.795 187.333 461.147 186.053 461.467 184.741ZM434.427 190.416C427.952 188.997 424.315 184.08 426.288 179.429C427.454 177.431 429.156 175.8 431.201 174.72C433.247 173.639 435.554 173.154 437.862 173.317C437.798 164.945 437.261 156.583 436.251 148.272C434.168 134.317 429.073 120.983 421.32 109.195C413.567 97.4065 403.342 87.4462 391.355 80.0053C390.995 80.3937 390.602 80.7506 390.181 81.072C384.555 84.4259 378.055 86.023 371.515 85.6587C369.236 84.8949 367.183 83.5752 365.542 81.8187C362.808 78.4176 361.439 74.1207 361.702 69.7654C361.509 67.8144 360.967 65.914 360.101 64.1547C337.38 55.6694 313.016 52.5022 288.88 54.896C289.511 55.6677 289.949 56.578 290.16 57.552C290.574 58.9695 290.512 60.4834 289.984 61.8625C289.456 63.2415 288.492 64.41 287.238 65.1893C284.912 66.1813 282.459 64.3574 281.744 61.1254C281.364 59.3171 281.62 57.4329 282.47 55.792C267.264 57.8876 252.838 63.8034 240.539 72.9867C217.138 91.0263 190.096 103.765 161.286 110.32L161.83 110.501C165.136 111.888 168.23 114.555 171.643 115.835C174.696 116.722 177.41 118.51 179.43 120.965C180.916 123.475 181.787 126.3 181.973 129.211C182.158 132.121 181.652 135.034 180.496 137.712C178.413 142.535 174.499 146.333 169.616 148.272C165.148 149.734 160.439 150.314 155.75 149.979C147.29 150.373 138.848 148.873 131.042 145.588C123.236 142.303 116.262 137.316 110.63 130.992C109.487 129.77 108.613 128.323 108.062 126.743C107.51 125.163 107.295 123.486 107.43 121.819C107.684 120.671 108.215 119.603 108.977 118.709C109.74 117.814 110.71 117.121 111.803 116.688C112.496 116.46 113.211 116.303 113.936 116.219C108.23 116.444 102.536 116.914 96.8695 117.627C135.931 169.413 199.152 196.325 275.899 210.171C296.691 205.672 317.9 203.38 339.174 203.333C365.042 203.246 390.46 210.105 412.773 223.195C419.408 223.429 426.16 223.568 432.88 223.749C435.176 212.83 436.702 201.763 437.446 190.629C436.435 190.654 435.424 190.582 434.427 190.416ZM319.227 86.5227C316.902 87.5147 314.448 85.6907 313.734 82.4587C313.324 81.0383 313.389 79.5232 313.918 78.143C314.447 76.7628 315.413 75.5929 316.667 74.8107C318.982 73.8187 321.446 75.6427 322.15 78.8854C322.564 80.3017 322.504 81.8148 321.978 83.1937C321.452 84.5727 320.479 85.7418 319.227 86.5227ZM345.424 126.533C339.845 130.107 333.787 129.211 331.899 124.517C331.234 121.641 331.526 118.626 332.731 115.93C333.937 113.235 335.989 111.007 338.576 109.584C344.155 106.011 350.213 106.907 352.101 111.6C352.766 114.477 352.474 117.492 351.269 120.187C350.064 122.883 348.011 125.111 345.424 126.533ZM421.008 155.909C420.431 157.202 419.596 158.364 418.555 159.323C413.936 165.358 407.228 169.448 399.748 170.79C392.268 172.132 384.557 170.629 378.128 166.576C375.086 164.768 372.61 162.144 370.981 159.003C368.827 154.681 368.153 149.772 369.061 145.029C369.809 141.095 372.068 137.61 375.355 135.323C381.506 130.615 389.144 128.272 396.877 128.723C404.61 129.173 411.925 132.386 417.488 137.776C419.346 140.099 420.691 142.789 421.435 145.669C422.256 149.037 422.108 152.569 421.008 155.856V155.909Z" fill="#F5C056"/>
<path d="M437.861 173.317C435.554 173.154 433.247 173.639 431.201 174.72C429.156 175.8 427.454 177.431 426.288 179.429C424.315 184.08 427.952 189.029 434.427 190.416C435.424 190.582 436.435 190.654 437.446 190.629C437.808 185.008 437.925 179.227 437.861 173.317ZM316.677 74.8107C315.423 75.5929 314.458 76.7628 313.929 78.143C313.399 79.5231 313.335 81.0383 313.744 82.4587C314.459 85.6587 316.944 87.5147 319.237 86.5227C320.492 85.7433 321.456 84.5749 321.984 83.1958C322.512 81.8167 322.574 80.3029 322.16 78.8853C321.456 75.6427 318.992 73.8187 316.677 74.8107ZM281.744 61.1253C282.459 64.3253 284.944 66.1813 287.237 65.1893C288.492 64.4099 289.456 63.2415 289.984 61.8625C290.512 60.4834 290.574 58.9695 290.16 57.552C289.949 56.5779 289.511 55.6677 288.88 54.896C286.747 55.1307 284.613 55.4222 282.48 55.7707C281.622 57.4164 281.362 59.3091 281.744 61.1253Z" fill="#F0A224"/>
<path d="M338.576 109.52C335.989 110.942 333.937 113.171 332.731 115.866C331.526 118.561 331.234 121.577 331.899 124.453C333.787 129.147 339.845 130.043 345.424 126.469C348.011 125.047 350.064 122.819 351.269 120.123C352.474 117.428 352.766 114.413 352.101 111.536C350.213 106.843 344.133 105.947 338.576 109.52Z" fill="#E0900D"/>
<path d="M275.867 210.181C321.126 217.723 366.861 222.071 412.731 223.195C390.43 210.112 365.028 203.254 339.173 203.333C317.889 203.381 296.669 205.677 275.867 210.181Z" fill="#F0A224"/>
<path d="M391.355 80.016C393.37 77.4587 394.694 74.4257 395.198 71.2088C395.703 67.992 395.371 64.6995 394.235 61.648V61.4453C393.78 59.6267 393.192 57.8441 392.475 56.112C390.664 51.8448 387.501 48.291 383.473 45.9975C379.445 43.704 374.775 42.7978 370.181 43.4186C364.848 43.952 355.461 44.912 353.115 49.4986C351.621 52.3786 354.075 54.6186 355.781 57.072C357.484 59.2727 358.95 61.6467 360.155 64.1546C371.15 68.1796 381.624 73.5045 391.355 80.016Z" fill="#E0900D"/>
<path d="M120.869 115.952C134.501 115.497 148.047 113.613 161.285 110.331C159.066 109.394 156.79 108.599 154.469 107.952C152.281 107.615 150.07 107.437 147.856 107.419C143.089 107.346 138.373 108.406 134.096 110.512C128.943 112.954 123.492 114.712 117.883 115.739C116.56 115.888 115.216 116.005 113.893 116.229C116.219 116.144 118.512 115.952 120.869 115.952Z" fill="#F5C056"/>
<path d="M464.187 173.883C463.344 177.605 462.459 181.253 461.509 184.741C462.462 181.243 463.355 177.623 464.187 173.883ZM469.435 137.637C469.115 142.416 468.667 147.077 468.091 151.621C468.652 147.077 469.1 142.416 469.435 137.637ZM133.755 63.6747C140.104 62.9994 146.484 62.6434 152.869 62.608C146.373 62.6187 140.027 63.056 133.755 63.6747ZM391.355 80.016C393.382 77.465 394.714 74.4316 395.219 71.2121C395.723 67.9926 395.384 64.6972 394.235 61.648C395.371 64.6995 395.703 67.992 395.198 71.2089C394.694 74.4258 393.37 77.4587 391.355 80.016ZM117.883 115.739C116.56 115.888 115.216 116.005 113.893 116.229C115.217 116.019 116.547 115.855 117.883 115.739Z" fill="#FCD579"/>
<path d="M456.432 201.285L456.837 200.037C458.542 194.987 460.092 189.886 461.488 184.741C462.437 181.253 463.323 177.605 464.165 173.883C464.464 172.528 464.795 171.205 465.083 169.819C466.149 164.816 467.035 159.653 467.781 154.277C467.899 153.413 467.963 152.496 468.069 151.621C468.645 147.077 469.093 142.416 469.413 137.637C469.531 135.803 469.595 133.936 469.669 132.069C469.851 127.899 469.883 123.643 469.819 119.269C469.819 117.403 469.819 115.547 469.712 113.648C469.489 107.375 468.994 101.115 468.229 94.8853C457.349 8.80533 326.8 -23.4187 272.517 19.5787C237.931 45.7515 196.183 60.7481 152.848 62.5653C146.463 62.6008 140.083 62.9568 133.733 63.632C132.347 63.76 130.981 63.92 129.605 64.0907C117.014 65.5893 104.603 68.3444 92.56 72.3147L92.176 72.4533C86.1749 74.4556 80.2825 76.7699 74.5227 79.3867C80.452 92.9504 87.9483 105.774 96.8587 117.595C102.524 116.877 108.219 116.407 113.925 116.187C115.248 115.963 116.592 115.845 117.915 115.696C123.524 114.669 128.975 112.912 134.128 110.469C138.405 108.363 143.121 107.303 147.888 107.376C150.102 107.395 152.313 107.573 154.501 107.909C156.822 108.556 159.098 109.351 161.317 110.288C190.128 103.733 217.17 90.9943 240.571 72.9547C252.87 63.7714 267.296 57.8556 282.501 55.76C282.743 55.2781 283.052 54.8328 283.419 54.4373C283.772 54.0222 284.213 53.6907 284.709 53.4667C285.392 53.2018 286.145 53.1792 286.843 53.4027L287.12 53.52C287.825 53.808 288.44 54.2794 288.901 54.8853C313.037 52.4915 337.401 55.6587 360.123 64.144C358.918 61.636 357.452 59.262 355.749 57.0613C354.043 54.608 351.589 52.368 353.083 49.488C355.429 44.9013 364.816 43.9413 370.149 43.408C374.743 42.7872 379.413 43.6933 383.441 45.9869C387.47 48.2804 390.632 51.8342 392.443 56.1013C392.773 56.88 393.104 57.7547 393.413 58.704C393.723 59.6533 393.957 60.4853 394.203 61.4347V61.6373C395.352 64.6866 395.692 67.9819 395.187 71.2014C394.682 74.4209 393.351 77.4543 391.323 80.0053C403.31 87.4462 413.535 97.4064 421.288 109.195C429.041 120.983 434.136 134.317 436.219 148.272C437.229 156.583 437.766 164.945 437.829 173.317C439.073 173.263 440.318 173.353 441.541 173.584C448.016 175.003 451.653 179.92 449.68 184.571C449.187 185.65 448.458 186.605 447.547 187.365C447.033 187.77 446.483 188.127 445.904 188.432C445.476 188.719 445.031 188.979 444.571 189.211C443.624 189.641 442.633 189.966 441.616 190.181L441.168 190.277C439.923 190.532 438.651 190.636 437.381 190.587C436.638 201.72 435.112 212.787 432.816 223.707C437.584 223.835 442.288 224.005 447.099 224.101C450.139 217.765 453.36 210.064 456.432 201.285ZM343.067 45.904C341.504 48.4105 339.165 50.3379 336.405 51.3931C333.646 52.4482 330.618 52.5733 327.781 51.7493C321.307 50.3307 317.669 45.4133 319.643 40.7627C321.206 38.2561 323.545 36.3287 326.304 35.2736C329.063 34.2185 332.091 34.0934 334.928 34.9173C341.381 36.336 345.019 41.2533 343.067 45.904ZM441.424 105.2C435.845 108.773 429.787 107.877 427.899 103.184C427.234 100.307 427.526 97.2921 428.731 94.5968C429.937 91.9014 431.989 89.6732 434.576 88.2507C440.155 84.6773 446.213 85.5733 448.101 90.2667C448.766 93.1434 448.474 96.1585 447.269 98.8539C446.064 101.549 444.011 103.777 441.424 105.2Z" fill="#FCD579"/>
<path d="M437.446 190.629C438.716 190.679 439.987 190.575 441.232 190.32C439.985 190.564 438.715 190.667 437.446 190.629ZM284.677 53.4773C285.357 53.1989 286.115 53.1762 286.811 53.4133C286.113 53.1899 285.36 53.2125 284.677 53.4773Z" fill="#FCD579"/>
<path d="M449.733 184.571C449.231 185.645 448.504 186.598 447.6 187.365C448.511 186.605 449.24 185.65 449.733 184.571Z" fill="#F5C056"/>
<path d="M437.445 190.629C438.715 190.668 439.985 190.564 441.232 190.32L441.68 190.224C442.697 190.007 443.687 189.682 444.635 189.253C445.097 189.026 445.543 188.765 445.968 188.475C446.545 188.167 447.095 187.81 447.611 187.408C448.514 186.64 449.242 185.687 449.744 184.613C451.717 179.963 448.08 175.013 441.605 173.627C440.382 173.395 439.137 173.306 437.893 173.36C437.925 179.227 437.808 185.008 437.445 190.629ZM334.907 34.9174C332.07 34.0934 329.042 34.2185 326.283 35.2736C323.524 36.3287 321.185 38.2562 319.621 40.7627C317.648 45.4134 321.285 50.3627 327.76 51.7494C330.6 52.5785 333.633 52.456 336.396 51.4006C339.16 50.3452 341.502 48.4149 343.067 45.904C345.019 41.2534 341.381 36.336 334.907 34.9174ZM283.387 54.448C283.747 54.0407 284.186 53.7106 284.677 53.4774C284.181 53.7014 283.74 54.0329 283.387 54.448Z" fill="#F5C056"/>
<path d="M288.88 54.896C288.412 54.2971 287.799 53.8273 287.099 53.5307L286.821 53.4133C286.126 53.1762 285.368 53.1989 284.688 53.4773C284.197 53.7106 283.758 54.0407 283.397 54.448C283.039 54.85 282.731 55.2941 282.48 55.7707C284.585 55.4222 286.718 55.1307 288.88 54.896ZM434.576 88.1867C431.989 89.6092 429.937 91.8374 428.731 94.5328C427.526 97.2282 427.234 100.243 427.899 103.12C429.787 107.813 435.845 108.709 441.424 105.136C444.011 103.714 446.063 101.485 447.269 98.7899C448.474 96.0945 448.766 93.0794 448.101 90.2027C446.213 85.5093 440.133 84.6133 434.576 88.1867Z" fill="#F5C056"/>
<path d="M445.36 403.653C447.828 399.425 448.974 394.554 448.651 389.669C448.327 384.784 446.55 380.107 443.547 376.24C437.787 371.12 422.427 375.707 417.413 380.187C413.893 383.173 411.867 387.547 408.133 390.213C404.439 392.707 399.977 393.803 395.547 393.307C392.027 393.093 387.44 391.813 385.093 395.867C384.737 396.67 384.591 397.551 384.667 398.427C384.734 400.851 385.344 403.23 386.452 405.388C387.559 407.545 389.136 409.428 391.067 410.896C403.646 412.183 416.386 413.25 429.285 414.096C430.149 413.861 431.056 413.755 431.909 413.467C437.328 411.72 442.043 408.28 445.36 403.653ZM412.4 313.84C412.293 315.013 411.76 316.08 411.547 317.253C411.29 320.337 412.247 323.398 414.213 325.787C416.955 330.463 420.289 334.765 424.133 338.587C427.191 340.784 430.858 341.975 434.623 341.994C438.389 342.013 442.067 340.86 445.147 338.693C446.439 338.206 447.503 337.255 448.133 336.027C448.654 334.483 448.8 332.838 448.56 331.227C446.482 318.704 440.727 307.083 432.027 297.84C430.109 295.245 427.663 293.085 424.85 291.504C422.037 289.923 418.921 288.956 415.707 288.667C414.339 288.581 412.97 288.804 411.7 289.318C410.43 289.833 409.292 290.627 408.371 291.641C407.449 292.655 406.767 293.863 406.375 295.176C405.983 296.489 405.891 297.873 406.107 299.227C407.067 304.88 413.36 308.187 412.4 313.84Z" fill="#E0900D"/>
<path d="M423.76 286.416C426.597 287.24 429.625 287.115 432.384 286.06C435.143 285.005 437.482 283.077 439.045 280.571C441.019 275.92 437.381 270.971 430.907 269.584C428.07 268.76 425.042 268.885 422.283 269.94C419.524 270.995 417.185 272.923 415.621 275.429C413.648 280.133 417.285 284.997 423.76 286.416ZM400.059 363.056C401.497 363.388 403.004 363.241 404.352 362.638C405.699 362.036 406.814 361.01 407.525 359.717C409.317 356.923 408.869 353.893 406.523 352.955C405.084 352.623 403.577 352.77 402.23 353.372C400.882 353.975 399.768 355 399.056 356.293C397.264 359.067 397.712 362.107 400.059 363.056Z" fill="#F0A224"/>
<path d="M203.856 310.288C202.418 309.956 200.91 310.103 199.563 310.706C198.215 311.308 197.101 312.334 196.389 313.627C194.608 316.411 195.056 319.44 197.456 320.389C198.894 320.721 200.402 320.574 201.749 319.972C203.097 319.369 204.211 318.344 204.923 317.051C206.651 314.267 206.203 311.227 203.856 310.288Z" fill="#E0900D"/>
<path d="M464.059 384.389C465.497 384.721 467.004 384.574 468.352 383.972C469.699 383.369 470.813 382.344 471.525 381.051C473.317 378.256 472.869 375.227 470.523 374.288C469.084 373.956 467.577 374.103 466.23 374.706C464.882 375.308 463.768 376.334 463.056 377.627C461.264 380.4 461.712 383.44 464.059 384.389ZM468.571 342.523C469.825 341.743 470.789 340.575 471.317 339.196C471.845 337.817 471.907 336.303 471.493 334.885C470.789 331.685 468.293 329.819 466.011 330.811C464.756 331.593 463.791 332.763 463.262 334.143C462.733 335.523 462.668 337.038 463.077 338.459C463.792 341.691 466.245 343.515 468.571 342.523ZM383.237 299.856C384.491 299.077 385.456 297.908 385.984 296.529C386.512 295.15 386.573 293.636 386.16 292.219C385.456 289.019 382.96 287.152 380.677 288.144C379.423 288.926 378.458 290.096 377.929 291.476C377.399 292.856 377.334 294.372 377.744 295.792C378.459 299.024 380.912 300.848 383.237 299.856Z" fill="#F0A224"/>
<path d="M369.797 373.435C374.491 371.547 375.387 365.488 371.813 359.909C370.391 357.322 368.163 355.27 365.467 354.065C362.772 352.859 359.757 352.567 356.88 353.232C352.187 355.12 351.291 361.179 354.864 366.757C356.286 369.345 358.515 371.397 361.21 372.602C363.905 373.807 366.921 374.1 369.797 373.435Z" fill="#E0900D"/>
<path d="M345.424 329.2C348.011 327.778 350.064 325.549 351.269 322.854C352.474 320.159 352.766 317.143 352.101 314.267C350.213 309.573 344.155 308.677 338.576 312.251C335.989 313.673 333.937 315.901 332.731 318.597C331.526 321.292 331.234 324.307 331.899 327.184C333.787 331.824 339.867 332.72 345.424 329.2ZM362.768 399.536C360.88 394.843 354.821 393.947 349.243 397.52C346.551 399.239 344.416 401.703 343.099 404.613C349.403 405.68 355.76 406.608 362.192 407.483C362.814 406.264 363.185 404.932 363.284 403.568C363.383 402.203 363.207 400.832 362.768 399.536Z" fill="#F0A224"/>
<path d="M448.08 385.04C448.336 387.707 448.489 390.398 448.539 393.115C448.766 390.415 448.612 387.697 448.08 385.04Z" fill="#C97D0D"/>
<path d="M434.043 342C437.933 341.676 441.713 340.55 445.147 338.693C446.439 338.206 447.503 337.255 448.133 336.027C448.654 334.483 448.8 332.838 448.56 331.227C446.482 318.704 440.727 307.083 432.027 297.84C430.109 295.245 427.663 293.085 424.85 291.504C422.037 289.923 418.921 288.956 415.707 288.667C414.339 288.581 412.97 288.804 411.7 289.318C410.43 289.833 409.292 290.627 408.37 291.641C407.449 292.655 406.767 293.863 406.375 295.176C405.983 296.489 405.891 297.873 406.107 299.227C407.067 304.88 413.36 308.187 412.4 313.84C412.354 314.147 412.286 314.45 412.197 314.747C420.784 322.704 428.146 331.888 434.043 342Z" fill="#F0A224"/>
<path d="M486.96 385.445C486.544 386.981 485.957 388.443 485.477 389.947C486 388.443 486.544 386.981 486.96 385.445ZM405.339 243.013C404.272 242.651 403.205 242.288 402.053 241.947L405.339 243.013ZM490.267 369.381C490.075 370.843 489.691 372.229 489.445 373.648C489.637 372.229 490.021 370.8 490.267 369.381ZM164.091 315.141C164.581 314.555 165.157 314 165.616 313.424C165.115 314 164.581 314.555 164.091 315.141ZM179.152 299.333C176.912 301.467 174.789 303.547 172.688 305.733C174.917 303.461 177.2 301.2 179.579 299.013C179.451 299.099 179.291 299.205 179.152 299.333ZM481.733 400.592C481.072 402.139 480.272 403.611 479.6 405.125C480.219 403.611 481.019 402.139 481.733 400.592ZM370.277 235.867C370.274 235.867 370.281 235.867 370.277 235.867ZM332.997 236.4C332.581 236.4 332.165 236.496 331.749 236.539C333.104 236.421 334.469 236.315 335.835 236.219C334.893 236.327 333.946 236.387 332.997 236.4ZM233.787 262.704L233.776 262.715L233.797 262.704H233.787ZM215.579 272.421C215.227 272.624 214.864 272.795 214.512 273.008L214.277 273.157L215.781 272.304L215.579 272.421ZM434.043 342C432.246 342.136 430.44 341.904 428.735 341.317C427.031 340.73 425.465 339.801 424.133 338.587C420.289 334.765 416.955 330.463 414.213 325.787C412.246 323.398 411.29 320.337 411.547 317.253C411.76 316.08 412.293 315.013 412.4 313.84C412.354 314.147 412.286 314.45 412.197 314.747C404.286 307.416 395.506 301.082 386.053 295.888C385.923 296.722 385.6 297.514 385.112 298.203C384.623 298.891 383.981 299.457 383.237 299.856C380.912 300.848 378.459 299.024 377.744 295.792C377.466 294.424 377.536 293.009 377.947 291.675C358.436 282.604 337.169 277.936 315.653 278C258.491 277.083 202.468 294.039 155.408 326.501C154.128 328.315 152.827 330.107 151.621 331.952C184.521 355.981 221.331 374.137 260.421 385.616C261.281 384.991 262.323 384.667 263.385 384.694C264.448 384.721 265.472 385.098 266.299 385.765C267.19 386.355 267.955 387.116 268.549 388.005C293.021 395.077 317.908 400.624 343.067 404.613C344.384 401.703 346.519 399.239 349.211 397.52C354.789 393.947 360.848 394.843 362.736 399.536C363.175 400.832 363.351 402.203 363.252 403.568C363.153 404.932 362.782 406.264 362.16 407.483C371.664 408.784 381.36 409.893 391.045 410.896C389.119 409.425 387.546 407.542 386.442 405.385C385.338 403.227 384.732 400.849 384.667 398.427C384.59 397.551 384.737 396.67 385.093 395.867C387.44 391.813 392.027 393.093 395.547 393.307C399.976 393.803 404.438 392.707 408.133 390.213C411.867 387.547 413.893 383.173 417.413 380.187C422.427 375.707 437.787 371.12 443.547 376.24C445.954 378.617 447.542 381.7 448.08 385.04C446.543 369.852 441.755 355.174 434.043 342ZM204.859 317.051C204.147 318.344 203.033 319.369 201.685 319.972C200.338 320.574 198.83 320.721 197.392 320.389C195.045 319.44 194.597 316.411 196.325 313.627C197.037 312.334 198.151 311.308 199.499 310.706C200.846 310.103 202.354 309.956 203.792 310.288C206.203 311.227 206.651 314.267 204.859 317.051ZM345.424 329.2C339.845 332.773 333.787 331.877 331.899 327.184C331.234 324.307 331.526 321.292 332.731 318.597C333.937 315.901 335.989 313.673 338.576 312.251C344.155 308.677 350.213 309.573 352.101 314.267C352.766 317.143 352.474 320.158 351.269 322.854C350.063 325.549 348.011 327.777 345.424 329.2ZM369.797 373.488C366.921 374.153 363.906 373.861 361.21 372.655C358.515 371.45 356.287 369.398 354.864 366.811C351.291 361.232 352.187 355.173 356.88 353.285C359.757 352.62 362.772 352.913 365.467 354.118C368.163 355.323 370.391 357.375 371.813 359.963C375.387 365.467 374.491 371.547 369.797 373.435V373.488ZM407.525 359.771C406.813 361.064 405.699 362.089 404.352 362.692C403.004 363.294 401.497 363.441 400.059 363.109C397.712 362.16 397.264 359.131 399.045 356.347C399.757 355.054 400.871 354.028 402.219 353.426C403.566 352.823 405.074 352.676 406.512 353.008C408.869 353.893 409.317 356.933 407.525 359.717V359.771ZM448.539 393.115C448.316 396.834 447.22 400.448 445.339 403.664C442.024 408.289 437.313 411.728 431.899 413.477C431.045 413.765 430.139 413.872 429.275 414.107C434.459 414.437 439.643 414.768 444.88 415.035L446.917 415.109C448.022 408.574 448.607 401.961 448.667 395.333C448.667 394.587 448.56 393.861 448.539 393.115ZM474.555 414.533C474.224 415.077 473.84 415.6 473.488 416.123H473.691C474.032 415.6 474.267 415.024 474.555 414.533Z" fill="#F5C056"/>
<path d="M335.835 236.24C338.672 236.027 341.509 235.835 344.368 235.696C341.499 235.824 338.672 236.037 335.835 236.24ZM154.96 326.8L155.408 326.501C156.144 325.435 156.816 324.368 157.541 323.376C156.72 324.528 155.781 325.637 154.96 326.8ZM157.691 323.227C159.732 320.489 161.865 317.794 164.091 315.141C161.851 317.787 159.739 320.496 157.691 323.227ZM254.469 253.904C256.709 253.051 258.992 252.261 261.275 251.461C266.252 249.733 271.323 248.137 276.485 246.672C284.207 244.465 292.027 242.618 299.92 241.136C302.725 240.592 305.509 239.995 308.357 239.525C313.978 238.631 319.623 237.899 325.285 237.328C327.419 237.093 329.552 236.816 331.749 236.592C297.786 239.309 264.597 248.167 233.797 262.736C235.387 261.968 236.997 261.275 238.672 260.539C243.867 258.16 249.061 255.941 254.469 253.904ZM382.288 237.328C383.568 237.541 384.869 237.701 386.139 237.947C389.339 238.555 392.539 239.301 395.739 240.08C397.872 240.635 400.005 241.264 402.139 241.915C391.806 238.728 381.153 236.689 370.373 235.835C374.364 236.164 378.339 236.662 382.288 237.328ZM214.288 273.157C201.87 280.562 190.24 289.215 179.579 298.981C188.224 291.162 197.5 284.07 207.312 277.776C209.733 276.261 211.867 274.619 214.288 273.157ZM172.688 305.733C170.224 308.251 167.888 310.843 165.616 313.456C167.877 310.811 170.235 308.236 172.688 305.733Z" fill="#FCD579"/>
<path d="M479.493 405.125C480.219 403.611 481.019 402.139 481.627 400.592C483.088 397.147 484.283 393.563 485.424 389.925C485.904 388.421 486.491 386.96 486.907 385.424C487.973 381.595 488.667 377.637 489.339 373.691C489.584 372.24 489.968 370.853 490.16 369.424C490.916 363.87 491.308 358.272 491.333 352.667C491.333 349.563 491.077 346.512 490.811 343.472C490.619 341.483 490.384 339.499 490.107 337.52C489.464 333.2 488.548 328.925 487.365 324.72C487.292 324.452 487.214 324.185 487.131 323.92C485.99 319.933 484.619 316.015 483.024 312.187L482.704 311.429C471.565 286.309 452.278 265.681 427.963 252.88C420.728 248.961 413.165 245.681 405.36 243.077C399.061 240.924 392.612 239.241 386.064 238.043C384.795 237.797 383.493 237.637 382.213 237.424C379.468 236.97 376.707 236.614 373.936 236.357C372.699 236.229 371.461 236.101 370.213 236.005C366.232 235.671 362.24 235.493 358.245 235.472C349.375 235.51 340.51 235.919 331.675 236.699C329.541 236.923 327.408 237.2 325.211 237.435C319.504 238.043 313.84 238.715 308.283 239.632C305.435 240.101 302.651 240.699 299.845 241.243C294.619 242.309 289.445 243.376 284.368 244.645C281.691 245.328 279.035 246.064 276.411 246.779C271.248 248.251 266.178 249.847 261.2 251.568C258.917 252.368 256.635 253.157 254.395 254.011C248.987 256.048 243.728 258.277 238.597 260.613C236.976 261.349 235.312 262.043 233.723 262.811C227.515 265.797 221.52 268.997 215.739 272.411L214.235 273.264C211.824 274.725 209.637 276.368 207.301 277.883C197.49 284.177 188.214 291.269 179.568 299.088C177.214 301.268 174.916 303.509 172.677 305.808C170.224 308.332 167.867 310.907 165.605 313.531C165.104 314.107 164.539 314.661 164.08 315.248C161.847 317.893 159.714 320.588 157.68 323.333L157.563 323.483C156.805 324.549 156.133 325.616 155.429 326.608C202.471 294.113 258.486 277.119 315.653 278C337.169 277.936 358.436 282.604 377.947 291.675C378.17 290.905 378.532 290.182 379.013 289.541L379.077 289.445C379.502 288.858 380.072 288.392 380.731 288.091C383.045 287.099 385.509 288.923 386.213 292.165C386.457 293.381 386.42 294.636 386.107 295.835C395.559 301.029 404.339 307.362 412.251 314.693C412.339 314.396 412.407 314.093 412.453 313.787C413.413 308.133 407.12 304.827 406.16 299.173C405.945 297.82 406.036 296.436 406.428 295.123C406.82 293.81 407.502 292.601 408.424 291.588C409.345 290.574 410.483 289.78 411.753 289.265C413.023 288.75 414.392 288.528 415.76 288.613C418.974 288.903 422.09 289.87 424.903 291.451C427.716 293.032 430.162 295.191 432.08 297.787C440.78 307.03 446.535 318.651 448.613 331.173C448.853 332.785 448.707 334.43 448.187 335.973C447.556 337.202 446.492 338.152 445.2 338.64C441.766 340.497 437.986 341.622 434.096 341.947C441.808 355.12 446.596 369.799 448.133 384.987C448.666 387.64 448.82 390.354 448.592 393.051C448.592 393.797 448.72 394.523 448.72 395.269C448.667 401.893 448.089 408.502 446.992 415.035C455.788 415.461 464.645 415.796 473.563 416.037C473.893 415.504 474.277 414.971 474.629 414.448C476.4 411.483 477.968 408.325 479.493 405.125ZM439.067 280.571C437.503 283.077 435.164 285.005 432.405 286.06C429.646 287.115 426.618 287.24 423.781 286.416C417.307 284.997 413.669 280.08 415.643 275.429C417.206 272.923 419.545 270.995 422.304 269.94C425.063 268.885 428.091 268.76 430.928 269.584C437.381 271.003 441.019 275.92 439.067 280.571ZM466.032 330.811C468.347 329.819 470.811 331.643 471.515 334.885C471.928 336.303 471.866 337.817 471.338 339.196C470.811 340.575 469.846 341.743 468.592 342.523C466.267 343.515 463.813 341.691 463.099 338.459C462.687 337.041 462.749 335.527 463.274 334.147C463.799 332.767 464.76 331.596 466.011 330.811H466.032ZM464.08 384.389C461.733 383.44 461.285 380.411 463.067 377.627C463.778 376.334 464.893 375.308 466.24 374.706C467.588 374.103 469.095 373.956 470.533 374.288C472.88 375.227 473.328 378.256 471.536 381.051C470.823 382.346 469.708 383.373 468.358 383.975C467.008 384.578 465.498 384.723 464.059 384.389H464.08Z" fill="#FCD579"/>
<path d="M430.907 269.584C428.07 268.76 425.042 268.885 422.283 269.94C419.524 270.995 417.185 272.923 415.621 275.429C413.648 280.08 417.285 285.029 423.76 286.416C426.597 287.24 429.625 287.115 432.384 286.06C435.143 285.005 437.482 283.077 439.045 280.571C441.019 275.92 437.381 271.003 430.907 269.584ZM464.059 384.389C465.497 384.721 467.004 384.574 468.352 383.972C469.699 383.369 470.814 382.344 471.525 381.051C473.317 378.256 472.869 375.227 470.523 374.288C469.084 373.956 467.577 374.103 466.23 374.706C464.882 375.308 463.768 376.334 463.056 377.627C461.264 380.4 461.712 383.44 464.059 384.389ZM468.571 342.523C469.825 341.743 470.79 340.575 471.317 339.196C471.845 337.817 471.907 336.303 471.493 334.885C470.789 331.685 468.293 329.819 466.011 330.811C464.756 331.593 463.791 332.763 463.262 334.143C462.733 335.523 462.668 337.038 463.077 338.459C463.792 341.691 466.245 343.515 468.571 342.523ZM386.16 292.219C385.456 289.019 382.96 287.152 380.677 288.144C379.994 288.5 379.396 289 378.925 289.61C378.454 290.219 378.12 290.924 377.947 291.675C380.731 292.976 383.397 294.427 386.053 295.888C386.367 294.689 386.404 293.434 386.16 292.219Z" fill="#F5C056"/>
<path d="M338.009 60.784C344.882 53.9108 342.697 40.5822 333.129 31.0139C323.56 21.4455 310.232 19.2607 303.358 26.1339C296.485 33.0071 298.67 46.3357 308.238 55.904C317.807 65.4724 331.135 67.6572 338.009 60.784Z" fill="#F6FAFD"/>
<path d="M436.009 94.8284C439.446 91.3918 438.355 84.7292 433.573 79.9471C428.791 75.165 422.128 74.0742 418.692 77.5109C415.255 80.9475 416.346 87.6101 421.128 92.3922C425.91 97.1743 432.573 98.265 436.009 94.8284Z" fill="#F6FAFD"/>
<path d="M354.314 31.7928C356.034 30.0724 355.491 26.7394 353.1 24.3483C350.709 21.9573 347.376 21.4136 345.655 23.134C343.935 24.8544 344.479 28.1874 346.87 30.5784C349.261 32.9695 352.594 33.5131 354.314 31.7928Z" fill="#F6FAFD"/>
<path d="M380.606 295.497C387.479 288.624 385.294 275.295 375.726 265.727C366.158 256.159 352.829 253.974 345.956 260.847C339.083 267.72 341.267 281.049 350.836 290.617C360.404 300.185 373.733 302.37 380.606 295.497Z" fill="#F6FAFD"/>
<path d="M403.953 276.176C407.39 272.739 406.299 266.077 401.517 261.295C396.735 256.513 390.072 255.422 386.636 258.859C383.199 262.295 384.29 268.958 389.072 273.74C393.854 278.522 400.517 279.613 403.953 276.176Z" fill="#F6FAFD"/>
<path d="M332.899 266.476C334.62 264.755 334.076 261.422 331.685 259.031C329.294 256.64 325.961 256.096 324.241 257.817C322.52 259.537 323.064 262.87 325.455 265.261C327.846 267.652 331.179 268.196 332.899 266.476Z" fill="#F6FAFD"/>
</svg>
