<svg width="492" height="492" viewBox="0 0 492 492" fill="none" xmlns="http://www.w3.org/2000/svg">
<path d="M341.68 299.333C334.964 290.46 331.331 279.635 331.333 268.507C331.265 278.744 328.198 288.736 322.51 297.249C316.823 305.761 308.765 312.419 299.333 316.4C292.567 319.194 285.321 320.643 278 320.667C266.464 320.644 255.242 316.904 246 310C236.758 316.904 225.536 320.644 214 320.667C206.679 320.643 199.433 319.194 192.667 316.4C183.235 312.419 175.177 305.761 169.49 297.249C163.802 288.736 160.735 278.744 160.667 268.507C160.669 279.635 157.036 290.46 150.32 299.333C143.576 308.289 134.19 314.902 123.487 318.24C112.784 321.577 101.304 321.471 90.664 317.936C80.0245 314.402 70.7628 307.617 64.1849 298.538C57.607 289.459 54.0446 278.545 54.0001 267.333C47.1375 267.538 40.3028 266.376 33.8933 263.915C27.4838 261.454 21.6275 257.744 16.6648 253C11.7021 248.255 7.73216 242.572 4.98571 236.279C2.23927 229.987 0.771157 223.211 0.666748 216.347C0.827115 202.359 6.53506 189.007 16.536 179.226C26.5368 169.445 40.0122 164.036 54.0001 164.187C56.6149 164.254 59.2194 164.539 61.7868 165.04C56.7695 156.966 54.0752 147.665 54.0001 138.16C54.1604 124.172 59.8684 110.821 69.8693 101.04C79.8702 91.2588 93.3455 85.8492 107.333 86L109.253 87.8133C101.17 96.2521 96.6606 107.488 96.6668 119.173C96.9798 132.073 102.403 144.32 111.745 153.221C121.086 162.123 133.58 166.949 146.48 166.64C146.81 179.506 152.227 191.716 161.545 200.593C170.863 209.471 183.32 214.292 196.187 214C223.707 214 246 186.8 246 160.667C246 186.8 268.293 214 295.813 214C308.68 214.292 321.137 209.471 330.455 200.593C339.773 191.716 345.19 179.506 345.52 166.64C358.42 166.949 370.914 162.123 380.255 153.221C389.597 144.32 395.02 132.073 395.333 119.173C395.34 107.488 390.83 96.2521 382.747 87.8133L384.667 86C398.655 85.8492 412.13 91.2588 422.131 101.04C432.132 110.821 437.84 124.172 438 138.16C437.925 147.665 435.231 156.966 430.213 165.04C432.781 164.539 435.385 164.254 438 164.187C451.988 164.036 465.463 169.445 475.464 179.226C485.465 189.007 491.173 202.359 491.333 216.347C491.229 223.211 489.761 229.987 487.014 236.279C484.268 242.572 480.298 248.255 475.335 253C470.373 257.744 464.516 261.454 458.107 263.915C451.697 266.376 444.863 267.538 438 267.333C437.956 278.545 434.393 289.459 427.815 298.538C421.237 307.617 411.976 314.402 401.336 317.936C390.697 321.471 379.216 321.577 368.513 318.24C357.81 314.902 348.425 308.289 341.68 299.333Z" fill="#007700"/>
<path d="M382.747 87.8133C390.83 96.2521 395.34 107.488 395.333 119.173C395.02 132.073 389.597 144.32 380.255 153.221C370.914 162.123 358.42 166.949 345.52 166.64C345.19 179.506 339.773 191.716 330.455 200.593C321.137 209.471 308.68 214.292 295.813 214C268.293 214 246 186.8 246 160.667C246 186.8 223.707 214 196.187 214C183.32 214.292 170.863 209.471 161.545 200.593C152.227 191.716 146.81 179.506 146.48 166.64C133.58 166.949 121.086 162.123 111.745 153.221C102.403 144.32 96.9798 132.073 96.6668 119.173C96.6606 107.488 101.17 96.2521 109.253 87.8133C114.02 82.7234 119.787 78.6745 126.194 75.921C132.6 73.1675 139.507 71.769 146.48 71.8133C148.91 71.863 151.333 72.0768 153.733 72.4533C149.057 65.1596 146.542 56.6905 146.48 48.0267C146.81 35.161 152.227 22.9511 161.545 14.0734C170.863 5.19561 183.32 0.374424 196.187 0.666656C204.072 0.082315 211.959 1.78393 218.902 5.56764C225.845 9.35134 231.55 15.0566 235.333 22H256.667C260.45 15.0566 266.155 9.35134 273.098 5.56764C280.041 1.78393 287.928 0.082315 295.813 0.666656C308.68 0.374424 321.137 5.19561 330.455 14.0734C339.773 22.9511 345.19 35.161 345.52 48.0267C345.458 56.6905 342.943 65.1596 338.267 72.4533C340.667 72.0768 343.091 71.863 345.52 71.8133C352.493 71.769 359.4 73.1675 365.806 75.921C372.213 78.6745 377.98 82.7234 382.747 87.8133Z" fill="#00AC0D"/>
<path d="M331.333 268.507C331.331 279.635 334.964 290.46 341.68 299.333C332.575 299.776 323.757 302.665 316.155 307.696C308.553 312.726 302.447 319.713 298.48 327.92C299.033 325.541 299.319 323.109 299.333 320.667V316.4C308.765 312.419 316.823 305.761 322.51 297.249C328.198 288.736 331.265 278.744 331.333 268.507Z" fill="#024402"/>
<path d="M299.333 316.4V320.667C299.319 323.109 299.033 325.541 298.48 327.92C296.015 332.103 293.841 336.451 291.973 340.933C292.08 341.04 291.973 341.04 291.867 341.147C288.888 344.767 285.141 347.678 280.898 349.671C276.655 351.664 272.021 352.687 267.333 352.667C255.493 352.667 246 347.867 246 342C246 347.867 236.507 352.667 224.667 352.667C219.979 352.687 215.345 351.664 211.102 349.671C206.859 347.678 203.112 344.767 200.133 341.147C200.027 341.04 199.92 341.04 200.027 340.933C198.159 336.451 195.985 332.103 193.52 327.92C192.967 325.541 192.681 323.109 192.667 320.667V316.4C199.433 319.194 206.679 320.643 214 320.667C225.536 320.644 236.758 316.904 246 310C255.242 316.904 266.464 320.644 278 320.667C285.321 320.643 292.567 319.194 299.333 316.4Z" fill="#024402"/>
<path d="M267.334 352.667C272.021 352.687 276.655 351.663 280.898 349.671C285.142 347.678 288.888 344.767 291.867 341.147C283.786 362.225 279.28 384.505 278.534 407.067C278.261 412.519 275.908 417.66 271.959 421.43C268.01 425.2 262.766 427.313 257.307 427.333H234.694C229.234 427.313 223.99 425.2 220.042 421.43C216.093 417.66 213.74 412.519 213.467 407.067C212.72 384.505 208.214 362.225 200.134 341.147C203.112 344.767 206.859 347.678 211.102 349.671C215.346 351.663 219.979 352.687 224.667 352.667C236.507 352.667 246 347.867 246 342C246 347.867 255.494 352.667 267.334 352.667Z" fill="#ECFCEF"/>
<path d="M341.68 299.333C332.575 299.776 323.758 302.665 316.155 307.696C308.553 312.726 302.447 319.713 298.48 327.92C296.015 332.103 293.841 336.451 291.973 340.933C292.08 341.04 291.973 341.04 291.867 341.147C283.786 362.225 279.28 384.505 278.533 407.067C278.261 412.519 275.908 417.66 271.959 421.43C268.01 425.2 262.766 427.313 257.307 427.333H234.694C229.234 427.313 223.99 425.2 220.041 421.43C216.093 417.66 213.74 412.519 213.467 407.067C212.72 384.505 208.214 362.225 200.134 341.147C200.027 341.04 199.92 341.04 200.027 340.933C198.159 336.451 195.985 332.103 193.52 327.92C189.553 319.713 183.447 312.726 175.845 307.696C168.243 302.665 159.425 299.776 150.32 299.333C145.306 305.986 138.81 311.377 131.348 315.081C123.886 318.784 115.664 320.697 107.333 320.667C132.507 320.667 153.627 376.347 159.173 451.333C159.894 462.147 164.685 472.286 172.582 479.708C180.479 487.131 190.896 491.284 201.734 491.333H290.267C301.104 491.284 311.521 487.131 319.418 479.708C327.315 472.286 332.107 462.147 332.827 451.333C338.373 376.347 359.494 320.667 384.667 320.667C376.337 320.697 368.114 318.784 360.652 315.081C353.19 311.377 346.694 305.986 341.68 299.333Z" fill="#00CE23"/>
<path d="M193.52 327.92C189.553 319.713 183.447 312.726 175.845 307.696C168.243 302.665 159.425 299.776 150.32 299.333C157.036 290.46 160.669 279.635 160.667 268.507C160.735 278.744 163.802 288.736 169.49 297.249C175.177 305.761 183.235 312.419 192.667 316.4V320.667C192.681 323.109 192.967 325.541 193.52 327.92Z" fill="#024402"/>
<path d="M341.68 299.333C334.964 290.46 331.331 279.635 331.333 268.507C331.265 278.744 328.198 288.736 322.51 297.249C316.823 305.761 308.765 312.419 299.333 316.4C292.567 319.194 285.321 320.643 278 320.667C266.464 320.644 255.242 316.904 246 310C236.758 316.904 225.536 320.644 214 320.667C206.679 320.643 199.433 319.194 192.667 316.4C183.235 312.419 175.177 305.761 169.49 297.249C163.802 288.736 160.735 278.744 160.667 268.507C160.669 279.635 157.036 290.46 150.32 299.333C143.576 308.289 134.19 314.902 123.487 318.24C112.784 321.577 101.304 321.471 90.664 317.936C80.0245 314.402 70.7628 307.617 64.1849 298.538C57.607 289.459 54.0446 278.545 54.0001 267.333C47.1375 267.538 40.3028 266.376 33.8933 263.915C27.4838 261.454 21.6275 257.744 16.6648 253C11.7021 248.255 7.73216 242.572 4.98571 236.279C2.23927 229.987 0.771157 223.211 0.666748 216.347C0.827115 202.359 6.53506 189.007 16.536 179.226C26.5368 169.445 40.0122 164.036 54.0001 164.187C56.6149 164.254 59.2194 164.539 61.7868 165.04C56.7695 156.966 54.0752 147.665 54.0001 138.16C54.1604 124.172 59.8684 110.821 69.8693 101.04C79.8702 91.2588 93.3455 85.8492 107.333 86L109.253 87.8133C101.17 96.2521 96.6606 107.488 96.6668 119.173C96.9798 132.073 102.403 144.32 111.745 153.221C121.086 162.123 133.58 166.949 146.48 166.64C146.81 179.506 152.227 191.716 161.545 200.593C170.863 209.471 183.32 214.292 196.187 214C223.707 214 246 186.8 246 160.667C246 186.8 268.293 214 295.813 214C308.68 214.292 321.137 209.471 330.455 200.593C339.773 191.716 345.19 179.506 345.52 166.64C358.42 166.949 370.914 162.123 380.255 153.221C389.597 144.32 395.02 132.073 395.333 119.173C395.34 107.488 390.83 96.2521 382.747 87.8133L384.667 86C398.655 85.8492 412.13 91.2588 422.131 101.04C432.132 110.821 437.84 124.172 438 138.16C437.925 147.665 435.231 156.966 430.213 165.04C432.781 164.539 435.385 164.254 438 164.187C451.988 164.036 465.463 169.445 475.464 179.226C485.465 189.007 491.173 202.359 491.333 216.347C491.229 223.211 489.761 229.987 487.014 236.279C484.268 242.572 480.298 248.255 475.335 253C470.373 257.744 464.516 261.454 458.107 263.915C451.697 266.376 444.863 267.538 438 267.333C437.956 278.545 434.393 289.459 427.815 298.538C421.237 307.617 411.976 314.402 401.336 317.936C390.697 321.471 379.216 321.577 368.513 318.24C357.81 314.902 348.425 308.289 341.68 299.333Z" fill="#007700"/>
<path d="M469.029 174.085C469.668 177.469 469.993 180.904 470 184.347C470.2 190.904 469.094 197.436 466.747 203.563C464.399 209.689 460.857 215.287 456.325 220.032C451.794 224.777 446.365 228.573 440.353 231.2C434.341 233.827 427.867 235.232 421.307 235.333C421.78 248.826 416.947 261.966 407.844 271.937C398.741 281.907 386.093 287.913 372.613 288.667C364.825 288.59 357.175 286.605 350.331 282.886C343.488 279.167 337.661 273.827 333.36 267.333C327.162 258.252 323.866 247.502 323.909 236.507C324.053 246.433 321.386 256.197 316.217 264.672C311.047 273.146 303.585 279.986 294.693 284.4C288.575 287.18 281.937 288.634 275.216 288.667C264.538 288.591 254.215 284.822 246 278C237.785 284.822 227.462 288.591 216.784 288.667C210.063 288.634 203.425 287.18 197.307 284.4C188.423 279.98 180.97 273.138 175.808 264.664C170.646 256.189 167.986 246.428 168.133 236.507C168.164 247.507 164.854 258.256 158.64 267.333C154.339 273.827 148.512 279.167 141.669 282.886C134.825 286.605 127.175 288.59 119.387 288.667C105.907 287.913 93.2593 281.907 84.1564 271.937C75.0535 261.966 70.2202 248.826 70.6934 235.333C64.1334 235.232 57.6591 233.827 51.6472 231.2C45.6353 228.573 40.2058 224.777 35.6746 220.032C31.1434 215.287 27.6009 209.689 25.2533 203.563C22.9057 197.436 21.7998 190.904 22 184.347C22.0068 180.904 22.3317 177.469 22.9707 174.085C13.7943 180.347 6.90882 189.43 3.35756 199.956C-0.193711 210.483 -0.217291 221.88 3.29039 232.421C6.79807 242.962 13.6459 252.073 22.7963 258.373C31.9467 264.672 42.9012 267.818 54 267.333C54.0445 278.545 57.6069 289.459 64.1848 298.538C70.7628 307.617 80.0245 314.402 90.664 317.936C101.304 321.471 112.784 321.577 123.487 318.24C134.19 314.902 143.576 308.289 150.32 299.333C157.036 290.46 160.669 279.635 160.667 268.507C160.735 278.744 163.802 288.736 169.49 297.249C175.177 305.761 183.235 312.419 192.667 316.4C199.433 319.194 206.679 320.643 214 320.667C225.536 320.645 236.758 316.904 246 310C255.242 316.904 266.464 320.645 278 320.667C285.321 320.643 292.567 319.194 299.333 316.4C308.765 312.419 316.823 305.761 322.51 297.249C328.198 288.736 331.265 278.744 331.333 268.507C331.331 279.635 334.964 290.46 341.68 299.333C348.425 308.289 357.81 314.902 368.513 318.24C379.216 321.577 390.697 321.471 401.336 317.936C411.976 314.402 421.237 307.617 427.815 298.538C434.393 289.459 437.956 278.545 438 267.333C449.099 267.818 460.053 264.672 469.204 258.373C478.354 252.073 485.202 242.962 488.71 232.421C492.217 221.88 492.194 210.483 488.642 199.956C485.091 189.43 478.206 180.347 469.029 174.085Z" fill="#016601"/>
<path d="M382.747 87.8133C390.83 96.2521 395.34 107.488 395.333 119.173C395.02 132.073 389.597 144.32 380.255 153.221C370.914 162.123 358.42 166.949 345.52 166.64C345.19 179.506 339.773 191.716 330.455 200.593C321.137 209.471 308.68 214.292 295.813 214C268.293 214 246 186.8 246 160.667C246 186.8 223.707 214 196.187 214C183.32 214.292 170.863 209.471 161.545 200.593C152.227 191.716 146.81 179.506 146.48 166.64C133.58 166.949 121.086 162.123 111.745 153.221C102.403 144.32 96.9798 132.073 96.6668 119.173C96.6606 107.488 101.17 96.2521 109.253 87.8133C114.02 82.7234 119.787 78.6745 126.194 75.921C132.6 73.1675 139.507 71.769 146.48 71.8133C148.91 71.863 151.333 72.0768 153.733 72.4533C149.057 65.1596 146.542 56.6905 146.48 48.0267C146.81 35.161 152.227 22.9511 161.545 14.0734C170.863 5.19561 183.32 0.374424 196.187 0.666656C204.072 0.082315 211.959 1.78393 218.902 5.56764C225.845 9.35134 231.55 15.0566 235.333 22H256.667C260.45 15.0566 266.155 9.35134 273.098 5.56764C280.041 1.78393 287.928 0.082315 295.813 0.666656C308.68 0.374424 321.137 5.19561 330.455 14.0734C339.773 22.9511 345.19 35.161 345.52 48.0267C345.458 56.6905 342.943 65.1596 338.267 72.4533C340.667 72.0768 343.091 71.863 345.52 71.8133C352.493 71.769 359.4 73.1675 365.806 75.921C372.213 78.6745 377.98 82.7234 382.747 87.8133Z" fill="#00AC0D"/>
<path d="M331.333 83.184C329.252 83.2239 327.175 83.3949 325.115 83.696C329.094 77.9502 331.26 71.1436 331.333 64.1547C330.652 53.4903 325.787 43.5265 317.796 36.431C309.806 29.3355 299.337 25.6825 288.667 26.2667C282.046 25.7262 275.405 27.0358 269.486 30.0494C263.566 33.0629 258.6 37.662 255.141 43.3333H236.859C233.4 37.662 228.434 33.0629 222.514 30.0494C216.595 27.0358 209.954 25.7262 203.333 26.2667C192.663 25.6825 182.194 29.3355 174.204 36.431C166.213 43.5265 161.348 53.4903 160.667 64.1547C160.74 71.1436 162.906 77.9502 166.885 83.696C164.825 83.3949 162.748 83.2239 160.667 83.184C154.766 83.1105 148.909 84.2035 143.432 86.4001C137.955 88.5967 132.967 91.8537 128.752 95.984C125.371 99.2326 122.677 103.127 120.83 107.437C118.983 111.747 118.021 116.383 118 121.072C118.66 131.752 123.516 141.737 131.509 148.851C139.501 155.964 149.983 159.629 160.667 159.045C161.348 169.71 166.213 179.673 174.204 186.769C182.194 193.864 192.663 197.517 203.333 196.933C214.506 196.486 225.101 191.848 233.008 183.941C240.914 176.034 245.553 165.44 246 154.267C246.447 165.44 251.086 176.034 258.992 183.941C266.899 191.848 277.494 196.486 288.667 196.933C299.337 197.517 309.806 193.864 317.796 186.769C325.787 179.673 330.652 169.71 331.333 159.045C342.017 159.629 352.499 155.964 360.492 148.851C368.484 141.737 373.34 131.752 374 121.072C373.975 116.381 373.008 111.743 371.155 107.433C369.303 103.123 366.603 99.2299 363.216 95.984C359.005 91.8576 354.022 88.6028 348.55 86.4063C343.079 84.2098 337.228 83.1148 331.333 83.184Z" fill="#00CE23"/>
<path d="M331.333 268.507C331.331 279.635 334.964 290.46 341.68 299.333C332.575 299.776 323.757 302.665 316.155 307.696C308.553 312.726 302.447 319.713 298.48 327.92C299.033 325.541 299.319 323.109 299.333 320.667V316.4C308.765 312.419 316.823 305.761 322.51 297.249C328.198 288.736 331.265 278.744 331.333 268.507Z" fill="#024402"/>
<path d="M299.333 316.4V320.667C299.319 323.109 299.033 325.541 298.48 327.92C296.015 332.103 293.841 336.451 291.973 340.933C292.08 341.04 291.973 341.04 291.867 341.147C288.888 344.767 285.141 347.678 280.898 349.671C276.655 351.664 272.021 352.687 267.333 352.667C255.493 352.667 246 347.867 246 342C246 347.867 236.507 352.667 224.667 352.667C219.979 352.687 215.345 351.664 211.102 349.671C206.859 347.678 203.112 344.767 200.133 341.147C200.027 341.04 199.92 341.04 200.027 340.933C198.159 336.451 195.985 332.103 193.52 327.92C192.967 325.541 192.681 323.109 192.667 320.667V316.4C199.433 319.194 206.679 320.643 214 320.667C225.536 320.644 236.758 316.904 246 310C255.242 316.904 266.464 320.644 278 320.667C285.321 320.643 292.567 319.194 299.333 316.4Z" fill="#024402"/>
<path d="M267.334 352.667C272.021 352.687 276.655 351.663 280.898 349.671C285.142 347.678 288.888 344.767 291.867 341.147C283.786 362.225 279.28 384.505 278.534 407.067C278.261 412.519 275.908 417.66 271.959 421.43C268.01 425.2 262.766 427.313 257.307 427.333H234.694C229.234 427.313 223.99 425.2 220.042 421.43C216.093 417.66 213.74 412.519 213.467 407.067C212.72 384.505 208.214 362.225 200.134 341.147C203.112 344.767 206.859 347.678 211.102 349.671C215.346 351.663 219.979 352.687 224.667 352.667C236.507 352.667 246 347.867 246 342C246 347.867 255.494 352.667 267.334 352.667Z" fill="#ECFCEF"/>
<path d="M341.68 299.333C332.575 299.776 323.758 302.665 316.155 307.696C308.553 312.726 302.447 319.713 298.48 327.92C296.015 332.103 293.841 336.451 291.973 340.933C292.08 341.04 291.973 341.04 291.867 341.147C283.786 362.225 279.28 384.505 278.533 407.067C278.261 412.519 275.908 417.66 271.959 421.43C268.01 425.2 262.766 427.313 257.307 427.333H234.694C229.234 427.313 223.99 425.2 220.041 421.43C216.093 417.66 213.74 412.519 213.467 407.067C212.72 384.505 208.214 362.225 200.134 341.147C200.027 341.04 199.92 341.04 200.027 340.933C198.159 336.451 195.985 332.103 193.52 327.92C189.553 319.713 183.447 312.726 175.845 307.696C168.243 302.665 159.425 299.776 150.32 299.333C145.306 305.986 138.81 311.377 131.348 315.081C123.886 318.784 115.664 320.697 107.333 320.667C132.507 320.667 153.627 376.347 159.173 451.333C159.894 462.147 164.685 472.286 172.582 479.708C180.479 487.131 190.896 491.284 201.734 491.333H290.267C301.104 491.284 311.521 487.131 319.418 479.708C327.315 472.286 332.107 462.147 332.827 451.333C338.373 376.347 359.494 320.667 384.667 320.667C376.337 320.697 368.114 318.784 360.652 315.081C353.19 311.377 346.694 305.986 341.68 299.333Z" fill="#55E072"/>
<path d="M351.6 309.179C347.871 306.352 344.535 303.041 341.68 299.333C332.575 299.776 323.758 302.665 316.155 307.696C308.553 312.726 302.447 319.713 298.48 327.92C296.015 332.103 293.841 336.451 291.973 340.933C292.08 341.04 291.973 341.04 291.867 341.147C283.786 362.225 279.28 384.505 278.533 407.067C278.261 412.519 275.908 417.66 271.959 421.43C268.01 425.2 262.766 427.313 257.307 427.333H234.694C229.234 427.313 223.99 425.2 220.041 421.43C216.093 417.66 213.74 412.519 213.467 407.067C212.72 384.505 208.214 362.225 200.134 341.147C200.027 341.04 199.92 341.04 200.027 340.933C198.159 336.451 195.985 332.103 193.52 327.92C189.553 319.713 183.447 312.726 175.845 307.696C168.243 302.665 159.425 299.776 150.32 299.333C147.455 303.043 144.108 306.354 140.368 309.179C130.958 316.606 119.322 320.653 107.333 320.667C132.507 320.667 153.627 376.347 159.173 451.333C159.894 462.147 164.685 472.286 172.582 479.708C180.479 487.131 190.896 491.284 201.734 491.333H290.267C301.104 491.284 311.521 487.131 319.418 479.708C327.315 472.286 332.107 462.147 332.827 451.333C338.373 376.347 359.494 320.667 384.667 320.667C372.667 320.66 361.019 316.613 351.6 309.179ZM319.472 430C318.022 452.507 302.533 470 283.461 470H208.539C189.499 470 173.979 452.507 172.528 430C171.108 401.319 166.707 372.864 159.397 345.093C158.727 342.696 158.917 340.14 159.933 337.868C160.949 335.595 162.727 333.75 164.961 332.651C167.194 331.552 169.742 331.268 172.162 331.85C174.582 332.431 176.723 333.841 178.214 335.835C179.302 337.257 180.368 338.704 181.413 340.176C184.421 344.548 187.095 349.141 189.413 353.915C189.285 354.021 189.414 354.021 189.552 354.139C199.417 376.07 204.986 399.689 205.958 423.717C206.805 429.933 209.977 435.597 214.834 439.568C219.692 443.538 225.873 445.52 232.134 445.115H259.973C266.225 445.506 272.393 443.518 277.239 439.549C282.085 435.579 285.249 429.924 286.096 423.717C287.067 399.689 292.636 376.07 302.502 354.139C302.64 354.021 302.768 354.021 302.64 353.915C304.958 349.141 307.633 344.548 310.64 340.176C311.685 338.676 312.752 337.228 313.84 335.835C315.331 333.841 317.471 332.431 319.892 331.85C322.312 331.268 324.859 331.552 327.093 332.651C329.326 333.75 331.105 335.595 332.121 337.868C333.137 340.14 333.326 342.696 332.656 345.093C325.329 372.862 320.91 401.317 319.472 430Z" fill="#00CE23"/>
<path d="M193.52 327.92C189.553 319.713 183.447 312.726 175.845 307.696C168.243 302.665 159.425 299.776 150.32 299.333C157.036 290.46 160.669 279.635 160.667 268.507C160.735 278.744 163.802 288.736 169.49 297.249C175.177 305.761 183.235 312.419 192.667 316.4V320.667C192.681 323.109 192.967 325.541 193.52 327.92Z" fill="#024402"/>
<path d="M331.333 139.333C343.115 139.333 352.667 129.782 352.667 118C352.667 106.218 343.115 96.6667 331.333 96.6667C319.551 96.6667 310 106.218 310 118C310 129.782 319.551 139.333 331.333 139.333Z" fill="#00AC0D"/>
<path d="M299.333 86C311.115 86 320.667 76.4487 320.667 64.6667C320.667 52.8846 311.115 43.3333 299.333 43.3333C287.551 43.3333 278 52.8846 278 64.6667C278 76.4487 287.551 86 299.333 86Z" fill="#00AC0D"/>
<path d="M235.333 86C241.224 86 246 81.2244 246 75.3333C246 69.4423 241.224 64.6667 235.333 64.6667C229.442 64.6667 224.667 69.4423 224.667 75.3333C224.667 81.2244 229.442 86 235.333 86Z" fill="#00AC0D"/>
<path d="M224.667 150C230.558 150 235.333 145.224 235.333 139.333C235.333 133.442 230.558 128.667 224.667 128.667C218.776 128.667 214 133.442 214 139.333C214 145.224 218.776 150 224.667 150Z" fill="#00AC0D"/>
<path d="M363.333 139.333C369.224 139.333 374 134.558 374 128.667C374 122.776 369.224 118 363.333 118C357.442 118 352.667 122.776 352.667 128.667C352.667 134.558 357.442 139.333 363.333 139.333Z" fill="#00AC0D"/>
<path d="M171.333 54C177.224 54 182 49.2244 182 43.3333C182 37.4423 177.224 32.6667 171.333 32.6667C165.442 32.6667 160.667 37.4423 160.667 43.3333C160.667 49.2244 165.442 54 171.333 54Z" fill="#008906"/>
<path d="M288.667 43.3333C294.558 43.3333 299.333 38.5577 299.333 32.6667C299.333 26.7756 294.558 22 288.667 22C282.776 22 278 26.7756 278 32.6667C278 38.5577 282.776 43.3333 288.667 43.3333Z" fill="#008906"/>
<path d="M214 128.667C219.891 128.667 224.667 123.891 224.667 118C224.667 112.109 219.891 107.333 214 107.333C208.109 107.333 203.333 112.109 203.333 118C203.333 123.891 208.109 128.667 214 128.667Z" fill="#008906"/>
<path d="M288.667 107.333C294.558 107.333 299.333 102.558 299.333 96.6667C299.333 90.7756 294.558 86 288.667 86C282.776 86 278 90.7756 278 96.6667C278 102.558 282.776 107.333 288.667 107.333Z" fill="#008906"/>
<path d="M288.667 192.667C294.558 192.667 299.333 187.891 299.333 182C299.333 176.109 294.558 171.333 288.667 171.333C282.776 171.333 278 176.109 278 182C278 187.891 282.776 192.667 288.667 192.667Z" fill="#008906"/>
<path d="M150 150C155.891 150 160.667 145.224 160.667 139.333C160.667 133.442 155.891 128.667 150 128.667C144.109 128.667 139.333 133.442 139.333 139.333C139.333 145.224 144.109 150 150 150Z" fill="#00AC0D"/>
<path d="M299.333 171.333C311.115 171.333 320.667 161.782 320.667 150C320.667 138.218 311.115 128.667 299.333 128.667C287.551 128.667 278 138.218 278 150C278 161.782 287.551 171.333 299.333 171.333Z" fill="#008906"/>
<path d="M192.667 182C204.449 182 214 172.449 214 160.667C214 148.885 204.449 139.333 192.667 139.333C180.885 139.333 171.333 148.885 171.333 160.667C171.333 172.449 180.885 182 192.667 182Z" fill="#008906"/>
<path d="M139.333 128.667C151.115 128.667 160.667 119.115 160.667 107.333C160.667 95.5513 151.115 86 139.333 86C127.551 86 118 95.5513 118 107.333C118 119.115 127.551 128.667 139.333 128.667Z" fill="#008906"/>
<path d="M171.333 128.667C183.115 128.667 192.667 119.115 192.667 107.333C192.667 95.5513 183.115 86 171.333 86C159.551 86 150 95.5513 150 107.333C150 119.115 159.551 128.667 171.333 128.667Z" fill="#00AC0D"/>
<path d="M256.667 139.333C268.449 139.333 278 129.782 278 118C278 106.218 268.449 96.6667 256.667 96.6667C244.885 96.6667 235.333 106.218 235.333 118C235.333 129.782 244.885 139.333 256.667 139.333Z" fill="#00AC0D"/>
<path d="M203.333 75.3333C215.115 75.3333 224.667 65.7821 224.667 54C224.667 42.2179 215.115 32.6667 203.333 32.6667C191.551 32.6667 182 42.2179 182 54C182 65.7821 191.551 75.3333 203.333 75.3333Z" fill="#008906"/>
<path d="M438 214C449.782 214 459.333 204.449 459.333 192.667C459.333 180.885 449.782 171.333 438 171.333C426.218 171.333 416.667 180.885 416.667 192.667C416.667 204.449 426.218 214 438 214Z" fill="#008906"/>
<path d="M374 278C385.782 278 395.333 268.449 395.333 256.667C395.333 244.885 385.782 235.333 374 235.333C362.218 235.333 352.667 244.885 352.667 256.667C352.667 268.449 362.218 278 374 278Z" fill="#008906"/>
<path d="M107.333 224.667C119.115 224.667 128.667 215.115 128.667 203.333C128.667 191.551 119.115 182 107.333 182C95.5513 182 86 191.551 86 203.333C86 215.115 95.5513 224.667 107.333 224.667Z" fill="#008906"/>
<path d="M278 288.667C289.782 288.667 299.333 279.115 299.333 267.333C299.333 255.551 289.782 246 278 246C266.218 246 256.667 255.551 256.667 267.333C256.667 279.115 266.218 288.667 278 288.667Z" fill="#016601"/>
<path d="M107.333 278C119.115 278 128.667 268.449 128.667 256.667C128.667 244.885 119.115 235.333 107.333 235.333C95.5513 235.333 86 244.885 86 256.667C86 268.449 95.5513 278 107.333 278Z" fill="#016601"/>
<path d="M407.941 91.44C400.691 87.8997 392.735 86.0402 384.667 86L382.747 87.8133C390.83 96.2521 395.339 107.488 395.333 119.173C395.02 132.073 389.597 144.32 380.255 153.221C370.914 162.123 358.42 166.949 345.52 166.64C345.19 179.506 339.773 191.716 330.455 200.593C321.137 209.471 308.68 214.292 295.813 214C268.293 214 246 186.8 246 160.667C246 186.8 223.707 214 196.187 214C183.32 214.292 170.863 209.471 161.545 200.593C152.227 191.716 146.81 179.506 146.48 166.64C133.58 166.949 121.086 162.123 111.745 153.221C102.403 144.32 96.9797 132.073 96.6667 119.173C96.6605 107.488 101.17 96.2521 109.253 87.8133L107.333 86C99.2647 86.0402 91.3091 87.8997 84.0587 91.44C78.3435 100.438 75.3164 110.881 75.3333 121.541C75.3277 129.02 76.7961 136.427 79.6547 143.338C82.5132 150.249 86.7058 156.529 91.9927 161.819C97.2797 167.109 103.557 171.305 110.467 174.168C117.376 177.03 124.782 178.503 132.261 178.501C132.297 192.859 137.777 206.668 147.596 217.143C157.416 227.617 170.843 233.977 185.168 234.939C186.832 232.178 189.103 229.832 191.809 228.079C194.514 226.326 197.583 225.212 200.783 224.822C203.983 224.431 207.23 224.774 210.278 225.825C213.325 226.875 216.094 228.606 218.373 230.885C226.639 228.608 233.881 223.58 238.903 216.631C243.926 209.683 246.429 201.23 246 192.667C246 224.027 271.483 235.333 302.928 235.333C317.994 235.316 332.437 229.323 343.088 218.668C353.739 208.013 359.727 193.567 359.739 178.501C367.218 178.503 374.624 177.03 381.533 174.168C388.443 171.305 394.72 167.109 400.007 161.819C405.294 156.529 409.487 150.249 412.345 143.338C415.204 136.427 416.672 129.02 416.667 121.541C416.684 110.881 413.656 100.438 407.941 91.44Z" fill="#025602"/>
<path d="M185.2 234.939C183.111 238.36 182.028 242.302 182.075 246.311C182.123 250.32 183.3 254.234 185.47 257.605C187.641 260.976 190.717 263.667 194.347 265.37C197.976 267.073 202.013 267.719 205.992 267.233C209.972 266.747 213.734 265.149 216.848 262.624C219.961 260.098 222.3 256.745 223.596 252.951C224.892 249.157 225.092 245.075 224.174 241.172C223.256 237.269 221.257 233.704 218.405 230.885C208.944 233.991 199.029 235.495 189.072 235.333C187.739 235.333 186.48 235.035 185.2 234.939Z" fill="#016601"/>
<path d="M185.2 234.939C186.512 235.035 187.771 235.333 189.104 235.333C199.051 235.491 208.954 233.988 218.406 230.885C216.126 228.606 213.357 226.875 210.31 225.825C207.262 224.774 204.015 224.431 200.815 224.822C197.615 225.212 194.546 226.326 191.841 228.079C189.135 229.832 186.864 232.178 185.2 234.939Z" fill="#025602"/>
<path d="M395.333 235.333C401.224 235.333 406 230.558 406 224.667C406 218.776 401.224 214 395.333 214C389.442 214 384.667 218.776 384.667 224.667C384.667 230.558 389.442 235.333 395.333 235.333Z" fill="#016601"/>
<path d="M86.0002 182C91.8912 182 96.6668 177.224 96.6668 171.333C96.6668 165.442 91.8912 160.667 86.0002 160.667C80.1091 160.667 75.3335 165.442 75.3335 171.333C75.3335 177.224 80.1091 182 86.0002 182Z" fill="#016601"/>
<path d="M150 256.667C155.891 256.667 160.667 251.891 160.667 246C160.667 240.109 155.891 235.333 150 235.333C144.109 235.333 139.333 240.109 139.333 246C139.333 251.891 144.109 256.667 150 256.667Z" fill="#016601"/>
<path d="M43.3334 214C49.2245 214 54.0001 209.224 54.0001 203.333C54.0001 197.442 49.2245 192.667 43.3334 192.667C37.4424 192.667 32.6667 197.442 32.6667 203.333C32.6667 209.224 37.4424 214 43.3334 214Z" fill="#016601"/>
<path d="M374 203.333C379.891 203.333 384.667 198.558 384.667 192.667C384.667 186.776 379.891 182 374 182C368.109 182 363.333 186.776 363.333 192.667C363.333 198.558 368.109 203.333 374 203.333Z" fill="#008906"/>
<path d="M246 246C251.891 246 256.667 241.224 256.667 235.333C256.667 229.442 251.891 224.667 246 224.667C240.109 224.667 235.333 229.442 235.333 235.333C235.333 241.224 240.109 246 246 246Z" fill="#008906"/>
<path d="M235.333 278C241.224 278 246 273.224 246 267.333C246 261.442 241.224 256.667 235.333 256.667C229.442 256.667 224.667 261.442 224.667 267.333C224.667 273.224 229.442 278 235.333 278Z" fill="#008906"/>
<path d="M75.3334 235.333C81.2245 235.333 86.0001 230.558 86.0001 224.667C86.0001 218.776 81.2245 214 75.3334 214C69.4424 214 64.6667 218.776 64.6667 224.667C64.6667 230.558 69.4424 235.333 75.3334 235.333Z" fill="#008906"/>
<path d="M406 192.667C411.891 192.667 416.667 187.891 416.667 182C416.667 176.109 411.891 171.333 406 171.333C400.109 171.333 395.333 176.109 395.333 182C395.333 187.891 400.109 192.667 406 192.667Z" fill="#008906"/>
<path d="M54.0002 192.667C59.8912 192.667 64.6668 187.891 64.6668 182C64.6668 176.109 59.8912 171.333 54.0002 171.333C48.1091 171.333 43.3335 176.109 43.3335 182C43.3335 187.891 48.1091 192.667 54.0002 192.667Z" fill="#008906"/>
<path d="M342 246C347.891 246 352.667 241.224 352.667 235.333C352.667 229.442 347.891 224.667 342 224.667C336.109 224.667 331.333 229.442 331.333 235.333C331.333 241.224 336.109 246 342 246Z" fill="#008906"/>
<path d="M200.027 340.933C198.159 336.451 195.985 332.103 193.52 327.92C190.15 321.416 185.504 315.657 179.86 310.987C174.215 306.317 167.688 302.833 160.667 300.741C160.781 310.938 163.869 320.88 169.554 329.347C175.239 337.813 183.272 344.435 192.667 348.4C196.283 349.842 200.035 350.914 203.867 351.6C202.693 347.963 201.499 344.357 200.134 341.115C200.027 341.04 199.92 341.04 200.027 340.933ZM298.48 327.92C296.015 332.103 293.841 336.451 291.973 340.933C292.08 341.04 291.973 341.04 291.867 341.147C290.501 344.347 289.307 347.995 288.134 351.632C291.966 350.936 295.719 349.853 299.334 348.4C308.729 344.435 316.762 337.813 322.446 329.347C328.131 320.88 331.22 310.938 331.334 300.741C324.313 302.833 317.785 306.317 312.141 310.987C306.496 315.657 301.85 321.416 298.48 327.92ZM150.32 331.333C156.989 322.52 160.619 311.793 160.667 300.741C157.287 299.861 153.813 299.381 150.32 299.333C145.306 305.986 138.81 311.377 131.348 315.081C123.886 318.784 115.664 320.697 107.333 320.667C117.392 320.667 126.768 329.659 134.8 345.104C140.825 341.574 146.098 336.895 150.32 331.333ZM384.667 320.667C376.337 320.697 368.114 318.784 360.652 315.081C353.19 311.377 346.694 305.986 341.68 299.333C338.195 299.383 334.728 299.852 331.355 300.731C331.396 311.78 335.019 322.518 341.68 331.333C345.902 336.895 351.175 341.574 357.2 345.104C365.232 329.659 374.608 320.667 384.667 320.667Z" fill="#00AC0D"/>
<path d="M322.172 447.834C323.893 446.114 323.349 442.781 320.958 440.39C318.567 437.998 315.234 437.455 313.513 439.175C311.793 440.896 312.337 444.229 314.728 446.62C317.119 449.011 320.452 449.554 322.172 447.834Z" fill="#008906"/>
<path d="M183.509 362.446C185.23 360.726 184.686 357.393 182.295 355.002C179.904 352.61 176.571 352.067 174.851 353.787C173.13 355.508 173.674 358.841 176.065 361.232C178.456 363.623 181.789 364.166 183.509 362.446Z" fill="#00AC0D"/>
<path d="M97.4774 87.0667L98.3094 86.9067C98.0321 86.9067 97.7334 86.9067 97.4561 86.992L97.4774 87.0667ZM131.056 178.384L132.528 181.264C132.528 180.325 132.261 179.451 132.261 178.501C131.867 178.501 131.472 178.384 131.056 178.384ZM402.939 89.3493C404.673 90.0135 406.371 90.7683 408.027 91.6107L407.941 91.44C406.306 90.6685 404.637 89.9709 402.939 89.3493ZM486.32 194.565L487.109 196.272L486.384 194.693L486.32 194.565ZM487.408 196.933C487.312 196.699 487.195 196.475 487.088 196.251C487.205 196.485 487.312 196.688 487.408 196.933ZM474.352 178.395C474.853 178.853 475.312 179.344 475.781 179.824C475.269 179.301 474.768 178.757 474.224 178.267L474.352 178.395ZM477.093 181.125C476.667 180.677 476.219 180.261 475.781 179.824C476.261 180.304 476.752 180.752 477.211 181.243L477.093 181.125Z" fill="#008906"/>
<path d="M469.03 174.085C459.96 167.654 449.118 164.196 438 164.187C435.702 164.237 433.412 164.473 431.152 164.891L430.214 165.04C432.319 161.52 434.029 157.778 435.312 153.883C436.851 149.285 437.71 144.488 437.862 139.643C437.862 139.163 437.968 138.693 437.968 138.213C437.891 128.413 435.034 118.835 429.728 110.595C424.422 102.354 416.885 95.7897 407.995 91.664C413.656 100.601 416.663 110.962 416.667 121.541C416.672 129.02 415.204 136.427 412.346 143.338C409.487 150.249 405.294 156.529 400.007 161.819C394.721 167.109 388.443 171.305 381.533 174.168C374.624 177.03 367.218 178.503 359.739 178.501C359.728 193.567 353.739 208.013 343.088 218.668C332.437 229.323 317.994 235.316 302.928 235.333C271.483 235.333 246 224.027 246 192.667C246.43 201.23 243.926 209.683 238.904 216.631C233.881 223.58 226.639 228.608 218.374 230.885C221.225 233.704 223.224 237.269 224.142 241.172C225.06 245.075 224.86 249.157 223.564 252.951C222.268 256.745 219.929 260.098 216.816 262.624C213.702 265.15 209.94 266.747 205.96 267.233C201.981 267.719 197.944 267.073 194.315 265.37C190.685 263.667 187.609 260.976 185.438 257.605C183.268 254.234 182.091 250.32 182.044 246.311C181.996 242.302 183.079 238.36 185.168 234.939C176.211 234.251 167.546 231.443 159.888 226.747C162.534 230.565 165.222 234.373 167.963 238.107C167.963 237.563 168.091 237.04 168.091 236.507C168.091 237.168 168.198 237.808 168.23 238.469C181.442 256.143 196.033 272.743 211.867 288.112C213.502 288.388 215.15 288.573 216.806 288.667C227.476 288.586 237.791 284.818 246 278C254.215 284.822 264.538 288.591 275.216 288.667C275.664 288.667 276.091 288.528 276.539 288.517C271.225 288.157 266.238 285.821 262.559 281.97C258.879 278.118 256.774 273.03 256.656 267.705C256.538 262.38 258.416 257.204 261.922 253.193C265.427 249.183 270.306 246.629 275.599 246.033C280.892 245.438 286.216 246.844 290.525 249.975C294.834 253.106 297.815 257.736 298.884 262.954C299.952 268.172 299.03 273.601 296.299 278.173C293.567 282.746 289.224 286.131 284.123 287.664C287.759 286.981 291.305 285.886 294.694 284.4C303.577 279.98 311.03 273.138 316.192 264.664C321.354 256.189 324.015 246.428 323.867 236.507C323.884 246.272 326.533 255.853 331.536 264.24C332.134 265.253 332.603 266.373 333.318 267.301C337.619 273.795 343.446 279.135 350.289 282.854C357.132 286.573 364.783 288.558 372.571 288.635C386.051 287.881 398.698 281.875 407.801 271.905C416.904 261.934 421.737 248.794 421.264 235.301C427.825 235.205 434.301 233.805 440.316 231.183C446.331 228.561 451.764 224.768 456.299 220.026C460.834 215.285 464.381 209.688 466.733 203.563C469.086 197.437 470.196 190.905 470 184.347C469.991 180.911 469.67 177.484 469.04 174.107L469.03 174.085ZM235.334 278C233.224 278 231.162 277.374 229.407 276.202C227.653 275.03 226.286 273.364 225.479 271.415C224.671 269.466 224.46 267.321 224.872 265.252C225.283 263.183 226.299 261.283 227.791 259.791C229.283 258.299 231.183 257.283 233.253 256.872C235.322 256.46 237.466 256.671 239.415 257.479C241.365 258.286 243.03 259.653 244.203 261.407C245.375 263.161 246 265.224 246 267.333C246 270.162 244.876 272.875 242.876 274.876C240.876 276.876 238.162 278 235.334 278ZM246 246C243.891 246 241.828 245.374 240.074 244.202C238.32 243.03 236.953 241.364 236.145 239.415C235.338 237.466 235.127 235.321 235.538 233.252C235.95 231.183 236.966 229.283 238.458 227.791C239.949 226.299 241.85 225.283 243.919 224.872C245.988 224.46 248.133 224.671 250.082 225.479C252.031 226.286 253.697 227.653 254.869 229.407C256.041 231.161 256.667 233.224 256.667 235.333C256.667 238.162 255.543 240.875 253.543 242.876C251.542 244.876 248.829 246 246 246ZM374 182C376.11 182 378.172 182.626 379.926 183.798C381.68 184.97 383.048 186.636 383.855 188.585C384.662 190.534 384.873 192.679 384.462 194.748C384.05 196.817 383.034 198.717 381.543 200.209C380.051 201.701 378.15 202.717 376.081 203.128C374.012 203.54 371.867 203.329 369.918 202.521C367.969 201.714 366.303 200.347 365.131 198.593C363.959 196.839 363.334 194.776 363.334 192.667C363.334 189.838 364.457 187.125 366.458 185.124C368.458 183.124 371.171 182 374 182ZM342 246C339.212 245.873 336.573 244.708 334.599 242.734C332.626 240.761 331.461 238.121 331.334 235.333C331.334 232.504 332.457 229.791 334.458 227.791C336.458 225.79 339.171 224.667 342 224.667C343.821 224.711 345.597 225.234 347.152 226.181C348.804 227.077 350.186 228.398 351.155 230.007C352.125 231.616 352.647 233.455 352.667 235.333C352.667 238.162 351.543 240.875 349.543 242.876C347.542 244.876 344.829 246 342 246ZM374 278C369.781 278 365.656 276.749 362.148 274.405C358.64 272.061 355.905 268.729 354.291 264.831C352.676 260.932 352.254 256.643 353.077 252.505C353.9 248.366 355.932 244.565 358.915 241.582C361.899 238.598 365.7 236.566 369.838 235.743C373.977 234.92 378.266 235.343 382.164 236.957C386.062 238.572 389.394 241.306 391.738 244.814C394.082 248.323 395.334 252.447 395.334 256.667C395.334 262.325 393.086 267.751 389.085 271.752C385.084 275.752 379.658 278 374 278ZM395.334 235.333C393.224 235.333 391.162 234.708 389.407 233.536C387.653 232.364 386.286 230.698 385.479 228.749C384.671 226.8 384.46 224.655 384.872 222.586C385.283 220.517 386.299 218.616 387.791 217.124C389.283 215.632 391.183 214.617 393.253 214.205C395.322 213.793 397.466 214.005 399.415 214.812C401.365 215.619 403.03 216.986 404.203 218.741C405.375 220.495 406 222.557 406 224.667C406 227.496 404.876 230.209 402.876 232.209C400.876 234.21 398.162 235.333 395.334 235.333ZM406 192.667C403.891 192.667 401.828 192.041 400.074 190.869C398.32 189.697 396.953 188.031 396.145 186.082C395.338 184.133 395.127 181.988 395.538 179.919C395.95 177.85 396.966 175.949 398.458 174.458C399.949 172.966 401.85 171.95 403.919 171.538C405.988 171.127 408.133 171.338 410.082 172.145C412.031 172.953 413.697 174.32 414.869 176.074C416.041 177.828 416.667 179.89 416.667 182C416.667 184.829 415.543 187.542 413.543 189.542C411.542 191.543 408.829 192.667 406 192.667ZM438 214C433.781 214 429.656 212.749 426.148 210.405C422.64 208.061 419.905 204.729 418.291 200.831C416.676 196.932 416.254 192.643 417.077 188.505C417.9 184.366 419.932 180.565 422.915 177.582C425.899 174.598 429.7 172.566 433.838 171.743C437.977 170.92 442.266 171.343 446.164 172.957C450.062 174.572 453.394 177.306 455.738 180.814C458.082 184.323 459.334 188.447 459.334 192.667C459.334 198.325 457.086 203.751 453.085 207.752C449.084 211.752 443.658 214 438 214Z" fill="#00AC0D"/>
<path d="M481.051 185.819L480.752 185.445C481.616 186.587 482.438 187.749 483.206 188.955L483.099 188.795C482.448 187.781 481.734 186.789 481.051 185.819ZM489.99 205.029V205.083C490.128 205.701 490.235 206.341 490.352 206.971C490.261 206.318 490.14 205.67 489.99 205.029Z" fill="#008906"/>
<path d="M155.333 93.36C158.182 90.0739 161.967 87.7369 166.18 86.6619C170.394 85.587 174.836 85.8256 178.911 87.3458C182.985 88.8659 186.498 91.5949 188.978 95.1673C191.458 98.7396 192.787 102.985 192.787 107.333C192.787 111.682 191.458 115.927 188.978 119.499C186.498 123.072 182.985 125.801 178.911 127.321C174.836 128.841 170.394 129.08 166.18 128.005C161.967 126.93 158.182 124.593 155.333 121.307C152.844 124.201 149.617 126.368 145.996 127.577C142.375 128.786 138.494 128.992 134.765 128.174C131.036 127.356 127.598 125.544 124.815 122.931C122.033 120.317 120.009 116.999 118.96 113.328C118.342 115.864 118.02 118.462 118 121.072C118.66 131.752 123.516 141.737 131.509 148.851C139.501 155.964 149.983 159.629 160.667 159.045C161.348 169.71 166.213 179.673 174.204 186.769C182.194 193.864 192.663 197.517 203.333 196.933C214.506 196.486 225.101 191.848 233.008 183.941C240.914 176.034 245.553 165.44 246 154.267C246.447 165.44 251.086 176.034 258.992 183.941C266.899 191.848 277.494 196.486 288.667 196.933C299.337 197.517 309.806 193.864 317.796 186.769C325.787 179.673 330.652 169.71 331.333 159.045C339.229 159.234 347.024 157.252 353.87 153.315C360.717 149.378 366.351 143.638 370.16 136.72C368.269 138.378 365.848 139.305 363.333 139.333C360.504 139.333 357.791 138.21 355.791 136.209C353.79 134.209 352.667 131.496 352.667 128.667C352.667 125.838 353.79 123.125 355.791 121.124C357.791 119.124 360.504 118 363.333 118C365.66 118.017 367.915 118.805 369.745 120.241C371.575 121.677 372.876 123.68 373.445 125.936C373.749 124.33 373.934 122.705 374 121.072C373.975 116.381 373.008 111.743 371.155 107.433C369.303 103.123 366.603 99.2299 363.216 95.984C359.005 91.8576 354.022 88.6028 348.55 86.4063C343.079 84.2098 337.228 83.1148 331.333 83.184C329.252 83.2239 327.175 83.3949 325.115 83.696C329.094 77.9502 331.26 71.1436 331.333 64.1547C330.9 55.0168 327.291 46.3166 321.13 39.554C314.969 32.7915 306.642 28.3903 297.584 27.1093C298.687 28.7562 299.294 30.685 299.333 32.6667C299.333 35.4956 298.21 38.2087 296.209 40.2091C294.209 42.2095 291.496 43.3333 288.667 43.3333C285.838 43.3333 283.125 42.2095 281.124 40.2091C279.124 38.2087 278 35.4956 278 32.6667C278.048 30.685 278.667 28.7593 279.781 27.12C274.72 27.7969 269.876 29.6061 265.61 32.4131C261.344 35.2202 257.766 38.9527 255.141 43.3333H236.859C233.4 37.662 228.434 33.0629 222.514 30.0494C216.595 27.0358 209.954 25.7262 203.333 26.2667C193.932 26.2537 184.757 29.1445 177.061 34.544C178.555 35.4775 179.791 36.7717 180.654 38.3076C181.517 39.8435 181.98 41.5717 182 43.3333C181.986 45.4574 181.337 47.5288 180.138 49.2822C178.939 51.0355 177.244 52.3908 175.269 53.1746C173.295 53.9583 171.132 54.1348 169.056 53.6813C166.981 53.2279 165.089 52.1651 163.621 50.6293C161.723 54.8886 160.717 59.4917 160.667 64.1547C160.74 71.1436 162.906 77.9502 166.885 83.696C164.825 83.3949 162.748 83.2239 160.667 83.184C154.828 83.1811 149.041 84.2663 143.6 86.384C148.172 87.3548 152.296 89.8068 155.333 93.36ZM150 150C147.89 150 145.828 149.374 144.074 148.202C142.32 147.03 140.953 145.364 140.145 143.415C139.338 141.466 139.127 139.322 139.538 137.252C139.95 135.183 140.966 133.283 142.458 131.791C143.949 130.299 145.85 129.283 147.919 128.872C149.988 128.46 152.133 128.671 154.082 129.479C156.031 130.286 157.697 131.653 158.869 133.407C160.041 135.161 160.667 137.224 160.667 139.333C160.667 142.162 159.543 144.875 157.542 146.876C155.542 148.876 152.829 150 150 150ZM192.667 182C188.447 182 184.323 180.749 180.814 178.405C177.306 176.061 174.572 172.729 172.957 168.831C171.343 164.932 170.92 160.643 171.743 156.505C172.566 152.366 174.598 148.565 177.582 145.582C180.565 142.598 184.366 140.566 188.505 139.743C192.643 138.92 196.932 139.343 200.831 140.957C204.729 142.572 208.061 145.306 210.405 148.815C212.749 152.323 214 156.447 214 160.667C214 166.325 211.752 171.751 207.752 175.752C203.751 179.752 198.325 182 192.667 182ZM203.333 118C203.333 115.89 203.959 113.828 205.131 112.074C206.303 110.32 207.969 108.953 209.918 108.145C211.867 107.338 214.012 107.127 216.081 107.538C218.15 107.95 220.051 108.966 221.542 110.458C223.034 111.949 224.05 113.85 224.462 115.919C224.873 117.988 224.662 120.133 223.855 122.082C223.047 124.031 221.68 125.697 219.926 126.869C218.172 128.041 216.11 128.667 214 128.667C211.171 128.667 208.458 127.543 206.458 125.542C204.457 123.542 203.333 120.829 203.333 118ZM224.667 150C222.557 150 220.495 149.374 218.741 148.202C216.986 147.03 215.619 145.364 214.812 143.415C214.005 141.466 213.793 139.322 214.205 137.252C214.617 135.183 215.632 133.283 217.124 131.791C218.616 130.299 220.517 129.283 222.586 128.872C224.655 128.46 226.8 128.671 228.749 129.479C230.698 130.286 232.364 131.653 233.536 133.407C234.708 135.161 235.333 137.224 235.333 139.333C235.333 142.162 234.21 144.875 232.209 146.876C230.209 148.876 227.496 150 224.667 150ZM288.667 192.667C286.557 192.667 284.495 192.041 282.741 190.869C280.986 189.697 279.619 188.031 278.812 186.082C278.005 184.133 277.793 181.988 278.205 179.919C278.617 177.85 279.632 175.949 281.124 174.458C282.616 172.966 284.517 171.95 286.586 171.538C288.655 171.127 290.8 171.338 292.749 172.145C294.698 172.953 296.364 174.32 297.536 176.074C298.708 177.828 299.333 179.89 299.333 182C299.333 184.829 298.21 187.542 296.209 189.542C294.209 191.543 291.496 192.667 288.667 192.667ZM299.333 171.333C295.114 171.333 290.989 170.082 287.481 167.738C283.973 165.394 281.239 162.062 279.624 158.164C278.009 154.266 277.587 149.976 278.41 145.838C279.233 141.7 281.265 137.899 284.248 134.915C287.232 131.932 291.033 129.9 295.171 129.077C299.31 128.253 303.599 128.676 307.497 130.291C311.395 131.905 314.727 134.64 317.071 138.148C319.415 141.656 320.667 145.781 320.667 150C320.667 155.658 318.419 161.084 314.418 165.085C310.418 169.086 304.991 171.333 299.333 171.333ZM331.333 96.6667C335.553 96.6667 339.677 97.9178 343.186 100.262C346.694 102.606 349.428 105.938 351.043 109.836C352.657 113.734 353.08 118.024 352.257 122.162C351.434 126.3 349.402 130.101 346.418 133.085C343.435 136.068 339.634 138.1 335.495 138.923C331.357 139.747 327.068 139.324 323.169 137.709C319.271 136.095 315.939 133.36 313.595 129.852C311.251 126.344 310 122.219 310 118C310 112.342 312.248 106.916 316.248 102.915C320.249 98.9143 325.675 96.6667 331.333 96.6667ZM299.333 43.3333C303.553 43.3333 307.677 44.5845 311.186 46.9286C314.694 49.2728 317.428 52.6046 319.043 56.5028C320.657 60.4009 321.08 64.6903 320.257 68.8286C319.434 72.9669 317.402 76.7681 314.418 79.7516C311.435 82.7351 307.634 84.7669 303.495 85.5901C299.357 86.4132 295.068 85.9908 291.169 84.3761C287.271 82.7614 283.939 80.0271 281.595 76.5188C279.251 73.0106 278 68.886 278 64.6667C278 59.0087 280.248 53.5825 284.248 49.5817C288.249 45.5809 293.675 43.3333 299.333 43.3333ZM288.667 86C290.776 86 292.839 86.6256 294.593 87.7977C296.347 88.9697 297.714 90.6356 298.521 92.5847C299.329 94.5338 299.54 96.6785 299.128 98.7476C298.717 100.817 297.701 102.717 296.209 104.209C294.717 105.701 292.817 106.717 290.748 107.128C288.679 107.54 286.534 107.329 284.585 106.521C282.636 105.714 280.97 104.347 279.798 102.593C278.626 100.839 278 98.7763 278 96.6667C278 93.8377 279.124 91.1246 281.124 89.1242C283.125 87.1238 285.838 86 288.667 86ZM256.667 96.6667C260.886 96.6667 265.011 97.9178 268.519 100.262C272.027 102.606 274.761 105.938 276.376 109.836C277.991 113.734 278.413 118.024 277.59 122.162C276.767 126.3 274.735 130.101 271.752 133.085C268.768 136.068 264.967 138.1 260.829 138.923C256.69 139.747 252.401 139.324 248.503 137.709C244.605 136.095 241.273 133.36 238.929 129.852C236.585 126.344 235.333 122.219 235.333 118C235.333 112.342 237.581 106.916 241.582 102.915C245.583 98.9143 251.009 96.6667 256.667 96.6667ZM235.333 64.6667C237.443 64.6667 239.505 65.2923 241.259 66.4643C243.014 67.6364 244.381 69.3023 245.188 71.2514C245.995 73.2005 246.207 75.3452 245.795 77.4143C245.383 79.4834 244.368 81.384 242.876 82.8758C241.384 84.3676 239.483 85.3835 237.414 85.795C235.345 86.2066 233.2 85.9954 231.251 85.188C229.302 84.3807 227.636 83.0135 226.464 81.2594C225.292 79.5053 224.667 77.443 224.667 75.3333C224.667 72.5044 225.79 69.7912 227.791 67.7909C229.791 65.7905 232.504 64.6667 235.333 64.6667ZM203.333 32.6667C207.553 32.6667 211.677 33.9178 215.186 36.262C218.694 38.6061 221.428 41.9379 223.043 45.8361C224.657 49.7342 225.08 54.0237 224.257 58.1619C223.434 62.3002 221.402 66.1014 218.418 69.0849C215.435 72.0685 211.634 74.1003 207.495 74.9234C203.357 75.7466 199.068 75.3241 195.169 73.7094C191.271 72.0948 187.939 69.3604 185.595 65.8522C183.251 62.3439 182 58.2193 182 54C182 48.342 184.248 42.9158 188.248 38.9151C192.249 34.9143 197.675 32.6667 203.333 32.6667Z" fill="#00CE23"/>
<path d="M341.179 298.555C340.464 297.563 339.867 296.517 339.227 295.483C338.204 293.86 337.271 292.183 336.432 290.459C335.906 289.365 335.422 288.251 334.981 287.12C334.236 285.183 333.609 283.203 333.104 281.189C332.837 280.123 332.517 279.152 332.325 278.096C331.696 274.959 331.364 271.77 331.333 268.571C331.299 271.733 330.974 274.886 330.363 277.989C330.181 278.907 329.947 279.803 329.723 280.709C329.185 282.919 328.497 285.089 327.664 287.205C327.333 288.037 327.035 288.88 326.661 289.701C325.437 292.452 323.973 295.089 322.288 297.584C322.128 297.808 321.936 298 321.776 298.224C320.173 300.497 318.389 302.637 316.443 304.624C315.856 305.232 315.227 305.797 314.608 306.373C312.796 308.057 310.868 309.611 308.837 311.024C308.336 311.376 307.867 311.749 307.355 312.091C304.807 313.75 302.124 315.192 299.333 316.4C295.98 317.771 292.505 318.824 288.955 319.547C285.35 320.289 281.68 320.664 278 320.667C275.041 320.666 272.087 320.42 269.168 319.931C260.772 318.487 252.835 315.085 246 310C244.211 311.279 242.349 312.451 240.421 313.509C255.064 325.393 270.499 336.266 286.619 346.053H286.704C287.195 345.669 287.611 345.211 288.091 344.795C289.2 343.845 290.244 342.823 291.216 341.733C291.419 341.499 291.675 341.328 291.867 341.093V341.019C291.867 341.019 292.016 340.955 291.941 340.88L292.005 340.731C292.453 339.664 292.933 338.725 293.392 337.723C293.989 336.4 294.587 335.045 295.216 333.797C295.845 332.549 296.56 331.301 297.243 330.085C297.616 329.413 297.957 328.699 298.309 328.059L298.416 327.867L298.843 327.227C299.76 325.701 300.72 324.293 301.691 322.896C302.245 322.096 302.757 321.275 303.355 320.528L304.848 318.693C304.955 318.555 305.051 318.384 305.157 318.256C305.488 317.851 305.829 317.488 306.16 317.093C306.821 316.325 307.483 315.525 308.165 314.8C308.848 314.075 309.861 313.125 310.725 312.315C311.589 311.504 312.379 310.715 313.243 310.011L313.531 309.787L313.637 309.712C314.309 309.157 315.003 308.645 315.685 308.176C316.635 307.472 317.584 306.747 318.565 306.128C319.344 305.637 320.155 305.243 320.944 304.795C321.275 304.613 321.605 304.411 321.947 304.24L322.128 304.144C322.779 303.803 323.429 303.44 324.091 303.141C324.752 302.843 325.744 302.501 326.565 302.192C327.632 301.776 328.699 301.328 329.765 301.008C330.235 300.88 330.725 300.805 331.195 300.688L332.539 300.389C333.605 300.165 334.608 299.877 335.664 299.728H336.251C336.933 299.632 337.637 299.632 338.384 299.568C339.451 299.461 340.517 299.333 341.584 299.323C341.485 299.049 341.349 298.791 341.179 298.555Z" fill="#025602"/>
<path d="M394.352 109.957C394.16 109.008 393.787 108.133 393.531 107.205C393.035 105.234 392.404 103.298 391.643 101.413C391.12 100.187 390.427 99.056 389.797 97.8827C389.093 96.485 388.317 95.125 387.472 93.808C386.422 92.321 385.285 90.8963 384.069 89.5413C383.6 89.008 383.237 88.3893 382.747 87.8667C382.587 87.6853 382.373 87.5573 382.203 87.3867C380.42 85.5578 378.498 83.8709 376.453 82.3413C375.845 81.872 375.291 81.36 374.651 80.9227C372.464 79.4416 370.164 78.1362 367.771 77.0187C367.141 76.72 366.565 76.3467 365.925 76.0693C363.114 74.8783 360.201 73.9429 357.221 73.2747C356.869 73.2 356.549 73.0507 356.155 72.976C352.645 72.2572 349.071 71.8998 345.488 71.9093C344.092 71.9555 342.7 72.0766 341.317 72.272C340.251 72.3893 339.184 72.4107 338.235 72.5493V72.4853C342.928 65.1858 345.454 56.7046 345.52 48.0267C345.467 45.4766 345.196 42.9357 344.709 40.432C344.516 39.2464 344.278 38.0686 343.995 36.9013C343.527 35.1125 342.953 33.3529 342.277 31.632C341.84 30.5653 341.413 29.424 340.901 28.3573C340.087 26.7114 339.175 25.1156 338.171 23.5787C337.541 22.5867 336.944 21.5947 336.24 20.656C335.106 19.1892 333.892 17.7861 332.603 16.4533C331.803 15.6107 331.045 14.736 330.181 13.9466C328.777 12.6996 327.299 11.5383 325.755 10.4693C324.805 9.77598 323.909 9.02932 322.917 8.41065C321.257 7.4327 319.544 6.54605 317.787 5.75465C316.72 5.25332 315.717 4.68798 314.587 4.23998C312.645 3.53004 310.661 2.94222 308.645 2.47998C307.579 2.20265 306.576 1.80798 305.445 1.59465C302.441 1.02238 299.394 0.711885 296.336 0.666651H295.813C287.928 0.0836498 280.042 1.78585 273.099 5.56941C266.156 9.35297 260.451 15.0575 256.667 22H235.333C231.551 15.061 225.849 9.35877 218.91 5.57543C211.972 1.79209 204.09 0.0878702 196.208 0.666651C191.115 0.730402 186.06 1.55369 181.211 3.10932C171.363 5.86845 162.666 11.7278 156.41 19.8187C150.154 27.9096 146.672 37.8011 146.48 48.0267C146.545 56.6656 149.048 65.1106 153.701 72.3893V72.4533C152.699 72.3147 151.643 72.2933 150.619 72.176C149.236 71.9806 147.844 71.8596 146.448 71.8133C142.865 71.8038 139.291 72.1612 135.781 72.88C135.429 72.9547 135.109 73.104 134.715 73.1787C131.735 73.8469 128.822 74.7823 126.011 75.9733C125.371 76.2507 124.795 76.624 124.165 76.9227C121.772 78.0402 119.472 79.3456 117.285 80.8267C116.645 81.264 116.091 81.776 115.483 82.2453C113.438 83.7749 111.516 85.4618 109.733 87.2907C109.563 87.4613 109.349 87.5893 109.189 87.7707C108.699 88.2933 108.336 88.912 107.867 89.4453C106.651 90.8003 105.514 92.225 104.464 93.712C103.619 95.029 102.843 96.389 102.139 97.7866C101.691 98.6186 101.221 99.44 100.827 100.293C106.468 120.86 113.693 140.959 122.437 160.411V160.464C129.794 164.41 138.004 166.497 146.352 166.544C146.542 176.767 150.021 186.656 156.273 194.747C162.525 202.837 171.217 208.698 181.061 211.461C185.947 213.062 191.046 213.918 196.187 214C223.717 214 246 186.789 246 160.667C246 186.789 268.283 214 295.792 214C300.885 213.936 305.94 213.113 310.789 211.557C320.637 208.798 329.334 202.939 335.59 194.848C341.846 186.757 345.328 176.866 345.52 166.64C356.945 166.848 368.085 163.062 377.018 155.935C385.95 148.808 392.115 138.787 394.448 127.6C395.006 124.828 395.302 122.011 395.333 119.184C395.323 116.083 394.994 112.991 394.352 109.957ZM331.333 159.045C330.652 169.71 325.787 179.673 317.796 186.769C309.806 193.864 299.337 197.517 288.667 196.933C277.494 196.486 266.899 191.848 258.992 183.941C251.086 176.034 246.447 165.44 246 154.267C245.553 165.44 240.914 176.034 233.008 183.941C225.101 191.848 214.506 196.486 203.333 196.933C192.663 197.517 182.194 193.864 174.204 186.769C166.213 179.673 161.348 169.71 160.667 159.045C149.983 159.629 139.501 155.964 131.509 148.851C123.516 141.737 118.66 131.752 118 121.072C118.02 118.462 118.342 115.864 118.96 113.328C118.353 111.386 118.029 109.367 118 107.333C117.999 104.17 118.702 101.045 120.058 98.1866C121.414 95.328 123.389 92.8068 125.839 90.8056C128.29 88.8044 131.155 87.3733 134.226 86.6159C137.298 85.8585 140.5 85.7939 143.6 86.4267C149.041 84.3089 154.828 83.2238 160.667 83.2267C162.748 83.2665 164.825 83.4375 166.885 83.7387C162.898 77.9808 160.731 71.1581 160.667 64.1547C160.707 59.494 161.702 54.8909 163.589 50.6293C162.168 49.114 161.221 47.2167 160.863 45.1705C160.505 43.1242 160.753 41.018 161.575 39.1104C162.398 37.2028 163.759 35.5769 165.493 34.4322C167.226 33.2875 169.256 32.6739 171.333 32.6667C173.376 32.7164 175.358 33.3696 177.029 34.544C184.734 29.1382 193.922 26.2471 203.333 26.2667C209.954 25.7262 216.595 27.0358 222.514 30.0494C228.434 33.0629 233.4 37.6619 236.859 43.3333H255.141C257.766 38.9527 261.344 35.2201 265.61 32.4131C269.876 29.6061 274.72 27.7969 279.781 27.12C280.684 25.5634 281.98 24.2713 283.54 23.3731C285.099 22.4749 286.867 22.0021 288.667 22.0021C290.466 22.0021 292.234 22.4749 293.794 23.3731C295.353 24.2713 296.649 25.5634 297.552 27.12C306.614 28.3938 314.948 32.7904 321.115 39.5514C327.282 46.3125 330.896 55.0139 331.333 64.1547C331.26 71.1436 329.094 77.9501 325.115 83.696C327.175 83.3949 329.252 83.2239 331.333 83.184C337.234 83.1105 343.091 84.2035 348.568 86.4001C354.045 88.5967 359.033 91.8537 363.248 95.984C366.629 99.2326 369.323 103.127 371.17 107.437C373.017 111.747 373.979 116.383 374 121.072C373.934 122.705 373.749 124.33 373.445 125.936C372.876 123.68 371.575 121.677 369.745 120.241C367.915 118.805 365.66 118.017 363.333 118C360.504 118 357.791 119.124 355.791 121.124C353.79 123.125 352.667 125.838 352.667 128.667C352.667 131.496 353.79 134.209 355.791 136.209C357.791 138.21 360.504 139.333 363.333 139.333C365.837 139.297 368.245 138.371 370.128 136.72C366.322 143.633 360.692 149.37 353.852 153.307C347.012 157.243 339.223 159.228 331.333 159.045Z" fill="#00AC0D"/>
<path d="M366.032 317.211C363.904 316.411 361.83 315.474 359.824 314.405C359.301 314.139 358.757 313.861 358.288 313.584C355.992 312.291 353.792 310.833 351.707 309.221L351.461 309.029C349.24 307.276 347.147 305.366 345.2 303.312C343.955 302.057 342.786 300.729 341.701 299.333C343.128 301.212 344.678 302.993 346.341 304.667C346.896 305.232 347.483 305.733 348.069 306.288C349.136 307.28 350.309 308.133 351.461 309.029L351.632 309.179H351.707C352.613 309.883 353.413 310.693 354.373 311.312L355.301 311.941C356.24 312.549 357.307 313.008 358.299 313.531C358.789 313.808 359.312 314.064 359.824 314.331C360.891 314.864 361.819 315.493 362.885 315.963C363.461 316.219 364.027 316.485 364.624 316.72C367.411 317.831 370.287 318.705 373.221 319.333C373.701 319.44 374.203 319.504 374.693 319.6C373.083 319.291 371.493 318.8 369.989 318.352C368.648 318.051 367.327 317.67 366.032 317.211ZM303.419 320.581C302.853 321.328 302.352 322.149 301.755 322.949C300.758 324.361 299.808 325.805 298.907 327.28L298.48 327.92C298.576 327.76 298.683 327.643 298.779 327.493C300.617 324.439 302.667 321.516 304.912 318.747C304.421 319.365 303.899 319.931 303.419 320.581ZM376.709 322.619L376.347 322.832C377.183 322.42 378.045 322.064 378.928 321.765C378.416 321.947 377.861 322.053 377.392 322.277L376.709 322.619ZM380.4 321.253C381.793 320.884 383.226 320.687 384.667 320.667C383.44 320.668 382.216 320.804 381.019 321.072C380.827 321.115 380.624 321.2 380.4 321.253ZM370.096 327.173C369.829 327.419 369.573 327.728 369.307 327.984C369.648 327.664 369.979 327.28 370.373 326.971L370.256 327.067L370.096 327.173ZM373.36 324.571C373.061 324.784 372.773 325.051 372.475 325.275C373.136 324.773 373.808 324.293 374.48 323.877C374.245 324.016 374.011 324.112 373.787 324.261L373.36 324.571ZM310.789 312.368C309.925 313.179 309.061 313.968 308.229 314.853C307.397 315.739 306.885 316.379 306.224 317.147C308.424 314.564 310.84 312.173 313.445 310L313.307 310.117C312.443 310.768 311.621 311.579 310.789 312.368ZM329.883 301.061C328.816 301.381 327.749 301.829 326.683 302.245C325.861 302.555 325.019 302.821 324.208 303.195C323.397 303.568 322.896 303.856 322.245 304.197L322.469 304.112C325.294 302.672 328.266 301.542 331.333 300.741C330.843 300.859 330.352 300.933 329.883 301.061ZM322.011 304.293C321.669 304.464 321.339 304.667 321.008 304.848C320.219 305.296 319.408 305.691 318.629 306.181C317.648 306.8 316.699 307.525 315.749 308.229C315.067 308.731 314.373 309.211 313.701 309.765C316.21 307.72 318.919 305.933 321.787 304.432L322.011 304.293Z" fill="#00CE23"/>
<path d="M331.333 139.333C343.115 139.333 352.667 129.782 352.667 118C352.667 106.218 343.115 96.6667 331.333 96.6667C319.551 96.6667 310 106.218 310 118C310 129.782 319.551 139.333 331.333 139.333Z" fill="#55E072"/>
<path d="M299.333 86C311.115 86 320.667 76.4487 320.667 64.6667C320.667 52.8846 311.115 43.3333 299.333 43.3333C287.551 43.3333 278 52.8846 278 64.6667C278 76.4487 287.551 86 299.333 86Z" fill="#55E072"/>
<path d="M235.333 86C241.224 86 246 81.2244 246 75.3333C246 69.4423 241.224 64.6667 235.333 64.6667C229.442 64.6667 224.667 69.4423 224.667 75.3333C224.667 81.2244 229.442 86 235.333 86Z" fill="#55E072"/>
<path d="M224.667 150C230.558 150 235.333 145.224 235.333 139.333C235.333 133.442 230.558 128.667 224.667 128.667C218.776 128.667 214 133.442 214 139.333C214 145.224 218.776 150 224.667 150Z" fill="#55E072"/>
<path d="M150 150C155.891 150 160.667 145.224 160.667 139.333C160.667 133.442 155.891 128.667 150 128.667C144.109 128.667 139.333 133.442 139.333 139.333C139.333 145.224 144.109 150 150 150Z" fill="#55E072"/>
<path d="M171.333 86C167.114 86 162.989 87.2512 159.481 89.5953C155.973 91.9395 153.239 95.2713 151.624 99.1694C150.009 103.068 149.587 107.357 150.41 111.495C151.233 115.634 153.265 119.435 156.248 122.418C159.232 125.402 163.033 127.434 167.171 128.257C171.31 129.08 175.599 128.657 179.497 127.043C183.395 125.428 186.727 122.694 189.071 119.185C191.416 115.677 192.667 111.553 192.667 107.333C192.688 104.526 192.151 101.742 191.086 99.1443C190.022 96.5464 188.451 94.1862 186.466 92.2009C184.481 90.2157 182.12 88.6451 179.522 87.5805C176.924 86.516 174.141 85.9787 171.333 86Z" fill="#55E072"/>
<path d="M256.667 139.333C268.449 139.333 278 129.782 278 118C278 106.218 268.449 96.6667 256.667 96.6667C244.885 96.6667 235.333 106.218 235.333 118C235.333 129.782 244.885 139.333 256.667 139.333Z" fill="#55E072"/>
<path d="M407.941 91.44C406.299 90.6724 404.63 89.9609 402.939 89.3067C400.88 88.5388 398.774 87.9011 396.635 87.3973C395.696 87.1733 394.715 87.056 393.755 86.8747C390.755 86.3298 387.715 86.0372 384.667 86L382.747 87.8133C383.237 88.336 383.6 88.9547 384.069 89.488C385.282 90.8456 386.418 92.2701 387.472 93.7547C388.317 95.0716 389.093 96.4317 389.797 97.8293C390.427 99.0027 391.12 100.133 391.643 101.36C392.404 103.245 393.035 105.18 393.531 107.152C393.787 108.08 394.16 108.955 394.352 109.904C394.997 112.952 395.326 116.058 395.333 119.173C395.299 121.986 395.003 124.789 394.448 127.547C392.125 138.736 385.968 148.763 377.042 155.898C368.115 163.033 356.978 166.828 345.552 166.629C345.362 176.852 341.883 186.742 335.631 194.832C329.379 202.923 320.687 208.784 310.843 211.547C305.983 213.109 300.918 213.936 295.813 214C268.283 214 246 186.789 246 160.667C246 186.789 223.717 214 196.208 214C191.115 213.936 186.061 213.113 181.211 211.557C171.363 208.798 162.666 202.939 156.41 194.848C150.154 186.757 146.672 176.866 146.48 166.64C138.132 166.593 129.922 164.506 122.565 160.56C125.268 166.576 128.112 172.517 131.099 178.384C131.515 178.384 131.888 178.501 132.304 178.501C132.304 179.451 132.528 180.325 132.571 181.264C140.698 197.008 149.823 212.218 159.888 226.8C167.546 231.496 176.211 234.304 185.168 234.992C186.48 235.088 187.739 235.387 189.072 235.387C199.019 235.545 208.922 234.041 218.373 230.939C226.648 228.659 233.897 223.623 238.921 216.664C243.944 209.704 246.442 201.238 246 192.667C246 224.027 271.483 235.333 302.928 235.333C317.994 235.316 332.437 229.323 343.088 218.668C353.739 208.013 359.727 193.567 359.739 178.501C367.218 178.503 374.624 177.03 381.533 174.168C388.443 171.305 394.72 167.109 400.007 161.819C405.294 156.529 409.487 150.249 412.345 143.338C415.204 136.427 416.672 129.02 416.667 121.541C416.684 110.881 413.657 100.438 407.941 91.44ZM167.963 238.107L168.229 238.469C168.229 237.808 168.091 237.168 168.091 236.507C168.133 237.051 167.984 237.563 167.963 238.107Z" fill="#007700"/>
<path d="M490.373 206.992C490.256 206.363 490.149 205.723 490.011 205.104V205.051C489.385 202.292 488.529 199.591 487.451 196.976C487.13 196.22 486.774 195.48 486.384 194.757L486.32 194.629C485.398 192.697 484.358 190.823 483.205 189.019L483.099 188.859C482.452 187.843 481.769 186.85 481.051 185.883L480.752 185.509C479.643 184.044 478.462 182.644 477.211 181.307L477.093 181.189C476.209 180.25 475.295 179.339 474.352 178.459L474.267 178.267C472.628 176.765 470.897 175.369 469.083 174.085C469.712 177.463 470.034 180.89 470.043 184.325C470.246 190.888 469.141 197.426 466.792 203.558C464.443 209.689 460.897 215.292 456.361 220.04C451.825 224.787 446.39 228.584 440.371 231.21C434.353 233.836 427.872 235.237 421.307 235.333C421.78 248.826 416.947 261.966 407.844 271.937C398.741 281.907 386.093 287.913 372.613 288.667C364.825 288.59 357.175 286.605 350.332 282.886C343.488 279.167 337.661 273.827 333.36 267.333C332.699 266.363 332.176 265.285 331.579 264.272C326.576 255.885 323.926 246.304 323.909 236.539C324.053 246.465 321.386 256.229 316.217 264.704C311.047 273.178 303.585 280.018 294.693 284.432C291.305 285.918 287.759 287.013 284.123 287.696C289.224 286.163 293.567 282.778 296.298 278.205C299.03 273.633 299.952 268.204 298.884 262.986C297.815 257.768 294.833 253.138 290.525 250.007C286.216 246.876 280.892 245.47 275.599 246.065C270.306 246.661 265.427 249.215 261.922 253.225C258.416 257.235 256.538 262.412 256.656 267.737C256.774 273.062 258.879 278.15 262.559 282.002C266.238 285.853 271.225 288.189 276.539 288.549C276.091 288.549 275.664 288.699 275.216 288.699C264.534 288.614 254.211 284.834 246 278C237.785 284.822 227.462 288.591 216.784 288.667C215.129 288.573 213.48 288.388 211.845 288.112C220.99 296.994 230.516 305.46 240.421 313.509C242.349 312.451 244.211 311.279 246 310C252.835 315.085 260.772 318.487 269.168 319.931C272.087 320.42 275.041 320.666 278 320.667C281.68 320.658 285.35 320.283 288.955 319.547C292.505 318.824 295.98 317.771 299.333 316.4C302.111 315.169 304.78 313.706 307.312 312.027C307.824 311.696 308.293 311.323 308.795 310.96C310.825 309.547 312.754 307.993 314.565 306.309C315.184 305.733 315.813 305.168 316.4 304.56C318.346 302.573 320.13 300.433 321.733 298.16C321.893 297.936 322.085 297.744 322.245 297.52C323.931 295.025 325.394 292.388 326.619 289.637C326.992 288.816 327.291 287.973 327.621 287.141C328.455 285.025 329.142 282.855 329.68 280.645C329.904 279.739 330.139 278.843 330.32 277.925C330.943 274.837 331.282 271.699 331.333 268.549C331.364 271.749 331.697 274.938 332.325 278.075C332.528 279.141 332.837 280.133 333.104 281.168C333.609 283.181 334.236 285.162 334.981 287.099C335.429 288.229 335.909 289.339 336.432 290.437C337.271 292.162 338.204 293.839 339.227 295.461C339.867 296.528 340.464 297.595 341.179 298.533C341.36 298.779 341.499 299.067 341.68 299.312C342.766 300.7 343.934 302.022 345.179 303.269C347.126 305.323 349.219 307.234 351.44 308.987L351.611 309.136H351.685C353.773 310.753 355.976 312.215 358.277 313.509C358.768 313.787 359.291 314.043 359.803 314.309C361.809 315.381 363.883 316.322 366.011 317.125C367.291 317.605 368.635 317.947 369.968 318.331C371.515 318.779 373.061 319.269 374.672 319.579L374.96 319.632L376.176 319.845C378.979 320.349 381.819 320.624 384.667 320.667C398.776 320.552 412.276 314.897 422.253 304.919C432.23 294.942 437.886 281.443 438 267.333C444.862 267.538 451.696 266.376 458.104 263.916C464.513 261.456 470.369 257.747 475.332 253.003C480.294 248.26 484.264 242.578 487.011 236.287C489.759 229.996 491.228 223.221 491.333 216.357C491.302 213.213 490.981 210.078 490.373 206.992ZM224.667 246C224.67 243.19 224.115 240.407 223.034 237.812C221.954 235.218 220.37 232.863 218.373 230.885C208.922 233.988 199.019 235.491 189.072 235.333C187.739 235.333 186.48 235.035 185.168 234.939C183.436 237.751 182.381 240.928 182.086 244.217C181.791 247.507 182.263 250.821 183.467 253.897C184.67 256.973 186.571 259.727 189.021 261.943C191.47 264.159 194.4 265.777 197.581 266.667C200.762 267.558 204.106 267.698 207.35 267.076C210.594 266.455 213.649 265.088 216.275 263.084C218.901 261.081 221.026 258.495 222.482 255.53C223.938 252.565 224.686 249.303 224.667 246Z" fill="#007700"/>
<path d="M395.333 235.333C401.224 235.333 406 230.558 406 224.667C406 218.776 401.224 214 395.333 214C389.442 214 384.667 218.776 384.667 224.667C384.667 230.558 389.442 235.333 395.333 235.333Z" fill="#007700"/>
<path d="M182 43.3333C181.976 41.5687 181.509 39.8385 180.64 38.3024C179.771 36.7662 178.529 35.4737 177.029 34.544C175.358 33.3696 173.376 32.7164 171.333 32.6666C169.224 32.6666 167.161 33.2922 165.407 34.4643C163.653 35.6364 162.286 37.3023 161.479 39.2514C160.671 41.2004 160.46 43.3451 160.872 45.4143C161.283 47.4834 162.299 49.384 163.791 50.8758C165.283 52.3675 167.183 53.3835 169.252 53.795C171.322 54.2066 173.466 53.9954 175.415 53.188C177.364 52.3807 179.03 51.0135 180.202 49.2594C181.375 47.5053 182 45.443 182 43.3333ZM288.667 43.3333C291.496 43.3333 294.209 42.2095 296.209 40.2091C298.21 38.2087 299.333 35.4956 299.333 32.6666C299.285 30.6818 298.666 28.7527 297.552 27.1093C296.649 25.5527 295.353 24.2606 293.794 23.3624C292.234 22.4642 290.466 21.9914 288.667 21.9914C286.867 21.9914 285.099 22.4642 283.54 23.3624C281.98 24.2606 280.684 25.5527 279.781 27.1093C278.665 28.7517 278.047 30.6814 278 32.6666C278 35.4956 279.124 38.2087 281.124 40.2091C283.125 42.2095 285.838 43.3333 288.667 43.3333Z" fill="#00AC0D"/>
<path d="M214 128.667C219.891 128.667 224.667 123.891 224.667 118C224.667 112.109 219.891 107.333 214 107.333C208.109 107.333 203.333 112.109 203.333 118C203.333 123.891 208.109 128.667 214 128.667Z" fill="#00AC0D"/>
<path d="M288.667 107.333C294.558 107.333 299.334 102.558 299.334 96.6667C299.334 90.7756 294.558 86 288.667 86C282.776 86 278 90.7756 278 96.6667C278 102.558 282.776 107.333 288.667 107.333Z" fill="#00AC0D"/>
<path d="M288.667 192.667C294.558 192.667 299.334 187.891 299.334 182C299.334 176.109 294.558 171.333 288.667 171.333C282.776 171.333 278 176.109 278 182C278 187.891 282.776 192.667 288.667 192.667Z" fill="#00AC0D"/>
<path d="M299.334 171.333C311.116 171.333 320.667 161.782 320.667 150C320.667 138.218 311.116 128.667 299.334 128.667C287.552 128.667 278 138.218 278 150C278 161.782 287.552 171.333 299.334 171.333Z" fill="#00AC0D"/>
<path d="M192.667 182C204.449 182 214 172.449 214 160.667C214 148.885 204.449 139.333 192.667 139.333C180.885 139.333 171.333 148.885 171.333 160.667C171.333 172.449 180.885 182 192.667 182Z" fill="#00AC0D"/>
<path d="M143.6 86.4267C140.5 85.7939 137.298 85.8585 134.227 86.6159C131.155 87.3733 128.29 88.8044 125.839 90.8056C123.389 92.8068 121.414 95.328 120.058 98.1866C118.703 101.045 118 104.17 118 107.333C117.982 111.676 119.294 115.921 121.762 119.495C124.229 123.069 127.732 125.801 131.8 127.324C135.867 128.846 140.304 129.085 144.511 128.01C148.719 126.934 152.496 124.595 155.334 121.307C151.899 117.463 150 112.488 150 107.333C150 102.178 151.899 97.2039 155.334 93.36C152.29 89.8226 148.167 87.386 143.6 86.4267Z" fill="#00AC0D"/>
<path d="M203.334 75.3333C215.116 75.3333 224.667 65.7821 224.667 54C224.667 42.2179 215.116 32.6667 203.334 32.6667C191.552 32.6667 182 42.2179 182 54C182 65.7821 191.552 75.3333 203.334 75.3333Z" fill="#00AC0D"/>
<path d="M438 214C449.782 214 459.333 204.449 459.333 192.667C459.333 180.885 449.782 171.333 438 171.333C426.218 171.333 416.667 180.885 416.667 192.667C416.667 204.449 426.218 214 438 214Z" fill="#008906"/>
<path d="M374 278C385.782 278 395.333 268.449 395.333 256.667C395.333 244.885 385.782 235.333 374 235.333C362.218 235.333 352.667 244.885 352.667 256.667C352.667 268.449 362.218 278 374 278Z" fill="#008906"/>
<path d="M374 203.333C379.891 203.333 384.667 198.558 384.667 192.667C384.667 186.776 379.891 182 374 182C368.109 182 363.333 186.776 363.333 192.667C363.333 198.558 368.109 203.333 374 203.333Z" fill="#008906"/>
<path d="M246 246C251.891 246 256.667 241.224 256.667 235.333C256.667 229.442 251.891 224.667 246 224.667C240.109 224.667 235.333 229.442 235.333 235.333C235.333 241.224 240.109 246 246 246Z" fill="#008906"/>
<path d="M235.333 278C241.224 278 246 273.224 246 267.333C246 261.442 241.224 256.667 235.333 256.667C229.442 256.667 224.667 261.442 224.667 267.333C224.667 273.224 229.442 278 235.333 278Z" fill="#008906"/>
<path d="M406 192.667C411.891 192.667 416.667 187.891 416.667 182C416.667 176.109 411.891 171.333 406 171.333C400.109 171.333 395.333 176.109 395.333 182C395.333 187.891 400.109 192.667 406 192.667Z" fill="#00AC0D"/>
<path d="M335.867 243.867C337.632 245.213 339.781 245.96 342 246C344.829 246 347.542 244.876 349.543 242.876C351.543 240.875 352.667 238.162 352.667 235.333C352.647 233.455 352.125 231.616 351.155 230.007C350.186 228.398 348.804 227.077 347.152 226.181C345.597 225.234 343.821 224.711 342 224.667C339.171 224.667 336.458 225.79 334.458 227.791C332.457 229.791 331.333 232.504 331.333 235.333C331.347 237.016 331.766 238.67 332.555 240.155C333.344 241.641 334.48 242.914 335.867 243.867Z" fill="#00AC0D"/>
<path d="M199.296 188.759C206.169 181.886 203.985 168.557 194.416 158.989C184.848 149.42 171.519 147.235 164.646 154.109C157.773 160.982 159.958 174.31 169.526 183.879C179.094 193.447 192.423 195.632 199.296 188.759Z" fill="#F6FAFD"/>
<path d="M439.607 202.511C441.328 200.791 440.784 197.458 438.393 195.067C436.002 192.676 432.669 192.132 430.949 193.853C429.228 195.573 429.772 198.906 432.163 201.297C434.554 203.688 437.887 204.232 439.607 202.511Z" fill="#F6FAFD"/>
<path d="M327.346 71.44C334.219 64.5668 332.035 51.2382 322.466 41.6699C312.898 32.1015 299.569 29.9167 292.696 36.7899C285.823 43.6631 288.008 56.9917 297.576 66.56C307.144 76.1284 320.473 78.3132 327.346 71.44Z" fill="#F6FAFD"/>
<path d="M297.339 94.7769C300.776 91.3402 299.685 84.6776 294.903 79.8955C290.121 75.1134 283.458 74.0227 280.022 77.4593C276.585 80.896 277.676 87.5585 282.458 92.3406C287.24 97.1227 293.903 98.2135 297.339 94.7769Z" fill="#F6FAFD"/>
<path d="M467.982 201.515C471.419 198.078 470.328 191.416 465.546 186.634C460.764 181.852 454.102 180.761 450.665 184.198C447.228 187.634 448.319 194.297 453.101 199.079C457.883 203.861 464.546 204.952 467.982 201.515Z" fill="#F6FAFD"/>
<path d="M322.296 95.7915C324.016 94.0711 323.473 90.7381 321.082 88.347C318.691 85.956 315.358 85.4123 313.637 87.1327C311.917 88.8531 312.461 92.1861 314.852 94.5771C317.243 96.9682 320.576 97.5119 322.296 95.7915Z" fill="#F6FAFD"/>
</svg>
