<svg width="491" height="491" viewBox="0 0 491 491" fill="none" xmlns="http://www.w3.org/2000/svg">
<path d="M171.36 384.288C168.531 384.288 165.818 383.164 163.818 381.164C161.817 379.163 160.693 376.45 160.693 373.621V341.621C160.693 338.792 161.817 336.079 163.818 334.079C165.818 332.078 168.531 330.955 171.36 330.955C174.189 330.955 176.902 332.078 178.902 334.079C180.903 336.079 182.027 338.792 182.027 341.621V373.621C182.027 376.45 180.903 379.163 178.902 381.164C176.902 383.164 174.189 384.288 171.36 384.288Z" fill="#9C4D30"/>
<path d="M203.37 373.621C201.379 373.632 199.425 373.085 197.728 372.043C196.031 371.001 194.661 369.504 193.77 367.723L183.104 346.389C181.838 343.859 181.629 340.929 182.523 338.244C183.417 335.56 185.341 333.341 187.872 332.075C190.402 330.809 193.332 330.6 196.017 331.494C198.701 332.388 200.921 334.312 202.186 336.843L212.853 358.176C213.668 359.801 214.053 361.608 213.973 363.424C213.893 365.241 213.35 367.006 212.396 368.554C211.441 370.101 210.107 371.379 208.52 372.266C206.933 373.153 205.146 373.619 203.328 373.621H203.37ZM139.349 373.621C137.694 373.615 136.063 373.228 134.581 372.491C133.328 371.864 132.211 370.997 131.293 369.938C130.375 368.879 129.674 367.65 129.232 366.321C128.789 364.992 128.612 363.588 128.712 362.191C128.812 360.793 129.186 359.429 129.813 358.176L140.48 336.843C141.107 335.59 141.974 334.472 143.033 333.555C144.091 332.637 145.32 331.937 146.65 331.494C147.979 331.051 149.382 330.875 150.78 330.974C152.177 331.074 153.542 331.448 154.794 332.075C156.047 332.702 157.165 333.569 158.082 334.628C159 335.686 159.7 336.915 160.143 338.244C160.586 339.574 160.763 340.977 160.663 342.375C160.563 343.772 160.189 345.136 159.562 346.389L148.896 367.723C148.01 369.496 146.647 370.987 144.961 372.029C143.275 373.071 141.331 373.622 139.349 373.621Z" fill="#9C4D30"/>
<path d="M171.36 0.288002H214.027C214.027 0.288002 182.027 28.768 182.027 42.9547H160.693C160.693 42.9547 160.693 0.288002 171.36 0.288002Z" fill="#B25438"/>
<path d="M171.36 42.9547V43.3813C169.274 74.2144 158.143 103.748 139.36 128.288C119.637 156.522 108.522 189.867 107.36 224.288C107.36 298.955 134.027 352.288 171.36 362.955C96.6932 352.288 43.3599 298.955 43.3599 224.288C43.6676 202.443 49.7506 181.068 60.9911 162.333C72.2316 143.599 88.2293 128.173 107.36 117.621C166.987 97.7813 161.76 49.9947 160.8 43.7013C162.783 43.178 164.829 42.9268 166.88 42.9547H171.36Z" fill="#EF8900"/>
<path d="M216.907 85.6213C288.267 102.261 342.027 160.928 342.027 224.288C342.027 300.875 265.653 362.955 171.36 362.955C246.027 352.288 299.36 298.955 299.36 224.288C299.052 202.443 292.969 181.068 281.729 162.333C270.488 143.599 254.49 128.173 235.36 117.621C175.733 97.7813 180.96 49.9947 181.92 43.7013C186.387 44.8035 190.493 47.0429 193.839 50.2017C197.185 53.3605 199.656 57.3313 201.013 61.728C204.112 70.9543 209.595 79.1973 216.907 85.6213Z" fill="#F9D124"/>
<path d="M235.36 117.621C254.49 128.173 270.488 143.599 281.729 162.333C292.969 181.068 299.052 202.443 299.36 224.288C299.36 298.955 246.027 352.288 171.36 362.955C208.693 352.288 235.36 298.955 235.36 224.288C234.198 189.867 223.083 156.522 203.36 128.288C184.604 103.733 173.476 74.2078 171.36 43.3813V42.9547H175.84C177.891 42.9268 179.936 43.178 181.92 43.7013C180.96 49.9947 175.733 97.7813 235.36 117.621Z" fill="#FBB40A"/>
<path d="M203.36 128.288C223.083 156.522 234.198 189.867 235.36 224.288C235.36 298.955 208.693 352.288 171.36 362.955V43.3813C173.476 74.2078 184.604 103.733 203.36 128.288Z" fill="#EF8900"/>
<path d="M171.36 43.3813V362.955C134.027 352.288 107.36 298.955 107.36 224.288C108.522 189.867 119.637 156.522 139.36 128.288C158.143 103.748 169.274 74.2144 171.36 43.3813Z" fill="#FBB40A"/>
<path d="M160.8 43.7333C161.76 50.0267 166.987 97.8133 107.36 117.653C88.2295 128.205 72.2318 143.631 60.9913 162.365C49.7508 181.1 43.6678 202.475 43.36 224.32C43.36 298.987 96.6934 352.32 171.36 362.987C77.0667 362.987 0.693359 300.907 0.693359 224.32C0.693359 160.96 54.4534 102.293 125.813 85.6533C133.125 79.2293 138.608 70.9863 141.707 61.76C143.064 57.3633 145.535 53.3925 148.881 50.2337C152.226 47.0749 156.333 44.8355 160.8 43.7333Z" fill="#E6642F"/>
<path d="M279.147 446.624C296 452.491 306.347 466.144 302.293 476.917C300.203 482.197 296.136 486.453 290.958 488.783C285.78 491.114 279.898 491.334 274.56 489.397L254.176 482.251C251.541 481.383 249.109 479.992 247.023 478.163C244.937 476.334 243.242 474.104 242.037 471.605C240.832 469.106 240.144 466.39 240.012 463.619C239.88 460.848 240.307 458.079 241.269 455.477C245.333 444.704 262.283 440.651 279.147 446.624Z" fill="#BC4926"/>
<path d="M329.824 343.061C338.677 357.781 338.571 380.821 328.971 406.304C316.171 440.117 293.227 451.531 279.147 446.624C265.067 441.717 255.136 418.784 267.936 384.875C277.536 359.381 292.907 341.675 309.44 335.915C316.231 331.312 322.247 325.659 327.264 319.168C326.824 327.218 327.689 335.287 329.824 343.061Z" fill="#FFFFB5"/>
<path d="M362.251 307.861C376.018 319.341 385.832 334.853 390.308 352.21C394.785 369.567 393.698 387.892 387.2 404.597C369.483 451.424 316.672 459.744 279.125 446.624C293.205 451.531 316.139 440.117 328.949 406.304C338.549 380.821 338.656 357.781 329.803 343.061C327.667 335.287 326.803 327.218 327.243 319.168C322.226 325.659 316.21 331.312 309.419 335.915C292.885 341.675 277.525 359.381 267.915 384.875C255.115 418.784 265.141 441.717 279.125 446.624C241.675 433.504 206.784 394.261 224.501 347.424C230.906 330.377 242.305 315.658 257.207 305.192C272.11 294.725 289.823 288.997 308.032 288.757C324.256 286.517 333.109 276.704 345.803 270.091C351.157 283.115 351.371 296.021 362.251 307.861Z" fill="#FDF781"/>
<path d="M394.474 263.168C438.208 299.861 454.538 348.181 436.725 395.328C413.258 457.717 335.392 466.357 279.146 446.624C316.693 459.744 369.504 451.424 387.221 404.597C393.716 387.889 394.8 369.564 390.32 352.207C385.839 334.85 376.021 319.338 362.25 307.861C351.37 296.021 351.157 283.115 345.824 270.101C333.13 276.715 324.277 286.528 308.053 288.768C289.844 289.008 272.131 294.736 257.228 305.202C242.326 315.669 230.927 330.387 224.522 347.435C206.805 394.261 241.696 433.504 279.146 446.635C222.922 426.901 169.141 372.085 192.618 309.685C210.432 262.539 255.136 235.669 313.152 234.603C333.754 234.099 353.38 225.724 368 211.2C368.77 221.179 371.506 230.908 376.05 239.827C380.593 248.745 386.855 256.678 394.474 263.168Z" fill="#FFFFB5"/>
<path d="M418.795 206.859C481.109 246.005 504.576 337.621 482.603 395.861C462.752 448.437 409.515 481.931 345.717 481.931C331.1 481.901 316.533 480.219 302.293 476.917C306.346 466.144 296 452.491 279.146 446.624C335.37 466.357 413.248 457.717 436.725 395.328C454.539 348.181 438.218 299.861 394.474 263.168C386.855 256.678 380.593 248.745 376.05 239.827C371.506 230.908 368.771 221.179 368 211.2C353.376 225.706 333.755 234.065 313.162 234.56C255.125 235.627 210.421 262.496 192.629 309.643C169.162 372.043 222.933 426.859 279.157 446.592C262.293 440.619 245.333 444.672 241.28 455.445C165.739 418.965 132.992 345.803 157.205 281.579C179.189 223.349 258.24 167.776 332.075 176.416C341.169 172.982 349.218 167.249 355.434 159.776C358.958 155.295 363.791 152.024 369.261 150.418C374.731 148.812 380.565 148.951 385.952 150.816L394.592 153.909C399.879 155.739 404.432 159.232 407.566 163.867C410.701 168.502 412.249 174.027 411.979 179.616C411.742 189.147 414.098 198.562 418.795 206.859Z" fill="#FDF781"/>
<path d="M170.667 384C167.838 384 165.125 382.876 163.124 380.876C161.124 378.875 160 376.162 160 373.333V341.333C160 338.504 161.124 335.791 163.124 333.791C165.125 331.79 167.838 330.667 170.667 330.667C173.496 330.667 176.209 331.79 178.209 333.791C180.21 335.791 181.333 338.504 181.333 341.333V373.333C181.333 376.162 180.21 378.875 178.209 380.876C176.209 382.876 173.496 384 170.667 384Z" fill="#9C4D30"/>
<path d="M202.667 373.333C200.676 373.344 198.721 372.797 197.024 371.755C195.328 370.713 193.957 369.216 193.067 367.435L182.4 346.101C181.774 344.848 181.401 343.483 181.302 342.085C181.204 340.687 181.381 339.284 181.825 337.954C182.269 336.625 182.97 335.396 183.888 334.338C184.807 333.28 185.925 332.413 187.179 331.787C188.433 331.161 189.797 330.787 191.195 330.689C192.593 330.59 193.997 330.768 195.326 331.211C196.655 331.655 197.884 332.356 198.942 333.275C200 334.194 200.867 335.312 201.493 336.565L212.16 357.899C212.971 359.521 213.355 361.324 213.275 363.136C213.195 364.948 212.654 366.71 211.704 368.255C210.754 369.8 209.425 371.077 207.844 371.966C206.263 372.854 204.481 373.325 202.667 373.333ZM138.667 373.333C136.849 373.332 135.062 372.867 133.475 371.981C131.888 371.096 130.553 369.819 129.598 368.273C128.643 366.727 128.098 364.962 128.017 363.147C127.935 361.331 128.318 359.525 129.131 357.899L139.797 336.565C141.062 334.033 143.281 332.108 145.965 331.211C148.65 330.315 151.58 330.522 154.112 331.787C156.644 333.051 158.57 335.27 159.466 337.954C160.362 340.639 160.155 343.569 158.891 346.101L148.224 367.435C147.337 369.209 145.973 370.702 144.285 371.744C142.596 372.786 140.651 373.336 138.667 373.333Z" fill="#9C4D30"/>
<path d="M170.667 0H213.333C213.333 0 181.333 28.48 181.333 42.6667H160C160 42.6667 160 0 170.667 0Z" fill="#B25438"/>
<path d="M170.667 42.6667V43.0933C168.581 73.9264 157.45 103.46 138.667 128C118.944 156.234 107.829 189.579 106.667 224C106.667 298.667 133.333 352 170.667 362.667C95.9998 352 42.6665 298.667 42.6665 224C42.9743 202.155 49.0572 180.78 60.2977 162.045C71.5382 143.311 87.536 127.885 106.667 117.333C166.293 97.4933 161.067 49.7067 160.107 43.4133C162.09 42.89 164.135 42.6388 166.187 42.6667H170.667Z" fill="#EF8900"/>
<path d="M216.213 85.3333C287.573 101.973 341.333 160.64 341.333 224C341.333 300.587 264.96 362.667 170.667 362.667C245.333 352 298.667 298.667 298.667 224C298.359 202.155 292.276 180.78 281.035 162.045C269.795 143.311 253.797 127.885 234.667 117.333C175.04 97.4933 180.267 49.7067 181.227 43.4133C185.694 44.5155 189.8 46.7548 193.146 49.9137C196.492 53.0725 198.963 57.0433 200.32 61.44C203.419 70.6663 208.902 78.9093 216.213 85.3333Z" fill="#F9D124"/>
<path d="M234.667 117.333C253.797 127.885 269.795 143.311 281.035 162.045C292.276 180.78 298.359 202.155 298.667 224C298.667 298.667 245.333 352 170.667 362.667C208 352 234.667 298.667 234.667 224C233.504 189.579 222.389 156.234 202.667 128C183.91 103.445 172.783 73.9198 170.667 43.0933V42.6667H175.147C177.198 42.6388 179.243 42.89 181.227 43.4133C180.267 49.7067 175.04 97.4933 234.667 117.333Z" fill="#FBB40A"/>
<path d="M202.667 128C222.389 156.234 233.504 189.579 234.667 224C234.667 298.667 208 352 170.667 362.667V43.0933C172.783 73.9198 183.91 103.445 202.667 128Z" fill="#EF8900"/>
<path d="M170.667 43.0933V362.667C133.333 352 106.667 298.667 106.667 224C107.829 189.579 118.944 156.234 138.667 128C157.45 103.46 168.581 73.9264 170.667 43.0933Z" fill="#FBB40A"/>
<path d="M160.107 43.4133C161.067 49.7067 166.293 97.4933 106.667 117.333C87.5361 127.885 71.5384 143.311 60.2979 162.045C49.0574 180.78 42.9744 202.155 42.6667 224C42.6667 298.667 96 352 170.667 362.667C76.3733 362.667 0 300.587 0 224C0 160.64 53.76 101.973 125.12 85.3333C132.432 78.9093 137.915 70.6663 141.013 61.44C142.37 57.0433 144.842 53.0725 148.187 49.9137C151.533 46.7548 155.639 44.5155 160.107 43.4133Z" fill="#E6642F"/>
<path d="M279.147 446.624C296 452.491 306.347 466.144 302.293 476.917C300.203 482.197 296.136 486.453 290.958 488.783C285.78 491.114 279.898 491.334 274.56 489.397L254.176 482.251C251.541 481.383 249.109 479.992 247.023 478.163C244.937 476.334 243.242 474.104 242.037 471.605C240.832 469.106 240.144 466.39 240.012 463.619C239.88 460.848 240.307 458.079 241.269 455.477C245.333 444.704 262.283 440.651 279.147 446.624Z" fill="#BC4926"/>
<path d="M329.824 343.061C338.677 357.781 338.571 380.821 328.971 406.304C316.171 440.117 293.227 451.531 279.147 446.624C265.067 441.717 255.136 418.784 267.936 384.875C277.536 359.381 292.907 341.675 309.44 335.915C316.231 331.312 322.247 325.659 327.264 319.168C326.824 327.218 327.689 335.287 329.824 343.061Z" fill="#FFFFB5"/>
<path d="M329.824 343.061C338.677 357.781 338.571 380.821 328.971 406.304C316.171 440.117 293.227 451.531 279.147 446.624C265.067 441.717 255.136 418.784 267.936 384.875C277.536 359.381 292.907 341.675 309.44 335.915C316.231 331.312 322.247 325.659 327.264 319.168C326.824 327.218 327.689 335.287 329.824 343.061Z" fill="#FFFFB5"/>
<path d="M362.251 307.861C376.018 319.341 385.832 334.853 390.308 352.21C394.785 369.567 393.698 387.892 387.2 404.597C369.483 451.424 316.672 459.744 279.125 446.624C293.205 451.531 316.139 440.117 328.949 406.304C338.549 380.821 338.656 357.781 329.803 343.061C327.667 335.287 326.803 327.218 327.243 319.168C322.226 325.659 316.21 331.312 309.419 335.915C292.885 341.675 277.525 359.381 267.915 384.875C255.115 418.784 265.141 441.717 279.125 446.624C241.675 433.504 206.784 394.261 224.501 347.424C230.906 330.377 242.305 315.658 257.207 305.192C272.11 294.725 289.823 288.997 308.032 288.757C324.256 286.517 333.109 276.704 345.803 270.091C351.157 283.115 351.371 296.021 362.251 307.861Z" fill="#FFE05B"/>
<path d="M394.474 263.168C438.208 299.861 454.538 348.181 436.725 395.328C413.258 457.717 335.392 466.357 279.146 446.624C316.693 459.744 369.504 451.424 387.221 404.597C393.716 387.889 394.8 369.564 390.32 352.207C385.839 334.85 376.021 319.338 362.25 307.861C351.37 296.021 351.157 283.115 345.824 270.101C333.13 276.715 324.277 286.528 308.053 288.768C289.844 289.008 272.131 294.736 257.228 305.202C242.326 315.669 230.927 330.387 224.522 347.435C206.805 394.261 241.696 433.504 279.146 446.635C222.922 426.901 169.141 372.085 192.618 309.685C210.432 262.539 255.136 235.669 313.152 234.603C333.754 234.099 353.38 225.724 368 211.2C368.77 221.179 371.506 230.908 376.05 239.827C380.593 248.745 386.855 256.678 394.474 263.168Z" fill="#FFE05B"/>
<path d="M418.795 206.859C481.109 246.005 504.576 337.621 482.603 395.861C462.752 448.437 409.515 481.931 345.717 481.931C331.1 481.901 316.533 480.219 302.293 476.917C306.346 466.144 296 452.491 279.146 446.624C335.37 466.357 413.248 457.717 436.725 395.328C454.539 348.181 438.218 299.861 394.474 263.168C386.855 256.678 380.593 248.745 376.05 239.827C371.506 230.908 368.771 221.179 368 211.2C353.376 225.706 333.755 234.065 313.162 234.56C255.125 235.627 210.421 262.496 192.629 309.643C169.162 372.043 222.933 426.859 279.157 446.592C262.293 440.619 245.333 444.672 241.28 455.445C165.739 418.965 132.992 345.803 157.205 281.579C179.189 223.349 258.24 167.776 332.075 176.416C341.169 172.982 349.218 167.249 355.434 159.776C358.958 155.295 363.791 152.024 369.261 150.418C374.731 148.812 380.565 148.951 385.952 150.816L394.592 153.909C399.879 155.739 404.432 159.232 407.566 163.867C410.701 168.502 412.249 174.027 411.979 179.616C411.742 189.147 414.098 198.562 418.795 206.859Z" fill="#FFE05B"/>
<path d="M418.795 206.859C414.102 198.576 411.743 189.176 411.968 179.659C412.239 174.07 410.691 168.544 407.556 163.91C404.422 159.275 399.869 155.781 394.582 153.952L385.942 150.859C380.555 148.994 374.72 148.855 369.251 150.46C363.781 152.066 358.948 155.338 355.424 159.819C349.207 167.292 341.159 173.025 332.064 176.459C258.23 167.819 179.179 223.392 157.195 281.621C132.982 345.835 165.728 418.997 241.27 455.488C245.323 444.715 262.283 440.661 279.147 446.635C271.472 443.919 264.009 440.635 256.822 436.811C254.507 437.399 252.352 438.491 250.508 440.009C248.664 441.526 247.178 443.432 246.155 445.589C175.339 412.832 144.64 347.136 167.339 289.472C187.947 237.205 262.059 187.275 331.275 195.04C339.729 192.006 347.27 186.867 353.184 180.107C356.59 176.047 361.14 173.107 366.242 171.673C371.343 170.238 376.759 170.374 381.782 172.064L389.888 174.837C394.763 176.361 399 179.447 401.946 183.619C404.892 187.791 406.382 192.817 406.187 197.92C405.983 206.502 408.201 214.967 412.587 222.347C470.998 257.547 493.003 339.765 472.395 392.064C453.835 439.264 403.926 469.333 344.107 469.333C330.416 469.306 316.769 467.797 303.403 464.832C304.087 462.85 304.316 460.74 304.075 458.657C303.833 456.574 303.126 454.573 302.006 452.8C294.249 451.287 286.61 449.223 279.147 446.624C296 452.491 306.347 466.144 302.294 476.917C316.533 480.219 331.1 481.901 345.718 481.931C409.515 481.931 462.752 448.437 482.603 395.861C504.534 337.621 481.067 246.005 418.795 206.859Z" fill="#FBB40A"/>
<path d="M394.474 263.168C386.855 256.678 380.593 248.745 376.05 239.827C371.506 230.908 368.771 221.179 368 211.2C353.376 225.706 333.755 234.065 313.162 234.56C255.125 235.627 210.421 262.496 192.629 309.643C169.163 372.043 222.923 426.859 279.157 446.592C263.356 441.01 249.255 431.46 238.208 418.859C215.883 401.611 200.384 377.696 203.008 351.019C202.205 340.191 203.785 329.319 207.637 319.168C223.168 277.675 262.155 254.027 312.779 253.088C330.745 252.619 347.843 245.26 360.533 232.533C361.879 250.22 370.174 266.654 383.605 278.24C421.76 310.528 435.989 353.045 420.459 394.507C407.584 429.024 375.947 444.832 342.048 447.499C321.517 453.978 299.443 453.649 279.115 446.56C335.339 466.293 413.216 457.653 436.693 395.264C454.538 348.181 438.218 299.861 394.474 263.168Z" fill="#FFFFB5"/>
<path d="M362.251 307.861C351.371 296.021 351.158 283.115 345.824 270.101C333.131 276.715 324.278 286.528 308.054 288.768C289.844 289.008 272.131 294.736 257.229 305.202C242.326 315.669 230.928 330.387 224.523 347.435C206.806 394.261 241.696 433.504 279.147 446.635C277.31 445.978 275.584 445.046 274.027 443.872C247.456 430.272 225.59 399.744 238.464 363.872C243.214 349.786 252.165 337.493 264.113 328.648C276.061 319.803 290.432 314.83 305.291 314.4C318.262 312.512 325.344 304.245 335.499 298.667C339.766 309.643 339.947 320.523 348.651 330.507C359.775 340.532 367.628 353.672 371.189 368.218C374.75 382.763 373.854 398.044 368.619 412.075C364.31 424.236 356.213 434.694 345.518 441.911C334.824 449.128 322.096 452.724 309.206 452.171C340.779 453.237 373.91 439.787 387.222 404.597C393.717 387.889 394.801 369.564 390.32 352.207C385.84 334.85 376.021 319.338 362.251 307.861Z" fill="#FFFFB5"/>
<path d="M175.147 42.6667H181.333C181.333 28.48 213.333 0 213.333 0H170.667C160 0 160 42.6667 160 42.6667H175.147Z" fill="#E6642F"/>
<path d="M181.333 0H170.667C160 0 160 42.6667 160 42.6667H170.667C170.667 42.6667 170.667 0 181.333 0Z" fill="#BC4926"/>
<path d="M109.045 116.416C110.909 133.394 113.942 150.224 118.123 166.784C123.371 153.07 130.27 140.046 138.667 128C157.45 103.46 168.581 73.9264 170.667 43.0933V42.6667H166.187C164.136 42.6388 162.09 42.89 160.107 43.4133C161.067 49.6213 166.016 96.0853 109.045 116.416Z" fill="#FBB40A"/>
<path d="M234.667 117.333C254.379 128.455 270.85 144.525 282.453 163.957C290.115 160.708 296.859 155.624 302.091 149.152C304.279 146.449 306.952 144.177 309.973 142.453C285.733 113.759 252.829 93.7132 216.213 85.3333C208.902 78.9093 203.419 70.6663 200.32 61.44C198.963 57.0433 196.492 53.0725 193.146 49.9137C189.8 46.7548 185.694 44.5155 181.227 43.4133C180.267 49.7067 175.04 97.4933 234.667 117.333Z" fill="#FDF781"/>
<path d="M170.667 43.0933C172.783 73.9198 183.91 103.445 202.667 128C211.769 141.021 219.118 155.183 224.523 170.123C242.163 165.309 260.549 163.841 278.731 165.792C280.085 165.141 281.216 164.565 282.453 163.957C270.85 144.525 254.379 128.455 234.667 117.333C175.04 97.4933 180.267 49.7067 181.227 43.4133C179.243 42.89 177.198 42.6388 175.147 42.6667H170.667V43.0933Z" fill="#F9D124"/>
<path d="M224.523 170.123C219.118 155.183 211.769 141.021 202.667 128C183.91 103.445 172.783 73.9198 170.667 43.0933V194.133C187.254 183.365 205.426 175.263 224.523 170.123Z" fill="#FBB40A"/>
<path d="M170.667 194.133V43.0933C168.581 73.9264 157.45 103.46 138.667 128C130.27 140.046 123.371 153.07 118.123 166.784C122.884 185.553 129.107 203.92 136.736 221.717C146.982 211.286 158.363 202.034 170.667 194.133Z" fill="#F9D124"/>
<path d="M160.106 43.4133C155.639 44.5155 151.533 46.7548 148.187 49.9137C144.841 53.0725 142.37 57.0433 141.013 61.44C137.914 70.6663 132.431 78.9093 125.12 85.3333C119.015 86.7962 112.991 88.5764 107.072 90.6667C107.434 99.328 108.092 107.908 109.045 116.405C166.016 96.0853 161.066 49.6213 160.106 43.4133Z" fill="#EF8900"/>
<path d="M329.824 343.061C327.689 335.287 326.824 327.218 327.264 319.168C322.247 325.659 316.231 331.312 309.44 335.915C293.44 341.504 278.507 358.379 268.907 382.635C286.753 394.87 305.634 405.524 325.333 414.475C326.603 411.851 327.883 409.269 329.013 406.304C338.571 380.8 338.677 357.781 329.824 343.061Z" fill="#FFFEF4"/>
<path d="M369.504 431.392C370.976 430.005 372.438 428.619 373.771 427.072C372.374 428.651 370.774 429.92 369.27 431.339L369.504 431.392Z" fill="#FDF781"/>
<path d="M348.651 330.507C339.947 320.523 339.776 309.643 335.499 298.667C325.344 304.245 318.261 312.533 305.291 314.4C303.157 314.539 301.109 314.923 299.029 315.2C288.319 316.39 278.014 319.972 268.877 325.683C259.739 331.394 252.002 339.087 246.24 348.192C243.744 352.126 241.602 356.274 239.84 360.587C249.134 368.409 258.795 375.758 268.821 382.635C278.421 358.379 293.355 341.504 309.355 335.915C316.146 331.312 322.162 325.659 327.179 319.168C326.739 327.218 327.603 335.287 329.739 343.061C338.592 357.781 338.485 380.821 328.885 406.304C327.755 409.269 326.475 411.851 325.205 414.475C336.507 419.626 348.064 424.201 359.829 428.181C363.513 423.274 366.447 417.846 368.533 412.075C373.779 398.052 374.688 382.777 371.142 368.232C367.596 353.686 359.76 340.542 348.651 330.507Z" fill="#FFEFA1"/>
<path d="M224.693 347.051C224.949 346.379 225.312 345.792 225.579 345.131C224.96 345.461 224.363 345.824 223.733 346.144L224.693 347.051Z" fill="#FDF781"/>
<path d="M383.627 278.272C370.18 266.682 361.876 250.235 360.533 232.533C354.212 238.773 346.824 243.831 338.72 247.467C330.404 250.695 321.639 252.619 312.736 253.173C306.942 253.293 301.159 253.734 295.413 254.496C269.437 257.123 245.24 268.9 227.147 287.723C218.625 296.855 211.972 307.567 207.563 319.253C206.571 321.901 205.724 324.6 205.024 327.339C206.272 328.704 207.573 330.005 208.843 331.349C213.664 336.441 218.617 341.39 223.701 346.197C224.331 345.877 224.928 345.515 225.547 345.184C230.278 333.162 237.62 322.341 247.043 313.501C256.465 304.662 267.733 298.025 280.032 294.069C289.088 291.089 298.5 289.324 308.021 288.821C313.981 287.966 319.725 285.99 324.949 282.997C332.096 279.072 338.283 274.069 345.792 270.197C351.125 283.211 351.339 296.117 362.219 307.957C375.971 319.426 385.779 334.92 390.26 352.257C394.742 369.595 393.672 387.901 387.2 404.597C385.748 408.364 383.993 412.006 381.952 415.488C381.474 416.319 380.98 417.141 380.469 417.952C378.509 421.148 376.294 424.18 373.845 427.019H373.781C372.416 428.565 370.955 429.952 369.515 431.339C374.4 432.853 379.339 434.229 384.299 435.541C401.053 426.854 413.96 412.224 420.491 394.517C436.011 353.067 421.781 310.56 383.627 278.272Z" fill="#FFEFA1"/>
<path d="M412.629 222.325C408.243 214.946 406.025 206.48 406.229 197.899C406.424 192.795 404.934 187.77 401.988 183.598C399.042 179.426 394.805 176.34 389.931 174.816L381.824 172.043C376.801 170.353 371.386 170.217 366.284 171.651C361.183 173.086 356.632 176.025 353.227 180.085C348.775 185.421 343.144 189.65 336.779 192.437C335.072 193.28 333.323 194.112 331.317 195.029C319.349 193.767 307.266 194.086 295.381 195.979C273.889 199.421 253.226 206.84 234.453 217.856C207.443 232.753 185.298 255.117 170.667 282.272V283.872C177.287 293.657 184.348 303.1 191.851 312.203C192.149 311.349 192.299 310.528 192.619 309.675C200.349 288.888 214.283 270.98 232.533 258.379C252.088 245.307 274.657 237.446 298.101 235.541C303.019 235.051 308 234.688 313.131 234.592C322.639 233.944 332.013 231.995 340.992 228.8C351.059 224.756 360.235 218.776 368 211.2C368.773 221.173 371.509 230.895 376.051 239.808C380.592 248.721 386.85 256.648 394.464 263.136C438.197 299.829 454.528 348.149 436.715 395.296C429.901 413.721 416.991 429.262 400.128 439.339C409.82 441.472 419.651 443.193 429.621 444.501C448.872 431.739 463.798 413.436 472.427 392.011C493.045 339.744 471.04 257.472 412.629 222.325Z" fill="#FFEFA1"/>
<path d="M170.667 282.272C170.507 282.592 170.379 282.912 170.229 283.232L170.667 283.872V282.272Z" fill="#FDF781"/>
<path d="M418.795 206.859C414.102 198.576 411.743 189.176 411.968 179.659C412.239 174.07 410.69 168.544 407.556 163.91C404.421 159.275 399.869 155.781 394.581 153.952L385.941 150.859C380.888 149.114 375.434 148.891 370.255 150.219C365.076 151.546 360.402 154.365 356.811 158.325C356.352 158.827 355.851 159.285 355.424 159.819C349.207 167.292 341.158 173.025 332.064 176.459C331.733 176.459 331.413 176.459 331.083 176.395C317.229 174.949 303.239 175.542 289.557 178.155C269.448 182.08 250.145 189.368 232.459 199.712C207.873 213.62 186.749 232.906 170.667 256.128C167.531 260.753 164.681 265.566 162.133 270.539C164.779 274.805 167.467 279.072 170.272 283.232C170.421 282.912 170.549 282.592 170.709 282.272C185.338 255.119 207.479 232.755 234.485 217.856C253.258 206.84 273.921 199.421 295.413 195.979C307.298 194.086 319.381 193.767 331.349 195.029C333.355 194.112 335.104 193.28 336.811 192.437C343.176 189.65 348.807 185.421 353.259 180.085C356.664 176.025 361.215 173.086 366.316 171.651C371.418 170.217 376.833 170.353 381.856 172.043L389.963 174.816C394.837 176.34 399.074 179.426 402.02 183.598C404.966 187.77 406.456 192.795 406.261 197.899C406.057 206.48 408.275 214.946 412.661 222.325C471.072 257.525 493.077 339.744 472.469 392.043C463.841 413.468 448.915 431.771 429.664 444.533C435.435 445.301 441.237 445.963 447.083 446.475C462.982 432.844 475.206 415.441 482.635 395.861C504.533 337.621 481.067 246.005 418.795 206.859Z" fill="#F9D124"/>
<path d="M394.475 263.168C386.855 256.678 380.594 248.745 376.05 239.827C371.507 230.908 368.771 221.179 368 211.2C360.242 218.761 351.077 224.73 341.024 228.768C332.045 231.963 322.671 233.912 313.163 234.56C308.032 234.656 303.051 235.019 298.133 235.509C274.675 237.418 252.094 245.29 232.533 258.379C214.267 270.973 200.318 288.882 192.576 309.675C192.256 310.528 192.107 311.349 191.808 312.203C196.075 317.355 200.491 322.368 205.013 327.285C205.713 324.546 206.561 321.847 207.552 319.2C211.981 307.508 218.656 296.797 227.2 287.669C245.294 268.846 269.49 257.069 295.467 254.443C301.212 253.681 306.995 253.24 312.789 253.12C321.693 252.566 330.457 250.641 338.773 247.413C346.855 243.788 354.224 238.749 360.533 232.533C361.879 250.22 370.174 266.654 383.605 278.24C421.76 310.528 435.989 353.045 420.459 394.507C413.928 412.213 401.021 426.843 384.267 435.531C389.504 436.907 394.795 438.144 400.117 439.307C416.981 429.23 429.891 413.689 436.704 395.264C454.539 348.181 438.219 299.861 394.475 263.168Z" fill="#FFFEF4"/>
<path d="M362.251 307.861C351.371 296.021 351.157 283.115 345.824 270.101C338.357 274.016 332.128 279.019 324.981 282.901C319.757 285.894 314.013 287.87 308.053 288.725C298.532 289.228 289.12 290.993 280.064 293.973C267.765 297.929 256.497 304.566 247.075 313.405C237.652 322.245 230.31 333.066 225.579 345.088C225.312 345.749 224.949 346.336 224.693 347.008C226.976 349.141 229.269 351.275 231.605 353.408C234.336 355.84 237.099 358.233 239.893 360.587C241.656 356.274 243.797 352.126 246.293 348.192C252.056 339.087 259.792 331.394 268.93 325.683C278.068 319.972 288.373 316.39 299.083 315.2C301.216 314.923 303.2 314.539 305.344 314.4C318.315 312.512 325.397 304.245 335.552 298.667C339.819 309.643 340 320.523 348.704 330.507C359.828 340.532 367.681 353.672 371.242 368.218C374.803 382.763 373.907 398.044 368.672 412.075C366.586 417.846 363.652 423.274 359.968 428.181C363.093 429.248 366.187 430.315 369.355 431.381C370.859 429.963 372.459 428.693 373.856 427.115H373.92C376.369 424.276 378.584 421.244 380.544 418.048C381.056 417.237 381.547 416.416 382.027 415.584C384.064 412.1 385.819 408.458 387.275 404.693C393.786 387.968 394.873 369.618 390.383 352.241C385.892 334.863 376.05 319.338 362.251 307.861Z" fill="#FFFEF4"/>
<path d="M153.6 356.555C153.356 355.614 153.117 354.672 152.886 353.728C147.403 349.664 142.489 344.886 138.272 339.52C121.504 315.993 111.349 288.4 108.864 259.616C106.98 263.302 105.296 267.087 103.819 270.955C96.2199 291.075 94.114 312.855 97.7175 334.059C108.224 341.654 119.664 347.867 131.755 352.544C138.491 355.106 145.381 357.243 152.384 358.944C153.11 359.115 153.803 359.328 154.518 359.499C154.283 358.549 153.92 357.568 153.6 356.555Z" fill="#E6642F"/>
<path d="M302.09 149.152C296.859 155.624 290.115 160.708 282.453 163.957C285.143 168.522 287.516 173.265 289.557 178.155C303.238 175.542 317.229 174.949 331.082 176.395C325.674 164.146 318.568 152.72 309.973 142.453C306.952 144.177 304.279 146.449 302.09 149.152Z" fill="#F9D124"/>
<path d="M289.557 178.133C287.516 173.244 285.143 168.501 282.453 163.936C281.216 164.544 280.085 165.12 278.73 165.771C260.549 163.819 242.163 165.288 224.522 170.101C228.052 179.706 230.708 189.609 232.458 199.691C250.144 189.347 269.448 182.059 289.557 178.133Z" fill="#FBB40A"/>
<path d="M170.667 256.128C186.749 232.906 207.872 213.62 232.458 199.712C230.708 189.63 228.052 179.727 224.523 170.123C205.426 175.263 187.254 183.365 170.667 194.133V256.128Z" fill="#EF8900"/>
<path d="M170.667 256.128V194.133C158.362 202.041 146.981 211.3 136.736 221.739C143.983 238.611 152.472 254.923 162.133 270.539C164.681 265.566 167.531 260.753 170.667 256.128Z" fill="#FBB40A"/>
<path d="M162.133 270.539C152.485 254.915 144.011 238.596 136.779 221.717C125.632 232.864 116.248 245.644 108.949 259.616C111.434 288.4 121.589 315.993 138.357 339.52C142.574 344.886 147.489 349.664 152.971 353.728C151.108 346.194 149.958 338.501 149.536 330.752C148.677 314.019 151.299 297.289 157.237 281.621C158.677 277.845 160.311 274.146 162.133 270.539Z" fill="#EF8900"/>
<path d="M273.313 145.445C280.186 138.572 278.001 125.243 268.433 115.675C258.865 106.106 245.536 103.922 238.663 110.795C231.79 117.668 233.974 130.997 243.543 140.565C253.111 150.133 266.44 152.318 273.313 145.445Z" fill="#F6FAFD"/>
<path d="M221.978 126.086C225.415 122.65 224.324 115.987 219.542 111.205C214.76 106.423 208.097 105.332 204.661 108.769C201.224 112.205 202.315 118.868 207.097 123.65C211.879 128.432 218.541 129.523 221.978 126.086Z" fill="#F6FAFD"/>
<path d="M236.261 159.104C237.981 157.384 237.437 154.051 235.046 151.66C232.655 149.269 229.322 148.725 227.602 150.445C225.881 152.166 226.425 155.499 228.816 157.89C231.207 160.281 234.54 160.824 236.261 159.104Z" fill="#F6FAFD"/>
</svg>
