<svg width="512" height="554" viewBox="0 0 512 554" fill="none" xmlns="http://www.w3.org/2000/svg">
<path d="M345.263 0.812285C280.677 -3.78325 216.205 11.1965 160.26 43.7967C104.316 76.3969 59.4975 125.104 31.6535 183.561C3.80948 242.018 -5.76702 307.511 4.1737 371.493C14.1144 435.476 43.1107 494.975 87.3786 542.229C92.1751 546.507 97.8656 549.662 104.036 551.464C110.206 553.265 116.699 553.667 123.045 552.641C129.39 551.615 135.426 549.186 140.714 545.532C146.002 541.878 150.408 537.091 153.611 531.519L235.251 359.972L431.319 453.355C439.304 457.153 448.472 457.624 456.805 454.664C465.138 451.705 471.955 445.557 475.756 437.572L508.731 368.333C510.626 364.374 511.721 360.08 511.953 355.697C512.186 351.314 511.55 346.928 510.084 342.791C508.618 338.654 506.349 334.847 503.409 331.589C500.468 328.33 496.913 325.684 492.948 323.802L296.974 230.419L378.614 58.9654C380.936 52.9738 381.889 46.5392 381.405 40.1319C380.92 33.7245 379.009 27.5064 375.812 21.9323C372.616 16.3582 368.213 11.5691 362.928 7.91501C357.642 4.26088 351.607 1.83413 345.263 0.812285Z" fill="#EFD4B9"/>
<path d="M344.706 0.999962C353.48 2.76279 361.586 6.9432 368.11 13.0687C374.634 19.1943 379.316 27.0214 381.627 35.6667C324.626 40.9273 269.97 60.9107 223.019 93.6579C176.068 126.405 138.432 170.792 113.803 222.466C89.1738 274.14 78.396 331.327 82.5266 388.422C86.6572 445.516 105.554 500.557 137.365 548.147C129.242 552.127 120.142 553.677 111.159 552.611C102.177 551.544 93.6931 547.906 86.7277 542.135C42.5766 494.879 13.6754 435.425 3.78707 371.514C-6.10131 307.603 3.48125 242.195 31.2869 183.806C59.0926 125.417 103.833 76.7522 159.684 44.147C215.535 11.5419 279.909 -3.49295 344.424 0.999962H344.706Z" fill="#C7B299"/>
</svg>
