<svg width="456" height="402" viewBox="0 0 456 402" fill="none" xmlns="http://www.w3.org/2000/svg">
<path d="M11.84 227C-21.88 260.72 2.19995 437.84 308.24 395L455.64 155C455.64 155 220.72 120.6 189.52 36.48L11.84 227Z" fill="#FFAD03"/>
<path d="M215 323C163.72 363.2 64.8399 283.32 128.6 255C180.8 232.16 254.56 291.2 215 323Z" fill="#E04102"/>
<path d="M215 323C184.56 347 121 325.64 110.4 291.24C140.36 267.44 204.12 288.16 215 323Z" fill="#F08103"/>
<path d="M438.68 108.76L273.08 337.08C273.08 337.08 207 343 154.2 259.68C115.6 199 47.6798 184.84 11.8398 227L213.96 10.32C213.96 10.32 273.96 -26.64 331.64 46.32C389.32 119.28 438.68 108.76 438.68 108.76Z" fill="#FFDD09"/>
<path d="M336.36 185.16C306.36 215 236.64 171 275.6 147.96C307.56 129.2 359.56 161.72 336.36 185.16Z" fill="#FFED75"/>
<path d="M336.36 185.16C311.52 209.88 252.68 179.72 271.92 168.4C292.68 156.32 327.96 166.24 336.36 185.16Z" fill="#FFAD03"/>
<path d="M306.68 86.28C269.52 123.28 183 68.6 231.32 40.12C271 16.88 335.48 57.24 306.68 86.28Z" fill="#FFED75"/>
<path d="M306.68 86.28C284.6 108.28 231.76 97.16 220.04 70.64C241.92 48.88 295 59.48 306.68 86.28Z" fill="#FFAD03"/>
<path d="M213.64 205.24C176.48 229.88 113.64 169.92 158.52 154.2C195.4 141.4 242.48 185.8 213.64 205.24Z" fill="#FFED75"/>
<path d="M213.64 205.24C191.56 219.88 149.36 201.84 144 177.76C165.88 163.24 208.24 180.92 213.64 205.24Z" fill="#FFAD03"/>
</svg>
