<svg width="512" height="390" viewBox="0 0 512 390" fill="none" xmlns="http://www.w3.org/2000/svg">
<path d="M221.259 58.3502C163.135 58.3502 115.848 105.638 115.848 163.762V167.824L272.813 173.362L285.856 106.698L256 58.3502H221.259Z" fill="#FDD643"/>
<path d="M361.389 157.281C377.683 138.413 386.907 114.168 386.907 88.4679C386.907 64.0083 380.186 51.9683 363.369 0.355652L328.142 35.5843C313.46 50.2646 293.939 58.3502 273.173 58.3502H256V148.703L361.389 157.281Z" fill="#F7BC2B"/>
<path d="M143.561 314.35L204.861 324.389L272.33 330.845L305.662 234.007L256 148.703H176.495C133.512 148.703 95.2199 174.408 78.9423 214.186L70.7744 234.137L143.561 314.35Z" fill="#FFF2D6"/>
<path d="M420.646 223.827C407.394 179.65 366.723 148.703 319.685 148.703H256V314.35L351.903 324.389L447.805 314.35L420.646 223.827Z" fill="#FFE0B0"/>
<path d="M58.4574 389.644H256L285.857 351.997L256 314.35H0V344.468H35.8691L58.4574 389.644Z" fill="#EAF0FD"/>
<path d="M476.131 344.468H512V314.35H256V389.644H453.522L476.131 344.468Z" fill="#D8E3FD"/>
<path d="M58.6672 299.862C37.3951 278.589 45.827 235.656 45.827 235.656C45.827 235.656 88.7587 227.224 110.032 248.497C122.153 260.619 124.628 279.769 124.516 294.006L134.556 303.808L124.516 314.35C108.743 313.654 77.0932 318.288 58.6672 299.862Z" fill="#A8D920"/>
<path d="M190.373 299.862C211.646 278.589 203.214 235.656 203.214 235.656C203.214 235.656 160.281 227.224 139.008 248.497C120.557 266.948 125.197 299.029 124.523 314.35C140.296 313.654 171.946 318.288 190.373 299.862Z" fill="#6BC602"/>
</svg>
