<svg width="490" height="392" viewBox="0 0 490 392" fill="none" xmlns="http://www.w3.org/2000/svg">
<path d="M396.96 12.97C439.52 65.69 515.82 217.27 481.27 317.89C457.7 386.55 413.44 397.31 371.76 388.27C339.38 381.25 349.72 359.71 330.53 335C311.34 310.29 262.62 282.4 263.08 249.29C264.46 149.61 317.08 47.58 347.51 12.16C350.59 8.58505 354.418 5.73093 358.724 3.79979C363.029 1.86864 367.707 0.907687 372.425 0.98497C377.143 1.06225 381.786 2.17589 386.026 4.24701C390.266 6.31813 393.999 9.29609 396.96 12.97ZM228.69 122.64C246.34 220.76 214.13 330.94 191.02 371.51C188.677 375.605 185.462 379.136 181.603 381.851C177.745 384.567 173.336 386.401 168.69 387.225C164.044 388.048 159.274 387.84 154.717 386.616C150.16 385.392 145.928 383.181 142.32 380.14C90.49 336.5 -13.31 202.23 1.41999 96.87C11.46 24.98 52.86 5.98001 95.5 6.91001C128.62 7.64001 122.59 30.75 146.14 51.35C169.69 71.95 222.83 90.05 228.69 122.64Z" fill="#ED8C4A"/>
<path d="M172.32 380.14C120.49 336.5 16.69 202.23 31.42 96.87C39.889 36.23 70.671 13.222 105.689 8.06401C102.34 7.33743 98.9265 6.9508 95.5 6.91001C52.86 5.98001 11.46 24.98 1.41999 96.87C-13.31 202.23 90.49 336.5 142.32 380.14C147.22 384.269 153.241 386.844 159.611 387.535C165.982 388.226 172.414 387.002 178.086 384.019C176.031 382.936 174.098 381.636 172.32 380.14Z" fill="#BF7847"/>
<path d="M58.5211 207.3C57.6574 207.301 56.8036 207.116 56.0184 206.756C55.2331 206.396 54.5351 205.871 53.9721 205.216C38.4281 187.171 33.1991 164.621 31.4661 152.786C31.3471 152.004 31.3839 151.207 31.5742 150.439C31.7646 149.672 32.1047 148.95 32.5751 148.314C33.0455 147.679 33.6368 147.142 34.3152 146.736C34.9935 146.33 35.7455 146.062 36.5278 145.947C37.3101 145.832 38.1074 145.874 38.8738 146.068C39.6402 146.263 40.3606 146.607 40.9935 147.08C41.6265 147.554 42.1596 148.149 42.5621 148.829C42.9646 149.51 43.2287 150.263 43.3391 151.046C44.8841 161.593 49.5001 181.638 63.0641 197.384C63.8136 198.254 64.2977 199.321 64.4589 200.458C64.62 201.595 64.4513 202.755 63.973 203.799C63.4946 204.843 62.7266 205.728 61.7602 206.349C60.7938 206.969 59.6696 207.299 58.5211 207.3ZM36.6231 136.519C36.5231 136.519 36.4231 136.519 36.3151 136.511C34.7259 136.431 33.2338 135.722 32.1669 134.542C31.1 133.361 30.5458 131.805 30.6261 130.216C30.7146 127.972 30.9504 125.737 31.3321 123.524C31.6413 121.969 32.5536 120.599 33.8695 119.715C35.1854 118.83 36.798 118.502 38.3549 118.803C39.9117 119.104 41.2862 120.009 42.178 121.32C43.0697 122.631 43.4063 124.242 43.1141 125.8C42.849 127.463 42.6821 129.14 42.6141 130.822C42.5364 132.359 41.8713 133.807 40.7563 134.867C39.6413 135.927 38.1617 136.519 36.6231 136.519Z" fill="#F4F8FC"/>
<path d="M425.212 346.268C424.063 346.267 422.939 345.937 421.973 345.317C421.006 344.696 420.238 343.811 419.76 342.767C419.282 341.723 419.113 340.563 419.274 339.426C419.435 338.289 419.919 337.222 420.669 336.352C446.241 306.666 440.859 276.052 440.617 274.764C440.316 273.201 440.647 271.583 441.539 270.265C442.431 268.947 443.809 268.037 445.372 267.736C446.935 267.435 448.553 267.766 449.871 268.658C451.189 269.55 452.099 270.928 452.4 272.491C452.694 274.003 459.272 309.924 429.761 344.184C429.198 344.839 428.5 345.364 427.714 345.724C426.929 346.083 426.076 346.269 425.212 346.268Z" fill="#BF7847"/>
</svg>
