<svg width="512" height="512" viewBox="0 0 512 512" fill="none" xmlns="http://www.w3.org/2000/svg">
<path d="M69.473 489.389L22.609 442.526L18.031 447.104C16.6991 448.436 15.6456 450.02 14.9321 451.763C14.2186 453.506 13.8592 455.374 13.875 457.257L13.891 458.839C13.9086 460.723 13.5503 462.592 12.8372 464.335C12.1242 466.079 11.0705 467.663 9.73799 468.995C2.22699 476.503 2.22699 488.683 9.73799 496.19L15.808 502.26C23.32 509.772 35.496 509.772 43.008 502.26C44.3402 500.929 45.9238 499.877 47.6668 499.164C49.4097 498.451 51.277 498.092 53.16 498.108L54.742 498.124C56.6253 498.141 58.493 497.783 60.2363 497.07C61.9795 496.357 63.5632 495.304 64.895 493.972L69.473 489.389Z" fill="url(#paint0_linear_19_1979)"/>
<path d="M345.453 334.45C218.508 461.394 78.0121 526.718 31.6481 480.354C-14.7149 433.987 50.6091 293.491 177.555 166.546C304.5 39.602 444.996 -25.723 491.359 20.64C537.722 67.003 472.4 207.5 345.453 334.449V334.45Z" fill="url(#paint1_linear_19_1979)"/>
<path d="M31.6479 480.354C48.8159 497.522 75.0349 503.612 106.844 499.991C116.375 498.905 119.723 486.815 112.148 480.925C112.065 480.862 111.983 480.798 111.902 480.733C110.436 479.588 108.699 478.843 106.859 478.571C105.019 478.298 103.14 478.508 101.406 479.179C69.0229 491.718 44.2579 492.964 31.6479 480.354Z" fill="url(#paint2_linear_19_1979)"/>
<path d="M491.359 20.64C474.189 3.474 447.971 -2.616 416.162 1.005C406.627 2.091 403.279 14.177 410.857 20.071C410.939 20.134 411.021 20.196 411.103 20.263C412.569 21.4074 414.307 22.1522 416.147 22.4246C417.987 22.6969 419.866 22.4876 421.6 21.817C453.982 9.278 478.748 8.032 491.357 20.642L491.359 20.64Z" fill="url(#paint3_linear_19_1979)"/>
<path d="M491.737 100.895L491.933 101.141C497.823 108.719 509.909 105.371 510.995 95.836C514.616 64.027 508.53 37.813 491.358 20.641C503.968 33.25 502.726 58.016 490.187 90.398C489.516 92.1323 489.306 94.0111 489.578 95.8509C489.849 97.6907 490.593 99.4286 491.737 100.895Z" fill="url(#paint4_linear_19_1979)"/>
<path d="M31.2661 400.097C31.2033 400.014 31.1393 399.932 31.0741 399.851C25.1841 392.276 13.0981 395.624 12.0121 405.159C8.3911 436.968 14.4771 463.183 31.6481 480.354C19.0391 467.745 20.2811 442.979 32.8201 410.593C33.4913 408.859 33.701 406.98 33.4286 405.14C33.1562 403.3 32.4111 401.563 31.2661 400.097Z" fill="url(#paint5_linear_19_1979)"/>
<path d="M148.34 456.19C141.414 460.179 134.672 463.839 128.14 467.144C118.578 471.984 117.586 485.245 126.297 491.487C129.832 494.022 134.317 494.854 138.512 493.702C147.023 491.362 155.801 488.472 164.797 485.054C175.387 481.026 177.254 466.878 168.152 460.124C166.851 459.158 165.555 458.186 164.262 457.21C159.641 453.714 153.363 453.296 148.34 456.19Z" fill="url(#paint6_linear_19_1979)"/>
<path d="M374.581 44.852C381.593 40.809 388.417 37.109 395.022 33.77C404.483 28.984 405.515 15.82 396.902 9.63997C396.819 9.58197 396.737 9.52297 396.652 9.45997C393.167 6.96497 388.761 6.12097 384.624 7.25397C375.995 9.62097 367.093 12.554 357.968 16.031C347.483 20.027 345.632 34.027 354.644 40.711C356.069 41.7674 357.488 42.8311 358.901 43.902C363.456 47.352 369.631 47.703 374.581 44.852Z" fill="url(#paint7_linear_19_1979)"/>
<path d="M54.79 347.737C53.8121 346.445 52.8404 345.149 51.875 343.847C45.121 334.745 30.973 336.612 26.945 347.206C23.523 356.198 20.637 364.976 18.297 373.487C17.145 377.683 17.977 382.171 20.507 385.702C26.75 394.413 40.012 393.421 44.855 383.862C48.3259 377.032 51.9789 370.295 55.81 363.659C58.704 358.636 58.286 352.359 54.79 347.737Z" fill="url(#paint8_linear_19_1979)"/>
<path d="M468.097 153.102C469.168 154.515 470.232 155.934 471.288 157.359C477.972 166.371 491.972 164.519 495.968 154.035C499.444 144.91 502.378 136.008 504.745 127.375C505.878 123.242 505.035 118.832 502.538 115.348C502.476 115.266 502.416 115.183 502.358 115.098C496.178 106.484 483.015 107.52 478.229 116.977C474.889 123.586 471.19 130.407 467.147 137.418C464.296 142.368 464.647 148.543 468.097 153.102Z" fill="url(#paint9_linear_19_1979)"/>
<path d="M52.383 293.272C48.8029 299.689 45.3737 306.188 42.098 312.765C38.977 319.042 39.492 326.526 43.516 332.265C43.594 332.37 43.668 332.479 43.746 332.589C51.496 343.624 67.886 343.464 75.359 332.237C79.017 326.746 82.7506 321.306 86.559 315.917C91.429 309.03 91.141 299.769 85.957 293.108C85.395 292.382 84.828 291.659 84.266 290.933C75.859 280.042 59.086 281.256 52.383 293.272Z" fill="url(#paint10_linear_19_1979)"/>
<path d="M470.624 207.715C474.204 201.3 477.633 194.802 480.909 188.227C484.026 181.953 483.515 174.469 479.491 168.73C479.413 168.621 479.339 168.512 479.261 168.406C471.511 157.371 455.121 157.531 447.647 168.758C443.993 174.248 440.261 179.685 436.452 185.07C431.581 191.965 431.87 201.227 437.054 207.887C437.616 208.609 438.179 209.336 438.737 210.059C447.147 220.949 463.925 219.734 470.624 207.715Z" fill="url(#paint11_linear_19_1979)"/>
<path d="M196.082 425.44C190.694 429.251 185.254 432.986 179.762 436.644C168.535 444.112 168.375 460.503 179.41 468.257C179.52 468.331 179.629 468.409 179.734 468.483C185.477 472.511 192.957 473.023 199.234 469.901C205.812 466.629 212.312 463.199 218.727 459.616C230.742 452.917 231.957 436.144 221.07 427.733C220.34 427.173 219.614 426.609 218.89 426.042C212.23 420.858 202.973 420.573 196.082 425.44Z" fill="url(#paint12_linear_19_1979)"/>
<path d="M343.597 32.7379C343.487 32.6599 343.377 32.5859 343.269 32.5119C337.53 28.4839 330.049 27.9719 323.772 31.0939C317.196 34.3667 310.698 37.7947 304.284 41.3749C292.269 48.0779 291.05 64.8549 301.94 73.2649C302.667 73.8249 303.39 74.3869 304.112 74.9489C310.772 80.1329 320.038 80.4219 326.929 75.5509C332.314 71.7413 337.752 68.0076 343.241 64.3509C354.471 56.8789 354.631 40.4879 343.597 32.7379Z" fill="url(#paint13_linear_19_1979)"/>
<path d="M292.179 65.8599L291.816 65.5899C284.199 59.9259 273.863 59.6369 265.976 64.9299C261.095 68.2099 256.26 71.5579 251.472 74.9729C239.585 83.4569 238.812 100.824 249.987 110.234C250.413 110.59 250.839 110.949 251.265 111.309C259.452 118.227 271.422 118.297 279.726 111.523C283.998 108.037 288.302 104.589 292.635 101.18C304.124 92.1369 303.905 74.5939 292.179 65.8599Z" fill="url(#paint14_linear_19_1979)"/>
<path d="M122.316 240.262C121.957 239.832 121.598 239.406 121.238 238.977C111.832 227.805 94.4649 228.574 85.9799 240.465C82.5618 245.25 79.2137 250.085 75.9369 254.969C70.6449 262.855 70.9299 273.191 76.5969 280.813C76.6869 280.933 76.7769 281.055 76.8669 281.172C85.6019 292.902 103.145 293.122 112.184 281.629C115.596 277.296 119.045 272.992 122.531 268.719C129.305 260.414 129.231 248.449 122.316 240.262Z" fill="url(#paint15_linear_19_1979)"/>
<path d="M400.69 260.734L401.769 262.012C411.175 273.188 428.542 272.414 437.03 260.527C440.446 255.74 443.794 250.904 447.073 246.023C452.366 238.137 452.077 227.801 446.409 220.183L446.139 219.82C437.405 208.094 419.862 207.875 410.819 219.363C407.411 223.697 403.964 228 400.479 232.273C393.702 240.578 393.776 252.547 400.69 260.734Z" fill="url(#paint16_linear_19_1979)"/>
<path d="M230.824 435.132L231.186 435.402C238.808 441.069 249.145 441.354 257.027 436.065C261.91 432.786 266.747 429.437 271.535 426.019C283.422 417.534 284.195 400.167 273.023 390.765C272.593 390.401 272.168 390.042 271.738 389.683C263.551 382.769 251.586 382.694 243.281 389.468C239.007 392.954 234.703 396.403 230.37 399.815C218.878 408.855 219.098 426.401 230.824 435.132Z" fill="url(#paint17_linear_19_1979)"/>
<path d="M243.863 105.113C243.738 105.012 243.613 104.906 243.493 104.805C234.605 97.4368 221.723 97.3978 212.84 104.77C210.13 107.019 207.437 109.288 204.762 111.578C193.891 120.875 193.535 137.578 203.972 147.359C204.164 147.539 204.359 147.723 204.555 147.902C213.727 156.504 227.953 156.578 237.262 148.125C239.662 145.941 242.074 143.769 244.496 141.609C255.488 131.801 255.199 114.519 243.863 105.113Z" fill="url(#paint18_linear_19_1979)"/>
<path d="M158.91 193.547C158.728 193.354 158.547 193.16 158.367 192.965C148.586 182.527 131.883 182.883 122.586 193.754C120.286 196.445 118.016 199.137 115.777 201.832C108.407 210.715 108.445 223.598 115.812 232.484C115.914 232.609 116.016 232.73 116.122 232.855C125.527 244.195 142.805 244.48 152.617 233.488C154.777 231.066 156.949 228.654 159.133 226.254C167.586 216.945 167.508 202.719 158.91 193.547Z" fill="url(#paint19_linear_19_1979)"/>
<path d="M364.097 307.449C364.277 307.639 364.46 307.835 364.64 308.03C374.417 318.468 391.12 318.108 400.42 307.241C402.71 304.564 404.98 301.87 407.23 299.159C414.6 290.28 414.562 277.394 407.194 268.511C407.093 268.386 406.987 268.261 406.886 268.14C397.479 256.8 380.198 256.515 370.39 267.507C368.237 269.913 366.065 272.327 363.874 274.741C355.421 284.046 355.495 298.272 364.097 307.448V307.449Z" fill="url(#paint20_linear_19_1979)"/>
<path d="M279.144 395.878L279.515 396.186C288.402 403.554 301.285 403.596 310.165 396.222C312.863 393.983 315.554 391.714 318.245 389.413C329.112 380.116 329.473 363.413 319.036 353.632C318.84 353.452 318.647 353.272 318.452 353.089C309.28 344.491 295.054 344.413 285.745 352.87C283.343 355.052 280.932 357.224 278.511 359.386C267.519 369.194 267.808 386.472 279.144 395.878Z" fill="url(#paint21_linear_19_1979)"/>
<path d="M197.27 186.262C199.031 184.504 200.793 182.75 202.555 181.012C212.5 171.192 212.207 155.062 202 145.516C201.879 145.402 201.762 145.289 201.64 145.18C192.059 136.223 177.09 136.328 167.719 145.5C163.941 149.199 160.203 152.937 156.504 156.715C147.332 166.085 147.227 181.055 156.18 190.637C156.293 190.754 156.406 190.875 156.52 190.997C166.066 201.203 182.195 201.497 192.012 191.551C193.758 189.785 195.508 188.024 197.27 186.262Z" fill="url(#paint22_linear_19_1979)"/>
<path d="M325.737 314.729C323.981 316.486 322.219 318.237 320.452 319.983C310.507 329.8 310.796 345.933 321.002 355.476L321.366 355.816C330.944 364.769 345.913 364.663 355.284 355.491C359.062 351.792 362.8 348.054 366.499 344.276C375.671 334.906 375.776 319.936 366.823 310.358L366.483 309.995C356.94 299.788 340.808 299.499 330.991 309.44C329.246 311.21 327.495 312.972 325.737 314.729Z" fill="url(#paint23_linear_19_1979)"/>
<path d="M473.299 78.691C474.272 79.789 475.237 80.891 476.194 81.996C481.671 88.305 491.94 86.25 494.46 78.289C502.815 51.844 502.347 31.629 491.358 20.641C496.128 25.411 488.944 41.52 472.499 65.617C469.749 69.645 470.065 75.035 473.299 78.691Z" fill="url(#paint24_linear_19_1979)"/>
<path d="M49.7069 422.304C48.7366 421.205 47.7706 420.102 46.8089 418.995C41.3359 412.69 31.0629 414.741 28.5469 422.706C20.1909 449.147 20.6599 469.366 31.6479 480.354C26.8779 475.584 34.0619 459.476 50.5079 435.378C53.2579 431.347 52.9409 425.956 49.7069 422.304Z" fill="url(#paint25_linear_19_1979)"/>
<path d="M430.003 35.805C431.108 36.762 432.21 37.73 433.311 38.703C436.964 41.937 442.354 42.253 446.386 39.5C470.483 23.055 486.593 15.875 491.358 20.64C480.37 9.65597 460.155 9.18397 433.714 17.543C425.749 20.059 423.698 30.328 430.003 35.805Z" fill="url(#paint26_linear_19_1979)"/>
<path d="M93.0039 465.19C91.8977 464.229 90.796 463.263 89.6989 462.292C86.0429 459.058 80.6519 458.742 76.6209 461.492C52.5229 477.937 36.4139 485.12 31.6479 480.351C42.6329 491.339 62.8519 491.808 89.2929 483.452C97.2579 480.937 99.3099 470.663 93.0039 465.19Z" fill="url(#paint27_linear_19_1979)"/>
<path d="M472.765 127.387C477.128 119.359 481.007 111.613 484.374 104.191C485.476 101.759 485.871 99.0668 485.513 96.4215C485.155 93.7762 484.059 91.2851 482.351 89.2338C481.409 88.1038 480.462 86.9775 479.511 85.8548C473.651 78.9568 462.871 79.3008 457.421 86.5268C452.769 92.6918 448.034 98.794 443.218 104.832C438.937 110.203 439.136 117.867 443.651 123.043C445.59 125.263 447.511 127.498 449.413 129.75C455.882 137.406 467.979 136.195 472.765 127.387Z" fill="url(#paint28_linear_19_1979)"/>
<path d="M426.144 32.4879C425.021 31.5369 423.895 30.5902 422.764 29.6479C420.713 27.9395 418.222 26.8439 415.577 26.4866C412.932 26.1293 410.239 26.5249 407.808 27.6279C400.386 30.9959 392.64 34.8709 384.612 39.2339C375.804 44.0199 374.592 56.1169 382.252 62.5859C384.502 64.4902 386.738 66.4109 388.96 68.3479C394.136 72.8629 401.796 73.0629 407.17 68.7809C413.206 63.964 419.308 59.2292 425.472 54.5779C432.698 49.1279 433.042 38.3479 426.144 32.4879Z" fill="url(#paint29_linear_19_1979)"/>
<path d="M96.9958 468.616C98.0548 469.515 99.1168 470.406 100.18 471.292C102.249 473.017 104.762 474.123 107.431 474.484C110.1 474.846 112.817 474.447 115.27 473.335C122.61 469.999 130.273 466.167 138.207 461.862C147.043 457.069 148.402 444.87 140.727 438.382C138.518 436.514 136.322 434.63 134.141 432.729C128.911 428.163 121.171 427.964 115.742 432.289C109.442 437.304 103.41 441.987 97.6718 446.311C90.3748 451.815 90.0228 462.702 96.9958 468.616Z" fill="url(#paint30_linear_19_1979)"/>
<path d="M50.1369 373.792C45.8319 381.726 41.9999 389.386 38.6679 396.729C37.5551 399.182 37.1561 401.899 37.5167 404.568C37.8774 407.237 38.9831 409.75 40.7069 411.819C41.5945 412.884 42.4865 413.946 43.3829 415.003C49.2969 421.976 60.1829 421.624 65.6869 414.327C70.283 408.243 74.9581 402.22 79.7109 396.257C84.0349 390.827 83.8359 383.089 79.2729 377.858C77.3716 375.678 75.4875 373.483 73.6209 371.272C67.1289 363.597 54.9339 364.956 50.1369 373.792Z" fill="url(#paint31_linear_19_1979)"/>
<path d="M407.753 172.621C409.328 174.402 410.894 176.189 412.453 177.984C420.624 187.402 435.55 186.527 442.593 176.242C446.88 169.986 451.059 163.657 455.128 157.258C459.573 150.25 458.909 141.199 453.628 134.801C452.687 133.659 451.742 132.521 450.792 131.387C443.144 122.27 429.144 122.227 421.479 131.324C417.049 136.578 412.452 141.964 407.69 147.469C401.433 154.695 401.42 165.461 407.753 172.621Z" fill="url(#paint32_linear_19_1979)"/>
<path d="M364.531 104.313C370.035 99.5469 375.421 94.9489 380.676 90.5229C389.773 82.8549 389.73 68.8549 380.613 61.2109C379.481 60.2587 378.344 59.312 377.203 58.3709C370.801 53.0899 361.75 52.4259 354.746 56.8709C348.343 60.9378 342.013 65.1167 335.758 69.4059C325.473 76.4489 324.598 91.3749 334.016 99.5459C335.812 101.104 337.601 102.671 339.383 104.246C346.539 110.578 357.305 110.566 364.531 104.313Z" fill="url(#paint33_linear_19_1979)"/>
<path d="M158.484 396.671C153.131 401.306 147.749 405.905 142.336 410.468C133.234 418.136 133.277 432.14 142.395 439.788C143.531 440.738 144.668 441.683 145.805 442.624C152.203 447.905 161.258 448.565 168.262 444.12C174.664 440.052 180.996 435.873 187.254 431.585C197.539 424.542 198.41 409.62 189 401.452C187.196 399.888 185.401 398.315 183.613 396.733C176.461 390.409 165.707 390.425 158.484 396.671Z" fill="url(#paint34_linear_19_1979)"/>
<path d="M115.266 328.386C113.684 326.6 112.111 324.805 110.546 323.003C102.379 313.589 87.457 314.46 80.418 324.745C76.1267 331.002 71.946 337.334 67.878 343.737C63.434 350.745 64.094 359.796 69.375 366.194C70.316 367.331 71.262 368.468 72.211 369.604C79.859 378.722 93.863 378.769 101.531 369.667C105.961 364.409 110.562 359.022 115.328 353.515C121.574 346.295 121.59 335.538 115.266 328.385V328.386Z" fill="url(#paint35_linear_19_1979)"/>
<path d="M203.691 356.312C198.992 360.628 194.344 364.862 189.754 369.007C179.777 378.015 180.016 393.69 190.188 402.479C191.401 403.529 192.619 404.575 193.84 405.616C201.86 412.456 213.555 412.808 221.91 406.39C227.091 402.412 232.229 398.378 237.324 394.288C248.027 385.702 248.457 369.593 238.309 360.358C236.822 359.003 235.337 357.645 233.855 356.284C225.332 348.452 212.219 348.48 203.691 356.312Z" fill="url(#paint36_linear_19_1979)"/>
<path d="M117.71 274.675C113.62 279.769 109.586 284.907 105.61 290.089C99.1907 298.444 99.5427 310.139 106.383 318.159C107.424 319.381 108.47 320.598 109.52 321.811C118.309 331.983 133.984 332.221 142.992 322.245C147.137 317.655 151.372 313.007 155.688 308.308C163.52 299.78 163.547 286.671 155.715 278.144C154.353 276.662 152.995 275.176 151.641 273.687C142.406 263.542 126.296 263.972 117.71 274.675Z" fill="url(#paint37_linear_19_1979)"/>
<path d="M332.828 98.5198C331.61 97.4671 330.389 96.4188 329.164 95.3748C321.148 88.5348 309.454 88.1868 301.094 94.6018C295.916 98.5796 290.78 102.612 285.688 106.699C274.98 115.289 274.551 131.402 284.703 140.641C286.183 141.984 287.664 143.34 289.145 144.699C297.675 152.539 310.789 152.512 319.32 144.676C324.023 140.359 328.672 136.125 333.262 131.98C343.23 122.977 342.992 107.305 332.828 98.5198Z" fill="url(#paint38_linear_19_1979)"/>
<path d="M405.299 226.313C409.386 221.22 413.419 216.084 417.397 210.906C423.811 202.546 423.464 190.852 416.624 182.836C415.579 181.611 414.531 180.39 413.479 179.172C404.694 169.008 389.022 168.77 380.019 178.742C375.874 183.332 371.639 187.98 367.323 192.68C359.487 201.21 359.46 214.328 367.296 222.855C368.659 224.335 370.011 225.816 371.358 227.297C380.597 237.449 396.71 237.02 405.3 226.313H405.299Z" fill="url(#paint39_linear_19_1979)"/>
<path d="M285.227 141.117C283.921 139.928 282.612 138.742 281.301 137.559C272.246 129.375 258.477 129.254 249.321 137.329C246.156 140.122 243.006 142.931 239.871 145.758C229.516 155.105 229.25 171.262 239.285 180.945C240.594 182.207 241.902 183.473 243.215 184.742C252.523 193.754 267.301 193.773 276.641 184.797C279.621 181.934 282.586 179.097 285.535 176.285C295.629 166.672 295.531 150.504 285.227 141.117Z" fill="url(#paint40_linear_19_1979)"/>
<path d="M237.781 359.878C239.09 361.069 240.395 362.257 241.703 363.436C250.762 371.616 264.531 371.741 273.683 363.667C276.851 360.875 280.002 358.063 283.137 355.233C293.488 345.886 293.757 329.733 283.719 320.046C282.414 318.784 281.102 317.522 279.793 316.249C270.484 307.241 255.703 307.218 246.363 316.199C243.387 319.058 240.422 321.897 237.469 324.706C227.375 334.319 227.477 350.491 237.781 359.878Z" fill="url(#paint41_linear_19_1979)"/>
<path d="M327.257 268.785L331.054 272.711C340.737 282.75 356.894 282.484 366.241 272.129C369.089 268.973 371.897 265.824 374.671 262.679C382.745 253.523 382.624 239.754 374.444 230.699C373.26 229.387 372.073 228.078 370.882 226.773C361.495 216.469 345.327 216.371 335.714 226.461C332.886 229.432 330.05 232.397 327.206 235.355C318.226 244.699 318.249 259.477 327.256 268.785H327.257Z" fill="url(#paint42_linear_19_1979)"/>
<path d="M195.75 232.207L191.953 228.281C182.266 218.242 166.113 218.511 156.766 228.867C153.937 232.001 151.125 235.151 148.332 238.317C140.262 247.469 140.382 261.238 148.562 270.297C149.746 271.602 150.93 272.91 152.125 274.219C161.512 284.523 177.68 284.625 187.293 274.531C190.102 271.582 192.941 268.617 195.801 265.637C204.781 256.297 204.758 241.52 195.75 232.207Z" fill="url(#paint43_linear_19_1979)"/>
<path d="M235.828 224.82C237.906 222.742 239.98 220.672 242.051 218.613C251.844 208.883 251.761 193.008 241.84 183.414C240.566 182.18 239.29 180.948 238.012 179.719C228.426 170.477 213.203 170.523 203.719 179.863C199.405 184.114 195.122 188.397 190.871 192.711C181.527 202.199 181.484 217.421 190.723 227.008C191.949 228.281 193.183 229.555 194.418 230.836C204.012 240.758 219.887 240.836 229.618 231.046C231.68 228.976 233.746 226.898 235.828 224.82Z" fill="url(#paint44_linear_19_1979)"/>
<path d="M287.179 276.175C285.107 278.247 283.031 280.316 280.952 282.382C271.163 292.112 271.242 307.987 281.167 317.581C282.444 318.815 283.717 320.051 284.995 321.277C294.581 330.516 309.8 330.472 319.288 321.128C321.44 319.011 323.588 316.879 325.738 314.73C327.886 312.582 330.018 310.434 332.136 308.285C341.479 298.797 341.522 283.575 332.28 273.988C331.054 272.715 329.823 271.44 328.589 270.159C318.995 260.237 303.12 260.16 293.389 269.95C291.327 272.02 289.257 274.093 287.179 276.175Z" fill="url(#paint45_linear_19_1979)"/>
<path d="M450.554 36.6949C444.854 40.4729 444.151 48.5349 449.065 53.2969C450.69 54.8749 452.311 56.4689 453.921 58.0779C455.531 59.6869 457.124 61.3079 458.702 62.9339C463.464 67.8439 471.526 67.1479 475.304 61.4449C489.749 39.6599 495.847 25.1289 491.358 20.6409C486.869 16.1529 472.338 22.2499 450.554 36.6949Z" fill="url(#paint46_linear_19_1979)"/>
<path d="M72.4529 464.299C78.1529 460.519 78.8519 452.456 73.9409 447.69C70.6795 444.531 67.4684 441.32 64.3089 438.058C59.5429 433.148 51.4799 433.847 47.6989 439.55C33.2579 461.331 27.1599 475.862 31.6489 480.35C36.1329 484.839 50.6679 478.741 72.4529 464.3V464.299Z" fill="url(#paint47_linear_19_1979)"/>
<path d="M105.777 406.222C103.309 403.754 100.863 401.263 98.4408 398.749C92.4138 392.499 82.2538 393.019 76.8788 399.835C71.9412 406.083 67.097 412.403 62.3478 418.795C58.1908 424.401 58.6598 432.206 63.5038 437.229C67.1923 441.051 70.9482 444.807 74.7698 448.495C79.7928 453.343 87.5978 453.811 93.2028 449.655C99.594 444.905 105.915 440.061 112.164 435.124C118.98 429.745 119.5 419.584 113.25 413.558C110.737 411.136 108.245 408.69 105.777 406.222Z" fill="url(#paint48_linear_19_1979)"/>
<path d="M417.229 94.7699C419.732 97.2725 422.212 99.7986 424.667 102.348C430.64 108.543 440.706 108.028 446.038 101.273C451.343 94.5469 456.253 88.1449 460.738 82.0929C464.847 76.5469 464.386 68.8239 459.588 63.8549C455.844 59.9684 452.029 56.1514 448.144 52.4059C443.174 47.6129 435.452 47.1519 429.905 51.2619C423.438 56.0647 417.044 60.9649 410.725 65.9609C403.972 71.2889 403.456 81.3589 409.651 87.3319C412.191 89.7819 414.718 92.2579 417.229 94.7699Z" fill="url(#paint49_linear_19_1979)"/>
<path d="M112.543 356.741C107.681 362.385 102.861 368.063 98.0817 373.776C91.8117 381.272 92.2027 392.296 98.9917 399.323C103.478 403.959 108.04 408.521 112.676 413.007C119.703 419.8 130.726 420.19 138.223 413.921C143.936 409.141 149.614 404.319 155.258 399.456C163.781 392.116 164.172 379.061 156.105 371.222C153.513 368.705 150.94 366.169 148.387 363.612C145.831 361.058 143.295 358.485 140.777 355.894C132.937 347.827 119.883 348.218 112.543 356.741Z" fill="url(#paint50_linear_19_1979)"/>
<path d="M410.468 144.246C415.479 138.43 420.3 132.746 424.925 127.219C431.195 119.719 430.804 108.695 424.011 101.668C421.769 99.3501 419.509 97.0507 417.229 94.7698C414.948 92.4904 412.649 90.2297 410.331 87.9878C403.304 81.1948 392.281 80.8048 384.784 87.0778C379.072 91.8532 373.394 96.671 367.753 101.531C359.226 108.871 358.839 121.934 366.909 129.777C372.084 134.812 377.189 139.918 382.222 145.094C390.065 153.16 403.128 152.774 410.468 144.246Z" fill="url(#paint51_linear_19_1979)"/>
<path d="M193.965 318.034C191.285 315.358 188.629 312.679 185.996 309.999C177.027 300.874 162.262 301.128 153.621 310.562C149.023 315.581 144.527 320.534 140.129 325.421C132.301 334.124 132.551 347.429 140.711 355.827C143.242 358.429 145.801 361.027 148.387 363.612C150.964 366.189 153.559 368.748 156.172 371.288C164.57 379.448 177.872 379.698 186.578 371.866C191.465 367.472 196.418 362.972 201.434 358.378C210.867 349.738 211.125 334.972 202 326.003C199.32 323.37 196.64 320.713 193.965 318.034Z" fill="url(#paint52_linear_19_1979)"/>
<path d="M329.042 182.957C331.718 185.633 334.374 188.309 337.002 190.988C345.976 200.113 360.749 199.859 369.394 190.422C373.987 185.406 378.487 180.449 382.882 175.562C390.71 166.863 390.456 153.566 382.3 145.172C377.217 139.94 372.059 134.782 366.827 129.699C358.433 121.543 345.136 121.293 336.437 129.117C331.55 133.516 326.597 138.012 321.577 142.605C312.14 151.25 311.882 166.023 321.011 174.996C323.691 177.629 326.366 180.281 329.042 182.957Z" fill="url(#paint53_linear_19_1979)"/>
<path d="M237.434 274.569C234.688 271.823 231.961 269.089 229.246 266.359C219.73 256.78 204.191 256.897 194.844 266.636C191.704 269.906 188.594 273.159 185.516 276.397C176.598 285.777 176.711 300.546 185.781 309.78C188.484 312.534 191.215 315.284 193.961 318.034C196.711 320.784 199.465 323.514 202.219 326.218C211.453 335.288 226.223 335.401 235.602 326.483C238.84 323.405 242.094 320.296 245.363 317.155C255.102 307.808 255.219 292.269 245.641 282.753C242.911 280.042 240.176 277.312 237.434 274.569Z" fill="url(#paint54_linear_19_1979)"/>
<path d="M328.163 234.36C331.303 231.09 334.413 227.832 337.487 224.598C346.409 215.215 346.296 200.445 337.222 191.211C334.519 188.457 331.792 185.707 329.042 182.957C326.292 180.207 323.542 177.48 320.788 174.777C311.554 165.703 296.784 165.594 287.401 174.512C284.142 177.612 280.89 180.72 277.644 183.836C267.901 193.187 267.788 208.723 277.362 218.238C282.844 223.688 288.311 229.155 293.761 234.637C303.276 244.211 318.815 244.097 328.163 234.359V234.36Z" fill="url(#paint55_linear_19_1979)"/>
<path d="M245.77 282.879C255.36 292.41 270.852 292.418 280.445 282.891C282.684 280.664 284.93 278.426 287.18 276.176C289.43 273.926 291.668 271.68 293.895 269.437C303.425 259.844 303.418 244.352 293.887 234.762C291.133 231.988 288.363 229.211 285.574 226.426C282.8 223.65 280.021 220.879 277.238 218.113C267.648 208.582 252.156 208.574 242.562 218.105C240.32 220.332 238.078 222.57 235.828 224.82C233.578 227.07 231.336 229.316 229.109 231.559C219.582 241.149 219.589 256.641 229.121 266.23C231.875 269.004 234.645 271.781 237.434 274.57C240.219 277.355 242.996 280.125 245.77 282.879Z" fill="url(#paint56_linear_19_1979)"/>
<path d="M43.0079 502.261C44.3389 500.929 45.9224 499.875 47.6655 499.162C49.4087 498.449 51.2766 498.091 53.1599 498.108L54.7419 498.124C56.6252 498.141 58.4929 497.783 60.2362 497.07C61.9794 496.357 63.5631 495.304 64.8949 493.972L69.4769 489.39L62.6759 482.593L29.4099 449.323L22.6099 442.526L18.0309 447.104C15.967 449.173 14.5932 451.83 14.0979 454.71L14.1049 454.749V500.558L15.8089 502.261C23.3199 509.772 35.4959 509.772 43.0079 502.261Z" fill="url(#paint57_linear_19_1979)"/>
<path d="M230.824 435.133L231.187 435.403C238.809 441.07 249.145 441.355 257.027 436.066C257.277 435.898 257.527 435.726 257.773 435.559C257.773 435.559 257.309 70.867 257.047 71.047C255.181 72.3448 253.323 73.6535 251.473 74.973C241.457 82.121 239.336 95.57 245.59 105.258C245.32 105.477 245.047 105.691 244.773 105.914C244.477 105.641 244.176 105.375 243.863 105.114C243.738 105.012 243.613 104.906 243.493 104.804C234.605 97.441 221.719 97.398 212.84 104.77C210.129 107.02 207.435 109.291 204.758 111.582C195.066 119.872 193.758 134.039 200.984 143.949C200.859 144.066 200.734 144.187 200.605 144.305C191.012 136.265 176.765 136.648 167.719 145.5C165.832 147.351 163.953 149.211 162.082 151.078C160.212 152.947 158.352 154.827 156.504 156.718C147.648 165.762 147.27 180.008 155.309 189.602L154.953 189.98C145.043 182.754 130.875 184.063 122.582 193.754C120.293 196.432 118.023 199.126 115.773 201.836C108.403 210.715 108.441 223.602 115.809 232.488C115.91 232.609 116.016 232.734 116.117 232.859C116.375 233.172 116.645 233.473 116.918 233.769C116.695 234.043 116.48 234.312 116.258 234.586C106.574 228.328 93.1249 230.453 85.9769 240.465C82.5597 245.252 79.2117 250.089 75.9339 254.973C70.6409 262.855 70.9259 273.191 76.5939 280.813L76.8639 281.176C77.6626 282.248 78.5552 283.246 79.5309 284.16C79.1479 284.727 78.7579 285.297 78.3789 285.86C69.5619 280.969 57.7459 283.656 52.3789 293.277C48.7989 299.693 45.3696 306.193 42.0939 312.77C38.9769 319.043 39.4879 326.527 43.5119 332.266C43.5899 332.375 43.6639 332.484 43.7419 332.59C44.889 334.235 46.2878 335.688 47.8869 336.898C47.4369 337.758 47.0039 338.609 46.5669 339.465C39.4139 336.008 30.0899 338.925 26.9409 347.207C23.5229 356.199 20.6329 364.98 18.2929 373.488C17.1409 377.684 17.9729 382.172 20.5079 385.707C21.7579 387.454 23.3891 388.894 25.2779 389.918C24.663 391.854 24.0729 393.798 23.5079 395.75C18.1759 395.332 12.7179 398.898 12.0079 405.16C8.38694 436.969 14.4729 463.188 31.6449 480.355C48.8119 497.527 75.0309 503.613 106.84 499.992C113.102 499.282 116.664 493.824 116.25 488.492C118.201 487.927 120.146 487.337 122.082 486.722C123.106 488.611 124.546 490.242 126.293 491.492C129.828 494.027 134.316 494.859 138.508 493.707C147.02 491.367 155.797 488.477 164.793 485.059C173.074 481.91 175.993 472.586 172.535 465.434C173.387 464.996 174.242 464.563 175.098 464.114C176.31 465.711 177.763 467.109 179.406 468.258C179.516 468.336 179.625 468.41 179.734 468.488C185.469 472.512 192.954 473.023 199.23 469.906C205.807 466.63 212.306 463.201 218.723 459.621C228.343 454.254 231.031 442.438 226.137 433.621C226.703 433.242 227.273 432.851 227.84 432.469C228.734 433.426 229.73 434.316 230.824 435.133ZM30.4639 479.082L30.5239 479.148C30.5389 479.168 30.5539 479.188 30.5739 479.207C30.5349 479.168 30.4999 479.125 30.4639 479.082ZM32.7929 481.426C32.8129 481.446 32.8319 481.461 32.8519 481.476C32.8749 481.496 32.8949 481.516 32.9179 481.539C32.8749 481.5 32.8319 481.465 32.7929 481.426Z" fill="url(#paint58_linear_19_1979)"/>
<path d="M31.5589 480.265C31.5589 480.265 194.207 254.186 467.219 254.167C477.234 254.167 482.965 266.238 476.418 273.492C410.801 346.16 164.583 600.339 31.5589 480.265Z" fill="url(#paint59_linear_19_1979)"/>
<path d="M476.418 273.491C479.387 270.202 479.813 265.933 478.477 262.237C313.657 276.433 31.5591 480.265 31.5591 480.265C164.582 600.339 410.8 346.159 476.418 273.491Z" fill="url(#paint60_linear_19_1979)"/>
<path d="M476.418 273.492C480.711 268.734 479.703 261.926 475.691 257.789C473.522 259.821 471.362 261.863 469.211 263.914C226.742 495.18 31.5591 480.266 31.5591 480.266C164.582 600.34 410.8 346.16 476.418 273.492Z" fill="url(#paint61_linear_19_1979)"/>
<path d="M31.734 480.441C31.734 480.441 257.812 317.793 257.832 44.785C257.832 34.765 245.762 29.035 238.508 35.582C165.84 101.199 -88.34 347.417 31.734 480.441Z" fill="url(#paint62_linear_19_1979)"/>
<path d="M238.508 35.586C241.797 32.617 246.066 32.188 249.762 33.523C235.57 198.343 31.734 480.441 31.734 480.441C-88.336 347.418 165.84 101.2 238.508 35.586Z" fill="url(#paint63_linear_19_1979)"/>
<path d="M238.508 35.586C243.266 31.289 250.074 32.296 254.211 36.309C252.179 38.4777 250.137 40.6378 248.086 42.789C16.82 285.258 31.734 480.441 31.734 480.441C-88.336 347.418 165.84 101.2 238.508 35.586Z" fill="url(#paint64_linear_19_1979)"/>
<defs>
<linearGradient id="paint0_linear_19_1979" x1="23.6543" y1="476.838" x2="49.1315" y2="502.315" gradientUnits="userSpaceOnUse">
<stop stop-color="#ACC130"/>
<stop offset="1" stop-color="#97A03B"/>
</linearGradient>
<linearGradient id="paint1_linear_19_1979" x1="228.165" y1="217.16" x2="363.028" y2="352.022" gradientUnits="userSpaceOnUse">
<stop stop-color="#FFE548"/>
<stop offset="1" stop-color="#FFB211"/>
</linearGradient>
<linearGradient id="paint2_linear_19_1979" x1="18.0519" y1="426.729" x2="154.011" y2="562.688" gradientUnits="userSpaceOnUse">
<stop stop-color="#FFE548"/>
<stop offset="1" stop-color="#FFB211"/>
</linearGradient>
<linearGradient id="paint3_linear_19_1979" x1="437.735" y1="7.04609" x2="573.694" y2="143.005" gradientUnits="userSpaceOnUse">
<stop stop-color="#FFE548"/>
<stop offset="1" stop-color="#FFB211"/>
</linearGradient>
<linearGradient id="paint4_linear_19_1979" x1="497.728" y1="56.0939" x2="503.554" y2="109.309" gradientUnits="userSpaceOnUse">
<stop stop-color="#FFE548"/>
<stop offset="1" stop-color="#FFB211"/>
</linearGradient>
<linearGradient id="paint5_linear_19_1979" x1="18.0521" y1="426.729" x2="154.011" y2="562.688" gradientUnits="userSpaceOnUse">
<stop stop-color="#FFE548"/>
<stop offset="1" stop-color="#FFB211"/>
</linearGradient>
<linearGradient id="paint6_linear_19_1979" x1="35.5295" y1="364.136" x2="324.486" y2="653.092" gradientUnits="userSpaceOnUse">
<stop stop-color="#FFE548"/>
<stop offset="1" stop-color="#FFB211"/>
</linearGradient>
<linearGradient id="paint7_linear_19_1979" x1="344.492" y1="-6.12489" x2="634.447" y2="283.83" gradientUnits="userSpaceOnUse">
<stop stop-color="#FFE548"/>
<stop offset="1" stop-color="#FFB211"/>
</linearGradient>
<linearGradient id="paint8_linear_19_1979" x1="5.00381" y1="333.61" x2="293.959" y2="622.566" gradientUnits="userSpaceOnUse">
<stop stop-color="#FFE548"/>
<stop offset="1" stop-color="#FFB211"/>
</linearGradient>
<linearGradient id="paint9_linear_19_1979" x1="476.87" y1="94.5326" x2="484.651" y2="131.364" gradientUnits="userSpaceOnUse">
<stop stop-color="#FFE548"/>
<stop offset="1" stop-color="#FFB211"/>
</linearGradient>
<linearGradient id="paint10_linear_19_1979" x1="39.6228" y1="287.472" x2="356.526" y2="604.375" gradientUnits="userSpaceOnUse">
<stop stop-color="#FFE548"/>
<stop offset="1" stop-color="#FFB211"/>
</linearGradient>
<linearGradient id="paint11_linear_19_1979" x1="446.561" y1="141.258" x2="457.973" y2="187.945" gradientUnits="userSpaceOnUse">
<stop stop-color="#FFE548"/>
<stop offset="1" stop-color="#FFB211"/>
</linearGradient>
<linearGradient id="paint12_linear_19_1979" x1="206.481" y1="420.188" x2="197.663" y2="457.019" gradientUnits="userSpaceOnUse">
<stop stop-color="#FFE548"/>
<stop offset="1" stop-color="#FFB211"/>
</linearGradient>
<linearGradient id="paint13_linear_19_1979" x1="298.479" y1="28.6183" x2="615.372" y2="345.511" gradientUnits="userSpaceOnUse">
<stop stop-color="#FFE548"/>
<stop offset="1" stop-color="#FFB211"/>
</linearGradient>
<linearGradient id="paint14_linear_19_1979" x1="251.407" y1="68.261" x2="599.11" y2="415.964" gradientUnits="userSpaceOnUse">
<stop stop-color="#FFE548"/>
<stop offset="1" stop-color="#FFB211"/>
</linearGradient>
<linearGradient id="paint15_linear_19_1979" x1="79.2662" y1="240.4" x2="426.974" y2="588.108" gradientUnits="userSpaceOnUse">
<stop stop-color="#FFE548"/>
<stop offset="1" stop-color="#FFB211"/>
</linearGradient>
<linearGradient id="paint16_linear_19_1979" x1="411.43" y1="196.378" x2="424.398" y2="244.621" gradientUnits="userSpaceOnUse">
<stop stop-color="#FFE548"/>
<stop offset="1" stop-color="#FFB211"/>
</linearGradient>
<linearGradient id="paint17_linear_19_1979" x1="258.393" y1="377.658" x2="251.65" y2="411.377" gradientUnits="userSpaceOnUse">
<stop stop-color="#FFE548"/>
<stop offset="1" stop-color="#FFB211"/>
</linearGradient>
<linearGradient id="paint18_linear_19_1979" x1="206.608" y1="108.862" x2="582.656" y2="484.91" gradientUnits="userSpaceOnUse">
<stop stop-color="#FFE548"/>
<stop offset="1" stop-color="#FFB211"/>
</linearGradient>
<linearGradient id="paint19_linear_19_1979" x1="119.868" y1="195.602" x2="495.916" y2="571.65" gradientUnits="userSpaceOnUse">
<stop stop-color="#FFE548"/>
<stop offset="1" stop-color="#FFB211"/>
</linearGradient>
<linearGradient id="paint20_linear_19_1979" x1="377.643" y1="228.352" x2="384.906" y2="285.414" gradientUnits="userSpaceOnUse">
<stop stop-color="#FFE548"/>
<stop offset="1" stop-color="#FFB211"/>
</linearGradient>
<linearGradient id="paint21_linear_19_1979" x1="305.581" y1="331.566" x2="297.8" y2="378.772" gradientUnits="userSpaceOnUse">
<stop stop-color="#FFE548"/>
<stop offset="1" stop-color="#FFB211"/>
</linearGradient>
<linearGradient id="paint22_linear_19_1979" x1="162.135" y1="151.13" x2="560.608" y2="549.603" gradientUnits="userSpaceOnUse">
<stop stop-color="#FFE548"/>
<stop offset="1" stop-color="#FFB211"/>
</linearGradient>
<linearGradient id="paint23_linear_19_1979" x1="343.313" y1="293.616" x2="343.312" y2="332.505" gradientUnits="userSpaceOnUse">
<stop stop-color="#FFE548"/>
<stop offset="1" stop-color="#FFB211"/>
</linearGradient>
<linearGradient id="paint24_linear_19_1979" x1="484.098" y1="39.1003" x2="486.429" y2="72.5054" gradientUnits="userSpaceOnUse">
<stop stop-color="#FFE548"/>
<stop offset="1" stop-color="#FFB211"/>
</linearGradient>
<linearGradient id="paint25_linear_19_1979" x1="28.6453" y1="439.072" x2="118.212" y2="528.638" gradientUnits="userSpaceOnUse">
<stop stop-color="#FFE548"/>
<stop offset="1" stop-color="#FFB211"/>
</linearGradient>
<linearGradient id="paint26_linear_19_1979" x1="460.276" y1="13.8303" x2="454.838" y2="51.1198" gradientUnits="userSpaceOnUse">
<stop stop-color="#FFE548"/>
<stop offset="1" stop-color="#FFB211"/>
</linearGradient>
<linearGradient id="paint27_linear_19_1979" x1="28.6453" y1="439.072" x2="118.212" y2="528.638" gradientUnits="userSpaceOnUse">
<stop stop-color="#FFE548"/>
<stop offset="1" stop-color="#FFB211"/>
</linearGradient>
<linearGradient id="paint28_linear_19_1979" x1="459.409" y1="83.5665" x2="465.116" y2="120.397" gradientUnits="userSpaceOnUse">
<stop stop-color="#FFE548"/>
<stop offset="1" stop-color="#FFB211"/>
</linearGradient>
<linearGradient id="paint29_linear_19_1979" x1="405.463" y1="41.78" x2="393.81" y2="92.276" gradientUnits="userSpaceOnUse">
<stop stop-color="#FFE548"/>
<stop offset="1" stop-color="#FFB211"/>
</linearGradient>
<linearGradient id="paint30_linear_19_1979" x1="71.1608" y1="405.797" x2="158.208" y2="492.844" gradientUnits="userSpaceOnUse">
<stop stop-color="#FFE548"/>
<stop offset="1" stop-color="#FFB211"/>
</linearGradient>
<linearGradient id="paint31_linear_19_1979" x1="63.1656" y1="397.802" x2="150.213" y2="484.849" gradientUnits="userSpaceOnUse">
<stop stop-color="#FFE548"/>
<stop offset="1" stop-color="#FFB211"/>
</linearGradient>
<linearGradient id="paint32_linear_19_1979" x1="428.748" y1="118.747" x2="430.823" y2="159.209" gradientUnits="userSpaceOnUse">
<stop stop-color="#FFE548"/>
<stop offset="1" stop-color="#FFB211"/>
</linearGradient>
<linearGradient id="paint33_linear_19_1979" x1="359.214" y1="65.2753" x2="349.892" y2="146.845" gradientUnits="userSpaceOnUse">
<stop stop-color="#FFE548"/>
<stop offset="1" stop-color="#FFB211"/>
</linearGradient>
<linearGradient id="paint34_linear_19_1979" x1="109.36" y1="364.3" x2="201.129" y2="456.07" gradientUnits="userSpaceOnUse">
<stop stop-color="#FFE548"/>
<stop offset="1" stop-color="#FFB211"/>
</linearGradient>
<linearGradient id="paint35_linear_19_1979" x1="92.3705" y1="343.293" x2="94.3127" y2="421.368" gradientUnits="userSpaceOnUse">
<stop stop-color="#FFE548"/>
<stop offset="1" stop-color="#FFB211"/>
</linearGradient>
<linearGradient id="paint36_linear_19_1979" x1="224.143" y1="346.39" x2="213.041" y2="384.629" gradientUnits="userSpaceOnUse">
<stop stop-color="#FFE548"/>
<stop offset="1" stop-color="#FFB211"/>
</linearGradient>
<linearGradient id="paint37_linear_19_1979" x1="130.847" y1="292.435" x2="137.839" y2="385.658" gradientUnits="userSpaceOnUse">
<stop stop-color="#FFE548"/>
<stop offset="1" stop-color="#FFB211"/>
</linearGradient>
<linearGradient id="paint38_linear_19_1979" x1="309.976" y1="108.565" x2="300.654" y2="213.442" gradientUnits="userSpaceOnUse">
<stop stop-color="#FFE548"/>
<stop offset="1" stop-color="#FFB211"/>
</linearGradient>
<linearGradient id="paint39_linear_19_1979" x1="389.001" y1="170.746" x2="393.151" y2="219.509" gradientUnits="userSpaceOnUse">
<stop stop-color="#FFE548"/>
<stop offset="1" stop-color="#FFB211"/>
</linearGradient>
<linearGradient id="paint40_linear_19_1979" x1="262.312" y1="155.602" x2="265.031" y2="246.883" gradientUnits="userSpaceOnUse">
<stop stop-color="#FFE548"/>
<stop offset="1" stop-color="#FFB211"/>
</linearGradient>
<linearGradient id="paint41_linear_19_1979" x1="261.724" y1="310.606" x2="259.874" y2="355.629" gradientUnits="userSpaceOnUse">
<stop stop-color="#FFE548"/>
<stop offset="1" stop-color="#FFB211"/>
</linearGradient>
<linearGradient id="paint42_linear_19_1979" x1="345.28" y1="207.617" x2="350.986" y2="252.748" gradientUnits="userSpaceOnUse">
<stop stop-color="#FFE548"/>
<stop offset="1" stop-color="#FFB211"/>
</linearGradient>
<linearGradient id="paint43_linear_19_1979" x1="172.396" y1="250.672" x2="176.668" y2="343.507" gradientUnits="userSpaceOnUse">
<stop stop-color="#FFE548"/>
<stop offset="1" stop-color="#FFB211"/>
</linearGradient>
<linearGradient id="paint44_linear_19_1979" x1="215.788" y1="200.164" x2="232.101" y2="309.702" gradientUnits="userSpaceOnUse">
<stop stop-color="#FFE548"/>
<stop offset="1" stop-color="#FFB211"/>
</linearGradient>
<linearGradient id="paint45_linear_19_1979" x1="300.682" y1="263.345" x2="305.87" y2="292.396" gradientUnits="userSpaceOnUse">
<stop stop-color="#FFE548"/>
<stop offset="1" stop-color="#FFB211"/>
</linearGradient>
<linearGradient id="paint46_linear_19_1979" x1="468.251" y1="21.3315" x2="470.582" y2="52.4061" gradientUnits="userSpaceOnUse">
<stop stop-color="#FFE548"/>
<stop offset="1" stop-color="#FFB211"/>
</linearGradient>
<linearGradient id="paint47_linear_19_1979" x1="41.3257" y1="452.553" x2="77.9764" y2="489.204" gradientUnits="userSpaceOnUse">
<stop stop-color="#FFE548"/>
<stop offset="1" stop-color="#FFB211"/>
</linearGradient>
<linearGradient id="paint48_linear_19_1979" x1="77.9238" y1="414.991" x2="116.524" y2="453.591" gradientUnits="userSpaceOnUse">
<stop stop-color="#FFE548"/>
<stop offset="1" stop-color="#FFB211"/>
</linearGradient>
<linearGradient id="paint49_linear_19_1979" x1="431.762" y1="42.8171" x2="435.911" y2="93.6553" gradientUnits="userSpaceOnUse">
<stop stop-color="#FFE548"/>
<stop offset="1" stop-color="#FFB211"/>
</linearGradient>
<linearGradient id="paint50_linear_19_1979" x1="117.363" y1="375.143" x2="156.792" y2="414.572" gradientUnits="userSpaceOnUse">
<stop stop-color="#FFE548"/>
<stop offset="1" stop-color="#FFB211"/>
</linearGradient>
<linearGradient id="paint51_linear_19_1979" x1="389.744" y1="91.9856" x2="402.712" y2="147.492" gradientUnits="userSpaceOnUse">
<stop stop-color="#FFE548"/>
<stop offset="1" stop-color="#FFB211"/>
</linearGradient>
<linearGradient id="paint52_linear_19_1979" x1="161.259" y1="330.875" x2="201.438" y2="371.054" gradientUnits="userSpaceOnUse">
<stop stop-color="#FFE548"/>
<stop offset="1" stop-color="#FFB211"/>
</linearGradient>
<linearGradient id="paint53_linear_19_1979" x1="343.673" y1="126.47" x2="359.754" y2="195.464" gradientUnits="userSpaceOnUse">
<stop stop-color="#FFE548"/>
<stop offset="1" stop-color="#FFB211"/>
</linearGradient>
<linearGradient id="paint54_linear_19_1979" x1="214.501" y1="265.43" x2="217.584" y2="337.59" gradientUnits="userSpaceOnUse">
<stop stop-color="#FFE548"/>
<stop offset="1" stop-color="#FFB211"/>
</linearGradient>
<linearGradient id="paint55_linear_19_1979" x1="303.887" y1="169.563" x2="310.67" y2="241.723" gradientUnits="userSpaceOnUse">
<stop stop-color="#FFE548"/>
<stop offset="1" stop-color="#FFB211"/>
</linearGradient>
<linearGradient id="paint56_linear_19_1979" x1="258.23" y1="224.315" x2="265.492" y2="282.415" gradientUnits="userSpaceOnUse">
<stop stop-color="#FFE548"/>
<stop offset="1" stop-color="#FFB211"/>
</linearGradient>
<linearGradient id="paint57_linear_19_1979" x1="35.5623" y1="506.914" x2="49.042" y2="431.384" gradientUnits="userSpaceOnUse">
<stop stop-color="#97A03B" stop-opacity="0"/>
<stop offset="1" stop-color="#575C55"/>
</linearGradient>
<linearGradient id="paint58_linear_19_1979" x1="216.668" y1="336.847" x2="104.171" y2="241.958" gradientUnits="userSpaceOnUse">
<stop stop-color="#FFB211" stop-opacity="0"/>
<stop offset="0.169" stop-color="#FFAC13" stop-opacity="0.169"/>
<stop offset="0.384" stop-color="#FF9D1A" stop-opacity="0.384"/>
<stop offset="0.623" stop-color="#FF8326" stop-opacity="0.624"/>
<stop offset="0.879" stop-color="#FF5F35" stop-opacity="0.878"/>
<stop offset="1" stop-color="#FF4B3E"/>
</linearGradient>
<linearGradient id="paint59_linear_19_1979" x1="250.753" y1="362.003" x2="295.426" y2="458.003" gradientUnits="userSpaceOnUse">
<stop stop-color="#ACC130"/>
<stop offset="1" stop-color="#97A03B"/>
</linearGradient>
<linearGradient id="paint60_linear_19_1979" x1="285.506" y1="401.739" x2="167.914" y2="284.147" gradientUnits="userSpaceOnUse">
<stop stop-color="#97A03B" stop-opacity="0"/>
<stop offset="1" stop-color="#575C55"/>
</linearGradient>
<linearGradient id="paint61_linear_19_1979" x1="319.311" y1="398.435" x2="100.702" y2="315.889" gradientUnits="userSpaceOnUse">
<stop stop-color="#97A03B" stop-opacity="0"/>
<stop offset="1" stop-color="#575C55"/>
</linearGradient>
<linearGradient id="paint62_linear_19_1979" x1="149.997" y1="261.246" x2="53.9969" y2="216.573" gradientUnits="userSpaceOnUse">
<stop stop-color="#ACC130"/>
<stop offset="1" stop-color="#97A03B"/>
</linearGradient>
<linearGradient id="paint63_linear_19_1979" x1="110.261" y1="226.493" x2="227.853" y2="344.085" gradientUnits="userSpaceOnUse">
<stop stop-color="#97A03B" stop-opacity="0"/>
<stop offset="1" stop-color="#575C55"/>
</linearGradient>
<linearGradient id="paint64_linear_19_1979" x1="113.565" y1="192.688" x2="196.11" y2="411.297" gradientUnits="userSpaceOnUse">
<stop stop-color="#97A03B" stop-opacity="0"/>
<stop offset="1" stop-color="#575C55"/>
</linearGradient>
</defs>
</svg>
