<svg width="496" height="496" viewBox="0 0 496 496" fill="none" xmlns="http://www.w3.org/2000/svg">
<path d="M280.768 455.616C306.05 462.325 332.535 463.14 358.183 457.999C383.83 452.857 407.954 441.896 428.697 425.96C449.439 410.024 466.246 389.538 477.822 366.082C489.399 342.625 495.435 316.824 495.467 290.667C495.467 132.459 419.093 0.533325 324.8 0.533325C289.131 0.533325 255.936 19.4773 228.458 51.648L280.768 455.616Z" fill="#D1D4D1"/>
<path d="M318.997 409.963C320.96 410.048 322.837 410.133 324.8 410.133C356.484 410.133 386.871 397.547 409.275 375.142C431.68 352.738 444.266 322.351 444.266 290.667C444.266 258.982 431.68 228.595 409.275 206.191C386.871 183.787 356.484 171.2 324.8 171.2C321.728 171.2 318.741 171.285 315.754 171.541L318.997 409.963Z" fill="#F29C1F"/>
<path d="M341.867 324.8C341.867 370.064 323.886 413.473 291.879 445.48C259.873 477.486 216.463 495.467 171.2 495.467C125.936 495.467 82.5265 477.486 50.5203 445.48C18.5141 413.473 0.533203 370.064 0.533203 324.8C0.533203 166.592 76.9065 34.6667 171.2 34.6667C265.493 34.6667 341.867 166.592 341.867 324.8Z" fill="#ECF0F1"/>
<path d="M171.2 444.267C237.18 444.267 290.667 390.78 290.667 324.8C290.667 258.82 237.18 205.333 171.2 205.333C105.22 205.333 51.7334 258.82 51.7334 324.8C51.7334 390.78 105.22 444.267 171.2 444.267Z" fill="#F0C419"/>
<path d="M92.9833 299.2C91.5675 299.198 90.1745 298.843 88.9297 298.169C87.685 297.494 86.6278 296.52 85.8532 295.335C85.0786 294.15 84.6111 292.791 84.4928 291.38C84.3744 289.969 84.609 288.551 85.1753 287.253C92.4941 270.525 104.527 256.29 119.804 246.288C135.081 236.286 152.94 230.951 171.2 230.933C173.463 230.933 175.634 231.832 177.234 233.433C178.834 235.033 179.733 237.203 179.733 239.467C179.733 241.73 178.834 243.9 177.234 245.501C175.634 247.101 173.463 248 171.2 248C156.259 248.014 141.645 252.379 129.145 260.562C116.644 268.745 106.798 280.392 100.808 294.08C100.144 295.602 99.0496 296.898 97.6596 297.807C96.2696 298.717 94.6444 299.201 92.9833 299.2Z" fill="#F3D55B"/>
<path d="M85.8663 333.333C90.5792 333.333 94.3997 329.513 94.3997 324.8C94.3997 320.087 90.5792 316.267 85.8663 316.267C81.1535 316.267 77.333 320.087 77.333 324.8C77.333 329.513 81.1535 333.333 85.8663 333.333Z" fill="#F3D55B"/>
</svg>
