<svg width="512" height="500" viewBox="0 0 512 500" fill="none" xmlns="http://www.w3.org/2000/svg">
<path d="M356.578 114.512L423.09 47.949C443.402 27.609 476.453 27.609 496.766 47.949C517.078 68.289 517.078 101.383 496.766 121.723C490.469 128.027 480.266 128.027 473.969 121.723C467.672 115.418 467.672 105.199 473.969 98.895C481.711 91.145 481.711 78.531 473.969 70.777C466.227 63.023 453.629 63.023 445.887 70.777L379.375 137.34L356.578 114.512Z" fill="#C5CC47"/>
<path d="M435.004 227C452.824 226.832 470.394 234.23 482.816 248.27C508.492 277.293 502.219 322.414 469.606 343.316L236.996 492.386C218.723 504.094 194.656 500.742 180.27 484.48C168.652 471.348 165.91 452.566 173.29 436.652L414.648 225.977L435.004 227Z" fill="#E5646E"/>
<path d="M482.816 248.27C470.398 234.23 452.824 226.832 435.004 227L414.648 225.977L409.883 230.137C420.536 233.613 430.067 239.874 437.488 248.27C463.164 277.293 456.891 322.414 424.278 343.316L191.668 492.386C191.305 492.617 190.938 492.832 190.574 493.051C204.598 501.481 222.594 501.613 236.996 492.387L469.609 343.317C502.219 322.414 508.492 277.293 482.816 248.27Z" fill="#E04955"/>
<path d="M271.98 63.758C272.148 45.914 264.758 28.316 250.738 15.883C221.754 -9.82798 176.695 -3.54698 155.82 29.109L6.95007 262.031C-4.74193 280.328 -1.39493 304.426 14.8441 318.832C27.9611 330.465 46.7141 333.211 62.6051 325.82L268.363 88.965L271.98 63.758Z" fill="#E5646E"/>
<path d="M96.7902 403.383C58.2662 364.809 55.5782 303.148 90.5942 261.355L225.746 100.06C265.371 52.77 336.949 49.642 380.539 93.29L406.469 119.255C450.059 162.903 446.934 234.575 399.707 274.255L238.625 409.586C196.891 444.648 135.313 441.957 96.7902 403.383Z" fill="#E04955"/>
<path d="M406.469 119.254L380.539 93.289C354.07 66.785 317.281 57.531 283.594 64.937C302.457 69.087 320.44 78.5 335.21 93.29L361.14 119.255C404.733 162.903 401.604 234.575 354.378 274.255L193.297 409.586C180.35 420.482 164.953 428.074 148.426 431.711C179.309 438.523 212.773 431.305 238.625 409.586L399.707 274.254C446.934 234.574 450.059 162.902 406.469 119.254Z" fill="#DA2F3C"/>
<path d="M245.633 352.762C243.433 352.762 241.25 351.828 239.723 350.016C239.068 349.241 238.573 348.344 238.265 347.377C237.957 346.411 237.842 345.393 237.928 344.381C238.014 343.37 238.298 342.386 238.764 341.485C239.23 340.584 239.869 339.783 240.645 339.129L354.883 242.8C370.906 229.292 380.301 211.272 380.656 193.366C380.996 176.476 373.539 160.566 359.086 147.351C358.337 146.666 357.731 145.841 357.301 144.922C356.871 144.003 356.627 143.009 356.581 141.995C356.536 140.982 356.691 139.969 357.037 139.016C357.383 138.062 357.913 137.186 358.598 136.437C359.282 135.688 360.107 135.08 361.026 134.65C361.945 134.22 362.939 133.975 363.953 133.929C364.966 133.883 365.979 134.037 366.933 134.383C367.887 134.729 368.763 135.259 369.512 135.944C387.344 152.245 396.539 172.21 396.109 193.674C395.66 216.026 384.266 238.237 364.844 254.612L250.605 350.94C249.215 352.116 247.453 352.761 245.633 352.76V352.762Z" fill="#C62430"/>
</svg>
