<svg width="364" height="447" viewBox="0 0 364 447" fill="none" xmlns="http://www.w3.org/2000/svg">
<path d="M104.164 124.808C110.941 120.526 128.777 112.828 137.184 111.226C141.987 110.314 146.912 110.24 151.808 110.156C177.967 109.746 252.672 107.633 273.04 123.58C283.02 131.399 287.833 145.754 286.93 155.566C286.092 164.81 280.069 172.815 273.087 178.931C238.485 209.186 185.06 201.338 147.228 202.046C135.275 202.269 132.52 201.422 124.03 194.366C110.038 182.748 89.0463 164.828 87.1193 145.773C86.2908 137.553 97.7224 128.877 104.164 124.808Z" fill="#8FBD26"/>
<path d="M223.684 79.5756C192.247 56.396 88.7762 59.2818 69.3481 112.297L98.709 147.457C107.534 143.566 115.866 139.498 122.866 134.937C156.565 112.967 175.23 133.317 215.92 122.416C228.077 119.158 233.197 104.515 231.28 92.5245C230.461 87.4232 227.835 82.6383 223.684 79.5756Z" fill="#EA2D2D"/>
<path d="M228.143 84.3326C255.697 68.6747 307.093 77.4066 325.72 118.543L283.83 165.275C255.53 150.753 227.156 135.374 222.306 119.288C217.372 103.304 216.748 91.2306 228.143 84.3326Z" fill="#F9593F"/>
<path d="M121.758 153.536C106.761 116.933 73.2207 103.937 40.6482 117.101C-4.03541 135.16 -4.54741 190.084 4.93856 237.188C26.3308 343.302 55.8965 420.577 108.921 415.112L148.941 276.156L121.758 153.536Z" fill="#F73533"/>
<path d="M111.937 404.751L108.93 415.085C55.8964 420.577 26.3121 343.311 4.94777 237.197C-4.59405 190.121 -4.03549 135.132 40.6668 117.101C46.1412 114.898 51.8813 113.424 57.7396 112.716C19.5537 133.699 20.5219 186.63 29.17 229.359C47.4996 320.327 71.9174 390.164 111.928 404.742L111.937 404.751Z" fill="#EA2D2D"/>
<path d="M241.287 153.536C256.302 116.933 289.843 103.937 322.416 117.101C367.099 135.16 367.611 190.084 358.116 237.188C336.733 343.302 307.167 420.577 254.133 415.112L214.132 276.156L241.287 153.536Z" fill="#F73533"/>
<path d="M358.135 237.197C336.724 343.321 307.177 420.586 254.143 415.094L250.224 401.428C289.136 385.361 313.041 316.362 331.045 226.817C339.116 186.937 340.913 135.654 306.99 112.949C312.204 113.684 317.417 115.071 322.406 117.101C367.118 135.132 367.5 189.981 358.135 237.197Z" fill="#EA2D2D"/>
<path d="M267.911 178.578C242.395 149.096 208.798 151.069 170.324 172.052C121.637 140.001 86.9607 148.258 76.0039 206.952C70.5116 273.624 84.7358 343.553 108.921 415.112C121.916 438.506 138.933 445.953 159.748 438.246C197.73 455.281 239.406 446.819 269.894 414.2C287.171 308.914 296.369 223.876 267.911 178.578Z" fill="#F9593F"/>
<path d="M269.884 414.209C239.416 446.791 197.739 455.29 159.758 438.264C138.933 445.972 121.898 438.488 108.93 415.085C102.507 396.193 96.7811 377.072 91.7642 357.759L92.2575 357.35C144.63 381.06 201.276 345.76 209.124 292.186C216.822 239.59 221.151 193.389 217.725 156.469C236.604 155.361 253.547 161.961 267.901 178.578C296.378 223.857 287.19 308.924 269.884 414.209Z" fill="#F73533"/>
<path d="M269.912 414.163C239.397 446.801 197.683 455.309 159.767 438.199C138.962 445.972 121.944 438.478 108.912 415.085C106.78 408.605 104.658 402.229 102.712 395.852C109.461 397.332 125.677 394.13 125.677 394.13C125.677 394.13 216.301 395.284 241.203 327.616C265.183 262.481 255.465 201.152 244.108 160.769C252.616 164.279 260.575 170.2 267.874 178.615C296.36 223.839 287.209 308.914 269.912 414.163Z" fill="#EA2D2D"/>
<path d="M214.039 142.142C211.219 164.782 168.89 165.368 149.425 151.507C141.214 145.67 140.181 133.903 146.558 126.093C177.594 88.0934 153.381 50.9129 153.297 49.0883C153.297 48.9673 153.297 48.837 153.176 48.837C146.883 36.2697 138.515 34.6685 130.63 39.0624C113.594 48.4646 109.843 16.5344 109.843 16.5344C109.843 16.5344 106.212 -7.26893 138.273 2.24496C170.333 11.8892 180.722 48.4646 180.722 48.4646L193.373 95.7827C200.802 123.598 215.65 123.589 214.039 142.142Z" fill="#6D9415"/>
<path d="M214.03 142.161C212.606 153.704 200.876 159.475 187.173 160.583C196.306 157.949 203.185 152.503 204.246 143.873C205.885 125.097 191.102 125.944 183.571 97.5235L170.91 50.1775C170.91 50.1775 160.54 13.6114 128.461 3.96713C124.609 2.74909 120.623 2.00508 116.592 1.75157C120.79 -0.370905 127.53 -0.929449 138.282 2.26357C170.324 11.9078 180.704 48.4646 180.704 48.4646L193.355 95.7734C195.762 105.053 200.102 113.719 206.089 121.206C211.489 127.853 214.859 132.609 214.03 142.161Z" fill="#648211"/>
<g opacity="0.3">
<path d="M118.947 179.499C109.172 183.521 105.263 185.271 90.0236 195.874C82.8277 200.882 82.2319 203.238 82.0178 208.758C81.8503 213.599 83.2094 215.46 88.9066 215.181C96.8379 214.809 98.3832 213.18 100.915 209.102C107.003 199.318 107.851 197.503 109.926 196.349C112.459 194.952 124.141 194.301 131.617 181.761C132.482 180.309 134.447 177.042 132.855 175.524C131.133 173.886 127.511 175.98 118.947 179.499ZM43.0593 145.707C40.2293 155.901 39.2053 160.062 38.2186 178.596C38.0324 182.199 37.902 186.062 39.8476 189.088C41.1137 191.061 45.489 195.139 48.0303 195.008C50.097 194.897 51.5771 193.035 52.778 191.341C58.8289 182.73 56.6692 181.687 51.8098 168.487C50.1435 163.99 50.581 163.106 52.0332 159.885C57.7676 147.187 52.3684 131.706 48.4586 132.293C46.4478 132.6 45.5355 136.789 43.0593 145.707ZM145.524 203.163C143.383 206.822 144.221 208.767 144.379 211.448C144.64 215.851 142.76 220.087 142.164 224.462C140.628 235.689 150.347 239.478 155.82 232.468C157.868 229.862 158.66 226.51 159.172 223.233C161.015 211.43 158.129 207.892 159.6 201.757C160.289 198.862 163.072 196.051 160.81 193.128C157.03 188.268 147.433 199.886 145.524 203.163ZM185.6 196.73C185.879 197.661 186.168 198.63 186.838 199.337C188.905 201.515 192.917 199.989 194.9 206.086C195.7 208.544 195.617 209.661 196.278 224.164C196.38 226.399 196.706 227.357 199.331 228.689C208.016 233.064 212.736 228.204 212.857 218.867C212.913 217.873 212.806 216.876 212.541 215.916C211.647 213.18 206.676 209.093 203.446 203.396C200.69 198.546 198.884 191.545 193.206 188.902C190.999 187.878 187.108 187.57 185.265 189.572C183.431 191.555 184.958 194.534 185.6 196.73ZM297.03 142.961C297.132 144.19 297.253 145.475 297.914 146.517C300.418 150.52 308.294 148.174 305.734 164.819C303.22 181.082 303.025 181.333 303.379 182.683C304.058 185.271 310.398 190.13 315.155 189.73C321.206 189.227 324.054 183.195 325.33 177.256C326.074 173.784 325.832 172.462 323.868 168.915C315.164 153.201 317.528 153.881 314.531 144.637C313.349 141.006 311.496 137.422 308.424 135.151C305.939 133.326 301.182 131.986 298.389 134.006C295.624 136.007 296.779 140.085 297.03 142.961ZM107.702 105.632C108.623 105.408 109.563 105.166 110.28 104.552C112.998 102.206 110.327 96.546 123.155 96.546C137.193 96.5367 137.174 97.2256 139.11 93.7905C143.709 85.6172 139.231 80.8509 130.23 80.3296C127.53 80.1713 126.562 80.5158 124.123 82.4055C113.306 90.7837 113.538 88.9312 106.929 92.2638C98.5228 96.4995 98.5135 103.342 100.804 105.65C102.628 107.503 105.561 106.153 107.702 105.632ZM242.19 102.308C243.019 102.746 243.884 103.193 244.825 103.202C247.71 103.239 249.367 99.4412 254.916 102.178C257.15 103.276 257.867 104.077 268.349 113.377C269.959 114.81 270.834 115.239 273.524 114.308C278.952 112.446 281.856 108.974 279.668 103.64C278.458 100.679 275.135 97.3559 273.571 96.5833C271.085 95.3545 264.914 96.0433 258.797 94.4422C253.584 93.0924 247.543 89.6294 241.892 91.7798C239.695 92.6176 236.865 95.1031 237.014 97.7283C237.154 100.326 240.235 101.275 242.19 102.308Z" fill="white"/>
</g>
</svg>
