<svg width="444" height="349" viewBox="0 0 444 349" fill="none" xmlns="http://www.w3.org/2000/svg">
<path d="M297.624 216.721C283.786 248.064 258.878 291.445 226.705 306.321C188.166 324.103 143.332 327.078 103.202 312.617C61.3427 297.534 26.5406 264.116 9.72758 222.879C0.456226 200.185 -3.27999 174.031 5.99136 151.337C13.6022 132.725 28.2703 120.548 43.2151 107.956C56.0843 97.093 63.3492 82.5633 76.5643 71.6314C106.592 46.8616 143.885 30.8789 182.631 27.0043C203.665 24.8595 225.39 26.3124 244.971 34.2692C277.697 47.6227 301.222 78.9654 309.524 113.283C317.827 147.601 311.877 184.41 297.624 216.721Z" fill="#FF3333"/>
<path d="M77.3946 87.2681C80.3697 92.8724 83.3449 98.4076 86.2508 104.012L89.2951 105.742C73.2432 109.132 58.5059 118.749 47.5049 130.926C36.5038 143.104 31.0378 160.194 29.3081 176.453C38.5103 157.979 48.3351 138.676 65.3557 126.983C73.8496 121.162 83.6813 117.591 93.9308 116.604C87.8422 118.888 84.5211 124.976 82.8605 131.272C81.2 137.569 81.4768 144.142 81.8227 150.645L83.8984 190.914C88.6724 180.397 92.3395 170.434 97.1135 159.917C102.995 146.978 109.083 132.795 105.624 119.026C127.834 120.617 149.905 129.543 165.265 145.595C162.29 121.032 145.2 99.3762 122.368 89.8281C128.525 85.1233 133.369 78.4119 138.765 72.8768C151.289 60.146 170.454 54.4033 187.89 58.1395C179.103 51.4973 167.756 50.2519 157.308 53.7805C146.861 57.3092 138.004 64.2973 129.702 71.5622C125.689 75.0908 121.814 78.7578 117.663 82.0789C112.058 86.6454 108.53 83.947 102.718 86.0919L77.3946 87.2681Z" fill="#EA2424"/>
<path opacity="0.1" d="M309.386 180.535C292.711 174.516 274.515 172.994 257.148 176.937C240.474 180.743 225.183 188.907 208.785 194.027C192.456 199.147 173.637 200.669 159.107 191.467C145.615 182.957 138.074 166.351 123.613 159.778C110.26 153.551 94.5536 157.357 80.8541 162.684C67.2238 168.012 53.5936 175.069 38.9946 175.277C25.9871 175.554 14.0173 170.572 2.04761 164.829C2.94707 160.263 4.19247 155.627 5.99139 151.337C13.6022 132.725 28.2703 120.548 43.146 107.887C56.0152 97.093 63.28 82.4249 76.4952 71.6314C106.523 46.7925 143.885 30.879 182.562 26.9352C203.596 24.9287 225.321 26.3125 244.971 34.2C277.559 47.5535 301.152 78.8962 309.386 113.283C314.714 135.355 314.229 158.256 309.386 180.535Z" fill="white"/>
<path opacity="0.05" d="M281.434 141.305C281.434 132.656 280.396 124.077 278.458 115.982C271.263 86.3687 251.059 61.3914 225.736 51.0822C214.874 46.6541 202.35 44.44 188.374 44.44C183.669 44.44 178.688 44.7168 173.775 45.0627C140.772 48.453 108.115 62.1525 82.0303 83.6703C76.7027 88.0984 72.3438 93.4952 67.9157 99.2379C62.934 105.257 58.0216 111.623 50.4108 117.919C37.7492 128.643 25.8486 138.676 20.1059 152.929C11.4573 174.101 18.5146 197.832 23.4962 210.217C37.8876 245.227 67.5005 273.664 103.133 286.602C116.971 291.584 131.57 294.144 146.722 294.144C145.961 294.282 145.269 294.282 144.508 294.282C128.318 294.282 112.681 291.653 97.8746 286.325C61.3427 273.11 30.6227 243.774 16.0238 207.727C10.973 195.065 3.6389 170.503 12.5643 148.708C18.4454 134.109 30.6919 123.8 43.7686 112.799C51.4486 106.295 56.707 99.7222 61.6886 93.4952C66.3935 87.6141 70.8216 82.1481 76.1492 77.72C103.202 55.3719 136.69 41.3265 170.662 37.9363C175.782 37.3827 180.832 37.1752 185.676 37.1752C200.067 37.1752 212.936 39.5276 224.214 44.0941C250.16 54.68 271.055 80.4184 278.389 110.931C280.672 120.548 281.71 130.857 281.434 141.305Z" fill="black"/>
<path opacity="0.05" d="M290.566 212.293C281.503 232.773 257.01 282.036 224.837 296.981C204.08 306.598 181.248 311.649 158.692 311.649C141.464 311.649 124.582 308.674 108.806 302.931C77.9481 291.791 50.9643 269.858 33.321 241.975C49.7881 265.154 73.52 283.35 100.227 293.037C115.241 298.503 131.085 301.201 147.414 301.201C168.655 301.201 190.311 296.427 209.892 287.294C240.335 273.318 263.583 226.615 272.093 207.311C285.723 176.176 289.459 143.657 282.748 115.497C275.345 84.6389 254.242 58.693 227.881 47.9686C216.603 43.333 203.526 40.9805 188.997 40.9805C184.084 40.9805 179.033 41.2573 173.706 41.7416C159.474 43.1914 145.481 46.4225 132.054 51.3589C149.421 43.9557 167.963 39.0432 186.506 37.2443C192.11 36.6216 197.369 36.3448 202.558 36.3448C217.987 36.3448 231.825 38.8357 243.795 43.7481C271.678 55.1643 293.818 82.494 301.775 115.221C309.109 145.041 305.096 179.497 290.566 212.293Z" fill="black"/>
<path opacity="0.1" d="M262.406 43.679C261.161 45.8238 259.985 47.8995 258.739 50.0444C250.575 64.0206 242.342 78.4119 239.643 94.3254C237.222 109.201 239.782 124.492 238.744 139.506C236.945 167.874 221.654 194.996 198.614 211.324C188.028 218.866 174.536 226.062 173.152 238.931C171.907 250.416 181.04 259.964 185.606 270.481C192.595 286.533 188.374 305.214 178.964 320.159C153.503 323.757 127.418 321.335 103.064 312.548C61.2735 297.534 26.4021 264.047 9.58914 222.879C0.456164 200.185 -3.41843 173.962 5.92211 151.337C13.5329 132.725 28.201 120.548 43.0767 107.887C55.9459 97.093 63.2108 82.4249 76.4259 71.6314C106.454 46.7925 143.816 30.879 182.493 26.9352C203.526 24.9287 225.252 26.3125 244.902 34.2C251.059 36.8292 256.94 39.8735 262.406 43.679Z" fill="white"/>
<path opacity="0.1" d="M133.299 38.6973C128.469 54.8685 124.634 71.3201 121.814 87.96C116.694 117.85 112.888 151.614 89.2258 170.503C83.1371 175.346 75.8723 179.013 71.3058 185.378C60.9966 200.046 69.6453 219.765 72.828 237.478C76.0107 255.675 71.6517 274.632 62.1036 290.477C39.0636 273.179 20.5901 249.586 9.65823 223.017C0.525253 200.323 -3.34934 174.101 5.9912 151.476C13.602 132.864 28.2701 120.686 43.1458 108.025C56.015 97.2313 63.2799 82.5632 76.495 71.7697C93.4463 57.6551 112.75 46.4465 133.299 38.6973Z" fill="white"/>
<path d="M84.8669 101.244C68.815 104.635 54.0777 114.252 43.0766 126.429C32.0756 138.606 26.6096 155.696 24.8799 171.956C34.082 153.482 43.9069 134.178 60.9275 122.485C69.4214 116.665 79.2531 113.094 89.5026 112.107C83.4139 114.39 80.0929 120.479 78.4323 126.775C76.7718 133.071 77.0485 139.644 77.3945 146.148L79.4702 186.416C84.2442 175.899 87.9112 165.936 92.6853 155.419C98.5664 142.481 104.655 128.297 101.196 114.529C123.405 116.12 145.477 125.045 160.906 141.097C157.931 116.535 140.841 94.8789 118.009 85.3308C124.166 80.626 129.01 73.9146 134.406 68.3795C146.93 55.6487 166.095 49.9059 183.531 53.6422C174.744 47 163.397 45.7546 152.949 49.2832C142.502 52.8119 133.645 59.8 125.343 67.0649C121.33 70.5935 117.386 74.2605 113.304 77.5816C107.699 82.1481 106.869 82.2173 101.68 77.2357C93.5848 69.5557 85.9047 61.3222 78.5015 52.9503C63.9002 36.5411 50.4018 19.1827 38.095 0.989197C36.1577 12.5438 41.8312 23.96 47.3664 34.2692C58.8518 55.9254 70.4064 77.6508 81.8918 99.307L84.8669 101.244Z" fill="#33CC33"/>
<path d="M106.869 92.1113C88.2573 78.9654 63.6951 74.6065 41.6238 80.1416C37.1956 81.2487 33.5978 84.4314 32.1448 88.7211L31.2454 91.3503C30.3459 93.9103 32.4216 96.4703 35.12 96.3319C55.3924 95.0865 76.08 100.691 92.9621 112.038C100.296 117.227 114.272 97.3005 106.869 92.1113Z" fill="#57EA57"/>
<path d="M227.466 87.2681C250.021 85.1233 272.716 88.9287 294.51 95.0173C302.121 97.1622 309.87 94.3254 317.619 95.8476C328.344 97.9233 339.345 96.8163 350.277 97.6465C392.205 100.829 428.46 134.87 439.461 175.415C450.463 215.96 438.147 260.795 412.27 293.936C384.871 329.154 339.414 352.678 295.548 344.514L227.466 87.2681Z" fill="#EF2626"/>
<path d="M166.164 301.755C149.421 290.131 138.835 271.104 134.545 251.246C130.255 231.389 131.639 210.632 135.306 190.568C139.25 168.773 145.823 147.255 157.447 128.436C169.139 109.616 186.229 93.7027 207.055 86.2303C227.881 78.7578 252.443 80.4184 270.502 93.1492C277.905 98.3384 284.132 105.257 292.089 109.478C312.569 120.479 337.684 111.623 360.794 114.252C388.815 117.435 412.893 138.537 423.963 164.483C434.964 190.429 434.065 220.319 425.97 247.372C414.484 285.495 388.054 319.536 352.214 336.834C322.117 351.363 285.447 353.024 254.588 339.809C240.819 333.928 229.68 325.279 215.219 320.712C198.407 315.454 180.763 311.856 166.164 301.755Z" fill="#FF5555"/>
<path opacity="0.15" d="M138.35 208.28C139.111 192.92 143.263 177.837 149.213 163.584C159.314 139.16 175.02 116.258 197.438 102.213C211.967 93.1492 230.372 88.0984 246.354 94.2562C256.594 98.2 264.69 106.295 274.514 111.208C288.076 117.988 303.851 118.334 318.934 120.064C341.42 122.624 363.907 128.574 382.657 141.097C395.457 149.608 406.389 161.231 413.1 175C425.278 199.977 421.68 225.093 414.415 250.555C407.427 275.117 392.136 297.396 371.31 312.202C344.534 331.298 309.04 337.802 277.282 329.153C269.394 327.009 261.645 323.964 253.55 322.788C246.839 321.819 239.92 322.096 233.554 319.951C227.189 317.806 221.931 313.586 215.842 310.957C210.445 308.604 204.703 308.397 199.306 306.529C186.921 302.239 175.436 292.622 166.648 283.212C148.037 263.216 137.036 235.748 138.35 208.28Z" fill="white"/>
<path opacity="0.15" d="M367.851 228.552C366.605 246.611 357.472 263.908 343.288 275.186C329.174 286.464 310.216 291.307 292.365 288.401C285.308 287.156 278.458 284.872 271.332 283.973C264.274 283.074 252.028 281.344 247.392 286.81C244.763 289.923 239.92 289.992 236.253 288.263C232.586 286.533 229.887 283.281 227.327 280.237C224.698 277.123 221.931 274.079 218.194 272.418C214.32 270.896 209.823 270.965 206.432 268.751C200.897 265.223 200.482 257.474 197.368 251.8C193.148 244.328 184.361 240.315 180.14 232.981C175.712 225.231 177.165 215.683 178.134 206.827C179.448 195.342 179.794 183.649 183.185 172.648C186.575 161.647 185.606 148.57 196.331 144.349C204.495 141.236 220.408 139.99 229.126 140.89C235.838 141.651 243.933 147.048 249.745 150.369C255.695 153.69 260.331 160.055 259.362 166.767C260.815 168.981 264.551 167.182 265.312 164.691C266.073 162.2 265.312 159.432 265.658 156.872C266.212 152.444 269.879 149.123 272.577 145.595C278.32 138.191 280.188 128.643 283.025 119.787C283.578 118.265 284.132 116.604 284.754 115.013C292.78 117.296 301.291 118.196 309.801 118.957C308.348 122.485 306.826 125.876 304.266 128.851C301.498 132.172 297.624 134.455 295.34 138.122C292.919 141.997 292.227 146.632 291.673 150.991C290.705 159.363 289.598 167.735 288.56 176.107C294.925 172.994 302.813 174.654 308.832 178.183C314.921 181.85 319.764 187.247 324.677 192.297C329.658 197.279 339.967 195.134 346.679 197.556C354.29 200.185 358.856 206.827 364.184 212.985C367.712 217.344 368.266 223.294 367.851 228.552Z" fill="white"/>
<path d="M204.288 285.011C208.992 285.08 214.943 284.457 216.465 280.098C217.157 278.092 216.742 275.809 217.849 274.01C219.578 271.311 223.661 271.588 226.913 271.104C234.039 270.066 239.713 263.285 239.297 256.228C239.09 253.115 237.083 249.586 233.901 249.655C231.756 249.655 230.026 251.385 228.296 252.699C226.567 254.014 224.076 255.052 222.346 253.807C224.007 250.347 227.812 248.341 230.303 245.365C232.794 242.39 233.347 236.924 229.611 235.541C227.397 234.71 224.906 236.025 223.315 237.755C221.792 239.554 220.893 241.768 219.648 243.705C216.949 247.718 212.383 250.416 207.54 250.901C205.464 251.108 203.181 250.831 201.589 249.517C199.998 248.202 199.444 245.642 200.828 244.12C203.042 241.768 208.647 242.875 208.923 239.692C209.131 237.755 206.709 236.578 204.703 236.371C202.696 236.163 200.344 236.094 199.237 234.434C197.853 232.358 199.721 229.59 201.658 227.999C203.596 226.408 206.017 224.401 205.602 221.91C205.118 218.589 200.136 217.967 197.161 219.627C194.186 221.288 192.11 224.332 188.928 225.716C185.814 227.1 180.833 225.439 181.317 222.118C181.594 220.181 183.6 218.866 185.607 218.52C187.544 218.174 189.62 218.382 191.626 218.174C198.268 217.344 203.111 209.941 201.105 203.783C197.645 205.097 193.771 206.481 190.173 205.305C186.644 204.129 184.43 199.078 187.267 196.725C188.858 195.411 191.142 195.411 193.217 195.688C195.293 195.895 197.507 196.241 199.306 195.342C201.105 194.442 202.074 191.605 200.413 190.36C197.023 190.36 193.494 190.291 190.588 188.699C187.682 187.108 185.607 183.441 187.06 180.466C188.167 178.183 190.934 177.076 193.494 176.799C196.054 176.522 198.683 176.937 201.312 176.73C203.872 176.522 206.64 175.415 207.747 173.132C208.854 170.849 207.263 167.458 204.703 167.597C201.105 167.32 197.23 165.175 194.324 163.099C191.418 161.024 190.035 156.527 192.456 153.897C195.155 150.991 199.998 152.375 203.734 153.897C207.47 155.42 212.383 156.665 214.943 153.621C216.534 151.683 216.396 148.777 217.918 146.771C220.409 143.588 225.875 144.626 228.642 147.601C231.41 150.576 232.24 154.728 233.624 158.464C235.008 162.2 237.498 166.144 241.442 167.043C243.933 167.597 246.631 166.836 248.984 167.735C251.613 168.704 253.204 171.333 253.55 174.031C253.896 176.73 253.274 179.428 252.72 182.057C253.827 183.234 255.834 183.095 257.148 182.127C258.463 181.158 259.155 179.636 259.639 178.183C261.991 171.402 261.438 163.93 259.639 157.011C257.494 148.777 253.758 141.097 250.022 133.417C247.877 129.128 245.663 124.63 241.65 121.863C237.014 118.611 230.925 118.334 225.183 118.127C219.094 117.919 212.383 117.988 207.816 121.863C205.395 123.938 203.942 126.914 201.935 129.474C195.155 138.122 183.116 140.959 174.26 147.532C171.63 149.469 169.209 151.96 168.448 155.074C167.548 158.948 169.347 162.961 168.655 166.836C167.548 173.685 159.384 178.183 159.176 185.102C159.038 189.045 161.598 192.574 162.912 196.31C167.479 209.249 156.755 224.263 162.567 236.648C165.473 242.805 171.769 246.818 175.436 252.63C178.826 258.027 179.587 264.6 182.285 270.412C186.298 279.13 194.394 284.803 204.288 285.011ZM258.394 266.468C260.054 272.211 263.168 278.715 259.847 283.765C257.356 287.502 251.682 289.647 251.89 294.144C252.028 297.327 255.488 299.471 258.67 299.679C261.853 299.887 264.967 298.779 268.149 298.434C275.345 297.603 282.956 300.855 287.315 306.667C290.013 310.265 292.227 315.177 296.655 315.8C303.989 316.838 307.725 305.214 315.129 305.007C321.563 304.799 326.476 313.448 332.634 311.51C337.754 309.919 338.169 302.516 342.389 299.195C347.717 294.974 356.781 298.987 361.693 294.213C366.813 289.231 362.593 279.199 367.713 274.217C371.38 270.689 378.022 271.657 381.274 267.714C385.633 262.455 379.821 254.083 382.588 247.856C384.041 244.674 387.501 242.736 389.092 239.623C391.652 234.71 388.884 228.622 389.715 223.156C390.683 216.859 396.218 211.878 396.91 205.582C397.671 198.386 392.067 192.228 386.809 187.177C377.745 178.459 367.367 169.119 354.774 169.257C349.585 169.327 344.534 171.056 339.414 170.918C327.721 170.572 317.343 160.955 305.788 162.615C296.655 163.93 289.46 173.34 290.636 182.472C297.416 180.743 305.096 183.372 309.386 188.907C312.707 193.197 314.229 199.147 318.934 201.845C322.324 203.852 326.614 203.575 330.489 202.952C334.363 202.33 338.376 201.43 342.251 202.33C346.125 203.229 349.723 206.689 349.239 210.632C348.685 215.13 343.22 219.004 345.226 223.017C346.679 225.854 350.692 225.923 353.252 227.791C356.296 229.936 356.781 234.779 354.29 237.547C351.799 240.315 346.887 240.038 344.534 237.27C343.081 239.346 345.226 242.114 347.44 243.428C349.654 244.674 352.422 245.85 352.975 248.341C353.529 250.901 350.969 253.391 348.34 253.461C345.71 253.53 343.289 251.869 341.697 249.794C340.244 247.856 338.791 245.365 336.439 245.227C333.118 245.02 331.596 249.655 332.91 252.699C334.225 255.744 337.062 257.819 338.791 260.587C340.521 263.355 340.59 267.921 337.546 269.167C334.848 270.274 331.942 267.852 330.696 265.223C329.451 262.594 329.105 259.549 327.444 257.128C325.784 254.706 321.84 253.53 320.041 255.813C317.965 258.65 320.18 262.524 322.117 265.5C324.054 268.405 325.576 272.903 322.74 275.048C320.249 276.847 316.651 274.909 315.06 272.28C313.537 269.651 313.191 266.399 311.669 263.701C310.216 261.002 306.688 258.927 304.128 260.518C303.228 262.524 303.297 265.015 304.404 266.952C301.568 270.481 294.787 268.751 294.026 264.323C293.749 262.939 293.957 261.279 293.057 260.241C291.743 258.788 289.114 259.549 288.007 261.21C286.9 262.801 286.761 264.877 286.346 266.814C285.654 269.997 283.855 273.249 280.811 274.287C277.767 275.394 273.615 273.041 273.961 269.789C274.238 267.298 276.66 265.776 278.113 263.839C279.565 261.832 279.289 258.027 276.798 258.027C275.76 258.027 274.93 258.788 274.03 259.272C269.81 261.487 264.482 257.335 263.721 252.63C262.752 247.026 266.765 243.151 267.181 238.17C255.903 237.339 256.595 260.172 258.394 266.468Z" fill="#EF2626"/>
<path d="M280.811 290.131C280.811 291.861 281.087 293.798 282.402 294.974C283.855 296.358 286 296.427 288.006 296.358C289.736 296.358 291.535 296.289 293.057 295.458C295.479 294.075 296.447 290.961 296.447 288.124C296.447 284.596 295.41 281.275 294.026 278.092C292.573 274.771 291.881 272.072 288.352 274.702C283.578 278.161 280.811 284.457 280.811 290.131ZM304.473 284.042C303.92 288.055 303.989 292.345 305.857 295.943C307.725 299.541 311.877 302.239 315.82 301.339C316.708 301.171 317.512 300.708 318.104 300.025C319.003 298.849 318.796 297.188 318.519 295.735C317.343 290.2 315.059 284.803 311.946 280.029C310.977 278.507 308.625 274.01 306.757 275.048C305.096 276.016 304.681 282.382 304.473 284.042ZM334.917 274.01C336.024 276.155 337.546 278.092 339.622 279.337C341.697 280.583 344.257 281.067 346.54 280.375C348.824 279.683 350.761 277.677 351.176 275.324C351.591 272.557 349.931 269.789 347.647 268.129C345.364 266.468 342.597 265.707 339.898 265.015C337.546 264.392 334.156 262.317 333.395 265.569C332.703 268.475 333.879 271.381 334.917 274.01ZM352.837 256.021C355.327 258.096 358.372 259.757 361.555 259.549C364.737 259.342 367.92 256.574 367.643 253.391C367.366 250.278 364.253 248.341 361.347 247.234C355.881 245.158 350.069 244.535 344.257 244.258C344.465 248.479 349.792 253.53 352.837 256.021ZM368.889 225.439C370.964 224.678 372.902 223.363 373.939 221.426C374.977 219.489 374.977 216.929 373.593 215.199C372.279 213.538 369.926 212.985 367.782 212.916C364.322 212.777 352.352 214.922 353.667 220.388C355.12 225.716 364.737 226.892 368.889 225.439ZM333.256 198.732C333.118 199.285 333.049 199.977 333.533 200.323C333.879 200.6 334.363 200.462 334.778 200.392C337.892 199.631 341.005 198.87 343.773 197.279C346.54 195.688 348.962 193.197 349.654 190.083C350.138 187.938 349.585 184.756 347.163 183.995C345.087 183.303 342.804 185.102 341.213 186.347C337.407 189.322 334.432 193.819 333.256 198.732ZM313.33 186.278C313.26 186.693 313.191 187.246 313.537 187.523C313.814 187.731 314.229 187.662 314.575 187.592C316.997 186.97 319.487 186.347 321.702 185.102C323.916 183.856 325.784 181.85 326.406 179.428C326.822 177.768 326.337 175.208 324.469 174.585C322.809 174.031 321.01 175.484 319.764 176.453C316.582 178.805 314.229 182.334 313.33 186.278ZM212.037 149.884C212.106 150.299 212.175 150.853 211.829 151.13C211.552 151.337 211.137 151.268 210.791 151.199C208.37 150.576 205.879 149.954 203.665 148.708C201.451 147.463 199.583 145.456 198.96 143.035C198.545 141.374 199.029 138.814 200.897 138.191C202.558 137.638 204.357 139.091 205.602 140.059C208.854 142.481 211.137 146.01 212.037 149.884ZM208.992 250.762C207.955 252.492 206.917 254.152 205.464 255.536C204.011 256.92 202.143 257.889 200.136 257.889C198.13 257.889 196.054 256.851 195.293 254.983C194.463 252.976 195.224 250.693 196.331 248.825C198.891 244.466 203.388 241.352 208.3 240.245C210.653 239.692 213.075 239.208 212.729 242.252C212.383 245.227 210.445 248.271 208.992 250.762ZM193.494 227.515C192.11 228.068 190.657 228.829 189.965 230.144C189.135 231.874 190.035 234.018 191.418 235.333C194.393 238.101 199.444 238.031 202.558 235.471C204.426 233.949 208.508 227.376 205.74 225.162C204.564 224.194 201.312 225.301 199.998 225.508C197.853 225.992 195.639 226.684 193.494 227.515ZM187.405 207.173C185.883 207.311 184.292 207.242 183.046 206.412C182.228 205.821 181.61 204.994 181.276 204.041C180.942 203.089 180.908 202.057 181.178 201.084C181.663 199.147 183.185 197.556 185.053 196.725C186.852 195.895 188.927 195.688 190.934 195.895C193.632 196.172 201.312 197.348 198.891 201.499C196.815 205.028 191.142 206.896 187.405 207.173ZM188.997 187.454C186.506 187.731 183.6 187.454 182.009 185.448C180.694 183.787 180.694 181.227 181.87 179.428C183.046 177.629 185.191 176.661 187.336 176.591C189.481 176.522 191.557 177.352 193.286 178.529C194.601 179.497 195.777 180.674 197.092 181.573C198.406 182.542 199.929 183.164 201.589 183.164C198.476 185.655 192.802 187.039 188.997 187.454ZM197.784 164.206C196.192 164.345 194.463 164.345 193.079 163.515C191.28 162.408 190.588 160.124 190.173 158.049C189.896 156.665 189.758 155.143 190.588 154.036C191.28 153.136 192.456 152.79 193.632 152.721C195.639 152.652 197.507 153.482 199.167 154.658C200.828 155.835 202.143 157.288 203.457 158.741C204.91 160.332 206.917 161.577 204.426 162.961C202.627 163.999 199.721 164.068 197.784 164.206Z" fill="#FBE389"/>
<path opacity="0.1" d="M405.282 289.716C386.186 314.209 357.957 331.852 330.143 336.695C319.28 339.601 309.317 340.916 299.284 340.916C284.755 340.916 270.986 338.217 258.463 332.751C253.204 330.537 248.361 327.839 243.241 324.933C235.284 320.574 227.12 316.077 217.503 312.963C213.905 311.856 210.445 310.818 206.986 309.85C193.702 306.044 181.178 302.377 170.731 295.182C157.447 285.91 147.345 269.651 143.194 250.693C141.395 242.321 140.634 233.257 140.841 223.432C141.049 230.144 141.879 236.44 143.055 242.321C147.068 261.141 156.685 277.123 169.416 286.187C179.449 293.244 191.557 296.911 204.288 300.648C207.678 301.685 210.999 302.654 214.389 303.761C223.661 306.805 231.479 311.234 239.09 315.592C244.002 318.36 248.707 321.058 253.758 323.342C265.866 328.6 279.012 331.368 292.988 331.368C302.605 331.368 312.223 330.053 322.601 327.216C349.447 322.304 376.361 304.937 394.835 280.79C419.189 248.548 428.599 206.896 419.328 171.748C413.862 150.922 401.546 132.725 385.632 120.064C406.804 132.449 423.756 153.966 430.467 179.082C440.43 214.645 430.675 257.058 405.282 289.716Z" fill="black"/>
<path opacity="0.1" d="M420.781 138.261C410.402 141.028 400.024 144.072 389.922 147.601C378.921 151.337 367.297 155.973 360.794 165.59C353.529 176.315 354.428 190.152 353.529 203.091C352.56 215.891 347.994 230.628 335.885 235.056C328.275 237.893 318.588 236.163 313.053 242.114C308.279 247.164 309.178 255.121 309.524 261.971C310.77 282.036 303.436 304.107 285.792 313.655C274.307 319.813 260.538 319.744 247.462 318.914C235.907 318.152 224.006 317.045 212.729 320.021C196.746 315.177 180.071 311.441 166.095 301.755C149.421 290.2 138.835 271.104 134.476 251.246C130.186 231.32 131.639 210.563 135.237 190.637C139.181 168.842 145.684 147.186 157.377 128.436C169.07 109.685 186.16 93.7027 206.986 86.2303C224.629 79.8649 245.04 80.0724 261.784 88.0984H261.922C272.923 89.6205 283.717 92.0422 294.441 95.0173C302.052 97.093 309.87 94.3254 317.619 95.7784C328.344 97.854 339.345 96.747 350.277 97.5081C378.229 99.653 403.829 115.636 420.781 138.261Z" fill="white"/>
<path opacity="0.1" d="M360.932 99.0995C350.484 100.414 340.314 103.32 330.973 108.232C305.719 121.794 290.29 148.57 282.471 176.038C280.396 183.234 278.043 191.329 271.332 194.442C265.589 197.002 259.016 194.857 252.789 193.889C229.957 190.36 205.602 205.374 198.545 227.376C194.878 238.654 194.255 252.838 184.015 258.719C178.203 261.902 171.008 261.279 164.365 262.109C156.132 263.078 148.175 266.745 141.879 272.28C138.558 265.569 136.136 258.511 134.476 251.246C130.186 231.32 131.639 210.563 135.237 190.637C139.181 168.842 145.684 147.186 157.377 128.436C169.07 109.685 186.16 93.7027 206.986 86.2303C224.629 79.8649 245.04 80.0724 261.784 88.0984H261.922C272.923 89.6205 283.717 92.0422 294.441 95.0173C302.052 97.093 309.87 94.3254 317.619 95.7784C328.344 97.854 339.345 96.747 350.277 97.5081C353.875 97.7849 357.403 98.3384 360.932 99.0995Z" fill="white"/>
<path opacity="0.1" d="M430.467 263.77C420.573 251.662 406.32 243.013 390.891 240.73C376.914 238.723 362.662 241.491 348.478 241.698C334.225 241.837 318.796 238.723 309.801 227.791C297.693 212.985 300.668 188.354 285.239 176.868C275.622 169.672 262.406 170.71 250.437 170.157C230.787 169.188 211.414 162.546 195.224 151.545C186.298 145.456 178.342 138.191 169.347 132.379C166.026 130.165 162.497 128.297 158.761 126.637C170.316 108.648 186.99 93.4259 207.124 86.1611C224.767 79.7956 245.178 80.0032 261.922 88.0292H262.06C273.062 89.5513 283.855 91.9729 294.579 94.9481C302.19 97.0238 310.009 94.2562 317.758 95.7092C328.482 97.7848 339.483 96.6778 350.415 97.4389C392.274 100.622 428.599 134.732 439.462 175.277C447.28 204.613 443.198 236.163 430.467 263.77Z" fill="white"/>
<path d="M192.871 56.6865C206.363 52.9503 220.962 58.3471 232.171 66.7881C243.379 75.2292 252.097 86.3687 261.922 96.3319C271.747 106.295 283.232 115.567 297.001 118.265C311.046 121.032 325.715 116.535 337.961 109.201C346.471 104.081 353.321 99.0303 362.039 94.2562C370.757 89.4822 381.827 89.2054 391.375 91.9038C387.085 87.8908 381.619 86.1611 375.738 86.2995C358.303 86.7146 341.005 92.7341 327.168 103.32C332.426 81.3179 350.415 62.9827 372.21 57.1016C358.718 54.4724 345.572 60.3535 335.263 69.4173C324.953 78.4811 317.619 90.3816 310.493 102.075C307.656 92.4573 307.795 82.1481 310.977 72.6692C305.165 75.8519 299.63 78.8962 294.372 82.9092C289.113 86.9222 284.478 91.8346 281.503 97.7157C274.999 80.626 260.746 66.1654 244.21 58.4162C227.673 50.667 210.099 50.8054 192.871 56.6865Z" fill="#33CC33"/>
<path d="M285.516 103.112C294.51 75.5059 308.625 49.6292 326.822 27.0043C329.589 23.614 334.225 22.2994 338.376 23.614L340.521 24.2367C343.012 24.9286 343.911 27.9038 342.251 29.9103C323.777 52.1892 311.185 79.5881 308.902 108.44C307.656 114.252 284.201 108.855 285.516 103.112Z" fill="#57EA57"/>
</svg>
