<svg width="524" height="524" viewBox="0 0 524 524" fill="none" xmlns="http://www.w3.org/2000/svg">
<path d="M512 262C512 123.929 400.071 12 262 12C123.929 12 12 123.929 12 262C12 400.071 123.929 512 262 512C400.071 512 512 400.071 512 262Z" fill="#CE7421"/>
<path d="M265 20C290.137 20 312.968 32.379 335.684 39.7599C359.188 47.3961 384.928 51.0711 404.495 65.2914C424.255 79.6741 435.636 103.117 450.018 122.877C464.254 142.435 483.116 160.431 490.745 183.936C498.11 206.62 493.677 232.151 493.677 257.288C493.677 282.425 498.11 307.957 490.745 330.641C483.116 354.146 464.254 372.142 450.018 391.708C435.636 411.468 424.255 434.903 404.495 449.285C384.928 463.521 359.188 467.196 335.684 474.817C313.007 482.206 290.137 494.608 265 494.608C239.863 494.608 217.032 482.229 194.316 474.848C170.812 467.212 145.072 463.537 125.505 449.316C105.745 434.934 94.3644 411.491 79.9816 391.731C65.7459 372.172 46.8835 354.177 39.255 330.672C31.8895 307.988 36.3227 282.456 36.3227 257.319C36.3227 232.182 31.8895 206.651 39.255 183.967C46.8835 160.462 65.7459 142.466 79.9816 122.9C94.3644 103.14 105.745 79.7051 125.505 65.3224C145.072 51.0866 170.812 47.4116 194.316 39.7908C217.032 32.4022 239.863 20 265 20Z" fill="#E08327"/>
<path d="M486 257.376C486 133.664 385.712 33.376 262 33.376C138.288 33.376 38 133.664 38 257.376C38 381.088 138.288 481.376 262 481.376C385.712 481.376 486 381.088 486 257.376Z" fill="#FCE3AC"/>
<path d="M262 37.376C285.304 37.376 306.504 48.872 327.536 55.696C349.32 62.776 373.184 66.176 391.32 79.384C409.64 92.712 420.2 114.44 433.528 132.76C446.728 150.904 464.216 167.584 471.288 189.376C478.112 210.4 474 234.072 474 257.376C474 280.68 478.112 304.352 471.288 325.376C464.208 347.168 446.728 363.856 433.528 381.992C420.192 400.312 409.64 422.04 391.32 435.376C373.2 448.576 349.32 451.976 327.536 459.056C306.504 465.88 285.304 477.376 262 477.376C238.696 477.376 217.496 465.88 196.464 459.056C174.68 451.976 150.816 448.576 132.68 435.368C114.36 422.04 103.8 400.312 90.4717 381.992C77.2717 363.848 59.7837 347.168 52.7117 325.376C45.8877 304.352 49.9997 280.68 49.9997 257.376C49.9997 234.072 45.8877 210.4 52.7117 189.376C59.7917 167.584 77.2717 150.896 90.4717 132.76C103.808 114.44 114.36 92.712 132.68 79.376C150.816 66.176 174.68 62.776 196.464 55.696C217.496 48.872 238.696 37.376 262 37.376Z" fill="#ED1C24"/>
<path d="M410.608 108.768C426.328 124.488 432.872 146.56 442.44 165.36C452.368 184.84 466.16 203.24 469.48 224.392C472.84 245.76 465.28 267.592 461.896 288.928C458.552 310.088 459.08 333.152 449.136 352.64C439.536 371.448 420.768 384.64 405.032 400.408C389.296 416.176 376.072 434.912 357.264 444.512C337.776 454.456 314.704 453.928 293.552 457.312C272.184 460.696 250.352 468.256 229.016 464.896C207.864 461.536 189.464 447.776 170 437.816C151.2 428.216 129.128 421.704 113.408 405.984C97.688 390.264 91.144 368.192 81.576 349.392C71.648 329.912 57.856 311.512 54.536 290.36C51.176 268.992 58.736 247.16 62.12 225.824C65.464 204.664 64.936 181.6 74.92 162.112C84.52 143.304 103.288 130.112 119.024 114.344C134.76 98.576 147.984 79.8401 166.792 70.2401C186.28 60.2961 209.352 60.824 230.504 57.48C251.872 54.096 273.704 46.536 295.04 49.896C316.192 53.216 334.592 67.008 354.072 76.936C372.816 86.504 394.888 93.048 410.608 108.768Z" fill="#FFD140"/>
<path d="M171.095 143.414C180.695 184.214 193.727 226.15 184.815 246.382C175.903 266.614 117.999 286.214 103.951 290.614C89.9028 295.014 95.8948 168.214 133.495 141.414C171.095 114.614 171.095 143.414 171.095 143.414Z" fill="#FCBF12"/>
<path d="M119.829 336.874C132.517 372.018 145.029 417.274 177.029 428.074C209.029 438.874 224.629 409.274 249.829 429.274C275.029 449.274 291.429 396.474 263.829 368.074C236.229 339.674 183.429 353.274 159.029 327.274C134.629 301.274 114.629 322.474 119.829 336.874Z" fill="#FCBF12"/>
<path d="M265 255.022C268.6 287.822 261.4 361.022 289.4 361.022C317.4 361.022 356.2 343.022 374.6 357.422C393 371.822 450.6 315.822 425.8 271.422C408.792 240.966 380.6 208.622 376.6 166.622C372.6 124.622 294.2 191.022 283.4 214.222C272.6 237.422 265 255.022 265 255.022Z" fill="#FCBF12"/>
<path d="M188.006 102.796C223.606 100.796 240.806 96.3962 260.406 84.7962C280.006 73.1962 324.006 89.5962 339.206 114.796C354.406 139.996 250.806 164.796 218.806 141.596C186.806 118.396 188.006 102.796 188.006 102.796Z" fill="#FCBF12"/>
<path d="M179.157 37.5051C193.997 37.3213 208.553 33.4209 221.497 26.1603C246.655 12.0477 277.345 12.0477 302.504 26.1603C315.447 33.4209 330.003 37.3213 344.843 37.5051C373.687 37.8624 400.265 53.2075 414.997 78.0086C422.576 90.768 433.232 101.424 445.991 109.003C470.792 123.735 486.138 150.313 486.495 179.157C486.679 193.997 490.579 208.553 497.84 221.496C511.952 246.655 511.952 277.345 497.84 302.504C490.579 315.447 486.679 330.003 486.495 344.843C486.138 373.687 470.792 400.265 445.991 414.997C433.232 422.576 422.576 433.232 414.997 445.991C400.265 470.792 373.687 486.138 344.843 486.495C330.003 486.679 315.447 490.579 302.504 497.84C277.345 511.952 246.655 511.952 221.496 497.84C208.553 490.579 193.997 486.679 179.157 486.495C150.313 486.138 123.735 470.792 109.003 445.991C101.424 433.232 90.768 422.576 78.0086 414.997C53.2075 400.265 37.8624 373.687 37.5051 344.843C37.3213 330.003 33.4209 315.447 26.1603 302.504C12.0477 277.345 12.0477 246.655 26.1603 221.497C33.4209 208.553 37.3213 193.997 37.5051 179.157C37.8624 150.313 53.2075 123.735 78.0086 109.003C90.768 101.424 101.424 90.768 109.003 78.0086C123.735 53.2075 150.313 37.8624 179.157 37.5051Z" stroke="white" stroke-width="6"/>
</svg>
