<svg width="524" height="524" viewBox="0 0 524 524" fill="none" xmlns="http://www.w3.org/2000/svg">
<path d="M244.027 11.6783C255.382 6.19561 268.618 6.19561 279.973 11.6783C288.089 15.5969 297.263 16.7559 306.098 14.9786C318.46 12.492 331.28 15.7838 340.915 23.9181C347.801 29.7319 356.399 33.1359 365.398 33.6117C377.99 34.2775 389.589 40.6542 396.898 50.929C402.122 58.2726 409.603 63.7078 418.201 66.4068C430.232 70.183 439.881 79.244 444.405 91.0138C447.639 99.4258 453.533 106.551 461.19 111.303C471.904 117.953 478.996 129.129 480.451 141.654C481.491 150.606 485.428 158.972 491.663 165.48C500.386 174.585 504.476 187.173 502.771 199.667C501.552 208.596 503.285 217.679 507.705 225.533C513.89 236.521 514.721 249.731 509.962 261.408C506.561 269.754 505.98 278.982 508.309 287.689C511.567 299.87 509.086 312.872 501.573 322.998C496.203 330.236 493.346 339.03 493.436 348.042C493.562 360.651 487.926 372.627 478.131 380.567C471.13 386.242 466.175 394.049 464.021 402.8C461.008 415.044 452.57 425.243 441.108 430.497C432.916 434.253 426.175 440.583 421.913 448.523C415.949 459.633 405.24 467.413 392.831 469.652C383.962 471.252 375.859 475.707 369.756 482.338C361.217 491.615 348.91 496.488 336.334 495.57C327.346 494.914 318.39 497.214 310.829 502.119C300.251 508.981 287.119 510.64 275.166 506.624C266.623 503.754 257.377 503.754 248.834 506.624C236.881 510.64 223.749 508.981 213.171 502.119C205.61 497.214 196.654 494.914 187.666 495.57C175.09 496.488 162.783 491.615 154.244 482.338C148.141 475.707 140.038 471.252 131.169 469.652C118.76 467.413 108.051 459.633 102.087 448.523C97.825 440.583 91.0843 434.253 82.8919 430.497C71.4295 425.243 62.9922 415.044 59.9788 402.8C57.8251 394.049 52.8704 386.242 45.8693 380.567C36.0737 372.627 30.4378 360.651 30.564 348.042C30.6542 339.03 27.7968 330.236 22.4269 322.998C14.9136 312.872 12.4333 299.87 15.6912 287.689C18.0197 278.982 17.4391 269.754 14.0378 261.408C9.2789 249.731 10.11 236.521 16.2949 225.533C20.7154 217.679 22.448 208.596 21.2291 199.667C19.5236 187.173 23.6139 174.585 32.3371 165.48C38.5718 158.972 42.5089 150.606 43.5489 141.654C45.004 129.129 52.0964 117.953 62.8099 111.303C70.4671 106.551 76.3612 99.4258 79.5948 91.0138C84.119 79.244 93.768 70.183 105.799 66.4068C114.397 63.7078 121.878 58.2726 127.102 50.929C134.411 40.6542 146.01 34.2775 158.602 33.6117C167.601 33.1359 176.199 29.7319 183.085 23.9181C192.72 15.7838 205.54 12.492 217.902 14.9786C226.737 16.7559 235.911 15.5969 244.027 11.6783Z" fill="#CE7421"/>
<path d="M265 20C290.137 20 312.968 32.379 335.684 39.7599C359.188 47.3961 384.928 51.0711 404.495 65.2914C424.255 79.6741 435.636 103.117 450.018 122.877C464.254 142.435 483.116 160.431 490.745 183.936C498.11 206.62 493.677 232.151 493.677 257.288C493.677 282.425 498.11 307.957 490.745 330.641C483.116 354.146 464.254 372.142 450.018 391.708C435.636 411.468 424.255 434.903 404.495 449.285C384.928 463.521 359.188 467.196 335.684 474.817C313.007 482.206 290.137 494.608 265 494.608C239.863 494.608 217.032 482.229 194.316 474.848C170.812 467.212 145.072 463.537 125.505 449.316C105.745 434.934 94.3644 411.491 79.9816 391.731C65.7459 372.172 46.8835 354.177 39.255 330.672C31.8895 307.988 36.3227 282.456 36.3227 257.319C36.3227 232.182 31.8895 206.651 39.255 183.967C46.8835 160.462 65.7459 142.466 79.9816 122.9C94.3644 103.14 105.745 79.7051 125.505 65.3224C145.072 51.0866 170.812 47.4116 194.316 39.7908C217.032 32.4022 239.863 20 265 20Z" fill="#E08327"/>
<path d="M486 257.376C486 133.664 385.712 33.376 262 33.376C138.288 33.376 38 133.664 38 257.376C38 381.088 138.288 481.376 262 481.376C385.712 481.376 486 381.088 486 257.376Z" fill="#FCE3AC"/>
<path d="M262 37.376C285.304 37.376 306.504 48.872 327.536 55.696C349.32 62.776 373.184 66.176 391.32 79.384C409.64 92.712 420.2 114.44 433.528 132.76C446.728 150.904 464.216 167.584 471.288 189.376C478.112 210.4 474 234.072 474 257.376C474 280.68 478.112 304.352 471.288 325.376C464.208 347.168 446.728 363.856 433.528 381.992C420.192 400.312 409.64 422.04 391.32 435.376C373.2 448.576 349.32 451.976 327.536 459.056C306.504 465.88 285.304 477.376 262 477.376C238.696 477.376 217.496 465.88 196.464 459.056C174.68 451.976 150.816 448.576 132.68 435.368C114.36 422.04 103.8 400.312 90.4717 381.992C77.2717 363.848 59.7837 347.168 52.7117 325.376C45.8877 304.352 49.9997 280.68 49.9997 257.376C49.9997 234.072 45.8877 210.4 52.7117 189.376C59.7917 167.584 77.2717 150.896 90.4717 132.76C103.808 114.44 114.36 92.712 132.68 79.376C150.816 66.176 174.68 62.776 196.464 55.696C217.496 48.872 238.696 37.376 262 37.376Z" fill="#ED1C24"/>
<path d="M410.608 108.768C426.328 124.488 432.872 146.56 442.44 165.36C452.368 184.84 466.16 203.24 469.48 224.392C472.84 245.76 465.28 267.592 461.896 288.928C458.552 310.088 459.08 333.152 449.136 352.64C439.536 371.448 420.768 384.64 405.032 400.408C389.296 416.176 376.072 434.912 357.264 444.512C337.776 454.456 314.704 453.928 293.552 457.312C272.184 460.696 250.352 468.256 229.016 464.896C207.864 461.536 189.464 447.776 170 437.816C151.2 428.216 129.128 421.704 113.408 405.984C97.688 390.264 91.144 368.192 81.576 349.392C71.648 329.912 57.856 311.512 54.536 290.36C51.176 268.992 58.736 247.16 62.12 225.824C65.464 204.664 64.936 181.6 74.92 162.112C84.52 143.304 103.288 130.112 119.024 114.344C134.76 98.576 147.984 79.8401 166.792 70.2401C186.28 60.2961 209.352 60.824 230.504 57.48C251.872 54.096 273.704 46.536 295.04 49.896C316.192 53.216 334.592 67.008 354.072 76.936C372.816 86.504 394.888 93.048 410.608 108.768Z" fill="#FFD140"/>
<path d="M171.095 143.414C180.695 184.214 193.727 226.15 184.815 246.382C175.903 266.614 117.999 286.214 103.951 290.614C89.9028 295.014 95.8948 168.214 133.495 141.414C171.095 114.614 171.095 143.414 171.095 143.414Z" fill="#FCBF12"/>
<path d="M119.829 336.874C132.517 372.018 145.029 417.274 177.029 428.074C209.029 438.874 224.629 409.274 249.829 429.274C275.029 449.274 291.429 396.474 263.829 368.074C236.229 339.674 183.429 353.274 159.029 327.274C134.629 301.274 114.629 322.474 119.829 336.874Z" fill="#FCBF12"/>
<path d="M265 255.022C268.6 287.822 261.4 361.022 289.4 361.022C317.4 361.022 356.2 343.022 374.6 357.422C393 371.822 450.6 315.822 425.8 271.422C408.792 240.966 380.6 208.622 376.6 166.622C372.6 124.622 294.2 191.022 283.4 214.222C272.6 237.422 265 255.022 265 255.022Z" fill="#FCBF12"/>
<path d="M188.006 102.796C223.606 100.796 240.806 96.3962 260.406 84.7962C280.006 73.1962 324.006 89.5962 339.206 114.796C354.406 139.996 250.806 164.796 218.806 141.596C186.806 118.396 188.006 102.796 188.006 102.796Z" fill="#FCBF12"/>
<path d="M222.475 27.9046C247.026 14.1329 276.974 14.1329 301.525 27.9046C314.76 35.3287 329.644 39.317 344.818 39.5049C372.965 39.8536 398.902 54.828 413.277 79.03C421.027 92.0768 431.923 102.973 444.97 110.723C469.172 125.098 484.146 151.035 484.495 179.182C484.683 194.356 488.671 209.24 496.095 222.475C509.867 247.026 509.867 276.974 496.095 301.525C488.671 314.76 484.683 329.644 484.495 344.818C484.146 372.965 469.172 398.902 444.97 413.277C431.923 421.027 421.027 431.923 413.277 444.97C398.902 469.172 372.965 484.146 344.818 484.495C329.644 484.683 314.76 488.671 301.525 496.095C276.974 509.867 247.026 509.867 222.475 496.095C209.24 488.671 194.356 484.683 179.182 484.495C151.035 484.146 125.098 469.172 110.723 444.97C102.973 431.923 92.0768 421.027 79.03 413.277C54.828 398.902 39.8536 372.965 39.5049 344.818C39.317 329.644 35.3287 314.76 27.9046 301.525C14.1329 276.974 14.1329 247.026 27.9046 222.475C35.3287 209.24 39.317 194.356 39.5049 179.182C39.8536 151.035 54.828 125.098 79.03 110.723C92.0768 102.973 102.973 92.0768 110.723 79.03C125.098 54.828 151.035 39.8536 179.182 39.5049C194.356 39.317 209.24 35.3287 222.475 27.9046Z" stroke="#E08327" stroke-width="10"/>
</svg>
