<svg width="500" height="500" viewBox="0 0 500 500" fill="none" xmlns="http://www.w3.org/2000/svg">
<path d="M500 250C500 111.929 388.071 0 250 0C111.929 0 0 111.929 0 250C0 388.071 111.929 500 250 500C388.071 500 500 388.071 500 250Z" fill="#BE6009"/>
<path d="M250 8.58774C275.028 8.58774 297.761 20.9132 320.378 28.2623C343.781 35.8656 369.411 39.5248 388.893 53.6837C408.567 68.0044 419.899 91.3458 434.22 111.02C448.394 130.495 467.175 148.413 474.771 171.816C482.104 194.402 477.69 219.824 477.69 244.852C477.69 269.881 482.104 295.302 474.771 317.889C467.175 341.292 448.394 359.21 434.22 378.692C419.899 398.366 408.567 421.7 388.893 436.021C369.411 450.195 343.781 453.854 320.378 461.442C297.8 468.799 275.028 481.148 250 481.148C224.971 481.148 202.238 468.822 179.621 461.473C156.218 453.87 130.589 450.211 111.107 436.052C91.4322 421.731 80.1004 398.39 65.7797 378.715C51.6054 359.241 32.8244 341.322 25.2288 317.919C17.8952 295.333 22.3092 269.912 22.3092 244.883C22.3092 219.855 17.8952 194.433 25.2288 171.847C32.8244 148.444 51.6054 130.525 65.7797 111.043C80.1004 91.3689 91.4322 68.0352 111.107 53.7145C130.589 39.5402 156.218 35.881 179.621 28.2932C202.238 20.9364 224.971 8.58774 250 8.58774Z" fill="#E08327"/>
<path d="M463.741 245.588C463.741 127.542 368.046 31.8473 250 31.8473C131.955 31.8473 36.2598 127.542 36.2598 245.588C36.2598 363.633 131.955 459.328 250 459.328C368.046 459.328 463.741 363.633 463.741 245.588Z" fill="#FCE3AC"/>
<path d="M250 35.6641C272.236 35.6641 292.465 46.6336 312.534 53.145C333.32 59.9007 356.091 63.145 373.397 75.748C390.877 88.4656 400.954 109.198 413.671 126.679C426.267 143.992 442.954 159.908 449.702 180.702C456.213 200.763 452.29 223.351 452.29 245.588C452.29 267.824 456.213 290.412 449.702 310.473C442.946 331.267 426.267 347.191 413.671 364.496C400.946 381.977 390.877 402.71 373.397 415.435C356.106 428.03 333.32 431.275 312.534 438.03C292.465 444.542 272.236 455.511 250 455.511C227.763 455.511 207.534 444.542 187.465 438.03C166.679 431.275 143.908 428.03 126.603 415.427C109.122 402.71 99.0454 381.977 86.3278 364.496C73.7324 347.183 57.0454 331.267 50.2973 310.473C43.7859 290.412 47.7095 267.824 47.7095 245.588C47.7095 223.351 43.7859 200.763 50.2973 180.702C57.053 159.908 73.7324 143.985 86.3278 126.679C99.053 109.198 109.122 88.4656 126.603 75.7404C143.908 63.145 166.679 59.9007 187.465 53.145C207.534 46.6336 227.763 35.6641 250 35.6641Z" fill="#ED1C24"/>
<path d="M391.801 103.786C406.801 118.786 413.046 139.847 422.175 157.786C431.649 176.374 444.809 193.931 447.977 214.114C451.183 234.504 443.969 255.336 440.74 275.695C437.549 295.885 438.053 317.893 428.565 336.489C419.404 354.435 401.496 367.023 386.481 382.069C371.465 397.114 358.847 414.992 340.901 424.153C322.305 433.641 300.29 433.137 280.107 436.366C259.717 439.595 238.885 446.809 218.527 443.603C198.343 440.397 180.786 427.267 162.214 417.763C144.275 408.603 123.214 402.389 108.214 387.389C93.2135 372.389 86.9692 351.328 77.8395 333.389C68.3662 314.802 55.2059 297.244 52.0379 277.061C48.8318 256.672 56.0456 235.84 59.2746 215.481C62.4654 195.29 61.9616 173.282 71.4883 154.687C80.6486 136.74 98.557 124.153 113.572 109.107C128.588 94.061 141.206 76.1832 159.152 67.0229C177.748 57.5344 199.763 58.0382 219.946 54.8473C240.336 51.6183 261.168 44.4046 281.527 47.6107C301.71 50.7786 319.267 63.9389 337.855 73.4122C355.74 82.542 376.801 88.7862 391.801 103.786Z" fill="#FFD140"/>
<path d="M163.258 136.845C172.419 175.777 184.854 215.792 176.35 235.097C167.846 254.402 112.594 273.105 99.1895 277.303C85.785 281.502 91.5025 160.509 127.38 134.937C163.258 109.364 163.258 136.845 163.258 136.845Z" fill="#FCBF12"/>
<path d="M114.341 321.445C126.448 354.979 138.387 398.162 168.921 408.468C199.456 418.773 214.341 390.529 238.387 409.613C262.433 428.697 278.081 378.315 251.746 351.216C225.41 324.116 175.028 337.093 151.746 312.284C128.463 287.475 109.379 307.704 114.341 321.445Z" fill="#FCBF12"/>
<path d="M252.863 243.341C256.298 274.639 249.428 344.486 276.145 344.486C302.863 344.486 339.886 327.311 357.443 341.051C375 354.792 429.962 301.357 406.298 258.99C390.069 229.929 363.168 199.066 359.351 158.99C355.535 118.914 280.725 182.273 270.42 204.41C260.115 226.547 252.863 243.341 252.863 243.341Z" fill="#FCBF12"/>
<path d="M179.395 98.088C213.364 96.1796 229.776 91.9811 248.479 80.9124C267.181 69.8437 309.166 85.4926 323.67 109.538C338.173 133.584 239.318 157.248 208.784 135.111C178.25 112.973 179.395 98.088 179.395 98.088Z" fill="#FCBF12"/>
</svg>
