<svg width="524" height="524" viewBox="0 0 524 524" fill="none" xmlns="http://www.w3.org/2000/svg">
<path d="M524 262C524 117.301 406.699 0 262 0C117.301 0 0 117.301 0 262C0 406.699 117.301 524 262 524C406.699 524 524 406.699 524 262Z" fill="#BE6009"/>
<path d="M262 8.99992C288.23 8.99992 312.054 21.9171 335.757 29.6189C360.283 37.5871 387.143 41.4219 407.56 56.2605C428.179 71.2686 440.055 95.7304 455.063 116.349C469.917 136.758 489.6 155.537 497.56 180.063C505.246 203.734 500.62 230.375 500.62 256.605C500.62 282.835 505.246 309.477 497.56 333.147C489.6 357.674 469.917 376.452 455.063 396.869C440.055 417.488 428.179 441.942 407.56 456.95C387.143 471.805 360.283 475.639 335.757 483.591C312.094 491.301 288.23 504.243 262 504.243C235.77 504.243 211.946 491.326 188.243 483.624C163.717 475.655 136.857 471.821 116.44 456.982C95.8211 441.974 83.9454 417.512 68.9374 396.893C54.0827 376.484 34.4002 357.706 26.44 333.18C18.7543 309.509 23.3803 282.867 23.3803 256.637C23.3803 230.408 18.7543 203.766 26.44 180.095C34.4002 155.569 54.0827 136.791 68.9374 116.374C83.9454 95.7546 95.8211 71.3009 116.44 56.2928C136.857 41.4381 163.717 37.6033 188.243 29.6512C211.946 21.9413 235.77 8.99992 262 8.99992Z" fill="#E08327"/>
<path d="M486 257.376C486 133.664 385.712 33.376 262 33.376C138.288 33.376 38 133.664 38 257.376C38 381.088 138.288 481.376 262 481.376C385.712 481.376 486 381.088 486 257.376Z" fill="#FCE3AC"/>
<path d="M262 37.376C285.304 37.376 306.504 48.872 327.536 55.696C349.32 62.776 373.184 66.176 391.32 79.384C409.64 92.712 420.2 114.44 433.528 132.76C446.728 150.904 464.216 167.584 471.288 189.376C478.112 210.4 474 234.072 474 257.376C474 280.68 478.112 304.352 471.288 325.376C464.208 347.168 446.728 363.856 433.528 381.992C420.192 400.312 409.64 422.04 391.32 435.376C373.2 448.576 349.32 451.976 327.536 459.056C306.504 465.88 285.304 477.376 262 477.376C238.696 477.376 217.496 465.88 196.464 459.056C174.68 451.976 150.816 448.576 132.68 435.368C114.36 422.04 103.8 400.312 90.4717 381.992C77.2717 363.848 59.7837 347.168 52.7117 325.376C45.8877 304.352 49.9997 280.68 49.9997 257.376C49.9997 234.072 45.8877 210.4 52.7117 189.376C59.7917 167.584 77.2717 150.896 90.4717 132.76C103.808 114.44 114.36 92.712 132.68 79.376C150.816 66.176 174.68 62.776 196.464 55.696C217.496 48.872 238.696 37.376 262 37.376Z" fill="#F56167"/>
<path d="M410.608 108.768C426.328 124.488 432.872 146.56 442.44 165.36C452.368 184.84 466.16 203.24 469.48 224.392C472.84 245.76 465.28 267.592 461.896 288.928C458.552 310.088 459.08 333.152 449.136 352.64C439.536 371.448 420.768 384.64 405.032 400.408C389.296 416.176 376.072 434.912 357.264 444.512C337.776 454.456 314.704 453.928 293.552 457.312C272.184 460.696 250.352 468.256 229.016 464.896C207.864 461.536 189.464 447.776 170 437.816C151.2 428.216 129.128 421.704 113.408 405.984C97.688 390.264 91.144 368.192 81.576 349.392C71.648 329.912 57.856 311.512 54.536 290.36C51.176 268.992 58.736 247.16 62.12 225.824C65.464 204.664 64.936 181.6 74.92 162.112C84.52 143.304 103.288 130.112 119.024 114.344C134.76 98.576 147.984 79.84 166.792 70.24C186.28 60.296 209.352 60.824 230.504 57.48C251.872 54.096 273.704 46.536 295.04 49.896C316.192 53.216 334.592 67.008 354.072 76.936C372.816 86.504 394.888 93.048 410.608 108.768Z" fill="#FFDF78"/>
<path d="M171.095 143.414C180.695 184.214 193.727 226.15 184.815 246.382C175.903 266.614 117.999 286.214 103.951 290.614C89.9028 295.014 95.8948 168.214 133.495 141.414C171.095 114.614 171.095 143.414 171.095 143.414Z" fill="#FCBF12"/>
<path d="M119.829 336.874C132.517 372.018 145.029 417.274 177.029 428.074C209.029 438.874 224.629 409.274 249.829 429.274C275.029 449.274 291.429 396.474 263.829 368.074C236.229 339.674 183.429 353.274 159.029 327.274C134.629 301.274 114.629 322.474 119.829 336.874Z" fill="#FCBF12"/>
<path d="M265 255.022C268.6 287.822 261.4 361.022 289.4 361.022C317.4 361.022 356.2 343.022 374.6 357.422C393 371.822 450.6 315.822 425.8 271.422C408.792 240.966 380.6 208.622 376.6 166.622C372.6 124.622 294.2 191.022 283.4 214.222C272.6 237.422 265 255.022 265 255.022Z" fill="#FCBF12"/>
<path d="M188.006 102.796C223.606 100.796 240.806 96.3962 260.406 84.7962C280.006 73.1962 324.006 89.5962 339.206 114.796C354.406 139.996 250.806 164.796 218.806 141.596C186.806 118.396 188.006 102.796 188.006 102.796Z" fill="#FCBF12"/>
</svg>
