<svg width="500" height="500" viewBox="0 0 500 500" fill="none" xmlns="http://www.w3.org/2000/svg">
<path d="M500 250C500 111.929 388.071 0 250 0C111.929 0 0 111.929 0 250C0 388.071 111.929 500 250 500C388.071 500 500 388.071 500 250Z" fill="#CE7421"/>
<path d="M253 8.00004C278.137 8.00004 300.968 20.379 323.684 27.7599C347.188 35.3961 372.928 39.0711 392.495 53.2914C412.255 67.6741 423.636 91.1167 438.018 110.877C452.254 130.435 471.116 148.431 478.745 171.936C486.11 194.62 481.677 220.151 481.677 245.288C481.677 270.425 486.11 295.957 478.745 318.641C471.116 342.146 452.254 360.142 438.018 379.708C423.636 399.468 412.255 422.903 392.495 437.285C372.928 451.521 347.188 455.196 323.684 462.817C301.007 470.206 278.137 482.608 253 482.608C227.863 482.608 205.032 470.229 182.316 462.848C158.812 455.212 133.072 451.537 113.505 437.316C93.7453 422.934 82.3644 399.491 67.9816 379.731C53.7459 360.172 34.8835 342.177 27.255 318.672C19.8895 295.988 24.3227 270.456 24.3227 245.319C24.3227 220.182 19.8895 194.651 27.255 171.967C34.8835 148.462 53.7459 130.466 67.9816 110.9C82.3644 91.1399 93.7453 67.7051 113.505 53.3224C133.072 39.0866 158.812 35.4116 182.316 27.7908C205.032 20.4022 227.863 8.00004 253 8.00004Z" fill="#E08327"/>
<path d="M474 245.376C474 121.664 373.712 21.376 250 21.376C126.288 21.376 26 121.664 26 245.376C26 369.088 126.288 469.376 250 469.376C373.712 469.376 474 369.088 474 245.376Z" fill="#FCE3AC"/>
<path d="M250 25.376C273.304 25.376 294.504 36.872 315.536 43.696C337.32 50.776 361.184 54.176 379.32 67.384C397.64 80.712 408.2 102.44 421.528 120.76C434.728 138.904 452.216 155.584 459.288 177.376C466.112 198.4 462 222.072 462 245.376C462 268.68 466.112 292.352 459.288 313.376C452.208 335.168 434.728 351.856 421.528 369.992C408.192 388.312 397.64 410.04 379.32 423.376C361.2 436.576 337.32 439.976 315.536 447.056C294.504 453.88 273.304 465.376 250 465.376C226.696 465.376 205.496 453.88 184.464 447.056C162.68 439.976 138.816 436.576 120.68 423.368C102.36 410.04 91.7997 388.312 78.4717 369.992C65.2717 351.848 47.7837 335.168 40.7117 313.376C33.8877 292.352 37.9997 268.68 37.9997 245.376C37.9997 222.072 33.8877 198.4 40.7117 177.376C47.7917 155.584 65.2717 138.896 78.4717 120.76C91.8077 102.44 102.36 80.712 120.68 67.376C138.816 54.176 162.68 50.776 184.464 43.696C205.496 36.872 226.696 25.376 250 25.376Z" fill="#ED1C24"/>
<path d="M398.608 96.768C414.328 112.488 420.872 134.56 430.44 153.36C440.368 172.84 454.16 191.24 457.48 212.392C460.84 233.76 453.28 255.592 449.896 276.928C446.552 298.088 447.08 321.152 437.136 340.64C427.536 359.448 408.768 372.64 393.032 388.408C377.296 404.176 364.072 422.912 345.264 432.512C325.776 442.456 302.704 441.928 281.552 445.312C260.184 448.696 238.352 456.256 217.016 452.896C195.864 449.536 177.464 435.776 158 425.816C139.2 416.216 117.128 409.704 101.408 393.984C85.688 378.264 79.144 356.192 69.576 337.392C59.648 317.912 45.856 299.512 42.536 278.36C39.176 256.992 46.736 235.16 50.12 213.824C53.464 192.664 52.936 169.6 62.92 150.112C72.52 131.304 91.288 118.112 107.024 102.344C122.76 86.576 135.984 67.8401 154.792 58.2401C174.28 48.2961 197.352 48.824 218.504 45.48C239.872 42.096 261.704 34.536 283.04 37.896C304.192 41.216 322.592 55.008 342.072 64.936C360.816 74.504 382.888 81.048 398.608 96.768Z" fill="#FF6A3A"/>
<path d="M159.095 131.414C168.695 172.214 181.727 214.15 172.815 234.382C163.903 254.614 105.999 274.214 91.9508 278.614C77.9028 283.014 83.8948 156.214 121.495 129.414C159.095 102.614 159.095 131.414 159.095 131.414Z" fill="#FC9E12"/>
<path d="M107.829 324.874C120.517 360.018 133.029 405.274 165.029 416.074C197.029 426.874 212.629 397.274 237.829 417.274C263.029 437.274 279.429 384.474 251.829 356.074C224.229 327.674 171.429 341.274 147.029 315.274C122.629 289.274 102.629 310.474 107.829 324.874Z" fill="#FC9E12"/>
<path d="M253 243.022C256.6 275.822 249.4 349.022 277.4 349.022C305.4 349.022 344.2 331.022 362.6 345.422C381 359.822 438.6 303.822 413.8 259.422C396.792 228.966 368.6 196.622 364.6 154.622C360.6 112.622 282.2 179.022 271.4 202.222C260.6 225.422 253 243.022 253 243.022Z" fill="#FC9E12"/>
<path d="M176.006 90.7962C211.606 88.7962 228.806 84.3962 248.406 72.7962C268.006 61.1962 312.006 77.5962 327.206 102.796C342.406 127.996 238.806 152.796 206.806 129.596C174.806 106.396 176.006 90.7962 176.006 90.7962Z" fill="#FC9E12"/>
</svg>
