<svg width="500" height="500" viewBox="0 0 500 500" fill="none" xmlns="http://www.w3.org/2000/svg">
<path d="M272.923 430.509C274.948 432.118 276.922 432.96 280.566 432.738C283.701 432.55 282.865 424.708 282.891 421.916C282.945 416.163 282.681 410.873 280.932 405.384C279.337 400.37 276.493 395.836 273.76 391.333C270.917 386.651 267.953 381.497 264.029 377.641C262.312 375.95 255.466 370.382 253.162 369.831C250.915 369.296 245.976 377.017 247.742 378.823C250.575 381.718 257.075 388.221 258.835 391.909C262.861 400.347 266.548 407.932 269.207 416.877C270.282 420.495 270.681 428.723 272.923 430.509Z" fill="#A84046"/>
<path d="M282.924 427.813C281.786 428.698 280.595 429.608 279.283 430.573L277.192 432.523C278.165 432.713 279.228 432.821 280.567 432.738C282.241 432.638 282.779 430.347 282.924 427.813ZM271.603 387.782C270.631 389.822 269.701 391.261 269.061 391.501L268.007 391.717C265.596 392.21 260.015 393.878 259.853 394.057C260.279 394.944 260.699 395.835 261.113 396.711C261.297 396.705 266.502 395.35 268.658 394.912L269.726 394.693C271.04 394.418 272.335 392.979 273.532 390.961C272.898 389.915 272.261 388.849 271.603 387.782ZM277.288 408.876C276.932 408.781 276.312 408.586 275.546 408.35C272.006 407.27 265.908 406.48 265.601 406.846C265.959 407.721 266.325 408.593 266.665 409.485C266.708 409.489 272.393 410.797 274.593 411.469C275.704 411.811 276.557 412.064 276.877 412.126C277.827 412.312 278.946 411.854 280.623 410.599C281.034 410.291 281.51 409.883 281.984 409.474C281.749 408.292 281.428 407.103 281.069 405.908C279.406 407.506 277.989 408.608 277.288 408.876Z" fill="#EB6E60"/>
<path d="M252.766 369.664C255.067 369.523 274.3 370.115 277.942 372.174C283.222 375.165 292.095 387.621 294.61 393.102C299.937 404.71 301.83 421.499 301.098 426.966C300.62 430.515 284.124 434.289 280.464 432.647C280.428 431.9 279.712 414.101 273.71 400.724C265.473 382.363 252.007 369.71 252.766 369.664Z" fill="#EB6E60"/>
<path d="M300.37 413.93C300.149 412.442 299.894 410.959 299.606 409.482C298.783 409.455 295.844 416.421 289.941 421.902C287.489 424.179 284.333 426.803 280.282 429.824C280.408 431.441 280.455 432.482 280.464 432.647C280.751 432.778 281.14 432.863 281.575 432.925C292.086 425.162 298.258 418.915 300.37 413.93ZM292.204 388.769C291.854 388.837 290.125 395.088 286.71 400.076C283.418 404.884 278.452 408.431 277.288 408.876C277.053 408.811 276.819 408.743 276.586 408.671C276.922 409.832 277.224 410.988 277.504 412.141C278.325 412.069 279.299 411.591 280.623 410.599C284.764 407.5 292.503 399.022 293.893 391.679C293.425 390.798 292.853 389.815 292.204 388.769ZM277.942 372.174C277.552 371.956 276.957 371.754 276.254 371.569C276.183 371.74 271.056 390.754 269.061 391.501L268.928 391.529C269.474 392.454 270.013 393.394 270.541 394.364C274.815 391.986 278.727 378.559 279.301 373.105C278.83 372.744 278.37 372.417 277.942 372.174Z" fill="#FAB3B1"/>
<path d="M383.616 324.473C384.347 327.247 385.542 329.307 388.929 331.53C391.84 333.444 396.304 325.918 398.181 323.455C402.049 318.378 405.327 313.501 407.419 307.461C409.331 301.945 409.813 296.027 410.374 290.21C410.956 284.161 411.744 277.612 410.818 271.579C410.414 268.936 408.027 259.442 406.345 257.422C404.703 255.454 395.187 259.036 395.557 261.815C396.153 266.269 397.611 276.365 396.726 280.811C394.702 290.984 392.942 300.175 389.365 309.89C387.919 313.819 382.809 321.397 383.616 324.473Z" fill="#A84046"/>
<path d="M394.295 328.718C392.696 328.748 391.033 328.767 389.227 328.754L386.073 329.098C386.812 329.912 387.685 330.715 388.929 331.53C390.484 332.553 392.484 330.874 394.295 328.718ZM410.816 285.622C408.597 286.789 406.815 287.451 406.086 287.24L405.007 286.731C402.536 285.568 396.469 283.345 396.205 283.396C395.995 284.467 395.777 285.539 395.563 286.592C395.731 286.708 401.256 288.961 403.463 290.004L404.558 290.518C405.908 291.146 408.015 290.727 410.419 289.728C410.55 288.377 410.692 287.008 410.816 285.622ZM401.861 308.145C401.607 307.824 401.186 307.238 400.662 306.521C398.233 303.21 393.337 298.458 392.822 298.58C392.559 299.596 392.305 300.613 392.015 301.631C392.051 301.664 396.235 306.602 397.744 308.659C398.504 309.701 399.094 310.493 399.337 310.76C400.058 311.556 401.358 311.892 403.681 311.891C404.25 311.89 404.944 311.843 405.638 311.795C406.214 310.588 406.718 309.318 407.192 308.018C404.653 308.334 402.662 308.372 401.861 308.145Z" fill="#EB6E60"/>
<path d="M406.105 257.011C408.243 258.414 424.944 271.711 426.813 275.959C429.52 282.124 429.135 299.087 427.731 305.628C424.757 319.482 415.291 335.661 411.01 340.033C408.229 342.87 391.062 335.27 388.899 331.381C389.362 330.693 400.546 314.398 404.094 298.524C408.966 276.735 405.4 256.547 406.105 257.011Z" fill="#EB6E60"/>
<path d="M419.019 327.965C419.811 326.495 420.57 325.007 421.294 323.503C420.581 322.933 413.343 327.172 404.457 328.124C400.765 328.52 396.218 328.756 390.611 328.751C389.649 330.271 389 331.228 388.898 331.381C389.067 331.687 389.356 332.022 389.701 332.365C404.198 332.445 413.832 330.992 419.019 327.965ZM428.47 300.179C428.113 300.007 422.425 304.414 416.078 306.58C409.96 308.668 403.191 308.522 401.861 308.145C401.695 307.931 401.532 307.715 401.373 307.496C400.901 308.752 400.402 309.979 399.884 311.19C400.662 311.671 401.845 311.893 403.68 311.891C409.419 311.886 421.927 309.49 428.038 303.887C428.208 302.793 428.352 301.54 428.47 300.179ZM426.813 275.959C426.611 275.506 426.218 274.932 425.715 274.3C425.539 274.405 408.355 287.9 406.086 287.24L405.95 287.176C405.821 288.361 405.675 289.554 405.501 290.766C410.878 291.491 423.271 282.155 427.403 277.689C427.224 277.055 427.033 276.46 426.813 275.959Z" fill="#FAB3B1"/>
<path d="M229.683 93.0216C231.777 91.5049 233.12 89.8304 233.887 86.2602C234.548 83.1902 226.77 81.8862 224.089 81.1096C218.563 79.5101 213.397 78.3413 207.639 78.548C202.381 78.7352 197.249 80.2553 192.177 81.6756C186.903 83.1545 181.141 84.6222 176.371 87.3635C174.281 88.5631 167.077 93.6584 165.926 95.729C164.806 97.7496 170.913 104.584 173.128 103.368C176.679 101.419 184.691 96.9081 188.716 96.2058C197.926 94.5981 206.224 93.0872 215.554 92.9333C219.328 92.8713 227.36 94.7009 229.683 93.0216Z" fill="#A84046"/>
<path d="M229.777 82.6645C230.323 83.9986 230.88 85.3906 231.456 86.9133L232.771 89.4526C233.216 88.566 233.606 87.571 233.887 86.26C234.241 84.6207 232.179 83.4858 229.777 82.6645ZM188.177 82.7973C189.879 84.2824 191.015 85.565 191.075 86.2466L190.999 87.3195C190.825 89.7747 190.93 95.5979 191.058 95.8029C192.028 95.6313 192.999 95.466 193.954 95.3036C193.997 95.1242 194.093 89.7472 194.252 87.5522L194.328 86.4644C194.416 85.1257 193.379 83.4912 191.757 81.7947C190.579 82.1243 189.382 82.4507 188.177 82.7973ZM210.022 82.9974C209.835 83.3155 209.48 83.8595 209.047 84.5335C207.054 87.6525 204.653 93.3137 204.923 93.7077C205.862 93.5976 206.8 93.4803 207.75 93.393C207.766 93.3526 210.556 88.2288 211.794 86.2911C212.423 85.3128 212.896 84.5592 213.042 84.268C213.476 83.4033 213.336 82.2014 212.579 80.2493C212.393 79.7708 212.128 79.2026 211.862 78.6354C210.66 78.544 209.428 78.5327 208.181 78.5573C209.273 80.5891 209.952 82.2501 210.022 82.9974Z" fill="#EB6E60"/>
<path d="M165.658 96.0652C166.142 93.8113 171.887 75.4469 174.849 72.4936C179.151 68.2126 193.535 63.0181 199.49 62.07C212.104 60.0632 228.783 62.757 233.851 64.9329C237.14 66.3478 236.337 83.2511 233.771 86.3346C233.042 86.1687 215.707 82.0685 201.208 84.2508C181.308 87.2441 165.498 96.809 165.658 96.0652Z" fill="#EB6E60"/>
<path d="M221.101 62.1265C219.608 61.9389 218.11 61.7853 216.61 61.6659C216.363 62.4509 222.281 67.1559 225.972 74.3159C227.506 77.2901 229.184 81.0356 231.004 85.7501C232.594 86.0643 233.61 86.2987 233.772 86.3346C233.974 86.0936 234.161 85.7413 234.338 85.3395C229.689 73.1273 225.333 65.502 221.101 62.1265ZM194.67 63.2216C194.642 63.5774 200.196 66.9249 204.082 71.5556C207.827 76.0196 209.907 81.7567 210.022 82.9975C209.897 83.2068 209.768 83.414 209.635 83.6192C210.845 83.6072 212.039 83.6276 213.225 83.6686C213.376 82.8582 213.178 81.7919 212.579 80.2495C210.708 75.4275 204.625 65.6924 197.927 62.3787C196.952 62.5919 195.852 62.8782 194.67 63.2216ZM174.85 72.4937C174.535 72.8107 174.18 73.3286 173.812 73.9564C173.958 74.0706 190.892 84.1245 191.075 86.2468L191.066 86.3819C192.104 86.1052 193.154 85.8394 194.23 85.5915C193.09 80.8353 181.21 73.4553 176.112 71.4352C175.637 71.7914 175.199 72.1462 174.85 72.4937Z" fill="#FAB3B1"/>
<path d="M342.923 168.509C344.948 170.118 346.922 170.96 350.566 170.738C353.701 170.55 352.865 162.708 352.891 159.916C352.945 154.163 352.681 148.873 350.932 143.384C349.337 138.37 346.493 133.836 343.76 129.333C340.917 124.651 337.953 119.497 334.029 115.641C332.312 113.95 325.466 108.382 323.162 107.831C320.915 107.296 315.976 115.017 317.742 116.823C320.575 119.718 327.075 126.221 328.835 129.909C332.861 138.347 336.548 145.932 339.207 154.877C340.282 158.495 340.681 166.723 342.923 168.509Z" fill="#A84046"/>
<path d="M352.924 165.813C351.786 166.698 350.595 167.608 349.283 168.573L347.192 170.523C348.165 170.713 349.228 170.821 350.567 170.738C352.241 170.638 352.779 168.347 352.924 165.813ZM341.603 125.782C340.631 127.822 339.701 129.261 339.061 129.501L338.007 129.717C335.596 130.21 330.015 131.878 329.853 132.057C330.279 132.944 330.699 133.835 331.113 134.711C331.297 134.705 336.502 133.35 338.658 132.912L339.726 132.693C341.04 132.418 342.335 130.979 343.532 128.961C342.898 127.915 342.261 126.849 341.603 125.782ZM347.288 146.876C346.932 146.781 346.312 146.586 345.546 146.35C342.006 145.27 335.908 144.48 335.601 144.846C335.959 145.721 336.325 146.593 336.665 147.485C336.708 147.489 342.393 148.797 344.593 149.469C345.704 149.811 346.557 150.064 346.877 150.126C347.827 150.312 348.946 149.854 350.623 148.599C351.034 148.291 351.51 147.883 351.984 147.474C351.749 146.292 351.428 145.103 351.069 143.908C349.406 145.506 347.989 146.608 347.288 146.876Z" fill="#EB6E60"/>
<path d="M322.766 107.664C325.067 107.523 344.3 108.115 347.942 110.174C353.222 113.165 362.095 125.621 364.61 131.102C369.937 142.71 371.83 159.499 371.098 164.966C370.62 168.515 354.124 172.289 350.464 170.647C350.428 169.9 349.712 152.101 343.71 138.724C335.473 120.363 322.007 107.71 322.766 107.664Z" fill="#EB6E60"/>
<path d="M370.37 151.93C370.149 150.442 369.894 148.959 369.606 147.482C368.783 147.455 365.844 154.421 359.941 159.902C357.489 162.179 354.333 164.803 350.282 167.824C350.408 169.441 350.455 170.482 350.464 170.647C350.751 170.778 351.14 170.863 351.575 170.925C362.086 163.162 368.258 156.915 370.37 151.93ZM362.204 126.769C361.854 126.837 360.125 133.088 356.71 138.076C353.418 142.884 348.452 146.431 347.288 146.876C347.053 146.811 346.819 146.743 346.586 146.671C346.922 147.832 347.224 148.988 347.504 150.141C348.325 150.069 349.299 149.591 350.623 148.599C354.764 145.5 362.503 137.022 363.893 129.679C363.425 128.798 362.853 127.815 362.204 126.769ZM347.942 110.174C347.552 109.956 346.957 109.754 346.254 109.569C346.183 109.74 341.056 128.754 339.061 129.501L338.928 129.529C339.474 130.454 340.013 131.394 340.541 132.364C344.815 129.986 348.727 116.559 349.301 111.105C348.83 110.744 348.37 110.417 347.942 110.174Z" fill="#FAB3B1"/>
<path d="M242.965 201.382C242.399 198.859 241.391 196.964 238.414 194.849C235.855 193.028 231.585 199.659 229.812 201.816C226.16 206.26 223.045 210.544 220.96 215.915C219.055 220.82 218.424 226.135 217.726 231.356C217.001 236.785 216.073 242.658 216.707 248.122C216.984 250.517 218.819 259.148 220.266 261.023C221.68 262.85 230.371 259.939 230.129 257.424C229.741 253.392 228.762 244.25 229.707 240.275C231.868 231.179 233.758 222.959 237.302 214.327C238.736 210.836 243.59 204.179 242.965 201.382Z" fill="#A84046"/>
<path d="M233.487 197.204C234.929 197.23 236.427 197.268 238.054 197.34L240.906 197.135C240.267 196.376 239.507 195.625 238.414 194.849C237.048 193.876 235.191 195.322 233.487 197.204ZM217.176 235.474C219.213 234.496 220.84 233.959 221.49 234.174L222.445 234.668C224.632 235.797 230.023 238.001 230.262 237.964C230.487 237.006 230.719 236.048 230.947 235.106C230.8 234.996 225.898 232.784 223.944 231.771L222.975 231.271C221.78 230.661 219.868 230.969 217.669 231.788C217.507 233.001 217.334 234.23 217.176 235.474ZM225.989 215.484C226.208 215.781 226.567 216.323 227.015 216.986C229.093 220.049 233.346 224.492 233.814 224.399C234.084 223.493 234.347 222.585 234.642 221.678C234.611 221.648 231.006 217.06 229.715 215.157C229.065 214.193 228.56 213.46 228.349 213.212C227.727 212.471 226.567 212.125 224.475 212.049C223.962 212.032 223.335 212.05 222.709 212.071C222.15 213.139 221.653 214.266 221.183 215.421C223.481 215.221 225.275 215.253 225.989 215.484Z" fill="#EB6E60"/>
<path d="M220.469 261.402C218.59 260.067 203.988 247.535 202.445 243.647C200.212 238.004 201.122 222.738 202.603 216.892C205.743 204.512 214.806 190.254 218.807 186.457C221.406 183.994 236.617 191.409 238.437 194.985C237.996 195.589 227.381 209.895 223.659 224.076C218.548 243.54 221.089 261.843 220.469 261.402Z" fill="#EB6E60"/>
<path d="M211.192 197.062C210.43 198.359 209.697 199.674 208.995 201.005C209.619 201.542 216.279 197.964 224.315 197.401C227.653 197.168 231.756 197.106 236.806 197.296C237.723 195.959 238.34 195.118 238.437 194.984C238.295 194.703 238.046 194.392 237.746 194.071C224.691 193.518 215.965 194.507 211.192 197.062ZM201.757 221.776C202.073 221.942 207.342 218.161 213.131 216.421C218.712 214.744 224.804 215.1 225.989 215.484C226.132 215.682 226.271 215.882 226.408 216.085C226.874 214.969 227.365 213.88 227.871 212.806C227.186 212.348 226.128 212.108 224.475 212.049C219.306 211.863 207.96 213.606 202.27 218.45C202.08 219.43 201.909 220.554 201.757 221.776ZM202.446 243.647C202.613 244.061 202.948 244.592 203.38 245.177C203.542 245.089 219.468 233.503 221.49 234.174L221.61 234.236C221.766 233.173 221.937 232.102 222.134 231.016C217.314 230.185 205.842 238.183 201.972 242.069C202.112 242.646 202.265 243.188 202.446 243.647Z" fill="#FAB3B1"/>
<path d="M85.1341 241.593C84.8142 240.167 84.2445 239.097 82.5622 237.901C81.116 236.872 78.7026 240.619 77.7007 241.838C75.6367 244.35 73.8765 246.771 72.6984 249.807C71.6218 252.579 71.2652 255.582 70.8703 258.533C70.4607 261.601 69.9365 264.92 70.2949 268.008C70.4509 269.362 71.488 274.239 72.3062 275.299C73.1051 276.332 78.0167 274.687 77.8802 273.265C77.6607 270.987 77.1075 265.82 77.6415 263.573C78.8629 258.433 79.931 253.787 81.9341 248.909C82.7442 246.936 85.4874 243.174 85.1341 241.593Z" fill="#A84046"/>
<path d="M79.7778 239.232C80.5923 239.247 81.4392 239.268 82.3585 239.309L83.9705 239.193C83.6094 238.764 83.1799 238.34 82.5619 237.901C81.7899 237.351 80.7404 238.169 79.7778 239.232ZM70.5595 260.86C71.7107 260.307 72.6302 260.004 72.9974 260.125L73.5374 260.404C74.7732 261.043 77.82 262.288 77.9551 262.267C78.0824 261.726 78.2135 261.184 78.3423 260.652C78.2588 260.59 75.4886 259.34 74.3844 258.767L73.8366 258.485C73.1613 258.14 72.0812 258.314 70.8383 258.777C70.7464 259.462 70.6486 260.157 70.5595 260.86ZM75.5404 249.563C75.6638 249.731 75.8669 250.037 76.1202 250.412C77.2946 252.143 79.6977 254.654 79.9625 254.601C80.115 254.089 80.2636 253.576 80.4303 253.063C80.4128 253.046 78.3755 250.454 77.646 249.378C77.2784 248.833 76.9929 248.419 76.8742 248.279C76.5222 247.86 75.8669 247.665 74.6844 247.622C74.3944 247.612 74.0403 247.622 73.6865 247.634C73.3706 248.238 73.0898 248.875 72.8242 249.527C74.1228 249.414 75.1368 249.432 75.5404 249.563Z" fill="#EB6E60"/>
<path d="M72.4208 275.513C71.3587 274.759 63.1067 267.677 62.2348 265.479C60.9725 262.29 61.4869 253.662 62.3241 250.359C64.0981 243.362 69.2203 235.304 71.4814 233.159C72.9504 231.767 81.5469 235.957 82.575 237.978C82.3261 238.319 76.3272 246.404 74.2235 254.419C71.3348 265.419 72.7713 275.762 72.4208 275.513Z" fill="#EB6E60"/>
<path d="M67.1779 239.152C66.7471 239.885 66.3332 240.628 65.9363 241.38C66.2887 241.684 70.0526 239.662 74.594 239.344C76.4804 239.212 78.7996 239.177 81.6536 239.284C82.1718 238.529 82.5203 238.054 82.575 237.978C82.4951 237.819 82.354 237.643 82.1848 237.462C74.8065 237.149 69.8753 237.708 67.1779 239.152ZM61.8458 253.119C62.0242 253.213 65.0022 251.076 68.2738 250.093C71.4276 249.145 74.8704 249.346 75.5405 249.563C75.6211 249.675 75.6999 249.788 75.7769 249.903C76.0406 249.272 76.3177 248.657 76.6039 248.05C76.2169 247.791 75.6191 247.655 74.6846 247.622C71.7634 247.517 65.3511 248.502 62.1354 251.239C62.0284 251.793 61.9314 252.428 61.8458 253.119ZM62.2348 265.479C62.3292 265.713 62.5188 266.013 62.7627 266.344C62.8545 266.294 71.8548 259.747 72.9975 260.125L73.0655 260.16C73.1536 259.56 73.2502 258.955 73.3616 258.341C70.6378 257.871 64.1541 262.391 61.9671 264.587C62.0461 264.913 62.1325 265.22 62.2348 265.479Z" fill="#FAB3B1"/>
<path d="M133.683 138.733C135.051 138.221 136.034 137.51 136.989 135.681C137.81 134.108 133.769 132.228 132.424 131.402C129.654 129.701 127.015 128.288 123.848 127.535C120.955 126.847 117.93 126.904 114.954 126.916C111.858 126.929 108.499 126.863 105.488 127.64C104.169 127.979 99.4788 129.673 98.5407 130.628C97.6268 131.56 99.9272 136.201 101.316 135.872C103.544 135.343 108.587 134.09 110.885 134.312C116.144 134.82 120.892 135.244 125.998 136.562C128.063 137.095 132.165 139.299 133.683 138.733Z" fill="#A84046"/>
<path d="M135.29 133.104C135.387 133.913 135.481 134.755 135.566 135.671L135.901 137.252C136.277 136.836 136.639 136.352 136.989 135.68C137.428 134.84 136.475 133.912 135.29 133.104ZM112.606 126.926C113.31 127.99 113.737 128.86 113.667 129.24L113.464 129.813C113 131.125 112.182 134.313 112.222 134.444C112.776 134.496 113.33 134.552 113.874 134.607C113.925 134.516 114.785 131.601 115.201 130.429L115.406 129.848C115.655 129.132 115.336 128.085 114.707 126.917C114.016 126.92 113.314 126.918 112.606 126.926ZM124.477 130.317C124.328 130.462 124.052 130.705 123.715 131.007C122.161 132.407 120.002 135.131 120.09 135.386C120.618 135.467 121.147 135.544 121.678 135.639C121.692 135.62 123.982 133.247 124.948 132.378C125.437 131.939 125.809 131.6 125.932 131.463C126.298 131.057 126.402 130.381 126.283 129.204C126.254 128.915 126.195 128.566 126.135 128.217C125.494 127.987 124.825 127.795 124.142 127.621C124.431 128.892 124.552 129.899 124.477 130.317Z" fill="#EB6E60"/>
<path d="M98.3442 130.771C98.9466 129.615 104.836 120.473 106.893 119.31C109.88 117.624 118.497 116.955 121.884 117.333C129.057 118.135 137.739 122.109 140.174 124.056C141.753 125.321 138.776 134.409 136.914 135.704C136.542 135.504 127.714 130.665 119.487 129.676C108.196 128.316 98.1453 131.152 98.3442 130.771Z" fill="#EB6E60"/>
<path d="M133.649 120.611C132.864 120.285 132.071 119.976 131.272 119.686C131.019 120.076 133.536 123.529 134.471 127.984C134.86 129.835 135.211 132.128 135.495 134.97C136.314 135.38 136.832 135.66 136.915 135.704C137.061 135.603 137.216 135.439 137.373 135.247C136.675 127.895 135.448 123.086 133.649 120.611ZM119.085 117.236C119.016 117.426 121.539 120.084 122.96 123.191C124.33 126.186 124.601 129.624 124.477 130.317C124.377 130.412 124.276 130.506 124.173 130.598C124.834 130.773 125.481 130.964 126.121 131.164C126.326 130.745 126.378 130.135 126.283 129.204C125.989 126.296 124.137 120.078 120.986 117.267C120.423 117.236 119.78 117.227 119.085 117.236ZM106.893 119.31C106.674 119.435 106.403 119.664 106.109 119.951C106.171 120.035 113.886 128.057 113.667 129.241L113.641 129.313C114.248 129.318 114.861 129.331 115.484 129.358C115.577 126.595 110.214 120.789 107.74 118.923C107.428 119.046 107.136 119.173 106.893 119.31Z" fill="#FAB3B1"/>
<path d="M100.335 338.216C99.6132 340.698 99.5816 342.844 101.168 346.133C102.53 348.963 109.47 345.218 112.064 344.185C117.408 342.056 122.204 339.807 126.622 336.11C130.658 332.734 133.777 328.384 136.909 324.15C140.165 319.744 143.812 315.049 145.895 309.957C146.809 307.727 149.368 299.283 149.005 296.942C148.649 294.659 139.633 293.013 138.631 295.332C137.024 299.05 133.468 307.53 130.722 310.555C124.438 317.477 118.815 323.763 111.544 329.612C108.603 331.978 101.138 335.464 100.335 338.216Z" fill="#A84046"/>
<path d="M106.619 346.449C105.369 345.731 104.075 344.974 102.685 344.126L100.088 342.928C100.282 343.901 100.584 344.926 101.168 346.134C101.894 347.645 104.219 347.275 106.619 346.449ZM139.378 320.808C137.122 320.681 135.438 320.366 134.973 319.864L134.374 318.971C133.005 316.926 129.347 312.393 129.12 312.31C128.46 313.041 127.794 313.768 127.14 314.482C127.216 314.65 130.441 318.954 131.663 320.784L132.271 321.689C133.023 322.8 134.845 323.454 137.167 323.798C137.895 322.814 138.64 321.822 139.378 320.808ZM122.01 334.06C121.962 333.694 121.909 333.047 121.836 332.249C121.495 328.563 119.916 322.62 119.461 322.475C118.787 323.138 118.119 323.807 117.422 324.459C117.435 324.5 118.377 330.258 118.589 332.548C118.693 333.706 118.782 334.592 118.846 334.911C119.034 335.86 119.882 336.723 121.678 337.799C122.119 338.062 122.677 338.349 123.235 338.633C124.24 337.967 125.219 337.22 126.188 336.435C124.079 335.502 122.524 334.607 122.01 334.06Z" fill="#EB6E60"/>
<path d="M149.011 296.512C150.012 298.588 156.75 316.612 156.224 320.762C155.456 326.782 147.289 339.712 143.17 344.116C134.445 353.443 119.624 361.555 114.287 362.948C110.822 363.85 101.08 350.013 101.213 346.004C101.89 345.687 118.093 338.283 128.198 327.66C142.071 313.082 148.68 295.826 149.011 296.512Z" fill="#EB6E60"/>
<path d="M126.076 357.337C127.369 356.568 128.646 355.77 129.903 354.944C129.616 354.173 122.056 354.091 114.747 350.704C111.711 349.298 108.088 347.371 103.757 344.766C102.308 345.495 101.362 345.933 101.213 346.004C101.201 346.319 101.269 346.712 101.377 347.137C112.543 353.924 120.662 357.27 126.076 357.337ZM146.269 340.248C146.073 339.95 139.633 340.717 133.723 339.446C128.026 338.221 122.863 334.969 122.01 334.06C121.98 333.818 121.955 333.575 121.933 333.332C120.986 334.084 120.031 334.801 119.069 335.496C119.448 336.229 120.258 336.949 121.678 337.799C126.115 340.457 136.893 344.408 144.215 342.913C144.853 342.146 145.546 341.245 146.269 340.248ZM156.224 320.762C156.278 320.318 156.24 319.692 156.145 318.97C155.96 318.97 136.42 321.427 134.973 319.864L134.897 319.752C134.248 320.608 133.581 321.462 132.884 322.318C136.704 325.373 150.612 323.907 155.877 322.372C156.033 321.8 156.161 321.251 156.224 320.762Z" fill="#FAB3B1"/>
</svg>
