<svg width="500" height="500" viewBox="0 0 500 500" fill="none" xmlns="http://www.w3.org/2000/svg">
<path d="M294.239 352.451C291.076 354.012 288.663 356.766 287.53 360.106C286.397 363.447 286.637 367.1 288.198 370.264C289.79 373.49 292.27 376.196 295.345 378.063L300.183 381C302.199 382.225 304.49 382.921 306.846 383.024C309.202 383.127 311.546 382.634 313.66 381.59C316.993 379.946 319.536 377.045 320.729 373.525C321.922 370.006 321.669 366.157 320.024 362.824C318.945 360.637 317.446 358.685 315.612 357.077C313.778 355.47 311.645 354.24 309.336 353.456L304.396 351.781C302.742 351.221 300.994 350.991 299.251 351.106C297.508 351.221 295.805 351.678 294.239 352.451Z" fill="#C0C839"/>
<path d="M309.336 353.456L304.396 351.781C302.409 351.106 300.291 350.912 298.214 351.214C296.138 351.515 294.162 352.304 292.449 353.516C290.736 354.728 289.335 356.328 288.359 358.186C287.383 360.043 286.861 362.105 286.836 364.204C286.873 364.279 286.897 364.357 286.934 364.432C288.526 367.659 291.006 370.365 294.081 372.232L298.919 375.169C301.041 376.459 303.468 377.161 305.951 377.204C308.434 377.246 310.884 376.628 313.049 375.412C315.214 374.195 317.016 372.425 318.271 370.282C319.527 368.14 320.189 365.702 320.192 363.218C320.128 363.089 320.083 362.949 320.019 362.82C317.84 358.406 313.997 355.038 309.336 353.456Z" fill="#D1D845"/>
<path d="M314.581 374.681L311.986 375.962C311.14 374.241 311.01 372.254 311.626 370.438C312.242 368.621 313.553 367.124 315.272 366.273L316.553 368.868C315.521 369.377 314.733 370.276 314.363 371.366C313.993 372.456 314.072 373.649 314.581 374.681Z" fill="#94A221"/>
<path d="M417.963 266.149C413.779 264.069 408.941 263.735 404.511 265.222C400.082 266.708 396.424 269.894 394.342 274.077C392.22 278.344 391.358 283.128 391.858 287.868L392.644 295.324C392.971 298.43 394.077 301.404 395.858 303.97C397.64 306.536 400.04 308.61 402.837 310.002C407.244 312.194 412.342 312.546 417.009 310.979C421.676 309.413 425.529 306.057 427.722 301.65C429.161 298.758 430.016 295.61 430.238 292.388C430.46 289.165 430.046 285.93 429.018 282.868L426.819 276.318C426.083 274.124 424.922 272.097 423.403 270.353C421.883 268.608 420.035 267.18 417.963 266.149Z" fill="#C0C839"/>
<path d="M429.019 282.867L426.82 276.317C425.937 273.682 424.441 271.293 422.457 269.347C420.473 267.4 418.056 265.951 415.405 265.119C412.753 264.286 409.942 264.092 407.201 264.555C404.46 265.017 401.868 266.122 399.636 267.778C399.586 267.878 399.523 267.966 399.474 268.066C397.351 272.333 396.489 277.118 396.989 281.857L397.776 289.313C398.119 292.585 399.326 295.706 401.274 298.357C403.221 301.008 405.839 303.093 408.858 304.399C411.877 305.705 415.189 306.184 418.455 305.787C421.72 305.391 424.822 304.133 427.441 302.143C427.526 301.971 427.637 301.812 427.722 301.641C430.626 295.802 431.092 289.05 429.019 282.867Z" fill="#D1D845"/>
<path d="M410.858 305.428L407.426 303.721C408.56 301.447 410.55 299.717 412.959 298.908C415.368 298.1 417.998 298.28 420.275 299.409L418.567 302.841C417.202 302.162 415.623 302.053 414.177 302.538C412.731 303.023 411.538 304.063 410.858 305.428Z" fill="#94A221"/>
<path d="M178.978 167.785C175.953 165.332 172.077 164.181 168.203 164.585C164.328 164.989 160.773 166.915 158.319 169.94C155.816 173.026 154.245 176.762 153.79 180.709L153.075 186.918C152.776 189.505 153.134 192.126 154.118 194.537C155.101 196.948 156.676 199.073 158.699 200.713C161.886 203.298 165.97 204.511 170.051 204.085C174.133 203.66 177.878 201.63 180.464 198.442C182.16 196.351 183.428 193.946 184.195 191.364C184.962 188.783 185.212 186.076 184.933 183.397L184.335 177.668C184.135 175.75 183.559 173.89 182.64 172.194C181.721 170.498 180.476 169 178.978 167.785Z" fill="#C0C839"/>
<path d="M184.934 183.397L184.336 177.668C184.096 175.363 183.314 173.148 182.054 171.204C180.793 169.259 179.09 167.641 177.084 166.481C175.078 165.322 172.826 164.653 170.512 164.531C168.198 164.409 165.888 164.836 163.771 165.778C163.713 165.85 163.645 165.911 163.587 165.983C161.084 169.069 159.513 172.804 159.058 176.752L158.342 182.961C158.027 185.685 158.442 188.444 159.544 190.955C160.647 193.466 162.397 195.638 164.616 197.249C166.835 198.861 169.443 199.853 172.172 200.124C174.901 200.395 177.652 199.936 180.145 198.793C180.246 198.668 180.365 198.559 180.466 198.435C183.89 194.213 185.497 188.804 184.934 183.397Z" fill="#D1D845"/>
<path d="M166.056 198.45L163.574 196.437C164.911 194.794 166.844 193.748 168.951 193.528C171.057 193.308 173.165 193.933 174.812 195.265L172.799 197.747C171.811 196.946 170.546 196.57 169.282 196.702C168.017 196.834 166.857 197.463 166.056 198.45Z" fill="#94A221"/>
<path d="M237.536 400.935C233.681 401.494 230.206 403.561 227.875 406.682C225.544 409.803 224.548 413.721 225.106 417.576C225.676 421.509 227.355 425.197 229.947 428.209L234.023 432.946C235.721 434.921 237.89 436.435 240.329 437.348C242.767 438.261 245.397 438.544 247.974 438.171C252.036 437.583 255.697 435.405 258.153 432.117C260.609 428.829 261.658 424.7 261.069 420.639C260.683 417.974 259.776 415.411 258.399 413.096C257.023 410.781 255.204 408.761 253.046 407.149L248.431 403.703C246.886 402.548 245.128 401.71 243.259 401.235C241.389 400.76 239.445 400.658 237.536 400.935Z" fill="#C0C839"/>
<path d="M253.047 407.149L248.432 403.702C246.576 402.315 244.418 401.387 242.134 400.994C239.85 400.601 237.506 400.755 235.293 401.442C233.08 402.129 231.062 403.331 229.402 404.948C227.743 406.566 226.49 408.553 225.746 410.747C225.76 410.839 225.758 410.93 225.772 411.021C226.341 414.954 228.02 418.642 230.612 421.654L234.689 426.391C236.477 428.471 238.785 430.038 241.378 430.931C243.971 431.824 246.755 432.011 249.444 431.474C252.133 430.936 254.631 429.693 256.681 427.872C258.731 426.051 260.26 423.717 261.111 421.11C261.088 420.952 261.089 420.79 261.066 420.632C260.286 415.253 257.401 410.403 253.047 407.149Z" fill="#D1D845"/>
<path d="M251.302 431.23L248.14 431.689C247.838 429.592 248.381 427.462 249.649 425.765C250.916 424.068 252.805 422.943 254.901 422.636L255.359 425.799C254.101 425.981 252.967 426.656 252.206 427.675C251.445 428.693 251.12 429.972 251.302 431.23Z" fill="#94A221"/>
<path d="M246.536 263.935C242.681 264.494 239.206 266.561 236.875 269.682C234.544 272.803 233.548 276.721 234.106 280.576C234.676 284.509 236.355 288.197 238.947 291.209L243.023 295.946C244.721 297.921 246.89 299.435 249.329 300.348C251.767 301.261 254.397 301.544 256.974 301.171C261.036 300.583 264.697 298.405 267.153 295.117C269.609 291.829 270.658 287.7 270.069 283.639C269.683 280.974 268.776 278.411 267.399 276.096C266.023 273.781 264.204 271.761 262.046 270.149L257.431 266.703C255.886 265.548 254.128 264.71 252.259 264.235C250.389 263.76 248.445 263.658 246.536 263.935Z" fill="#C0C839"/>
<path d="M262.047 270.149L257.432 266.702C255.576 265.315 253.418 264.387 251.134 263.994C248.85 263.601 246.506 263.755 244.293 264.442C242.08 265.129 240.062 266.331 238.402 267.948C236.743 269.566 235.49 271.553 234.746 273.747C234.76 273.839 234.758 273.93 234.772 274.021C235.341 277.954 237.02 281.642 239.612 284.654L243.689 289.391C245.477 291.471 247.785 293.038 250.378 293.931C252.971 294.824 255.755 295.011 258.444 294.474C261.133 293.936 263.631 292.693 265.681 290.872C267.731 289.051 269.26 286.717 270.111 284.11C270.088 283.952 270.089 283.79 270.066 283.632C269.286 278.253 266.401 273.403 262.047 270.149Z" fill="#D1D845"/>
<path d="M260.302 294.23L257.14 294.689C256.838 292.592 257.381 290.462 258.649 288.765C259.916 287.068 261.805 285.943 263.901 285.636L264.359 288.799C263.101 288.981 261.967 289.656 261.206 290.675C260.445 291.693 260.12 292.972 260.302 294.23Z" fill="#94A221"/>
<path d="M332.689 198.04C335.535 201.746 339.736 204.17 344.369 204.778C349.001 205.387 353.686 204.131 357.393 201.286C361.173 198.384 364.048 194.463 365.679 189.985L368.245 182.941C369.315 180.006 369.627 176.849 369.153 173.762C368.678 170.674 367.432 167.756 365.53 165.279C362.533 161.374 358.107 158.82 353.226 158.179C348.345 157.537 343.41 158.861 339.505 161.859C336.943 163.826 334.793 166.278 333.178 169.076C331.564 171.874 330.516 174.963 330.096 178.166L329.196 185.016C328.894 187.31 329.048 189.641 329.647 191.875C330.247 194.11 331.28 196.205 332.689 198.04Z" fill="#C0C839"/>
<path d="M330.095 178.165L329.195 185.016C328.832 187.771 329.127 190.574 330.055 193.194C330.983 195.814 332.519 198.176 334.536 200.089C336.553 202.001 338.994 203.409 341.659 204.197C344.325 204.984 347.139 205.13 349.871 204.621C349.96 204.553 350.055 204.502 350.143 204.434C353.924 201.532 356.799 197.611 358.43 193.133L360.996 186.089C362.124 182.999 362.409 179.664 361.823 176.427C361.237 173.191 359.8 170.168 357.661 167.669C355.521 165.171 352.756 163.286 349.648 162.209C346.54 161.132 343.201 160.9 339.974 161.539C339.822 161.656 339.653 161.75 339.501 161.866C334.329 165.838 330.946 171.7 330.095 178.165Z" fill="#D1D845"/>
<path d="M356.316 165.867L358.65 168.907C356.633 170.452 354.086 171.134 351.567 170.803C349.048 170.472 346.763 169.155 345.213 167.142L348.254 164.807C349.182 166.017 350.553 166.808 352.065 167.007C353.577 167.206 355.106 166.795 356.316 165.867Z" fill="#94A221"/>
<path d="M212.39 113.483C217.033 114.012 221.695 112.675 225.352 109.766C229.008 106.857 231.36 102.615 231.89 97.9732C232.429 93.2376 231.608 88.4463 229.521 84.1613L226.238 77.4213C224.871 74.6126 222.817 72.1944 220.267 70.3904C217.717 68.5865 214.753 67.4552 211.649 67.1014C206.758 66.5441 201.846 67.9525 197.994 71.0169C194.141 74.0812 191.664 78.5505 191.106 83.4415C190.74 86.651 191.01 89.9012 191.901 93.0064C192.791 96.1116 194.284 99.011 196.295 101.539L200.596 106.946C202.037 108.757 203.82 110.266 205.843 111.388C207.867 112.509 210.092 113.221 212.39 113.483Z" fill="#C0C839"/>
<path d="M196.295 101.539L200.596 106.947C202.326 109.122 204.546 110.858 207.075 112.01C209.604 113.163 212.37 113.701 215.147 113.579C217.924 113.458 220.632 112.68 223.051 111.311C225.47 109.941 227.53 108.018 229.062 105.699C229.075 105.589 229.104 105.484 229.117 105.374C229.657 100.638 228.835 95.847 226.748 91.562L223.465 84.822C222.026 81.8639 219.826 79.3417 217.091 77.5142C214.356 75.6866 211.184 74.6193 207.901 74.4219C204.617 74.2244 201.34 74.9039 198.406 76.3905C195.472 77.8772 192.985 80.1176 191.202 82.8819C191.181 83.0723 191.13 83.2595 191.109 83.4499C190.371 89.9288 192.237 96.4354 196.295 101.539Z" fill="#D1D845"/>
<path d="M205.67 74.1367L209.479 74.5706C209.188 77.0947 207.908 79.4004 205.92 80.982C203.931 82.5636 201.397 83.2919 198.872 83.0073L199.306 79.1987C200.821 79.3713 202.343 78.935 203.536 77.9857C204.73 77.0364 205.497 75.6518 205.67 74.1367Z" fill="#94A221"/>
<path d="M89.6245 232.247C84.9524 232.193 80.4503 233.997 77.1082 237.263C73.7662 240.528 71.8579 244.987 71.8031 249.659C71.7477 254.425 73.0523 259.108 75.5642 263.158L79.5154 269.53C81.1608 272.185 83.4496 274.382 86.1699 275.917C88.8901 277.452 91.9538 278.277 95.0773 278.313C99.9996 278.37 104.743 276.47 108.264 273.03C111.785 269.589 113.795 264.891 113.853 259.969C113.89 256.739 113.291 253.533 112.09 250.535C110.888 247.536 109.108 244.803 106.85 242.493L102.022 237.551C100.405 235.896 98.4779 234.576 96.3507 233.666C94.2236 232.756 91.938 232.274 89.6245 232.247Z" fill="#C0C839"/>
<path d="M106.851 242.492L102.022 237.55C100.081 235.562 97.6954 234.061 95.0622 233.172C92.4289 232.282 89.6225 232.028 86.8724 232.432C84.1223 232.835 81.5069 233.884 79.24 235.492C76.9731 237.1 75.1193 239.223 73.8303 241.685C73.829 241.796 73.8105 241.903 73.8092 242.015C73.7537 246.781 75.0584 251.463 77.5702 255.514L81.5214 261.885C83.2536 264.682 85.6983 266.967 88.605 268.507C91.5116 270.047 94.7756 270.787 98.0622 270.649C101.349 270.512 104.54 269.503 107.308 267.726C110.076 265.948 112.321 263.467 113.814 260.536C113.816 260.344 113.847 260.153 113.849 259.961C113.924 253.441 111.407 247.157 106.851 242.492Z" fill="#D1D845"/>
<path d="M100.311 270.706L96.4775 270.662C96.5101 268.121 97.549 265.697 99.3663 263.922C101.184 262.146 103.631 261.164 106.171 261.19L106.127 265.023C104.602 265.006 103.133 265.595 102.042 266.66C100.951 267.726 100.328 269.181 100.311 270.706Z" fill="#94A221"/>
<path d="M149.065 384.077C153.074 386.476 157.873 387.185 162.404 386.046C166.936 384.908 170.83 382.016 173.23 378.007C175.677 373.918 176.908 369.215 176.778 364.45L176.572 356.956C176.487 353.834 175.616 350.783 174.039 348.087C172.462 345.391 170.23 343.136 167.55 341.532C163.326 339.004 158.271 338.257 153.496 339.456C148.722 340.656 144.619 343.702 142.092 347.926C140.433 350.698 139.336 353.77 138.864 356.965C138.392 360.161 138.554 363.418 139.341 366.551L141.025 373.252C141.588 375.496 142.588 377.607 143.968 379.464C145.348 381.322 147.079 382.889 149.065 384.077Z" fill="#C0C839"/>
<path d="M139.34 366.551L141.024 373.252C141.7 375.948 143.005 378.446 144.832 380.54C146.659 382.635 148.956 384.267 151.535 385.303C154.114 386.34 156.902 386.751 159.671 386.502C162.439 386.254 165.109 385.354 167.463 383.876C167.52 383.78 167.59 383.697 167.647 383.602C170.095 379.512 171.326 374.809 171.195 370.045L170.989 362.55C170.901 359.262 169.94 356.057 168.204 353.262C166.468 350.468 164.02 348.186 161.112 346.65C158.203 345.114 154.938 344.379 151.652 344.52C148.365 344.662 145.176 345.675 142.41 347.456C142.312 347.621 142.188 347.771 142.09 347.935C138.742 353.531 137.753 360.227 139.34 366.551Z" fill="#D1D845"/>
<path d="M159.198 345.469L162.487 347.437C161.179 349.616 159.061 351.187 156.597 351.806C154.133 352.425 151.524 352.041 149.342 350.739L151.311 347.45C152.619 348.233 154.185 348.464 155.665 348.092C157.144 347.721 158.414 346.777 159.198 345.469Z" fill="#94A221"/>
</svg>
