<svg width="500" height="500" viewBox="0 0 500 500" fill="none" xmlns="http://www.w3.org/2000/svg">
<g clip-path="url(#clip0_21_374)">
<path d="M310.608 79.658C311.102 80.5272 310.888 81.6332 310.096 82.2423C307.321 84.3744 307.768 86.3103 303.893 88.5088C299.453 91.0283 298.22 88.854 293.78 91.3736C289.341 93.8927 290.575 96.0671 286.136 98.5864C281.697 101.106 280.463 98.9312 276.024 101.45C271.584 103.97 272.818 106.144 268.379 108.664C264.505 110.862 263.072 109.485 259.819 110.774C258.89 111.143 257.831 110.759 257.338 109.889L248.719 94.7041C248.086 93.5876 248.642 92.1644 249.868 91.7849C252.657 90.9217 254.15 91.9542 257.74 89.9166C262.179 87.3975 260.946 85.2233 265.385 82.704C269.824 80.1848 271.058 82.3592 275.497 79.84C279.936 77.3208 278.702 75.1465 283.141 72.6272C287.581 70.1077 288.815 72.282 293.254 69.7623C296.845 67.725 296.724 65.9129 298.895 63.962C299.85 63.1039 301.357 63.3557 301.99 64.4727L310.608 79.658Z" fill="#EA4444"/>
<path d="M310.096 82.2417C307.321 84.3749 307.767 86.3097 303.893 88.5088C299.453 91.0277 298.219 88.8539 293.78 91.373C289.342 93.8923 290.574 96.0663 286.135 98.5857C281.697 101.105 280.462 98.931 276.024 101.451C271.585 103.97 272.817 106.144 268.379 108.664C264.505 110.863 263.071 109.485 259.819 110.774C258.889 111.142 257.831 110.759 257.338 109.889L256.02 107.569C256.56 108.261 257.499 108.537 258.336 108.206C261.589 106.917 263.022 108.294 266.896 106.095C271.335 103.576 270.102 101.402 274.541 98.8827C278.98 96.363 280.214 98.5373 284.653 96.0181C289.093 93.4987 287.859 91.3247 292.297 88.805C296.736 86.2857 297.97 88.4601 302.411 85.9407C306.284 83.7416 305.837 81.8066 308.613 79.6737C309.405 79.0651 309.619 77.959 309.126 77.0893L301.823 64.2219C301.883 64.2996 301.94 64.3835 301.99 64.4728L310.608 79.6566C311.101 80.5272 310.888 81.6332 310.096 82.2417Z" fill="#D93131"/>
<path d="M308.157 75.3382C303.718 77.8574 304.952 80.0318 300.512 82.5513C296.073 85.0711 294.839 82.8966 290.399 85.4158C285.96 87.9354 287.194 90.1098 282.755 92.629C278.316 95.1481 277.081 92.9737 272.643 95.4929C268.204 98.0122 269.437 100.186 264.998 102.706C260.559 105.225 259.325 103.051 254.886 105.57L251.009 98.7382C255.448 96.219 256.682 98.3933 261.121 95.8742C265.56 93.3549 264.327 91.1807 268.766 88.6615C273.205 86.1422 274.439 88.3166 278.878 85.7976C283.317 83.2778 282.083 81.104 286.522 78.5843C290.962 76.0651 292.196 78.2395 296.635 75.7199C301.075 73.2003 299.841 71.0265 304.28 68.5067L308.157 75.3382Z" fill="#FDD79B"/>
<path d="M308.157 75.3391C303.718 77.8581 304.952 80.0325 300.512 82.5518C296.072 85.0712 294.838 82.8968 290.399 85.416C285.96 87.9358 287.194 90.1093 282.754 92.629C278.316 95.1483 277.081 92.9739 272.643 95.4938C268.204 98.0131 269.437 100.187 264.998 102.706C260.559 105.225 259.325 103.051 254.886 105.57L253.206 102.609C257.627 100.109 258.864 102.271 263.295 99.757C267.734 97.2377 266.501 95.0642 270.94 92.5442C275.379 90.0251 276.613 92.1989 281.052 89.6797C285.491 87.1598 284.258 84.9864 288.697 82.4667C293.136 79.9474 294.37 82.1218 298.81 79.6024C303.249 77.083 302.015 74.9087 306.455 72.3897L304.259 68.5194C304.265 68.5148 304.272 68.5119 304.28 68.5076L308.157 75.3391Z" fill="#FCCD7F"/>
<path d="M281.139 54.2576C282.03 54.7107 282.461 55.7513 282.136 56.6961C280.997 60.0047 282.437 61.3734 280.417 65.3442C278.103 69.8939 275.874 68.7606 273.56 73.3103C271.246 77.8599 273.474 78.9932 271.16 83.5427C268.846 88.0921 266.617 86.9588 264.303 91.508C261.989 96.0576 264.218 97.1909 261.903 101.74C259.883 105.711 257.929 105.353 255.926 108.221C255.354 109.041 254.259 109.305 253.368 108.851L237.805 100.935C236.661 100.353 236.34 98.8594 237.154 97.8667C239.004 95.6088 240.819 95.6466 242.691 91.9674C245.005 87.4181 242.777 86.2845 245.091 81.7353C247.405 77.1858 249.633 78.3193 251.948 73.7697C254.262 69.2205 252.034 68.087 254.348 63.5371C256.662 58.9875 258.891 60.1213 261.205 55.5716C263.077 51.8919 261.977 50.4468 262.713 47.6216C263.036 46.3794 264.432 45.7585 265.576 46.3408L281.139 54.2576Z" fill="#EA4444"/>
<path d="M282.136 56.6957C280.996 60.0053 282.436 61.3732 280.417 65.3438C278.102 69.8937 275.874 68.7605 273.56 73.3097C271.246 77.8589 273.473 78.9929 271.159 83.5422C268.845 88.0919 266.617 86.9588 264.303 91.508C261.989 96.0572 264.216 97.1911 261.902 101.74C259.884 105.711 257.928 105.353 255.926 108.221C255.353 109.041 254.259 109.305 253.368 108.851L250.989 107.642C251.821 107.922 252.757 107.634 253.273 106.897C255.275 104.027 257.231 104.386 259.249 100.416C261.563 95.8664 259.336 94.7325 261.65 90.1833C263.964 85.6336 266.192 86.7671 268.506 82.2174C270.821 77.6679 268.593 76.5343 270.907 71.985C273.221 67.4353 275.449 68.5689 277.764 64.0191C279.783 60.0486 278.344 58.6806 279.483 55.3709C279.808 54.4266 279.376 53.3859 278.485 52.9323L265.298 46.2244C265.392 46.2559 265.485 46.2948 265.576 46.3408L281.138 54.257C282.029 54.7105 282.461 55.7513 282.136 56.6957Z" fill="#D93131"/>
<path d="M276.712 52.0058C274.398 56.5554 276.626 57.689 274.312 62.2387C271.997 66.7883 269.769 65.6548 267.455 70.2043C265.141 74.7541 267.369 75.8875 265.055 80.4373C262.74 84.9865 260.512 83.8528 258.198 88.4024C255.884 92.9516 258.112 94.0852 255.798 98.6346C253.483 103.184 251.255 102.05 248.941 106.6L241.94 103.039C244.254 98.4891 246.482 99.6226 248.797 95.0736C251.111 90.5238 248.883 89.3904 251.197 84.841C253.511 80.2914 255.739 81.4249 258.054 76.8759C260.367 72.3261 258.14 71.1927 260.453 66.6433C262.768 62.0932 264.996 63.227 267.311 58.6773C269.625 54.1277 267.397 52.994 269.711 48.4444L276.712 52.0058Z" fill="#FDD79B"/>
<path d="M276.713 52.0058C274.398 56.5558 276.626 57.689 274.312 62.2387C271.997 66.7882 269.769 65.6549 267.455 70.2043C265.141 74.754 267.368 75.8873 265.054 80.4371C262.74 84.9864 260.512 83.8531 258.198 88.4023C255.884 92.9516 258.111 94.0855 255.797 98.6349C253.483 103.183 251.255 102.05 248.941 106.599L245.906 105.056C248.216 100.532 250.441 101.654 252.751 97.1137C255.065 92.5644 252.837 91.4304 255.151 86.8812C257.465 82.3315 259.693 83.4649 262.007 78.9152C264.321 74.3661 262.094 73.2323 264.408 68.683C266.722 64.1333 268.95 65.2669 271.265 60.7169C273.579 56.1677 271.351 55.034 273.666 50.4845L269.7 48.4666C269.702 48.4588 269.707 48.4526 269.71 48.4445L276.713 52.0058Z" fill="#FCCD7F"/>
</g>
<g clip-path="url(#clip1_21_374)">
<path d="M146.137 183.187C146.631 184.056 146.417 185.162 145.624 185.771C142.849 187.903 143.296 189.839 139.422 192.038C134.982 194.557 133.749 192.383 129.309 194.902C124.87 197.422 126.104 199.596 121.665 202.115C117.225 204.634 115.992 202.46 111.552 204.979C107.113 207.499 108.347 209.673 103.908 212.192C100.034 214.391 98.6007 213.014 95.3477 214.303C94.4188 214.671 93.3594 214.288 92.8664 213.418L84.2482 198.233C83.6144 197.116 84.171 195.693 85.3971 195.314C88.1856 194.451 89.6791 195.483 93.2689 193.445C97.7082 190.926 96.4746 188.752 100.914 186.233C105.353 183.714 106.587 185.888 111.026 183.369C115.465 180.85 114.231 178.675 118.67 176.156C123.11 173.636 124.344 175.811 128.783 173.291C132.373 171.254 132.253 169.442 134.424 167.491C135.379 166.633 136.886 166.884 137.519 168.001L146.137 183.187Z" fill="#EA4444"/>
<path d="M145.625 185.77C142.849 187.904 143.296 189.839 139.422 192.038C134.982 194.557 133.748 192.383 129.309 194.902C124.87 197.421 126.103 199.595 121.664 202.115C117.225 204.634 115.991 202.46 111.552 204.98C107.114 207.499 108.346 209.673 103.908 212.192C100.034 214.391 98.6003 213.014 95.3478 214.303C94.4179 214.671 93.36 214.288 92.8665 213.418L91.5492 211.098C92.0884 211.789 93.0283 212.065 93.8647 211.735C97.1174 210.446 98.551 211.823 102.425 209.624C106.864 207.105 105.631 204.931 110.07 202.412C114.509 199.892 115.743 202.066 120.181 199.547C124.622 197.027 123.388 194.854 127.826 192.334C132.265 189.815 133.499 191.989 137.94 189.47C141.813 187.27 141.366 185.335 144.142 183.202C144.934 182.594 145.147 181.488 144.654 180.618L137.352 167.751C137.412 167.828 137.469 167.912 137.519 168.002L146.137 183.185C146.63 184.056 146.417 185.162 145.625 185.77Z" fill="#D93131"/>
<path d="M143.686 178.867C139.247 181.386 140.481 183.561 136.041 186.08C131.601 188.6 130.367 186.425 125.928 188.945C121.489 191.464 122.723 193.639 118.284 196.158C113.844 198.677 112.61 196.503 108.172 199.022C103.732 201.541 104.966 203.715 100.527 206.234C96.0881 208.754 94.8539 206.579 90.4147 209.098L86.5377 202.267C90.977 199.748 92.2106 201.922 96.6498 199.403C101.089 196.884 99.8554 194.71 104.295 192.19C108.733 189.671 109.967 191.845 114.407 189.326C118.846 186.807 117.612 184.633 122.051 182.113C126.49 179.594 127.724 181.768 132.164 179.249C136.604 176.729 135.37 174.555 139.809 172.036L143.686 178.867Z" fill="#FDD79B"/>
<path d="M143.686 178.868C139.246 181.387 140.48 183.561 136.041 186.081C131.601 188.6 130.367 186.426 125.928 188.945C121.489 191.465 122.722 193.638 118.283 196.158C113.844 198.677 112.61 196.503 108.171 199.023C103.733 201.542 104.965 203.716 100.527 206.235C96.0882 208.753 94.8539 206.579 90.4151 209.099L88.7346 206.137C93.1555 203.638 94.3929 205.8 98.8243 203.286C103.263 200.767 102.03 198.593 106.469 196.073C110.908 193.554 112.142 195.728 116.581 193.209C121.02 190.689 119.787 188.515 124.226 185.995C128.664 183.476 129.899 185.651 134.339 183.131C138.778 180.612 137.543 178.437 141.984 175.919L139.787 172.048C139.794 172.044 139.801 172.041 139.809 172.036L143.686 178.868Z" fill="#FCCD7F"/>
<path d="M116.668 157.786C117.559 158.24 117.99 159.28 117.665 160.225C116.525 163.534 117.966 164.902 115.946 168.873C113.632 173.423 111.403 172.289 109.089 176.839C106.774 181.389 109.003 182.522 106.689 187.072C104.375 191.621 102.146 190.488 99.8322 195.037C97.5177 199.586 99.7463 200.72 97.4318 205.269C95.4122 209.24 93.458 208.882 91.4549 211.75C90.8827 212.57 89.7874 212.834 88.8965 212.38L73.334 204.464C72.1897 203.882 71.8691 202.388 72.6828 201.396C74.5326 199.138 76.3481 199.175 78.2198 195.496C80.5337 190.947 78.3058 189.813 80.6197 185.264C82.9342 180.715 85.1621 181.848 87.4768 177.298C89.7905 172.749 87.5626 171.616 89.8766 167.066C92.1911 162.516 94.4195 163.65 96.7337 159.1C98.6054 155.421 97.5056 153.976 98.2414 151.15C98.5647 149.908 99.9604 149.287 101.105 149.87L116.668 157.786Z" fill="#EA4444"/>
<path d="M117.665 160.225C116.525 163.534 117.965 164.902 115.946 168.873C113.631 173.423 111.402 172.289 109.089 176.839C106.775 181.388 109.002 182.522 106.688 187.071C104.374 191.621 102.146 190.488 99.8321 195.037C97.5183 199.586 99.7451 200.72 97.4313 205.269C95.4127 209.24 93.457 208.881 91.4543 211.75C90.8821 212.57 89.7879 212.834 88.8971 212.38L86.518 211.17C87.3496 211.45 88.2861 211.163 88.8013 210.425C90.8042 207.556 92.7597 207.915 94.7783 203.944C97.0921 199.395 94.8653 198.261 97.1791 193.712C99.4931 189.162 101.721 190.296 104.035 185.746C106.35 181.197 104.122 180.063 106.436 175.514C108.75 170.964 110.978 172.098 113.293 167.548C115.312 163.577 113.873 162.209 115.012 158.9C115.337 157.955 114.905 156.915 114.014 156.461L100.827 149.753C100.921 149.785 101.014 149.824 101.105 149.87L116.667 157.786C117.558 158.239 117.99 159.28 117.665 160.225Z" fill="#D93131"/>
<path d="M112.241 155.535C109.927 160.084 112.155 161.218 109.841 165.767C107.526 170.317 105.298 169.184 102.983 173.733C100.669 178.283 102.897 179.416 100.583 183.966C98.2691 188.515 96.0411 187.382 93.7266 191.931C91.4127 196.48 93.6407 197.614 91.3268 202.163C89.0123 206.713 86.7839 205.579 84.4697 210.129L77.4686 206.568C79.7831 202.018 82.0111 203.151 84.3256 198.602C86.6394 194.053 84.4115 192.919 86.7254 188.37C89.0399 183.82 91.2679 184.954 93.5824 180.405C95.8962 175.855 93.6683 174.721 95.9822 170.172C98.2969 165.622 100.525 166.756 102.839 162.206C105.154 157.656 102.925 156.523 105.24 151.973L112.241 155.535Z" fill="#FDD79B"/>
<path d="M112.242 155.535C109.926 160.085 112.155 161.218 109.841 165.768C107.526 170.317 105.297 169.184 102.983 173.733C100.669 178.283 102.897 179.416 100.583 183.966C98.2691 188.515 96.0404 187.382 93.7265 191.931C91.4127 196.48 93.64 197.614 91.3261 202.164C89.0119 206.712 86.7834 205.579 84.4694 210.128L81.4348 208.584C83.7444 204.061 85.9693 205.182 88.2796 200.642C90.5936 196.093 88.3662 194.959 90.68 190.41C92.9941 185.86 95.2221 186.994 97.5361 182.444C99.8499 177.895 97.6231 176.761 99.937 172.212C102.251 167.662 104.479 168.796 106.794 164.246C109.108 159.697 106.88 158.563 109.195 154.013L105.229 151.995C105.231 151.988 105.235 151.981 105.239 151.973L112.242 155.535Z" fill="#FCCD7F"/>
</g>
<g clip-path="url(#clip2_21_374)">
<path d="M358.137 382.187C358.631 383.056 358.417 384.162 357.624 384.771C354.849 386.903 355.296 388.839 351.422 391.038C346.982 393.557 345.749 391.383 341.309 393.902C336.87 396.422 338.104 398.596 333.665 401.115C329.225 403.634 327.992 401.46 323.552 403.979C319.113 406.499 320.347 408.673 315.908 411.192C312.034 413.391 310.601 412.014 307.348 413.303C306.419 413.671 305.359 413.288 304.866 412.418L296.248 397.233C295.614 396.116 296.171 394.693 297.397 394.314C300.186 393.451 301.679 394.483 305.269 392.445C309.708 389.926 308.475 387.752 312.914 385.233C317.353 382.714 318.587 384.888 323.026 382.369C327.465 379.85 326.231 377.675 330.67 375.156C335.11 372.636 336.344 374.811 340.783 372.291C344.373 370.254 344.253 368.442 346.424 366.491C347.379 365.633 348.886 365.884 349.519 367.001L358.137 382.187Z" fill="#EA4444"/>
<path d="M357.625 384.77C354.849 386.904 355.296 388.839 351.422 391.038C346.982 393.557 345.748 391.383 341.309 393.902C336.87 396.421 338.103 398.595 333.664 401.115C329.225 403.634 327.991 401.46 323.552 403.98C319.114 406.499 320.346 408.673 315.908 411.192C312.034 413.391 310.6 412.014 307.348 413.303C306.418 413.671 305.36 413.288 304.866 412.418L303.549 410.098C304.088 410.789 305.028 411.065 305.865 410.735C309.117 409.446 310.551 410.823 314.425 408.624C318.864 406.105 317.631 403.931 322.07 401.412C326.509 398.892 327.743 401.066 332.181 398.547C336.622 396.027 335.388 393.854 339.826 391.334C344.265 388.815 345.499 390.989 349.94 388.47C353.813 386.27 353.366 384.335 356.142 382.202C356.934 381.594 357.147 380.488 356.654 379.618L349.352 366.751C349.412 366.828 349.469 366.912 349.519 367.002L358.137 382.185C358.63 383.056 358.417 384.162 357.625 384.77Z" fill="#D93131"/>
<path d="M355.686 377.867C351.247 380.386 352.481 382.561 348.041 385.08C343.601 387.6 342.367 385.425 337.928 387.945C333.489 390.464 334.723 392.639 330.284 395.158C325.844 397.677 324.61 395.503 320.172 398.022C315.732 400.541 316.966 402.715 312.527 405.234C308.088 407.754 306.854 405.579 302.415 408.098L298.538 401.267C302.977 398.748 304.211 400.922 308.65 398.403C313.089 395.884 311.855 393.71 316.295 391.19C320.733 388.671 321.967 390.845 326.407 388.326C330.846 385.807 329.612 383.633 334.051 381.113C338.49 378.594 339.724 380.768 344.164 378.249C348.604 375.729 347.37 373.555 351.809 371.036L355.686 377.867Z" fill="#FDD79B"/>
<path d="M355.686 377.868C351.246 380.387 352.48 382.561 348.041 385.081C343.601 387.6 342.367 385.426 337.928 387.945C333.489 390.465 334.722 392.638 330.283 395.158C325.844 397.677 324.61 395.503 320.171 398.023C315.733 400.542 316.965 402.716 312.527 405.235C308.088 407.753 306.854 405.579 302.415 408.099L300.735 405.137C305.155 402.638 306.393 404.8 310.824 402.286C315.263 399.767 314.03 397.593 318.469 395.073C322.908 392.554 324.142 394.728 328.581 392.209C333.02 389.689 331.787 387.515 336.226 384.995C340.664 382.476 341.899 384.651 346.339 382.131C350.778 379.612 349.543 377.437 353.984 374.919L351.787 371.048C351.794 371.044 351.801 371.041 351.809 371.036L355.686 377.868Z" fill="#FCCD7F"/>
<path d="M328.668 356.786C329.559 357.24 329.99 358.28 329.665 359.225C328.525 362.534 329.966 363.902 327.946 367.873C325.632 372.423 323.403 371.289 321.089 375.839C318.774 380.389 321.003 381.522 318.689 386.072C316.375 390.621 314.146 389.488 311.832 394.037C309.518 398.586 311.746 399.72 309.432 404.269C307.412 408.24 305.458 407.882 303.455 410.75C302.883 411.57 301.787 411.834 300.897 411.38L285.334 403.464C284.19 402.882 283.869 401.388 284.683 400.396C286.533 398.138 288.348 398.175 290.22 394.496C292.534 389.947 290.306 388.813 292.62 384.264C294.934 379.715 297.162 380.848 299.477 376.298C301.79 371.749 299.563 370.616 301.877 366.066C304.191 361.516 306.42 362.65 308.734 358.1C310.605 354.421 309.506 352.976 310.241 350.15C310.565 348.908 311.96 348.287 313.105 348.87L328.668 356.786Z" fill="#EA4444"/>
<path d="M329.665 359.225C328.525 362.534 329.965 363.902 327.946 367.873C325.631 372.423 323.402 371.289 321.089 375.839C318.775 380.388 321.002 381.522 318.688 386.071C316.374 390.621 314.146 389.488 311.832 394.037C309.518 398.586 311.745 399.72 309.431 404.269C307.413 408.24 305.457 407.881 303.454 410.75C302.882 411.57 301.788 411.834 300.897 411.38L298.518 410.17C299.35 410.45 300.286 410.163 300.801 409.425C302.804 406.556 304.76 406.915 306.778 402.944C309.092 398.395 306.865 397.261 309.179 392.712C311.493 388.162 313.721 389.296 316.035 384.746C318.35 380.197 316.122 379.063 318.436 374.514C320.75 369.964 322.978 371.098 325.293 366.548C327.312 362.577 325.873 361.209 327.012 357.9C327.337 356.955 326.905 355.915 326.014 355.461L312.827 348.753C312.921 348.785 313.014 348.824 313.105 348.87L328.667 356.786C329.558 357.239 329.99 358.28 329.665 359.225Z" fill="#D93131"/>
<path d="M324.241 354.535C321.927 359.084 324.155 360.218 321.841 364.767C319.526 369.317 317.298 368.184 314.983 372.733C312.669 377.283 314.897 378.416 312.583 382.966C310.269 387.515 308.041 386.382 305.727 390.931C303.413 395.48 305.641 396.614 303.327 401.163C301.012 405.713 298.784 404.579 296.47 409.129L289.469 405.568C291.783 401.018 294.011 402.151 296.326 397.602C298.639 393.053 296.412 391.919 298.725 387.37C301.04 382.82 303.268 383.954 305.582 379.405C307.896 374.855 305.668 373.721 307.982 369.172C310.297 364.622 312.525 365.756 314.839 361.206C317.154 356.656 314.925 355.523 317.24 350.973L324.241 354.535Z" fill="#FDD79B"/>
<path d="M324.242 354.535C321.926 359.085 324.155 360.218 321.841 364.768C319.526 369.317 317.297 368.184 314.983 372.733C312.669 377.283 314.897 378.416 312.583 382.966C310.269 387.515 308.04 386.382 305.727 390.931C303.413 395.48 305.64 396.614 303.326 401.164C301.012 405.712 298.783 404.579 296.469 409.128L293.435 407.584C295.744 403.061 297.969 404.182 300.28 399.642C302.594 395.093 300.366 393.959 302.68 389.41C304.994 384.86 307.222 385.994 309.536 381.444C311.85 376.895 309.623 375.761 311.937 371.212C314.251 366.662 316.479 367.796 318.794 363.246C321.108 358.697 318.88 357.563 321.195 353.013L317.229 350.995C317.231 350.988 317.235 350.981 317.239 350.973L324.242 354.535Z" fill="#FCCD7F"/>
</g>
<g clip-path="url(#clip3_21_374)">
<path d="M347.331 218.995C347.094 220.061 346.112 220.802 345.023 220.716C341.212 220.413 340.158 222.31 335.407 221.257C329.963 220.051 330.554 217.385 325.109 216.178C319.666 214.972 319.075 217.638 313.631 216.432C308.187 215.225 308.779 212.559 303.335 211.353C297.891 210.146 297.3 212.813 291.856 211.606C287.106 210.553 286.951 208.388 283.37 207.052C282.347 206.671 281.769 205.585 282.006 204.519L286.132 185.897C286.435 184.527 287.928 183.781 289.2 184.37C292.093 185.712 292.549 187.642 296.951 188.617C302.395 189.824 302.986 187.158 308.429 188.364C313.873 189.57 313.282 192.237 318.726 193.443C324.169 194.65 324.76 191.983 330.204 193.19C335.648 194.396 335.057 197.062 340.501 198.268C344.904 199.244 346.132 197.687 349.321 197.694C350.724 197.697 351.761 199.004 351.457 200.374L347.331 218.995Z" fill="#EA4444"/>
<path d="M345.024 220.715C341.212 220.414 340.158 222.31 335.407 221.257C329.963 220.05 330.554 217.384 325.11 216.178C319.667 214.972 319.075 217.637 313.631 216.431C308.188 215.225 308.778 212.558 303.335 211.353C297.891 210.147 297.3 212.812 291.856 211.606C287.106 210.554 286.951 208.388 283.37 207.052C282.347 206.67 281.769 205.585 282.006 204.518L282.636 201.673C282.567 202.628 283.127 203.54 284.047 203.884C287.628 205.22 287.783 207.386 292.534 208.438C297.977 209.644 298.569 206.979 304.012 208.185C309.456 209.391 308.865 212.057 314.308 213.263C319.753 214.47 320.344 211.804 325.787 213.01C331.231 214.216 330.64 216.882 336.085 218.09C340.835 219.141 341.889 217.245 345.701 217.547C346.789 217.634 347.772 216.893 348.008 215.827L351.505 200.047C351.497 200.155 351.482 200.264 351.457 200.374L347.331 218.994C347.094 220.061 346.112 220.802 345.024 220.715Z" fill="#D93131"/>
<path d="M348.504 213.698C343.061 212.492 342.47 215.158 337.025 213.952C331.581 212.746 332.172 210.079 326.728 208.872C321.284 207.666 320.694 210.333 315.25 209.126C309.806 207.92 310.397 205.253 304.954 204.047C299.51 202.841 298.919 205.507 293.475 204.3C288.032 203.094 288.623 200.428 283.179 199.221L285.035 190.844C290.479 192.051 289.888 194.717 295.332 195.923C300.775 197.129 301.366 194.463 306.81 195.67C312.253 196.876 311.663 199.542 317.106 200.749C322.55 201.955 323.141 199.289 328.585 200.495C334.029 201.702 333.438 204.368 338.882 205.574C344.326 206.781 344.917 204.115 350.361 205.321L348.504 213.698Z" fill="#FDD79B"/>
<path d="M348.504 213.699C343.06 212.492 342.469 215.159 337.026 213.952C331.581 212.745 332.172 210.079 326.729 208.872C321.285 207.667 320.694 210.332 315.25 209.126C309.806 207.92 310.397 205.253 304.953 204.048C299.51 202.842 298.918 205.507 293.475 204.301C288.032 203.094 288.623 200.428 283.179 199.222L283.984 195.59C289.399 196.799 288.82 199.458 294.253 200.663C299.697 201.869 300.287 199.204 305.731 200.409C311.175 201.616 310.585 204.282 316.028 205.488C321.472 206.694 322.063 204.029 327.507 205.235C332.95 206.441 332.359 209.107 337.804 210.315C343.247 211.52 343.838 208.854 349.283 210.061L350.334 205.315C350.343 205.316 350.351 205.319 350.36 205.321L348.504 213.699Z" fill="#FCCD7F"/>
<path d="M342.025 176.828C342.416 177.848 342.004 179.007 341.049 179.535C337.704 181.384 337.87 183.548 333.325 185.29C328.119 187.285 327.141 184.735 321.934 186.731C316.727 188.726 317.705 191.276 312.498 193.271C307.292 195.267 306.314 192.716 301.108 194.712C295.901 196.707 296.879 199.257 291.672 201.252C287.128 202.993 285.806 201.273 282.082 202.133C281.018 202.379 279.936 201.791 279.546 200.771L272.721 182.961C272.219 181.651 273.052 180.205 274.439 179.996C277.591 179.519 279.036 180.879 283.247 179.265C288.453 177.27 287.476 174.72 292.682 172.724C297.889 170.729 298.866 173.279 304.073 171.284C309.279 169.289 308.302 166.739 313.509 164.743C318.715 162.748 319.693 165.298 324.899 163.303C329.11 161.689 329.276 159.712 331.941 157.96C333.112 157.189 334.698 157.707 335.2 159.017L342.025 176.828Z" fill="#EA4444"/>
<path d="M341.05 179.535C337.703 181.384 337.869 183.547 333.326 185.29C328.118 187.285 327.141 184.734 321.935 186.73C316.729 188.725 317.705 191.275 312.498 193.27C307.292 195.266 306.314 192.716 301.108 194.712C295.902 196.707 296.878 199.256 291.672 201.252C287.129 202.994 285.805 201.272 282.082 202.132C281.017 202.378 279.937 201.791 279.547 200.771L278.503 198.049C278.972 198.885 279.942 199.337 280.9 199.116C284.624 198.256 285.947 199.978 290.49 198.236C295.696 196.24 294.721 193.691 299.927 191.696C305.133 189.7 306.11 192.25 311.317 190.254C316.524 188.26 315.547 185.709 320.753 183.714C325.959 181.718 326.937 184.269 332.144 182.274C336.688 180.532 336.522 178.369 339.868 176.519C340.823 175.991 341.234 174.831 340.844 173.811L335.06 158.719C335.113 158.813 335.161 158.913 335.201 159.017L342.026 176.827C342.416 177.847 342.005 179.007 341.05 179.535Z" fill="#D93131"/>
<path d="M340.084 171.762C334.877 173.757 335.854 176.307 330.648 178.303C325.441 180.298 324.464 177.748 319.257 179.743C314.05 181.739 315.027 184.289 309.821 186.284C304.614 188.279 303.637 185.729 298.43 187.724C293.224 189.72 294.201 192.27 288.995 194.265C283.788 196.26 282.811 193.71 277.604 195.705L274.534 187.693C279.741 185.698 280.718 188.248 285.924 186.253C291.131 184.257 290.154 181.707 295.36 179.712C300.567 177.717 301.544 180.267 306.75 178.272C311.957 176.276 310.98 173.726 316.186 171.731C321.393 169.735 322.371 172.286 327.577 170.29C332.784 168.295 331.807 165.745 337.014 163.749L340.084 171.762Z" fill="#FDD79B"/>
<path d="M340.084 171.762C334.877 173.757 335.854 176.307 330.648 178.303C325.441 180.298 324.463 177.748 319.257 179.743C314.05 181.739 315.027 184.288 309.82 186.284C304.614 188.279 303.636 185.729 298.43 187.724C293.224 189.72 294.2 192.269 288.994 194.265C283.788 196.259 282.81 193.709 277.604 195.704L276.274 192.231C281.457 190.254 282.441 192.792 287.637 190.801C292.843 188.806 291.867 186.256 297.073 184.261C302.28 182.265 303.257 184.815 308.463 182.82C313.669 180.824 312.694 178.275 317.9 176.279C323.106 174.284 324.083 176.834 329.291 174.839C334.497 172.844 333.52 170.293 338.727 168.298L336.988 163.759C336.996 163.755 337.004 163.753 337.013 163.749L340.084 171.762Z" fill="#FCCD7F"/>
</g>
<g clip-path="url(#clip4_21_374)">
<path d="M221.137 384.187C221.631 385.056 221.417 386.162 220.624 386.771C217.849 388.903 218.296 390.839 214.422 393.038C209.982 395.557 208.749 393.383 204.309 395.902C199.87 398.422 201.104 400.596 196.665 403.115C192.225 405.634 190.992 403.46 186.552 405.979C182.113 408.499 183.347 410.673 178.908 413.192C175.034 415.391 173.601 414.014 170.348 415.303C169.419 415.671 168.359 415.288 167.866 414.418L159.248 399.233C158.614 398.116 159.171 396.693 160.397 396.314C163.186 395.451 164.679 396.483 168.269 394.445C172.708 391.926 171.475 389.752 175.914 387.233C180.353 384.714 181.587 386.888 186.026 384.369C190.465 381.85 189.231 379.675 193.67 377.156C198.11 374.636 199.344 376.811 203.783 374.291C207.373 372.254 207.253 370.442 209.424 368.491C210.379 367.633 211.886 367.884 212.519 369.001L221.137 384.187Z" fill="#EA4444"/>
<path d="M220.625 386.77C217.849 388.904 218.296 390.839 214.422 393.038C209.982 395.557 208.748 393.383 204.309 395.902C199.87 398.421 201.103 400.595 196.664 403.115C192.225 405.634 190.991 403.46 186.552 405.98C182.114 408.499 183.346 410.673 178.908 413.192C175.034 415.391 173.6 414.014 170.348 415.303C169.418 415.671 168.36 415.288 167.866 414.418L166.549 412.098C167.088 412.789 168.028 413.065 168.865 412.735C172.117 411.446 173.551 412.823 177.425 410.624C181.864 408.105 180.631 405.931 185.07 403.412C189.509 400.892 190.743 403.066 195.181 400.547C199.622 398.027 198.388 395.854 202.826 393.334C207.265 390.815 208.499 392.989 212.94 390.47C216.813 388.27 216.366 386.335 219.142 384.202C219.934 383.594 220.147 382.488 219.654 381.618L212.352 368.751C212.412 368.828 212.469 368.912 212.519 369.002L221.137 384.185C221.63 385.056 221.417 386.162 220.625 386.77Z" fill="#D93131"/>
<path d="M218.686 379.867C214.247 382.386 215.481 384.561 211.041 387.08C206.601 389.6 205.367 387.425 200.928 389.945C196.489 392.464 197.723 394.639 193.284 397.158C188.844 399.677 187.61 397.503 183.172 400.022C178.732 402.541 179.966 404.715 175.527 407.234C171.088 409.754 169.854 407.579 165.415 410.098L161.538 403.267C165.977 400.748 167.211 402.922 171.65 400.403C176.089 397.884 174.855 395.71 179.295 393.19C183.733 390.671 184.967 392.845 189.407 390.326C193.846 387.807 192.612 385.633 197.051 383.113C201.49 380.594 202.724 382.768 207.164 380.249C211.604 377.729 210.37 375.555 214.809 373.036L218.686 379.867Z" fill="#FDD79B"/>
<path d="M218.686 379.868C214.246 382.387 215.48 384.561 211.041 387.081C206.601 389.6 205.367 387.426 200.928 389.945C196.489 392.465 197.722 394.638 193.283 397.158C188.844 399.677 187.61 397.503 183.171 400.023C178.733 402.542 179.965 404.716 175.527 407.235C171.088 409.753 169.854 407.579 165.415 410.099L163.735 407.137C168.155 404.638 169.393 406.8 173.824 404.286C178.263 401.767 177.03 399.593 181.469 397.073C185.908 394.554 187.142 396.728 191.581 394.209C196.02 391.689 194.787 389.515 199.226 386.995C203.664 384.476 204.899 386.651 209.339 384.131C213.778 381.612 212.543 379.437 216.984 376.919L214.787 373.048C214.794 373.044 214.801 373.041 214.809 373.036L218.686 379.868Z" fill="#FCCD7F"/>
<path d="M191.668 358.786C192.559 359.24 192.99 360.28 192.665 361.225C191.525 364.534 192.966 365.902 190.946 369.873C188.632 374.423 186.403 373.289 184.089 377.839C181.774 382.389 184.003 383.522 181.689 388.072C179.375 392.621 177.146 391.488 174.832 396.037C172.518 400.586 174.746 401.72 172.432 406.269C170.412 410.24 168.458 409.882 166.455 412.75C165.883 413.57 164.787 413.834 163.897 413.38L148.334 405.464C147.19 404.882 146.869 403.388 147.683 402.396C149.533 400.138 151.348 400.175 153.22 396.496C155.534 391.947 153.306 390.813 155.62 386.264C157.934 381.715 160.162 382.848 162.477 378.298C164.79 373.749 162.563 372.616 164.877 368.066C167.191 363.516 169.42 364.65 171.734 360.1C173.605 356.421 172.506 354.976 173.241 352.15C173.565 350.908 174.96 350.287 176.105 350.87L191.668 358.786Z" fill="#EA4444"/>
<path d="M192.665 361.225C191.525 364.534 192.965 365.902 190.946 369.873C188.631 374.423 186.402 373.289 184.089 377.839C181.775 382.388 184.002 383.522 181.688 388.071C179.374 392.621 177.146 391.488 174.832 396.037C172.518 400.586 174.745 401.72 172.431 406.269C170.413 410.24 168.457 409.881 166.454 412.75C165.882 413.57 164.788 413.834 163.897 413.38L161.518 412.17C162.35 412.45 163.286 412.163 163.801 411.425C165.804 408.556 167.76 408.915 169.778 404.944C172.092 400.395 169.865 399.261 172.179 394.712C174.493 390.162 176.721 391.296 179.035 386.746C181.35 382.197 179.122 381.063 181.436 376.514C183.75 371.964 185.978 373.098 188.293 368.548C190.312 364.577 188.873 363.209 190.012 359.9C190.337 358.955 189.905 357.915 189.014 357.461L175.827 350.753C175.921 350.785 176.014 350.824 176.105 350.87L191.667 358.786C192.558 359.239 192.99 360.28 192.665 361.225Z" fill="#D93131"/>
<path d="M187.241 356.535C184.927 361.084 187.155 362.218 184.841 366.767C182.526 371.317 180.298 370.184 177.983 374.733C175.669 379.283 177.897 380.416 175.583 384.966C173.269 389.515 171.041 388.382 168.727 392.931C166.413 397.48 168.641 398.614 166.327 403.163C164.012 407.713 161.784 406.579 159.47 411.129L152.469 407.568C154.783 403.018 157.011 404.151 159.326 399.602C161.639 395.053 159.412 393.919 161.725 389.37C164.04 384.82 166.268 385.954 168.582 381.405C170.896 376.855 168.668 375.721 170.982 371.172C173.297 366.622 175.525 367.756 177.839 363.206C180.154 358.656 177.925 357.523 180.24 352.973L187.241 356.535Z" fill="#FDD79B"/>
<path d="M187.242 356.535C184.926 361.085 187.155 362.218 184.841 366.768C182.526 371.317 180.297 370.184 177.983 374.733C175.669 379.283 177.897 380.416 175.583 384.966C173.269 389.515 171.04 388.382 168.727 392.931C166.413 397.48 168.64 398.614 166.326 403.164C164.012 407.712 161.783 406.579 159.469 411.128L156.435 409.584C158.744 405.061 160.969 406.182 163.28 401.642C165.594 397.093 163.366 395.959 165.68 391.41C167.994 386.86 170.222 387.994 172.536 383.444C174.85 378.895 172.623 377.761 174.937 373.212C177.251 368.662 179.479 369.796 181.794 365.246C184.108 360.697 181.88 359.563 184.195 355.013L180.229 352.995C180.231 352.988 180.235 352.981 180.239 352.973L187.242 356.535Z" fill="#FCCD7F"/>
</g>
<defs>
<clipPath id="clip0_21_374">
<rect width="67" height="67" fill="white" transform="translate(251.812 42.4712) rotate(15)"/>
</clipPath>
<clipPath id="clip1_21_374">
<rect width="67" height="67" fill="white" transform="translate(87.3408 146) rotate(15)"/>
</clipPath>
<clipPath id="clip2_21_374">
<rect width="67" height="67" fill="white" transform="translate(299.341 345) rotate(15)"/>
</clipPath>
<clipPath id="clip3_21_374">
<rect width="73.1898" height="73.1898" fill="white" transform="translate(326.871 145.805) rotate(57.0705)"/>
</clipPath>
<clipPath id="clip4_21_374">
<rect width="67" height="67" fill="white" transform="translate(162.341 347) rotate(15)"/>
</clipPath>
</defs>
</svg>
