<svg width="500" height="500" viewBox="0 0 500 500" fill="none" xmlns="http://www.w3.org/2000/svg">
<path d="M500 250C500 111.929 388.071 0 250 0C111.929 0 0 111.929 0 250C0 388.071 111.929 500 250 500C388.071 500 500 388.071 500 250Z" fill="#BE6009"/>
<path d="M250 8.58771C275.028 8.58771 297.761 20.9132 320.378 28.2623C343.781 35.8656 369.411 39.5247 388.893 53.6836C408.567 68.0043 419.899 91.3458 434.22 111.02C448.394 130.495 467.175 148.413 474.771 171.816C482.104 194.402 477.69 219.824 477.69 244.852C477.69 269.881 482.104 295.302 474.771 317.889C467.175 341.292 448.394 359.21 434.22 378.692C419.899 398.366 408.567 421.7 388.893 436.021C369.411 450.195 343.781 453.854 320.378 461.442C297.8 468.799 275.028 481.148 250 481.148C224.971 481.148 202.238 468.822 179.621 461.473C156.218 453.87 130.589 450.211 111.107 436.052C91.4322 421.731 80.1004 398.39 65.7797 378.715C51.6054 359.241 32.8244 341.322 25.2288 317.919C17.8952 295.333 22.3092 269.912 22.3092 244.883C22.3092 219.855 17.8952 194.433 25.2288 171.847C32.8244 148.444 51.6054 130.525 65.7797 111.043C80.1004 91.3689 91.4322 68.0352 111.107 53.7145C130.589 39.5401 156.218 35.881 179.621 28.2931C202.238 20.9363 224.971 8.58771 250 8.58771Z" fill="#E08327"/>
<path d="M463.741 245.588C463.741 127.542 368.046 31.8473 250 31.8473C131.955 31.8473 36.2598 127.542 36.2598 245.588C36.2598 363.633 131.955 459.328 250 459.328C368.046 459.328 463.741 363.633 463.741 245.588Z" fill="#FCE3AC"/>
</svg>
