<svg width="500" height="501" viewBox="0 0 500 501" fill="none" xmlns="http://www.w3.org/2000/svg">
<path d="M500 250C500 111.929 388.071 0 250 0C111.929 0 0 111.929 0 250C0 388.071 111.929 500 250 500C388.071 500 500 388.071 500 250Z" fill="#CE7421"/>
<path d="M250 4.99998C276.23 4.99998 300.054 17.9171 323.757 25.619C348.283 33.5872 375.143 37.422 395.56 52.2605C416.179 67.2686 428.055 91.7304 443.063 112.349C457.917 132.758 477.6 151.537 485.56 176.063C493.246 199.734 488.62 226.375 488.62 252.605C488.62 278.835 493.246 305.477 485.56 329.147C477.6 353.674 457.917 372.452 443.063 392.869C428.055 413.488 416.179 437.942 395.56 452.95C375.143 467.805 348.283 471.639 323.757 479.591C300.094 487.301 276.23 500.243 250 500.243C223.77 500.243 199.946 487.326 176.243 479.624C151.717 471.656 124.857 467.821 104.44 452.982C83.8211 437.974 71.9454 413.512 56.9374 392.893C42.0827 372.484 22.4002 353.706 14.44 329.18C6.75431 305.509 11.3803 278.867 11.3803 252.638C11.3803 226.408 6.75431 199.766 14.44 176.095C22.4002 151.569 42.0827 132.791 56.9374 112.374C71.9454 91.7546 83.8211 67.3009 104.44 52.2928C124.857 37.4381 151.717 33.6034 176.243 25.6513C199.946 17.9413 223.77 4.99998 250 4.99998Z" fill="#E08327"/>
<path d="M474 245.376C474 121.664 373.712 21.376 250 21.376C126.288 21.376 26 121.664 26 245.376C26 369.088 126.288 469.376 250 469.376C373.712 469.376 474 369.088 474 245.376Z" fill="#FCE3AC"/>
</svg>
