<svg width="500" height="500" viewBox="0 0 500 500" fill="none" xmlns="http://www.w3.org/2000/svg">
<path d="M232.448 8.47492C243.537 3.12071 256.463 3.12071 267.552 8.47492V8.47492C275.477 12.3017 284.436 13.4334 293.064 11.6979V11.6979C305.136 9.26956 317.656 12.4842 327.065 20.4279V20.4279C333.79 26.1054 342.186 29.4296 350.975 29.8942V29.8942C363.271 30.5444 374.599 36.7717 381.736 46.8057V46.8057C386.838 53.9772 394.144 59.2849 402.54 61.9207V61.9207C414.289 65.6084 423.712 74.4571 428.13 85.9509V85.9509C431.288 94.1658 437.044 101.124 444.522 105.765V105.765C454.984 112.258 461.91 123.172 463.331 135.404V135.404C464.347 144.146 468.192 152.317 474.28 158.672V158.672C482.799 167.563 486.793 179.857 485.128 192.058V192.058C483.937 200.778 485.63 209.648 489.946 217.317V217.317C495.986 228.048 496.798 240.949 492.151 252.352V252.352C488.829 260.502 488.262 269.514 490.536 278.016V278.016C493.717 289.912 491.295 302.609 483.958 312.498V312.498C478.714 319.566 475.924 328.154 476.012 336.955V336.955C476.135 349.268 470.631 360.964 461.065 368.718V368.718C454.228 374.26 449.39 381.884 447.286 390.43V390.43C444.344 402.387 436.104 412.347 424.91 417.478V417.478C416.91 421.145 410.327 427.327 406.165 435.081V435.081C400.341 445.931 389.883 453.528 377.765 455.715V455.715C369.104 457.277 361.191 461.627 355.231 468.103V468.103C346.892 477.163 334.873 481.922 322.592 481.026V481.026C313.814 480.385 305.068 482.631 297.685 487.421V487.421C287.354 494.123 274.53 495.743 262.858 491.82V491.82C254.515 489.017 245.485 489.017 237.142 491.82V491.82C225.47 495.743 212.646 494.123 202.315 487.421V487.421C194.932 482.631 186.186 480.385 177.408 481.026V481.026C165.127 481.922 153.108 477.163 144.769 468.103V468.103C138.809 461.627 130.896 457.277 122.235 455.715V455.715C110.117 453.528 99.6592 445.931 93.8353 435.081V435.081C89.6728 427.327 83.0902 421.145 75.0898 417.478V417.478C63.896 412.347 55.6565 402.387 52.7137 390.43V390.43C50.6104 381.884 45.7719 374.26 38.9348 368.718V368.718C29.3688 360.964 23.8651 349.268 23.9883 336.955V336.955C24.0764 328.154 21.286 319.566 16.0419 312.498V312.498C8.7047 302.609 6.28256 289.912 9.46409 278.016V278.016C11.738 269.514 11.171 260.502 7.84942 252.352V252.352C3.20205 240.949 4.0137 228.048 10.0536 217.317V217.317C14.3705 209.648 16.0625 200.778 14.8722 192.058V192.058C13.2066 179.857 17.2011 167.563 25.7198 158.672V158.672C31.8084 152.317 35.6532 144.146 36.6688 135.404V135.404C38.0898 123.172 45.016 112.258 55.4784 105.765V105.765C62.9561 101.124 68.7121 94.1658 71.8699 85.9509V85.9509C76.2881 74.4571 85.7109 65.6084 97.4595 61.9207V61.9207C105.856 59.2849 113.162 53.9772 118.264 46.8057V46.8057C125.401 36.7717 136.729 30.5444 149.025 29.8942V29.8942C157.814 29.4296 166.21 26.1054 172.935 20.4279V20.4279C182.344 12.4842 194.864 9.26956 206.936 11.6979V11.6979C215.564 13.4334 224.523 12.3017 232.448 8.47492V8.47492Z" fill="#CE7421"/>
<path d="M252.93 16.6015C277.477 16.6015 299.774 28.6903 321.957 35.8983C344.91 43.3555 370.047 46.9444 389.155 60.8314C408.452 74.877 419.566 97.7702 433.612 117.067C447.514 136.167 465.934 153.741 473.384 176.695C480.577 198.848 476.247 223.781 476.247 248.328C476.247 272.876 480.577 297.809 473.384 319.962C465.934 342.916 447.514 360.49 433.612 379.598C419.566 398.894 408.452 421.78 389.155 435.826C370.047 449.728 344.91 453.316 321.957 460.759C299.812 467.974 277.477 480.086 252.93 480.086C228.382 480.086 206.086 467.997 183.903 460.789C160.949 453.332 135.812 449.743 116.704 435.856C97.4075 421.81 86.2933 398.917 72.2477 379.62C58.3456 360.52 39.9253 342.946 32.4756 319.992C25.2828 297.84 29.6121 272.906 29.6121 248.359C29.6121 223.811 25.2828 198.878 32.4756 176.725C39.9253 153.771 58.3456 136.197 72.2477 117.09C86.2933 97.7928 97.4075 74.9073 116.704 60.8616C135.812 46.9595 160.949 43.3707 183.903 35.9285C206.086 28.713 228.382 16.6015 252.93 16.6015Z" fill="#E08327"/>
<path d="M468.75 248.414C468.75 127.602 370.812 29.6641 250 29.6641C129.188 29.6641 31.25 127.602 31.25 248.414C31.25 369.226 129.188 467.164 250 467.164C370.812 467.164 468.75 369.226 468.75 248.414Z" fill="#FCE3AC"/>
</svg>
