<svg width="500" height="500" viewBox="0 0 500 500" fill="none" xmlns="http://www.w3.org/2000/svg">
<path d="M247.5 266C261.031 266 272 255.031 272 241.5C272 227.969 261.031 217 247.5 217C233.969 217 223 227.969 223 241.5C223 255.031 233.969 266 247.5 266Z" fill="#F57C7C"/>
<path d="M247.5 217C245.855 217 244.213 217.164 242.6 217.491C253.783 219.761 262.2 229.647 262.2 241.5C262.2 253.353 253.783 263.239 242.6 265.509C244.213 265.836 245.854 266.001 247.5 266C261.031 266 272 255.031 272 241.5C272 227.969 261.031 217 247.5 217Z" fill="#EF6161"/>
<ellipse cx="234.416" cy="242.526" rx="1.58547" ry="1.10983" fill="#FAB2B2"/>
<ellipse cx="247.416" cy="226.671" rx="1.58547" ry="1.10983" fill="#FAB2B2"/>
<ellipse cx="245.831" cy="246.648" rx="1.58547" ry="1.42693" fill="#FAB2B2"/>
<circle cx="249.636" cy="238.563" r="1.58547" fill="#FAB2B2"/>
<ellipse cx="239.964" cy="255.685" rx="2.06112" ry="2.21966" fill="#FAB2B2"/>
<ellipse cx="257.246" cy="243.478" rx="1.58547" ry="1.10983" fill="#FAB2B2"/>
<ellipse cx="238.538" cy="232.22" rx="1.90257" ry="1.58547" fill="#FAB2B2"/>
<path d="M325 399C341.569 399 355 385.569 355 369C355 352.431 341.569 339 325 339C308.431 339 295 352.431 295 369C295 385.569 308.431 399 325 399Z" fill="#F57C7C"/>
<path d="M325 339C322.985 339 320.974 339.201 319 339.602C332.693 342.381 342.999 354.487 342.999 369C342.999 383.514 332.693 395.619 319 398.399C320.974 398.799 322.984 399.001 325 399C341.568 399 355 385.568 355 369C355 352.431 341.568 339 325 339Z" fill="#EF6161"/>
<ellipse cx="308.978" cy="370.256" rx="1.9414" ry="1.35898" fill="#FAB2B2"/>
<ellipse cx="324.897" cy="350.843" rx="1.9414" ry="1.35898" fill="#FAB2B2"/>
<ellipse cx="322.957" cy="375.304" rx="1.9414" ry="1.74726" fill="#FAB2B2"/>
<circle cx="327.615" cy="365.403" r="1.9414" fill="#FAB2B2"/>
<ellipse cx="315.773" cy="386.37" rx="2.52381" ry="2.71795" fill="#FAB2B2"/>
<ellipse cx="336.934" cy="371.421" rx="1.9414" ry="1.35898" fill="#FAB2B2"/>
<ellipse cx="314.026" cy="357.637" rx="2.32967" ry="1.9414" fill="#FAB2B2"/>
<path d="M116.236 247.084C99.7135 245.849 85.3183 258.241 84.0833 274.764C82.8483 291.286 95.2412 305.682 111.764 306.917C128.286 308.152 142.681 295.759 143.916 279.236C145.151 262.714 132.758 248.319 116.236 247.084Z" fill="#F57C7C"/>
<path d="M111.764 306.916C113.774 307.067 115.793 307.016 117.792 306.764C104.345 302.972 94.9687 290.132 96.0506 275.658C97.1324 261.185 108.313 249.882 122.175 248.131C120.236 247.584 118.246 247.233 116.236 247.084C99.7139 245.849 85.3188 258.242 84.0838 274.764C82.8488 291.287 95.242 305.681 111.764 306.916Z" fill="#EF6161"/>
<ellipse cx="130.071" cy="276.941" rx="1.9414" ry="1.35898" transform="rotate(-175.725 130.071 276.941)" fill="#FAB2B2"/>
<ellipse cx="112.749" cy="295.115" rx="1.9414" ry="1.35898" transform="rotate(-175.725 112.749 295.115)" fill="#FAB2B2"/>
<ellipse cx="116.507" cy="270.866" rx="1.9414" ry="1.74726" transform="rotate(-175.725 116.507 270.866)" fill="#FAB2B2"/>
<circle cx="111.124" cy="280.392" r="1.9414" transform="rotate(-175.725 111.124 280.392)" fill="#FAB2B2"/>
<ellipse cx="124.496" cy="260.366" rx="2.52381" ry="2.71795" transform="rotate(-175.725 124.496 260.366)" fill="#FAB2B2"/>
<ellipse cx="102.28" cy="273.696" rx="1.9414" ry="1.35898" transform="rotate(-175.725 102.28 273.696)" fill="#FAB2B2"/>
<ellipse cx="124.096" cy="289.149" rx="2.32967" ry="1.9414" transform="rotate(-175.725 124.096 289.149)" fill="#FAB2B2"/>
<path d="M137.645 139.593C121.957 134.266 104.92 142.666 99.5929 158.355C94.2658 174.044 102.666 191.08 118.355 196.407C134.043 201.734 151.08 193.334 156.407 177.646C161.734 161.957 153.334 144.92 137.645 139.593Z" fill="#F57C7C"/>
<path d="M118.355 196.407C120.263 197.056 122.231 197.511 124.23 197.767C112.158 190.732 106.29 175.956 110.956 162.213C115.623 148.47 129.274 140.321 143.134 142.092C141.393 141.078 139.554 140.241 137.646 139.594C121.957 134.266 104.92 142.666 99.5932 158.355C94.2661 174.044 102.667 191.08 118.355 196.407Z" fill="#EF6161"/>
<ellipse cx="143.575" cy="171.962" rx="1.9414" ry="1.35898" transform="rotate(-161.245 143.575 171.962)" fill="#FAB2B2"/>
<ellipse cx="122.259" cy="185.226" rx="1.9414" ry="1.35898" transform="rotate(-161.245 122.259 185.226)" fill="#FAB2B2"/>
<ellipse cx="131.962" cy="162.688" rx="1.9414" ry="1.74726" transform="rotate(-161.245 131.962 162.688)" fill="#FAB2B2"/>
<circle cx="124.367" cy="170.565" r="1.9414" transform="rotate(-161.245 124.367 170.565)" fill="#FAB2B2"/>
<ellipse cx="142.322" cy="154.519" rx="2.52381" ry="2.71795" transform="rotate(-161.245 142.322 154.519)" fill="#FAB2B2"/>
<ellipse cx="117.478" cy="161.87" rx="1.9414" ry="1.35898" transform="rotate(-161.245 117.478 161.87)" fill="#FAB2B2"/>
<ellipse cx="134.738" cy="182.288" rx="2.32967" ry="1.9414" transform="rotate(-161.245 134.738 182.288)" fill="#FAB2B2"/>
<path d="M270.459 107.565C274.448 91.4842 264.646 75.2137 248.565 71.224C232.484 67.2342 216.214 77.0361 212.224 93.1171C208.234 109.198 218.036 125.469 234.117 129.458C250.198 133.448 266.469 123.646 270.459 107.565Z" fill="#F57C7C"/>
<path d="M212.225 93.1176C211.739 95.0733 211.45 97.0727 211.363 99.0859C217.358 86.4651 231.589 79.3765 245.676 82.8714C259.762 86.3663 269.03 99.2849 268.43 113.244C269.294 111.424 269.974 109.522 270.458 107.566C274.448 91.4845 264.646 75.214 248.565 71.2243C232.484 67.2345 216.214 77.0369 212.225 93.1176Z" fill="#EF6161"/>
<ellipse cx="238.702" cy="116.194" rx="1.9414" ry="1.35898" transform="rotate(-76.0661 238.702 116.194)" fill="#FAB2B2"/>
<ellipse cx="223.693" cy="96.0685" rx="1.9414" ry="1.35898" transform="rotate(-76.0661 223.693 96.0685)" fill="#FAB2B2"/>
<ellipse cx="246.968" cy="103.843" rx="1.9414" ry="1.74726" transform="rotate(-76.0661 246.968 103.843)" fill="#FAB2B2"/>
<circle cx="238.48" cy="96.9367" r="1.9414" transform="rotate(-76.0661 238.48 96.9367)" fill="#FAB2B2"/>
<ellipse cx="255.979" cy="113.48" rx="2.52381" ry="2.71795" transform="rotate(-76.0661 255.979 113.48)" fill="#FAB2B2"/>
<ellipse cx="246.565" cy="89.3412" rx="1.9414" ry="1.35898" transform="rotate(-76.0661 246.565 89.3412)" fill="#FAB2B2"/>
<ellipse cx="227.67" cy="108.256" rx="2.32967" ry="1.9414" transform="rotate(-76.0661 227.67 108.256)" fill="#FAB2B2"/>
<path d="M377.231 185.026C389.164 173.532 389.52 154.54 378.026 142.607C366.532 130.674 347.54 130.318 335.607 141.812C323.674 153.306 323.318 172.298 334.812 184.231C346.306 196.164 365.298 196.52 377.231 185.026Z" fill="#F57C7C"/>
<path d="M335.607 141.813C334.155 143.21 332.847 144.75 331.703 146.408C343.493 138.911 359.314 140.479 369.383 150.932C379.451 161.385 380.426 177.254 372.492 188.755C374.193 187.674 375.78 186.424 377.231 185.026C389.164 173.531 389.52 154.54 378.025 142.607C366.531 130.674 347.54 130.319 335.607 141.813Z" fill="#EF6161"/>
<ellipse cx="345.751" cy="175.439" rx="1.9414" ry="1.35898" transform="rotate(-43.9267 345.751 175.439)" fill="#FAB2B2"/>
<ellipse cx="343.749" cy="150.413" rx="1.9414" ry="1.35898" transform="rotate(-43.9267 343.749 150.413)" fill="#FAB2B2"/>
<ellipse cx="359.321" cy="169.377" rx="1.9414" ry="1.74726" transform="rotate(-43.9267 359.321 169.377)" fill="#FAB2B2"/>
<circle cx="355.807" cy="159.014" r="1.9414" transform="rotate(-43.9267 355.807 159.014)" fill="#FAB2B2"/>
<ellipse cx="361.824" cy="182.331" rx="2.52381" ry="2.71795" transform="rotate(-43.9267 361.824 182.331)" fill="#FAB2B2"/>
<ellipse cx="366.694" cy="156.884" rx="1.9414" ry="1.35898" transform="rotate(-43.9267 366.694 156.884)" fill="#FAB2B2"/>
<ellipse cx="340.633" cy="162.848" rx="2.32967" ry="1.9414" transform="rotate(-43.9267 340.633 162.848)" fill="#FAB2B2"/>
<path d="M392 292C408.569 292 422 278.569 422 262C422 245.431 408.569 232 392 232C375.431 232 362 245.431 362 262C362 278.569 375.431 292 392 292Z" fill="#F57C7C"/>
<path d="M392 232C389.985 232 387.974 232.201 386 232.602C399.693 235.381 409.999 247.487 409.999 262C409.999 276.514 399.693 288.619 386 291.399C387.974 291.799 389.984 292.001 392 292C408.568 292 422 278.568 422 262C422 245.431 408.568 232 392 232Z" fill="#EF6161"/>
<ellipse cx="375.978" cy="263.256" rx="1.9414" ry="1.35898" fill="#FAB2B2"/>
<ellipse cx="391.897" cy="243.843" rx="1.9414" ry="1.35898" fill="#FAB2B2"/>
<ellipse cx="389.957" cy="268.304" rx="1.9414" ry="1.74726" fill="#FAB2B2"/>
<circle cx="394.615" cy="258.403" r="1.9414" fill="#FAB2B2"/>
<ellipse cx="382.773" cy="279.37" rx="2.52381" ry="2.71795" fill="#FAB2B2"/>
<ellipse cx="403.934" cy="264.421" rx="1.9414" ry="1.35898" fill="#FAB2B2"/>
<ellipse cx="381.026" cy="250.637" rx="2.32967" ry="1.9414" fill="#FAB2B2"/>
<path d="M192 401C208.569 401 222 387.569 222 371C222 354.431 208.569 341 192 341C175.431 341 162 354.431 162 371C162 387.569 175.431 401 192 401Z" fill="#F57C7C"/>
<path d="M192 341C189.985 341 187.974 341.201 186 341.602C199.693 344.381 209.999 356.487 209.999 371C209.999 385.514 199.693 397.619 186 400.399C187.974 400.799 189.984 401.001 192 401C208.568 401 222 387.568 222 371C222 354.431 208.568 341 192 341Z" fill="#EF6161"/>
<ellipse cx="175.978" cy="372.256" rx="1.9414" ry="1.35898" fill="#FAB2B2"/>
<ellipse cx="191.897" cy="352.843" rx="1.9414" ry="1.35898" fill="#FAB2B2"/>
<ellipse cx="189.957" cy="377.304" rx="1.9414" ry="1.74726" fill="#FAB2B2"/>
<circle cx="194.615" cy="367.403" r="1.9414" fill="#FAB2B2"/>
<ellipse cx="182.773" cy="388.37" rx="2.52381" ry="2.71795" fill="#FAB2B2"/>
<ellipse cx="203.934" cy="373.421" rx="1.9414" ry="1.35898" fill="#FAB2B2"/>
<ellipse cx="181.026" cy="359.637" rx="2.32967" ry="1.9414" fill="#FAB2B2"/>
</svg>
