<svg width="500" height="500" viewBox="0 0 500 500" fill="none" xmlns="http://www.w3.org/2000/svg">
<path d="M161.639 331.104C156.041 336.949 152.335 344.347 151.005 352.331C149.676 360.314 150.783 368.514 154.184 375.858C157.584 383.203 163.12 389.352 170.068 393.503C177.016 397.655 185.054 399.615 193.133 399.129C193.927 399.009 194.685 398.713 195.351 398.264C196.017 397.814 196.574 397.221 196.982 396.529C197.389 395.837 197.638 395.062 197.708 394.262C197.779 393.462 197.67 392.656 197.39 391.903L187.405 370.356L212.039 358.95C213.042 358.485 213.819 357.641 214.199 356.603C214.58 355.565 214.533 354.419 214.068 353.416L210.04 344.717C209.81 344.218 209.485 343.77 209.082 343.398C208.679 343.026 208.206 342.737 207.691 342.548C207.176 342.358 206.629 342.273 206.081 342.295C205.532 342.318 204.994 342.449 204.497 342.68L179.87 354.077L169.895 332.537C169.504 331.836 168.961 331.231 168.306 330.766C167.651 330.301 166.9 329.988 166.109 329.851C165.317 329.713 164.505 329.755 163.732 329.971C162.958 330.188 162.243 330.575 161.639 331.104Z" fill="#EFD4B9"/>
<path d="M161.612 331.172C162.482 330.469 163.531 330.023 164.641 329.884C165.751 329.746 166.878 329.92 167.894 330.388C163.85 336.291 161.409 343.143 160.811 350.274C160.213 357.404 161.479 364.568 164.483 371.062C167.488 377.556 172.129 383.157 177.95 387.318C183.772 391.478 190.575 394.054 197.692 394.793C197.427 395.892 196.849 396.891 196.03 397.67C195.21 398.449 194.183 398.974 193.072 399.184C185.002 399.659 176.976 397.693 170.039 393.542C163.102 389.392 157.575 383.249 154.178 375.913C150.781 368.577 149.671 360.389 150.993 352.414C152.315 344.439 156.007 337.046 161.589 331.199L161.612 331.172Z" fill="#C7B299"/>
<path d="M262.149 256.431C258.513 256.951 255.119 258.554 252.409 261.031C249.698 263.509 247.797 266.746 246.954 270.32C246.112 273.894 246.366 277.64 247.683 281.067C249.001 284.495 251.322 287.446 254.342 289.534C254.659 289.714 255.012 289.821 255.376 289.847C255.74 289.873 256.104 289.817 256.444 289.684C256.783 289.551 257.089 289.344 257.338 289.078C257.587 288.812 257.774 288.494 257.885 288.147L260.355 277.659L272.343 280.486C272.831 280.601 273.345 280.517 273.771 280.253C274.198 279.989 274.502 279.567 274.617 279.078L275.615 274.845C275.672 274.603 275.682 274.352 275.642 274.106C275.602 273.86 275.515 273.625 275.384 273.413C275.253 273.201 275.082 273.017 274.879 272.872C274.677 272.727 274.449 272.623 274.206 272.566L262.224 269.738L264.694 259.255C264.751 258.895 264.727 258.527 264.623 258.178C264.52 257.828 264.339 257.507 264.095 257.236C263.851 256.965 263.55 256.753 263.213 256.613C262.876 256.474 262.513 256.412 262.149 256.431Z" fill="#EFD4B9"/>
<path d="M262.12 256.449C262.627 256.441 263.127 256.576 263.562 256.837C263.997 257.098 264.35 257.476 264.582 257.928C261.485 258.903 258.695 260.665 256.485 263.043C254.275 265.421 252.72 268.333 251.974 271.492C251.228 274.652 251.316 277.951 252.23 281.067C253.143 284.182 254.85 287.007 257.184 289.264C256.781 289.582 256.295 289.777 255.784 289.825C255.274 289.874 254.76 289.774 254.305 289.537C251.291 287.447 248.976 284.498 247.662 281.073C246.348 277.649 246.095 273.908 246.937 270.338C247.778 266.768 249.675 263.535 252.381 261.058C255.086 258.581 258.474 256.976 262.104 256.452L262.12 256.449Z" fill="#C7B299"/>
<path d="M190.639 80.1035C185.041 85.9494 181.335 93.3469 180.005 101.331C178.676 109.314 179.783 117.514 183.184 124.858C186.584 132.203 192.12 138.352 199.068 142.503C206.016 146.655 214.054 148.615 222.133 148.129C222.927 148.009 223.685 147.713 224.351 147.264C225.017 146.814 225.574 146.221 225.982 145.529C226.389 144.837 226.638 144.062 226.708 143.262C226.779 142.462 226.67 141.656 226.39 140.903L216.405 119.356L241.039 107.95C242.042 107.485 242.819 106.641 243.199 105.603C243.58 104.565 243.533 103.419 243.068 102.416L239.04 93.7166C238.81 93.2182 238.485 92.7701 238.082 92.3979C237.679 92.0257 237.206 91.7367 236.691 91.5475C236.176 91.3583 235.629 91.2727 235.081 91.2954C234.532 91.3182 233.994 91.4489 233.497 91.6801L208.87 103.077L198.895 81.5375C198.504 80.8359 197.961 80.2305 197.306 79.7657C196.651 79.3009 195.9 78.9883 195.109 78.8508C194.317 78.7134 193.505 78.7546 192.732 78.9713C191.958 79.188 191.243 79.5749 190.639 80.1035Z" fill="#EFD4B9"/>
<path d="M190.612 80.1721C191.482 79.4688 192.531 79.0228 193.641 78.8842C194.751 78.7456 195.878 78.92 196.894 79.3878C192.85 85.2908 190.409 92.1435 189.811 99.2739C189.213 106.404 190.479 113.568 193.483 120.062C196.488 126.556 201.129 132.157 206.95 136.318C212.772 140.478 219.575 143.054 226.692 143.793C226.427 144.892 225.849 145.891 225.03 146.67C224.21 147.449 223.183 147.974 222.072 148.184C214.002 148.659 205.976 146.693 199.039 142.542C192.102 138.392 186.575 132.249 183.178 124.913C179.781 117.577 178.671 109.389 179.993 101.414C181.315 93.4388 185.007 86.0464 190.589 80.1992L190.612 80.1721Z" fill="#C7B299"/>
<path d="M332.558 354.628C327.308 355.642 322.485 358.215 318.72 362.011C314.954 365.807 312.42 370.65 311.448 375.908C310.477 381.166 311.113 386.595 313.273 391.486C315.434 396.377 319.018 400.504 323.559 403.327C324.033 403.565 324.554 403.695 325.085 403.707C325.616 403.719 326.142 403.612 326.627 403.395C327.111 403.177 327.54 402.855 327.884 402.45C328.228 402.046 328.477 401.57 328.613 401.057L331.459 385.628L349.094 388.886C349.812 389.019 350.554 388.86 351.155 388.446C351.756 388.032 352.169 387.396 352.301 386.678L353.452 380.45C353.518 380.094 353.514 379.728 353.439 379.373C353.364 379.019 353.219 378.682 353.014 378.384C352.808 378.085 352.546 377.83 352.242 377.633C351.938 377.436 351.598 377.301 351.241 377.235L333.613 373.975L336.461 358.554C336.518 358.027 336.456 357.493 336.281 356.992C336.105 356.492 335.82 356.036 335.446 355.66C335.072 355.284 334.618 354.996 334.118 354.817C333.619 354.639 333.086 354.574 332.558 354.628Z" fill="#EFD4B9"/>
<path d="M332.517 354.655C333.255 354.608 333.991 354.769 334.642 355.118C335.293 355.467 335.834 355.991 336.203 356.631C331.769 358.269 327.837 361.031 324.791 364.647C321.746 368.263 319.693 372.607 318.833 377.256C317.973 381.904 318.335 386.696 319.885 391.162C321.435 395.628 324.118 399.614 327.673 402.73C327.11 403.221 326.417 403.539 325.678 403.646C324.939 403.753 324.184 403.644 323.505 403.333C318.974 400.507 315.398 396.383 313.243 391.496C311.088 386.609 310.454 381.187 311.424 375.936C312.394 370.684 314.923 365.846 318.681 362.051C322.439 358.257 327.253 355.682 332.495 354.661L332.517 354.655Z" fill="#C7B299"/>
<path d="M373.234 216.795C381.325 216.609 389.173 213.988 395.752 209.275C402.332 204.561 407.338 197.973 410.117 190.372C412.896 182.77 413.319 174.507 411.331 166.661C409.342 158.816 405.035 151.751 398.972 146.39C398.325 145.914 397.579 145.588 396.79 145.437C396.001 145.285 395.189 145.311 394.411 145.513C393.633 145.715 392.911 146.088 392.296 146.605C391.68 147.122 391.188 147.77 390.855 148.501L382.709 170.808L357.212 161.488C356.174 161.109 355.028 161.158 354.025 161.624C353.023 162.09 352.247 162.935 351.868 163.973L348.577 172.977C348.387 173.492 348.301 174.039 348.324 174.588C348.346 175.136 348.477 175.674 348.708 176.172C348.939 176.669 349.266 177.116 349.67 177.487C350.074 177.858 350.548 178.146 351.064 178.334L376.548 187.655L368.401 209.95C368.182 210.723 368.139 211.535 368.275 212.326C368.41 213.118 368.721 213.87 369.184 214.526C369.647 215.182 370.251 215.726 370.952 216.119C371.653 216.512 372.432 216.743 373.234 216.795Z" fill="#EFD4B9"/>
<path d="M373.301 216.766C372.188 216.649 371.131 216.224 370.247 215.538C369.363 214.853 368.688 213.934 368.299 212.885C375.331 211.561 381.898 208.433 387.357 203.806C392.816 199.18 396.978 193.214 399.437 186.494C401.895 179.775 402.565 172.531 401.381 165.474C400.197 158.418 397.199 151.79 392.682 146.241C393.646 145.65 394.76 145.35 395.891 145.378C397.021 145.405 398.119 145.758 399.054 146.394C405.103 151.757 409.398 158.817 411.378 166.654C413.359 174.492 412.934 182.744 410.16 190.337C407.385 197.93 402.388 204.511 395.82 209.224C389.252 213.937 381.418 216.564 373.336 216.762L373.301 216.766Z" fill="#C7B299"/>
<path d="M103.228 167.718C98.9892 171.416 95.9099 176.259 94.3922 181.616C92.8744 186.973 92.9887 192.595 94.7202 197.748C96.4516 202.901 99.7197 207.346 104.098 210.503C108.476 213.66 113.762 215.382 119.264 215.445C119.811 215.402 120.346 215.238 120.831 214.965C121.317 214.692 121.739 214.317 122.069 213.866C122.398 213.416 122.626 212.902 122.736 212.362C122.846 211.822 122.834 211.269 122.703 210.744L117.618 195.627L135.164 189.078C135.878 188.811 136.469 188.276 136.807 187.59C137.144 186.903 137.201 186.122 136.965 185.419L134.914 179.316C134.797 178.966 134.611 178.646 134.367 178.373C134.124 178.101 133.826 177.882 133.493 177.728C133.159 177.575 132.795 177.49 132.423 177.479C132.05 177.468 131.676 177.53 131.322 177.663L113.782 184.205L108.702 169.093C108.492 168.598 108.171 168.16 107.764 167.813C107.357 167.465 106.874 167.216 106.349 167.085C105.824 166.953 105.272 166.941 104.732 167.051C104.192 167.161 103.678 167.388 103.228 167.718Z" fill="#EFD4B9"/>
<path d="M103.205 167.763C103.848 167.328 104.592 167.076 105.354 167.036C106.116 166.996 106.864 167.169 107.515 167.536C104.323 171.348 102.141 175.883 101.185 180.696C100.228 185.509 100.529 190.435 102.059 194.992C103.588 199.548 106.294 203.577 109.91 206.686C113.525 209.794 117.927 211.874 122.684 212.722C122.42 213.455 121.952 214.105 121.337 214.595C120.722 215.084 119.987 215.391 119.219 215.479C113.724 215.409 108.447 213.684 104.076 210.528C99.7049 207.372 96.4422 202.932 94.7124 197.785C92.9827 192.638 92.866 187.024 94.3777 181.672C95.8894 176.321 98.9594 171.48 103.188 167.781L103.205 167.763Z" fill="#C7B299"/>
</svg>
