<svg width="500" height="500" viewBox="0 0 500 500" fill="none" xmlns="http://www.w3.org/2000/svg">
<path d="M127.071 136.465C126.455 136.8 125.981 137.336 125.754 137.957C125.527 138.578 125.565 139.233 125.86 139.777C126.449 140.853 126.791 142.051 126.866 143.3C126.94 144.55 126.747 145.827 126.296 147.058C125.845 148.289 125.145 149.45 124.238 150.473C123.331 151.496 122.233 152.361 121.009 153.019C120.393 153.353 119.919 153.89 119.692 154.511C119.465 155.132 119.503 155.786 119.798 156.33L129.258 173.769C129.553 174.313 130.081 174.702 130.725 174.851C131.369 174.999 132.077 174.894 132.694 174.56C134.007 173.848 135.5 174.192 136.129 175.351C136.755 176.505 136.232 177.95 134.919 178.662C134.302 178.996 133.829 179.533 133.602 180.154C133.375 180.775 133.413 181.429 133.708 181.973L138.714 191.203C139.01 191.747 139.537 192.136 140.182 192.284C140.826 192.433 141.534 192.328 142.15 191.994L202.551 159.231C203.167 158.896 203.64 158.36 203.867 157.739C204.094 157.118 204.056 156.463 203.761 155.919L190.97 132.338C190.675 131.794 190.147 131.405 189.503 131.257C188.858 131.109 188.15 131.213 187.534 131.547C186.221 132.26 184.725 131.91 184.096 130.751C183.47 129.597 183.993 128.152 185.306 127.44C185.922 127.106 186.396 126.569 186.623 125.948C186.85 125.327 186.812 124.673 186.517 124.129L179.285 110.797C178.99 110.253 178.462 109.864 177.818 109.716C177.174 109.567 176.466 109.672 175.85 110.006L158.426 119.457C157.81 119.791 157.337 120.328 157.11 120.949C156.883 121.57 156.921 122.224 157.216 122.768C157.845 123.928 157.312 125.37 156.005 126.079C154.692 126.792 153.199 126.448 152.57 125.288C152.275 124.745 151.747 124.356 151.102 124.207C150.458 124.059 149.75 124.163 149.134 124.498L127.071 136.465Z" fill="#FDEE82"/>
<path d="M148.399 164.714C147.785 165.049 147.314 165.586 147.088 166.206C146.863 166.825 146.901 167.478 147.194 168.022C147.489 168.565 148.016 168.953 148.66 169.101C149.303 169.249 150.01 169.145 150.625 168.811C151.241 168.478 151.714 167.942 151.941 167.322C152.167 166.702 152.129 166.048 151.834 165.505C151.539 164.961 151.012 164.572 150.367 164.423C149.723 164.275 149.015 164.38 148.399 164.714ZM148.595 153.989C152.419 151.915 154.055 147.427 152.226 144.056C150.395 140.68 145.74 139.604 141.917 141.678C138.093 143.752 136.457 148.241 138.288 151.617C140.116 154.987 144.771 156.064 148.595 153.989ZM182.997 159.212C187.462 156.79 189.372 151.565 187.237 147.628C185.099 143.686 179.677 142.438 175.212 144.86C170.747 147.282 168.837 152.507 170.975 156.449C173.111 160.386 178.532 161.634 182.997 159.212ZM167.382 133.181C167.068 133.342 166.785 133.557 166.551 133.814C166.316 134.07 166.135 134.363 166.016 134.675C165.898 134.986 165.845 135.31 165.862 135.628C165.878 135.946 165.963 136.25 166.112 136.524C166.261 136.798 166.47 137.035 166.727 137.222C166.985 137.409 167.285 137.541 167.611 137.612C167.937 137.682 168.281 137.689 168.624 137.632C168.967 137.576 169.302 137.456 169.608 137.281C170.206 136.938 170.66 136.404 170.875 135.791C171.09 135.179 171.048 134.537 170.757 134.002C170.467 133.468 169.952 133.083 169.321 132.929C168.691 132.776 167.995 132.866 167.382 133.181ZM161.032 165.832C160.416 166.166 159.942 166.703 159.715 167.324C159.488 167.945 159.526 168.599 159.821 169.143C160.116 169.687 160.644 170.076 161.288 170.224C161.933 170.373 162.641 170.268 163.257 169.934C163.873 169.6 164.347 169.063 164.574 168.442C164.801 167.821 164.762 167.167 164.467 166.623C164.172 166.079 163.645 165.69 163 165.542C162.356 165.393 161.648 165.498 161.032 165.832Z" fill="#F9E650"/>
<path d="M220.617 216.572C220.039 216.502 219.461 216.638 219.01 216.95C218.558 217.261 218.27 217.722 218.209 218.232C218.091 219.243 217.747 220.218 217.198 221.1C216.649 221.981 215.905 222.753 215.009 223.37C214.113 223.986 213.083 224.436 211.978 224.693C210.873 224.95 209.715 225.009 208.57 224.867C207.993 224.798 207.415 224.934 206.963 225.245C206.512 225.556 206.224 226.018 206.162 226.527L204.196 242.87C204.135 243.38 204.306 243.896 204.671 244.306C205.035 244.715 205.565 244.984 206.142 245.054C207.373 245.202 208.219 246.151 208.088 247.238C207.958 248.319 206.911 249.046 205.68 248.898C205.102 248.829 204.524 248.965 204.073 249.276C203.621 249.587 203.333 250.049 203.272 250.558L202.231 259.208C202.17 259.717 202.34 260.234 202.705 260.643C203.07 261.053 203.6 261.322 204.177 261.392L260.78 268.2C261.357 268.27 261.936 268.134 262.387 267.822C262.839 267.511 263.127 267.05 263.188 266.54L265.846 244.441C265.908 243.932 265.737 243.415 265.372 243.005C265.007 242.596 264.478 242.327 263.901 242.257C262.67 242.109 261.825 241.155 261.955 240.068C262.085 238.987 263.133 238.26 264.364 238.408C264.941 238.478 265.519 238.342 265.971 238.03C266.422 237.719 266.711 237.258 266.772 236.748L268.275 224.254C268.336 223.745 268.165 223.228 267.801 222.819C267.436 222.409 266.906 222.14 266.329 222.07L250.001 220.106C249.424 220.037 248.846 220.173 248.394 220.484C247.942 220.796 247.654 221.257 247.593 221.767C247.462 222.853 246.41 223.574 245.185 223.427C243.954 223.279 243.108 222.33 243.239 221.243C243.3 220.733 243.129 220.217 242.765 219.807C242.4 219.398 241.87 219.128 241.293 219.059L220.617 216.572Z" fill="#FDEE82"/>
<path d="M221.497 245.926C220.921 245.859 220.345 245.996 219.894 246.307C219.444 246.618 219.157 247.078 219.095 247.587C219.034 248.096 219.204 248.612 219.568 249.021C219.933 249.43 220.461 249.698 221.038 249.768C221.615 249.837 222.192 249.701 222.643 249.391C223.094 249.08 223.382 248.619 223.443 248.11C223.504 247.6 223.334 247.084 222.969 246.674C222.604 246.264 222.075 245.995 221.497 245.926ZM226.776 238.761C230.36 239.192 233.621 236.939 234.001 233.781C234.381 230.617 231.747 227.655 228.164 227.224C224.581 226.793 221.319 229.046 220.939 232.21C220.559 235.368 223.193 238.33 226.776 238.761ZM247.555 258.805C251.739 259.308 255.539 256.688 255.983 252.999C256.427 249.305 253.357 245.858 249.173 245.355C244.988 244.852 241.188 247.472 240.744 251.166C240.3 254.855 243.371 258.301 247.555 258.805ZM249.477 233.692C249.187 233.651 248.893 233.661 248.611 233.722C248.329 233.783 248.066 233.894 247.836 234.048C247.606 234.202 247.415 234.397 247.274 234.62C247.133 234.842 247.044 235.089 247.013 235.346C246.983 235.603 247.01 235.864 247.095 236.114C247.18 236.364 247.319 236.597 247.506 236.802C247.693 237.006 247.922 237.176 248.182 237.302C248.441 237.428 248.725 237.507 249.016 237.536C249.585 237.591 250.15 237.447 250.589 237.136C251.028 236.824 251.308 236.37 251.368 235.869C251.428 235.367 251.264 234.859 250.911 234.453C250.557 234.046 250.043 233.774 249.477 233.692ZM229.511 252.745C228.934 252.675 228.356 252.811 227.904 253.123C227.452 253.434 227.164 253.895 227.103 254.405C227.042 254.915 227.212 255.431 227.577 255.841C227.942 256.25 228.471 256.519 229.049 256.589C229.626 256.658 230.204 256.522 230.656 256.211C231.108 255.9 231.396 255.438 231.457 254.929C231.518 254.419 231.348 253.902 230.983 253.493C230.618 253.083 230.089 252.814 229.511 252.745Z" fill="#F9E650"/>
<path d="M347.943 134.64C347.102 134.391 346.208 134.447 345.458 134.796C344.707 135.145 344.162 135.758 343.942 136.5C343.511 137.974 342.754 139.336 341.715 140.508C340.676 141.68 339.374 142.639 337.886 143.33C336.398 144.021 334.753 144.429 333.045 144.532C331.337 144.635 329.6 144.43 327.935 143.929C327.094 143.68 326.2 143.736 325.45 144.085C324.7 144.433 324.154 145.047 323.934 145.789L316.881 169.591C316.661 170.334 316.784 171.145 317.223 171.846C317.662 172.547 318.381 173.081 319.222 173.33C321.015 173.862 322.032 175.487 321.563 177.069C321.096 178.645 319.355 179.46 317.563 178.929C316.722 178.68 315.828 178.736 315.078 179.085C314.328 179.434 313.783 180.047 313.563 180.789L309.829 193.386C309.609 194.129 309.733 194.94 310.172 195.641C310.611 196.342 311.33 196.876 312.171 197.125L394.61 221.555C395.451 221.805 396.345 221.749 397.095 221.4C397.846 221.051 398.391 220.438 398.611 219.696L408.149 187.51C408.369 186.768 408.245 185.957 407.806 185.255C407.367 184.554 406.648 184.02 405.807 183.771C404.015 183.24 402.999 181.607 403.468 180.024C403.935 178.449 405.676 177.633 407.469 178.165C408.31 178.414 409.204 178.358 409.954 178.009C410.704 177.66 411.249 177.047 411.469 176.305L416.861 158.109C417.081 157.366 416.958 156.555 416.519 155.854C416.08 155.153 415.361 154.619 414.52 154.37L390.739 147.323C389.898 147.073 389.005 147.129 388.254 147.478C387.504 147.827 386.959 148.44 386.739 149.182C386.27 150.765 384.523 151.571 382.739 151.042C380.946 150.511 379.929 148.886 380.398 147.303C380.618 146.561 380.495 145.75 380.055 145.048C379.616 144.347 378.897 143.813 378.056 143.564L347.943 134.64Z" fill="#FDEE82"/>
<path d="M341.832 178.508C340.992 178.262 340.1 178.32 339.352 178.669C338.604 179.018 338.061 179.63 337.84 180.37C337.62 181.112 337.743 181.922 338.182 182.622C338.62 183.322 339.338 183.856 340.178 184.104C341.018 184.353 341.91 184.297 342.66 183.949C343.409 183.601 343.953 182.989 344.173 182.247C344.393 181.505 344.27 180.694 343.831 179.992C343.392 179.291 342.673 178.757 341.832 178.508ZM351.492 169.19C356.711 170.736 362.129 168.211 363.493 163.61C364.858 159.002 361.69 153.932 356.471 152.386C351.252 150.839 345.834 153.365 344.468 157.973C343.105 162.573 346.273 167.643 351.492 169.19ZM377.321 204.243C383.415 206.049 389.727 203.114 391.32 197.741C392.914 192.361 389.22 186.46 383.125 184.654C377.031 182.849 370.719 185.783 369.124 191.164C367.532 196.537 371.226 202.437 377.321 204.243ZM386.526 167.391C386.106 167.256 385.665 167.196 385.231 167.216C384.796 167.236 384.376 167.334 383.996 167.505C383.616 167.676 383.282 167.917 383.016 168.212C382.75 168.508 382.555 168.853 382.445 169.227C382.334 169.6 382.309 169.995 382.372 170.388C382.435 170.782 382.583 171.165 382.809 171.515C383.035 171.866 383.334 172.177 383.688 172.43C384.042 172.683 384.443 172.873 384.869 172.988C385.702 173.214 386.577 173.144 387.309 172.792C388.04 172.44 388.571 171.834 388.787 171.104C389.003 170.374 388.887 169.577 388.465 168.884C388.043 168.19 387.347 167.654 386.526 167.391ZM352.024 190.672C351.183 190.423 350.289 190.479 349.539 190.828C348.789 191.177 348.244 191.79 348.024 192.532C347.804 193.274 347.927 194.085 348.366 194.787C348.805 195.488 349.524 196.022 350.365 196.271C351.206 196.52 352.1 196.464 352.85 196.116C353.6 195.767 354.145 195.154 354.365 194.411C354.585 193.669 354.462 192.858 354.023 192.157C353.584 191.455 352.865 190.921 352.024 190.672Z" fill="#F9E650"/>
<path d="M178.837 334.409C178.137 334.45 177.481 334.735 177.011 335.201C176.542 335.667 176.299 336.276 176.335 336.893C176.412 338.118 176.213 339.347 175.75 340.511C175.287 341.674 174.57 342.748 173.639 343.672C172.708 344.595 171.582 345.349 170.327 345.89C169.071 346.431 167.71 346.749 166.322 346.825C165.622 346.866 164.966 347.151 164.497 347.617C164.027 348.082 163.784 348.691 163.821 349.309L164.984 369.114C165.02 369.732 165.333 370.308 165.853 370.716C166.374 371.124 167.059 371.33 167.759 371.289C169.251 371.201 170.457 372.146 170.534 373.463C170.611 374.774 169.524 375.86 168.033 375.947C167.333 375.989 166.676 376.273 166.207 376.739C165.738 377.205 165.495 377.814 165.531 378.432L166.147 388.914C166.183 389.531 166.496 390.108 167.017 390.515C167.537 390.923 168.222 391.129 168.922 391.088L237.518 387.059C238.218 387.018 238.875 386.733 239.344 386.267C239.813 385.801 240.056 385.192 240.02 384.574L238.447 357.793C238.41 357.176 238.097 356.599 237.577 356.192C237.057 355.784 236.371 355.578 235.671 355.619C234.18 355.707 232.973 354.755 232.896 353.438C232.819 352.128 233.906 351.042 235.397 350.954C236.097 350.913 236.754 350.628 237.223 350.162C237.692 349.696 237.935 349.088 237.899 348.47L237.009 333.329C236.973 332.712 236.66 332.135 236.14 331.728C235.62 331.32 234.934 331.114 234.234 331.155L214.447 332.317C213.747 332.358 213.091 332.643 212.622 333.109C212.152 333.575 211.909 334.184 211.946 334.802C212.023 336.118 210.929 337.199 209.444 337.286C207.953 337.374 206.746 336.428 206.669 335.112C206.633 334.494 206.32 333.918 205.799 333.51C205.279 333.102 204.594 332.896 203.894 332.937L178.837 334.409Z" fill="#FDEE82"/>
<path d="M186.159 369.039C185.461 369.083 184.806 369.368 184.339 369.834C183.872 370.299 183.629 370.907 183.664 371.523C183.701 372.14 184.013 372.715 184.533 373.123C185.052 373.53 185.737 373.736 186.436 373.695C187.135 373.653 187.79 373.369 188.259 372.904C188.727 372.438 188.97 371.83 188.934 371.214C188.898 370.596 188.585 370.02 188.064 369.612C187.544 369.204 186.859 368.998 186.159 369.039ZM190.888 359.412C195.231 359.157 198.617 355.787 198.393 351.959C198.167 348.125 194.409 345.175 190.067 345.43C185.724 345.685 182.337 349.055 182.563 352.889C182.788 356.717 186.545 359.667 190.888 359.412ZM219.821 378.742C224.892 378.444 228.84 374.524 228.577 370.054C228.314 365.577 223.935 362.145 218.864 362.443C213.793 362.741 209.846 366.661 210.109 371.138C210.371 375.609 214.751 379.04 219.821 378.742ZM216.731 348.545C216.378 348.557 216.031 348.632 215.71 348.765C215.389 348.898 215.1 349.086 214.861 349.318C214.621 349.549 214.436 349.821 214.316 350.115C214.196 350.41 214.144 350.722 214.162 351.033C214.181 351.344 214.269 351.647 214.423 351.926C214.577 352.204 214.793 352.452 215.058 352.654C215.323 352.856 215.632 353.009 215.966 353.103C216.301 353.197 216.655 353.23 217.006 353.201C217.693 353.145 218.332 352.854 218.786 352.391C219.24 351.928 219.475 351.329 219.439 350.721C219.403 350.114 219.1 349.546 218.594 349.14C218.088 348.733 217.42 348.52 216.731 348.545ZM197.123 375.413C196.423 375.455 195.767 375.739 195.297 376.205C194.828 376.671 194.585 377.28 194.621 377.898C194.658 378.516 194.97 379.092 195.491 379.499C196.011 379.907 196.697 380.113 197.397 380.072C198.096 380.031 198.753 379.746 199.222 379.28C199.691 378.814 199.934 378.206 199.898 377.588C199.862 376.97 199.549 376.394 199.029 375.986C198.508 375.578 197.823 375.372 197.123 375.413Z" fill="#F9E650"/>
</svg>
