<svg width="500" height="500" viewBox="0 0 500 500" fill="none" xmlns="http://www.w3.org/2000/svg">
<path d="M203.447 427.264L205.558 430.296L207.937 432.726C214.459 438.806 218.693 431.894 218.693 431.894C218.693 431.894 222.35 426.6 224.253 424.274C226.155 421.948 224.552 419.071 224.552 419.071L223.169 416.394L223.364 416.234L222.893 415.859L222.616 415.323L222.421 415.484L220.063 413.608C220.063 413.608 217.55 411.479 214.9 412.894C212.25 414.31 206.347 416.872 206.347 416.872C206.347 416.872 198.746 419.687 203.447 427.264Z" fill="#FFBE1D"/>
<path d="M210.935 425.686C212.587 427.696 215.971 427.645 219.836 424.469C221.447 423.145 222.8 421.558 224.641 419.249C224.613 419.189 224.583 419.129 224.552 419.071L223.169 416.394L223.364 416.234L222.893 415.859L222.616 415.323L222.421 415.484L220.063 413.608C220.063 413.608 220.007 413.561 219.905 413.487C217.283 414.845 215.464 415.866 213.854 417.19C209.988 420.366 209.283 423.676 210.935 425.686Z" fill="#FFECB6"/>
<path d="M224.098 413.578L220.046 414.086C219.8 414.689 219.722 415.347 219.82 415.99C219.917 416.634 220.187 417.239 220.6 417.742C221.014 418.245 221.555 418.627 222.168 418.847C222.78 419.068 223.441 419.119 224.08 418.994L225.363 415.118C225.426 414.929 225.439 414.728 225.403 414.532C225.367 414.337 225.281 414.153 225.155 414C225.029 413.846 224.865 413.727 224.681 413.653C224.496 413.579 224.295 413.554 224.098 413.578Z" fill="#FCDC97"/>
<path d="M284.267 419.235L286.837 416.58L288.763 413.778C293.474 406.207 285.876 403.383 285.876 403.383C285.876 403.383 279.977 400.814 277.328 399.395C274.679 397.976 272.164 400.103 272.164 400.103L269.803 401.976L269.609 401.815L269.331 402.35L268.859 402.725L269.054 402.885L267.668 405.56C267.668 405.56 266.062 408.436 267.962 410.764C269.861 413.092 273.512 418.391 273.512 418.391C273.512 418.391 277.738 425.308 284.267 419.235Z" fill="#FFBE1D"/>
<path d="M281.278 412.192C282.932 410.184 282.231 406.873 278.369 403.692C276.76 402.366 274.942 401.344 272.321 399.982C272.268 400.021 272.215 400.061 272.164 400.103L269.804 401.976L269.609 401.815L269.331 402.35L268.859 402.725L269.054 402.885L267.668 405.56C267.668 405.56 267.633 405.624 267.58 405.738C269.418 408.05 270.769 409.638 272.378 410.964C276.239 414.145 279.624 414.2 281.278 412.192Z" fill="#FFECB6"/>
<path d="M266.862 401.607L268.14 405.485C268.779 405.61 269.44 405.56 270.052 405.34C270.665 405.121 271.207 404.739 271.621 404.237C272.035 403.735 272.305 403.13 272.404 402.486C272.502 401.843 272.425 401.184 272.18 400.581L268.129 400.069C267.932 400.044 267.731 400.069 267.546 400.142C267.361 400.216 267.198 400.335 267.072 400.488C266.945 400.642 266.859 400.825 266.823 401.021C266.786 401.216 266.799 401.418 266.862 401.607Z" fill="#FCDC97"/>
<path d="M327.765 356.732L328.666 360.315L330.031 363.43C333.979 371.424 340.386 366.458 340.386 366.458C340.386 366.458 345.68 362.801 348.282 361.299C350.884 359.796 350.404 356.538 350.404 356.538L350.058 353.545L350.297 353.464L349.988 352.946L349.919 352.348L349.68 352.429L348.138 349.84C348.138 349.84 346.541 346.959 343.562 347.345C340.582 347.731 334.155 348.039 334.155 348.039C334.155 348.039 326.049 347.982 327.765 356.732Z" fill="#FFBE1D"/>
<path d="M335.327 357.906C336.16 360.371 339.343 361.521 344.082 359.917C346.057 359.25 347.884 358.244 350.424 356.736C350.419 356.669 350.412 356.603 350.404 356.538L350.058 353.545L350.297 353.464L349.988 352.946L349.919 352.348L349.68 352.429L348.138 349.84C348.138 349.84 348.102 349.776 348.033 349.671C345.1 350.013 343.038 350.324 341.063 350.992C336.324 352.595 334.493 355.442 335.327 357.906Z" fill="#FFECB6"/>
<path d="M351.922 351.24L347.953 350.281C347.51 350.758 347.204 351.346 347.067 351.982C346.931 352.619 346.969 353.28 347.177 353.897C347.386 354.513 347.757 355.062 348.252 355.485C348.747 355.908 349.347 356.189 349.989 356.299L352.56 353.128C352.686 352.974 352.77 352.79 352.805 352.594C352.84 352.398 352.825 352.197 352.762 352.008C352.698 351.82 352.587 351.65 352.441 351.516C352.294 351.382 352.115 351.287 351.922 351.24Z" fill="#FCDC97"/>
<path d="M227.315 105.881L229.289 102.758L230.605 99.6223C233.673 91.2503 225.659 90.0339 225.659 90.0339C225.659 90.0339 219.36 88.7206 216.478 87.8715C213.595 87.0225 211.567 89.617 211.567 89.617L209.637 91.9313L209.414 91.814L209.251 92.3942L208.865 92.8571L209.089 92.9745L208.277 95.876C208.277 95.876 207.291 99.019 209.625 100.911C211.959 102.803 216.613 107.246 216.613 107.246C216.613 107.246 222.16 113.157 227.315 105.881Z" fill="#FFBE1D"/>
<path d="M222.952 99.5947C224.163 97.2917 222.801 94.1932 218.373 91.8658C216.527 90.8958 214.539 90.2656 211.696 89.4664C211.651 89.5154 211.608 89.5656 211.566 89.6172L209.637 91.9312L209.414 91.814L209.251 92.3943L208.865 92.8569L209.089 92.9745L208.277 95.876C208.277 95.876 208.255 95.946 208.227 96.0684C210.497 97.957 212.144 99.2363 213.989 100.206C218.418 102.534 221.742 101.898 222.952 99.5947Z" fill="#FFECB6"/>
<path d="M206.682 92.1696L208.724 95.7059C209.375 95.6981 210.012 95.5145 210.567 95.1746C211.122 94.8346 211.575 94.3509 211.878 93.7747C212.181 93.1984 212.322 92.551 212.287 91.901C212.252 91.2509 212.043 90.6224 211.68 90.0818L207.61 90.4055C207.411 90.4212 207.22 90.4869 207.054 90.5965C206.888 90.706 206.752 90.8558 206.66 91.0319C206.567 91.208 206.521 91.4047 206.525 91.6037C206.529 91.8026 206.583 91.9973 206.682 92.1696Z" fill="#FCDC97"/>
<path d="M211.525 354.498L212.588 350.96L213.012 347.586C213.718 338.697 205.672 339.679 205.672 339.679C205.672 339.679 199.252 340.106 196.247 340.063C193.243 340.02 191.986 343.064 191.986 343.064L190.749 345.812L190.502 345.759L190.502 346.361L190.255 346.911L190.501 346.964L190.499 349.977C190.499 349.977 190.394 353.269 193.15 354.464C195.907 355.66 201.584 358.689 201.584 358.689C201.584 358.689 208.515 362.892 211.525 354.498Z" fill="#FFBE1D"/>
<path d="M205.634 349.615C206.181 347.072 204.037 344.453 199.146 343.401C197.108 342.963 195.024 342.89 192.07 342.884C192.04 342.943 192.012 343.003 191.986 343.064L190.749 345.811L190.502 345.759L190.502 346.361L190.255 346.911L190.502 346.964L190.499 349.977C190.499 349.977 190.497 350.05 190.503 350.175C193.197 351.385 195.127 352.174 197.165 352.613C202.056 353.665 205.087 352.159 205.634 349.615Z" fill="#FFECB6"/>
<path d="M187.967 346.835L190.884 349.693C191.509 349.51 192.073 349.163 192.516 348.686C192.96 348.209 193.266 347.622 193.403 346.985C193.54 346.349 193.502 345.687 193.294 345.07C193.085 344.454 192.714 343.905 192.22 343.481L188.386 344.887C188.2 344.955 188.033 345.07 187.903 345.22C187.772 345.37 187.682 345.551 187.64 345.745C187.598 345.94 187.606 346.142 187.663 346.332C187.72 346.523 187.825 346.696 187.967 346.835Z" fill="#FCDC97"/>
<path d="M288.69 310.974L292.306 311.732L295.704 311.869C304.62 311.818 302.959 303.884 302.959 303.884C302.959 303.884 301.989 297.523 301.777 294.526C301.565 291.529 298.425 290.535 298.425 290.535L295.582 289.535L295.614 289.285L295.014 289.336L294.445 289.136L294.414 289.386L291.411 289.64C291.411 289.64 288.122 289.814 287.165 292.662C286.208 295.51 283.671 301.424 283.671 301.424C283.671 301.424 280.071 308.687 288.69 310.974Z" fill="#FFBE1D"/>
<path d="M293.056 304.689C295.636 305.019 298.064 302.66 298.697 297.697C298.961 295.629 298.856 293.547 298.612 290.603C298.55 290.578 298.488 290.555 298.425 290.534L295.583 289.535L295.614 289.285L295.014 289.336L294.446 289.136L294.414 289.386L291.411 289.64C291.411 289.64 291.338 289.644 291.214 289.66C290.237 292.447 289.614 294.437 289.351 296.505C288.717 301.468 290.475 304.36 293.056 304.689Z" fill="#FFECB6"/>
<path d="M294.326 286.85L291.727 289.999C291.961 290.606 292.356 291.138 292.868 291.54C293.381 291.941 293.992 292.197 294.638 292.279C295.284 292.361 295.94 292.268 296.537 292.008C297.134 291.748 297.649 291.332 298.029 290.803L296.303 287.103C296.219 286.922 296.091 286.766 295.93 286.649C295.77 286.531 295.582 286.457 295.384 286.431C295.187 286.406 294.987 286.431 294.802 286.505C294.617 286.578 294.453 286.697 294.326 286.85Z" fill="#FCDC97"/>
<path d="M298.778 151.668L300.245 155.059L302.093 157.914C307.278 165.168 312.801 159.235 312.801 159.235C312.801 159.235 317.437 154.773 319.763 152.871C322.089 150.969 321.09 147.831 321.09 147.831L320.267 144.932L320.49 144.814L320.102 144.353L319.937 143.773L319.714 143.892L317.775 141.585C317.775 141.585 315.735 138.999 312.857 139.86C309.978 140.721 303.685 142.06 303.685 142.06C303.685 142.06 295.675 143.309 298.778 151.668Z" fill="#FFBE1D"/>
<path d="M306.43 151.609C307.65 153.907 310.976 154.53 315.396 152.184C317.237 151.207 318.878 149.92 321.142 148.022C321.126 147.958 321.109 147.894 321.09 147.83L320.267 144.933L320.489 144.814L320.102 144.353L319.937 143.773L319.714 143.891L317.775 141.585C317.775 141.585 317.73 141.528 317.645 141.435C314.805 142.245 312.82 142.884 310.978 143.862C306.559 146.207 305.21 149.311 306.43 151.609Z" fill="#FFECB6"/>
<path d="M321.736 142.357L317.664 142.05C317.303 142.592 317.096 143.221 317.064 143.872C317.032 144.522 317.176 145.169 317.481 145.744C317.786 146.319 318.241 146.801 318.798 147.138C319.354 147.476 319.992 147.657 320.643 147.662L322.67 144.118C322.769 143.945 322.822 143.75 322.825 143.552C322.829 143.353 322.781 143.156 322.688 142.98C322.595 142.805 322.459 142.655 322.292 142.546C322.126 142.437 321.934 142.372 321.736 142.357Z" fill="#FCDC97"/>
<path d="M224.023 178.239L225.925 181.406L228.135 183.991C234.234 190.495 238.923 183.883 238.923 183.883C238.923 183.883 242.928 178.847 244.982 176.654C247.036 174.461 245.63 171.482 245.63 171.482L244.43 168.718L244.636 168.571L244.19 168.165L243.95 167.613L243.745 167.76L241.518 165.73C241.518 165.73 239.154 163.437 236.414 164.671C233.675 165.906 227.614 168.066 227.614 168.066C227.614 168.066 219.841 170.364 224.023 178.239Z" fill="#FFBE1D"/>
<path d="M231.599 177.168C233.113 179.284 236.492 179.461 240.562 176.551C242.258 175.339 243.715 173.846 245.707 171.665C245.683 171.603 245.658 171.542 245.63 171.482L244.43 168.718L244.636 168.571L244.19 168.165L243.95 167.613L243.745 167.76L241.518 165.73C241.518 165.73 241.465 165.679 241.369 165.599C238.661 166.778 236.778 167.674 235.082 168.887C231.013 171.796 230.086 175.052 231.599 177.168Z" fill="#FFECB6"/>
<path d="M245.546 165.971L241.469 166.206C241.183 166.791 241.061 167.442 241.115 168.091C241.169 168.739 241.398 169.361 241.777 169.891C242.155 170.421 242.67 170.838 243.266 171.099C243.863 171.36 244.518 171.455 245.164 171.374L246.705 167.593C246.78 167.409 246.807 167.208 246.784 167.011C246.761 166.813 246.688 166.625 246.572 166.463C246.456 166.301 246.302 166.171 246.122 166.085C245.943 165.999 245.744 165.96 245.546 165.971Z" fill="#FCDC97"/>
<path d="M313.044 230.138L314.34 226.679L314.989 223.34C316.287 214.519 308.193 214.961 308.193 214.961C308.193 214.961 301.759 214.959 298.764 214.715C295.769 214.471 294.312 217.424 294.312 217.424L292.894 220.083L292.651 220.014L292.611 220.615L292.327 221.147L292.57 221.216L292.366 224.222C292.366 224.222 292.041 227.5 294.712 228.877C297.383 230.254 302.844 233.655 302.844 233.655C302.844 233.655 309.48 238.312 313.044 230.138Z" fill="#FFBE1D"/>
<path d="M307.492 224.873C308.208 222.371 306.243 219.615 301.433 218.239C299.429 217.666 297.354 217.454 294.408 217.251C294.374 217.308 294.342 217.366 294.312 217.425L292.894 220.083L292.651 220.014L292.611 220.615L292.327 221.147L292.57 221.216L292.367 224.222C292.367 224.222 292.36 224.295 292.357 224.421C294.964 225.807 296.837 226.724 298.841 227.298C303.651 228.674 306.776 227.374 307.492 224.873Z" fill="#FFECB6"/>
<path d="M290.05 220.919L292.769 223.965C293.405 223.825 293.991 223.515 294.465 223.069C294.939 222.623 295.284 222.057 295.463 221.431C295.642 220.806 295.649 220.143 295.482 219.514C295.316 218.884 294.982 218.312 294.517 217.856L290.598 219.003C290.407 219.059 290.234 219.162 290.093 219.303C289.953 219.444 289.851 219.618 289.796 219.81C289.741 220.001 289.736 220.203 289.78 220.397C289.824 220.591 289.917 220.77 290.05 220.919Z" fill="#FCDC97"/>
<path d="M253.732 332.62L254.896 336.126L256.488 339.132C261.018 346.812 267.039 341.384 267.039 341.384C267.039 341.384 272.048 337.345 274.531 335.654C277.015 333.963 276.294 330.749 276.294 330.749L275.727 327.789L275.96 327.691L275.614 327.198L275.5 326.606L275.268 326.704L273.538 324.237C273.538 324.237 271.733 321.482 268.79 322.088C265.847 322.694 259.46 323.477 259.46 323.477C259.46 323.477 251.372 324.021 253.732 332.62Z" fill="#FFBE1D"/>
<path d="M261.36 333.231C262.374 335.627 265.634 336.538 270.241 334.587C272.161 333.775 273.908 332.637 276.329 330.944C276.319 330.879 276.308 330.814 276.294 330.749L275.727 327.79L275.96 327.691L275.614 327.198L275.501 326.606L275.268 326.704L273.538 324.237C273.538 324.237 273.498 324.176 273.422 324.076C270.522 324.635 268.489 325.098 266.569 325.911C261.961 327.86 260.346 330.835 261.36 333.231Z" fill="#FFECB6"/>
<path d="M277.416 325.353L273.387 324.691C272.98 325.199 272.718 325.808 272.629 326.453C272.54 327.098 272.627 327.755 272.881 328.354C273.135 328.954 273.546 329.473 274.071 329.858C274.596 330.244 275.215 330.48 275.863 330.542L278.192 327.189C278.306 327.025 278.376 326.836 278.397 326.638C278.417 326.44 278.388 326.24 278.31 326.057C278.233 325.874 278.11 325.713 277.954 325.59C277.797 325.467 277.612 325.385 277.416 325.353Z" fill="#FCDC97"/>
<path d="M89.5103 260.52L90.5803 256.984L91.012 253.61C91.7374 244.723 83.689 245.688 83.689 245.688C83.689 245.688 77.268 246.101 74.2636 246.051C71.2593 246.001 69.9957 249.043 69.9957 249.043L68.7529 251.788L68.5063 251.734L68.5045 252.337L68.2561 252.886L68.5028 252.939L68.494 255.952C68.494 255.952 68.3815 259.244 71.1355 260.446C73.8894 261.647 79.5596 264.689 79.5596 264.689C79.5596 264.689 86.4818 268.907 89.5103 260.52Z" fill="#FFBE1D"/>
<path d="M83.6296 255.624C84.1824 253.082 82.044 250.458 77.1549 249.396C75.1179 248.953 73.0339 248.875 70.0803 248.863C70.0503 248.922 70.022 248.982 69.9956 249.043L68.7532 251.788L68.5064 251.734L68.5047 252.337L68.256 252.886L68.5029 252.939L68.4941 255.952C68.4941 255.952 68.4918 256.026 68.4969 256.151C71.1886 257.366 73.1165 258.16 75.1541 258.603C80.0426 259.666 83.0773 258.166 83.6296 255.624Z" fill="#FFECB6"/>
<path d="M65.9684 252.805L68.879 255.669C69.5043 255.488 70.0691 255.142 70.5135 254.666C70.9579 254.19 71.2655 253.603 71.4038 252.967C71.5421 252.331 71.5058 251.669 71.2989 251.052C71.092 250.435 70.7221 249.885 70.2283 249.461L66.3919 250.858C66.205 250.926 66.0383 251.04 65.9074 251.19C65.7765 251.34 65.6857 251.52 65.6434 251.715C65.6011 251.909 65.6087 252.111 65.6655 252.302C65.7224 252.493 65.8265 252.666 65.9684 252.805Z" fill="#FCDC97"/>
<path d="M116.791 155.799L118.295 159.174L120.175 162.008C125.439 169.205 130.896 163.211 130.896 163.211C130.896 163.211 135.482 158.699 137.788 156.771C140.093 154.844 139.059 151.717 139.059 151.717L138.204 148.827L138.425 148.707L138.033 148.25L137.861 147.672L137.64 147.793L135.676 145.508C135.676 145.508 133.608 142.944 130.739 143.837C127.87 144.73 121.591 146.138 121.591 146.138C121.591 146.138 113.596 147.475 116.791 155.799Z" fill="#FFBE1D"/>
<path d="M124.442 155.656C125.686 157.941 129.02 158.527 133.413 156.132C135.243 155.135 136.871 153.83 139.113 151.908C139.097 151.843 139.079 151.78 139.059 151.716L138.204 148.828L138.425 148.706L138.032 148.25L137.862 147.672L137.64 147.793L135.676 145.508C135.676 145.508 135.629 145.451 135.543 145.359C132.713 146.201 130.735 146.861 128.904 147.859C124.511 150.253 123.197 153.372 124.442 155.656Z" fill="#FFECB6"/>
<path d="M139.644 146.237L135.569 145.974C135.215 146.52 135.014 147.152 134.989 147.802C134.964 148.453 135.115 149.098 135.427 149.669C135.738 150.241 136.199 150.718 136.759 151.049C137.319 151.381 137.959 151.555 138.61 151.553L140.598 147.987C140.695 147.813 140.746 147.617 140.747 147.419C140.748 147.22 140.699 147.024 140.603 146.849C140.508 146.674 140.37 146.526 140.203 146.419C140.035 146.312 139.843 146.249 139.644 146.237Z" fill="#FCDC97"/>
<path d="M157.79 243.436L158.602 247.041L159.89 250.188C163.639 258.278 170.167 253.472 170.167 253.472C170.167 253.472 175.549 249.947 178.188 248.509C180.827 247.072 180.427 243.803 180.427 243.803L180.155 240.802L180.396 240.727L180.1 240.202L180.046 239.602L179.805 239.677L178.327 237.051C178.327 237.051 176.802 234.131 173.814 234.443C170.826 234.756 164.393 234.904 164.393 234.904C164.393 234.904 156.291 234.647 157.79 243.436Z" fill="#FFBE1D"/>
<path d="M165.32 244.797C166.093 247.282 169.246 248.51 174.024 247.025C176.015 246.406 177.866 245.446 180.442 244.001C180.439 243.934 180.434 243.868 180.427 243.802L180.155 240.802L180.396 240.727L180.1 240.202L180.046 239.602L179.805 239.677L178.327 237.051C178.327 237.051 178.293 236.986 178.227 236.879C175.286 237.149 173.217 237.408 171.226 238.028C166.449 239.513 164.548 242.313 165.32 244.797Z" fill="#FFECB6"/>
<path d="M182.076 238.544L178.132 237.487C177.677 237.953 177.357 238.533 177.204 239.166C177.052 239.799 177.074 240.461 177.267 241.083C177.46 241.704 177.818 242.262 178.302 242.697C178.787 243.132 179.38 243.428 180.018 243.554L182.668 240.447C182.797 240.296 182.885 240.114 182.925 239.919C182.965 239.725 182.955 239.523 182.896 239.333C182.837 239.143 182.731 238.971 182.588 238.833C182.444 238.695 182.268 238.596 182.076 238.544Z" fill="#FCDC97"/>
<path d="M122.69 352.974L126.306 353.732L129.704 353.869C138.62 353.818 136.959 345.884 136.959 345.884C136.959 345.884 135.989 339.523 135.777 336.526C135.565 333.529 132.425 332.535 132.425 332.535L129.582 331.535L129.614 331.285L129.014 331.336L128.445 331.136L128.414 331.386L125.411 331.64C125.411 331.64 122.122 331.814 121.165 334.662C120.208 337.51 117.671 343.424 117.671 343.424C117.671 343.424 114.071 350.687 122.69 352.974Z" fill="#FFBE1D"/>
<path d="M127.056 346.689C129.636 347.019 132.064 344.66 132.697 339.697C132.961 337.629 132.856 335.547 132.612 332.603C132.55 332.578 132.488 332.555 132.425 332.534L129.583 331.535L129.614 331.285L129.014 331.336L128.446 331.136L128.414 331.386L125.411 331.64C125.411 331.64 125.338 331.644 125.214 331.66C124.237 334.447 123.614 336.437 123.351 338.505C122.717 343.468 124.475 346.36 127.056 346.689Z" fill="#FFECB6"/>
<path d="M128.326 328.85L125.727 331.999C125.961 332.606 126.356 333.138 126.868 333.54C127.381 333.941 127.992 334.197 128.638 334.279C129.284 334.361 129.94 334.268 130.537 334.008C131.134 333.748 131.649 333.332 132.029 332.803L130.303 329.103C130.219 328.922 130.091 328.766 129.93 328.649C129.77 328.531 129.582 328.457 129.384 328.431C129.187 328.406 128.987 328.431 128.802 328.505C128.617 328.578 128.453 328.697 128.326 328.85Z" fill="#FCDC97"/>
<path d="M373.834 193.06L374.532 196.688L375.719 199.875C379.211 208.079 385.887 203.482 385.887 203.482C385.887 203.482 391.378 200.129 394.061 198.775C396.744 197.422 396.447 194.142 396.447 194.142L396.27 191.133L396.514 191.066L396.235 190.532L396.199 189.93L395.956 189.998L394.562 187.327C394.562 187.327 393.13 184.36 390.134 184.578C387.137 184.796 380.703 184.741 380.703 184.741C380.703 184.741 372.613 184.227 373.834 193.06Z" fill="#FFBE1D"/>
<path d="M381.317 194.658C382.01 197.166 385.124 198.493 389.946 197.16C391.955 196.604 393.836 195.703 396.456 194.34C396.455 194.274 396.452 194.207 396.447 194.141L396.27 191.134L396.513 191.066L396.235 190.532L396.199 189.93L395.956 189.998L394.562 187.327C394.562 187.327 394.53 187.261 394.467 187.152C391.519 187.329 389.443 187.523 387.434 188.079C382.612 189.412 380.623 192.151 381.317 194.658Z" fill="#FFECB6"/>
<path d="M398.262 188.937L394.353 187.756C393.883 188.207 393.545 188.777 393.373 189.405C393.201 190.033 393.201 190.695 393.375 191.323C393.548 191.95 393.888 192.519 394.359 192.969C394.829 193.419 395.412 193.734 396.046 193.88L398.793 190.858C398.926 190.711 399.021 190.532 399.067 190.339C399.113 190.145 399.11 189.943 399.057 189.752C399.004 189.56 398.903 189.385 398.764 189.242C398.625 189.1 398.452 188.995 398.262 188.937Z" fill="#FCDC97"/>
<path d="M379.821 271.814L377.622 274.783L376.078 277.813C372.4 285.936 380.303 287.741 380.303 287.741C380.303 287.741 386.487 289.515 389.299 290.575C392.111 291.634 394.326 289.197 394.326 289.197L396.421 287.031L396.635 287.165L396.84 286.598L397.259 286.165L397.045 286.031L398.068 283.198C398.068 283.198 399.284 280.136 397.096 278.077C394.908 276.018 390.594 271.243 390.594 271.243C390.594 271.243 385.499 264.939 379.821 271.814Z" fill="#FFBE1D"/>
<path d="M383.707 278.406C382.33 280.613 383.459 283.804 387.704 286.452C389.473 287.555 391.409 288.33 394.185 289.337C394.234 289.292 394.28 289.245 394.326 289.196L396.421 287.031L396.635 287.164L396.84 286.598L397.259 286.165L397.044 286.031L398.068 283.197C398.068 283.197 398.095 283.129 398.132 283.009C396.008 280.958 394.46 279.561 392.691 278.457C388.447 275.809 385.084 276.198 383.707 278.406Z" fill="#FFECB6"/>
<path d="M399.385 287.012L397.61 283.334C396.961 283.294 396.312 283.43 395.733 283.728C395.154 284.026 394.667 284.475 394.323 285.027C393.978 285.58 393.789 286.215 393.776 286.866C393.763 287.517 393.926 288.159 394.247 288.725L398.33 288.702C398.529 288.701 398.725 288.65 398.898 288.553C399.072 288.456 399.219 288.317 399.324 288.148C399.429 287.979 399.49 287.786 399.501 287.588C399.512 287.389 399.472 287.191 399.385 287.012Z" fill="#FCDC97"/>
</svg>
