<svg width="500" height="500" viewBox="0 0 500 500" fill="none" xmlns="http://www.w3.org/2000/svg">
<path d="M416.619 173.954C416.619 181.195 411.913 189.312 403.941 191.034C397.521 192.422 395.588 198.483 388.31 198.483C379.314 198.483 375.114 192.187 369.929 186.519C366.102 182.336 360 183.589 360 173.954C360 163.996 369.203 162.37 373.439 158.852C378.408 154.726 375.645 147 388.31 147C399.562 147 401.43 152.729 406.623 158.033C410.81 162.309 416.619 162.612 416.619 173.954Z" fill="#EFEFEF"/>
<path d="M406.623 158.033C401.43 152.729 399.562 147 388.31 147C387.111 147 386.05 147.069 385.108 147.199C393.432 148.251 395.419 153.311 400.043 158.033C404.23 162.309 410.04 162.612 410.04 173.954C410.04 181.195 405.333 189.312 397.362 191.034C391.907 192.213 389.691 196.764 384.686 198.107C385.805 198.35 387.007 198.483 388.31 198.483C395.588 198.483 397.521 192.421 403.941 191.034C411.913 189.313 416.619 181.195 416.619 173.955C416.619 162.612 410.81 162.309 406.623 158.033Z" fill="#E2E2E2"/>
<path d="M404.595 174.066C404.595 179.585 399.692 184.058 393.642 184.058C387.594 184.058 382.689 179.585 382.689 174.066C382.689 168.549 387.594 164.075 393.642 164.075C399.692 164.075 404.595 168.549 404.595 174.066Z" fill="#FCCF3F"/>
<path d="M398.737 165.22C399.538 166.608 399.992 168.189 399.992 169.866C399.992 175.385 395.088 179.858 389.039 179.858C387.2 179.858 385.467 179.444 383.945 178.713C385.779 181.891 389.433 184.058 393.644 184.058C399.692 184.058 404.596 179.585 404.596 174.067C404.596 170.226 402.221 166.892 398.737 165.22Z" fill="#EFA335"/>
<path d="M388.812 170.285C386.882 171.628 385.774 173.666 385.774 175.878C385.774 175.977 385.796 176.076 385.838 176.167C385.879 176.259 385.94 176.343 386.017 176.413C386.094 176.483 386.186 176.539 386.286 176.577C386.387 176.615 386.495 176.635 386.604 176.635C386.713 176.635 386.821 176.615 386.921 176.577C387.022 176.539 387.113 176.483 387.19 176.413C387.267 176.343 387.328 176.259 387.37 176.167C387.412 176.076 387.433 175.977 387.433 175.878C387.433 174.142 388.302 172.542 389.818 171.489C389.993 171.367 390.107 171.187 390.137 170.988C390.166 170.789 390.108 170.587 389.975 170.428C389.908 170.349 389.826 170.282 389.732 170.233C389.638 170.183 389.534 170.15 389.426 170.137C389.318 170.124 389.208 170.13 389.103 170.155C388.997 170.181 388.899 170.225 388.812 170.285H388.812Z" fill="#FFDD88"/>
<path d="M158.451 240.108C158.451 251.42 151.098 264.101 138.645 266.791C128.615 268.958 125.596 278.428 114.225 278.428C100.172 278.428 93.6115 268.592 85.5108 259.737C79.5326 253.202 70 255.16 70 240.108C70 224.551 84.3765 222.011 90.9944 216.516C98.757 210.07 94.4409 198 114.225 198C131.804 198 134.722 206.951 142.834 215.235C149.376 221.915 158.451 222.389 158.451 240.108Z" fill="#EFEFEF"/>
<path d="M142.834 215.235C134.722 206.951 131.804 198 114.225 198C112.352 198 110.696 198.108 109.224 198.31C122.226 199.954 125.332 207.859 132.555 215.235C139.097 221.915 148.172 222.389 148.172 240.108C148.172 251.42 140.819 264.101 128.366 266.791C119.845 268.631 116.383 275.741 108.563 277.84C110.312 278.22 112.19 278.427 114.225 278.427C125.596 278.427 128.615 268.957 138.645 266.791C151.098 264.101 158.45 251.42 158.45 240.108C158.45 222.39 149.375 221.916 142.834 215.235Z" fill="#E2E2E2"/>
<path d="M139.667 240.283C139.667 248.904 132.007 255.892 122.556 255.892C113.107 255.892 105.446 248.904 105.446 240.283C105.446 231.663 113.107 224.674 122.556 224.674C132.007 224.674 139.667 231.663 139.667 240.283Z" fill="#FCCF3F"/>
<path d="M130.516 226.463C131.767 228.631 132.476 231.101 132.476 233.722C132.476 242.342 124.815 249.33 115.365 249.33C112.492 249.33 109.786 248.683 107.408 247.542C110.272 252.507 115.981 255.892 122.559 255.892C132.008 255.892 139.67 248.904 139.67 240.283C139.669 234.284 135.958 229.076 130.516 226.463Z" fill="#EFA335"/>
<path d="M115.01 234.376C111.994 236.473 110.264 239.658 110.264 243.113C110.264 243.268 110.298 243.422 110.363 243.565C110.428 243.709 110.523 243.839 110.644 243.949C110.764 244.059 110.907 244.146 111.064 244.205C111.221 244.264 111.39 244.295 111.56 244.295C111.73 244.295 111.898 244.264 112.056 244.205C112.213 244.146 112.356 244.059 112.476 243.949C112.596 243.839 112.692 243.709 112.757 243.565C112.822 243.422 112.855 243.268 112.855 243.113C112.855 240.401 114.213 237.902 116.581 236.256C116.854 236.066 117.033 235.784 117.079 235.474C117.125 235.163 117.034 234.848 116.826 234.599C116.722 234.475 116.594 234.372 116.446 234.294C116.299 234.216 116.137 234.165 115.968 234.144C115.8 234.124 115.628 234.133 115.464 234.173C115.299 234.213 115.145 234.282 115.01 234.376H115.01Z" fill="#FFDD88"/>
<path d="M264 102.037C264 112.524 257.184 124.28 245.639 126.774C236.34 128.783 233.541 137.562 223 137.562C209.972 137.562 203.889 128.444 196.38 120.235C190.837 114.176 182 115.991 182 102.037C182 87.6148 195.328 85.2596 201.463 80.1653C208.66 74.1895 204.658 63 223 63C239.296 63 242.002 71.2978 249.522 78.9781C255.587 85.1711 264 85.6107 264 102.037Z" fill="#EFEFEF"/>
<path d="M249.522 78.9781C242.002 71.2978 239.297 63 223 63C221.264 63 219.728 63.1005 218.364 63.2877C230.418 64.8114 233.297 72.1396 239.993 78.9781C246.058 85.1711 254.471 85.6107 254.471 102.037C254.471 112.524 247.655 124.28 236.11 126.774C228.21 128.48 225.001 135.072 217.751 137.017C219.372 137.369 221.113 137.561 223 137.561C233.542 137.561 236.341 128.782 245.639 126.774C257.184 124.28 264 112.524 264 102.037C264 85.6108 255.587 85.1718 249.522 78.9781Z" fill="#E2E2E2"/>
<path d="M246.587 102.199C246.587 110.191 239.485 116.67 230.724 116.67C221.963 116.67 214.861 110.191 214.861 102.199C214.861 94.2079 221.963 87.729 230.724 87.729C239.485 87.729 246.587 94.2079 246.587 102.199Z" fill="#FCCF3F"/>
<path d="M238.101 89.387C239.261 91.3975 239.919 93.6872 239.919 96.1166C239.919 104.108 232.817 110.587 224.056 110.587C221.392 110.587 218.883 109.987 216.679 108.929C219.334 113.532 224.627 116.67 230.725 116.67C239.485 116.67 246.588 110.191 246.588 102.2C246.587 96.6377 243.147 91.8095 238.101 89.387Z" fill="#EFA335"/>
<path d="M223.726 96.7231C220.93 98.6675 219.327 101.62 219.327 104.823C219.327 104.967 219.358 105.109 219.418 105.242C219.478 105.375 219.567 105.496 219.678 105.598C219.79 105.699 219.922 105.78 220.068 105.835C220.214 105.89 220.37 105.919 220.528 105.919C220.686 105.919 220.842 105.89 220.987 105.835C221.133 105.78 221.266 105.699 221.377 105.598C221.489 105.496 221.577 105.375 221.638 105.242C221.698 105.109 221.729 104.967 221.729 104.823C221.729 102.309 222.988 99.992 225.182 98.466C225.436 98.2897 225.602 98.0288 225.645 97.7407C225.687 97.4526 225.603 97.1609 225.41 96.9297C225.314 96.8153 225.194 96.7192 225.058 96.6469C224.922 96.5746 224.771 96.5275 224.615 96.5083C224.458 96.4891 224.299 96.4982 224.147 96.5351C223.994 96.5719 223.851 96.6358 223.726 96.7231H223.726Z" fill="#FFDD88"/>
<path d="M225.999 352.753C225.999 362.088 219.932 372.554 209.654 374.774C201.376 376.562 198.884 384.378 189.5 384.378C177.901 384.378 172.487 376.26 165.801 368.953C160.867 363.559 153 365.175 153 352.753C153 339.913 164.865 337.816 170.327 333.281C176.734 327.961 173.171 318 189.5 318C204.008 318 206.416 325.387 213.111 332.224C218.51 337.738 225.999 338.129 225.999 352.753Z" fill="#EFEFEF"/>
<path d="M213.111 332.224C206.416 325.387 204.008 318 189.5 318C187.954 318 186.587 318.089 185.373 318.256C196.104 319.613 198.667 326.136 204.628 332.224C210.027 337.738 217.517 338.129 217.517 352.753C217.517 362.088 211.449 372.554 201.171 374.774C194.138 376.293 191.281 382.161 184.828 383.893C186.271 384.206 187.821 384.378 189.5 384.378C198.885 384.378 201.377 376.562 209.654 374.774C219.932 372.554 226 362.088 226 352.753C226 338.129 218.51 337.738 213.111 332.224Z" fill="#E2E2E2"/>
<path d="M210.498 352.897C210.498 360.012 204.176 365.779 196.376 365.779C188.577 365.779 182.254 360.012 182.254 352.897C182.254 345.783 188.577 340.015 196.376 340.015C204.176 340.015 210.498 345.783 210.498 352.897Z" fill="#FCCF3F"/>
<path d="M202.943 341.491C203.976 343.281 204.561 345.319 204.561 347.482C204.561 354.596 198.239 360.364 190.44 360.364C188.068 360.364 185.835 359.83 183.873 358.888C186.236 362.985 190.948 365.779 196.377 365.779C204.175 365.779 210.498 360.012 210.498 352.897C210.498 347.946 207.435 343.647 202.943 341.491Z" fill="#EFA335"/>
<path d="M190.147 348.022C187.657 349.753 186.23 352.381 186.23 355.232C186.23 355.361 186.258 355.487 186.311 355.606C186.365 355.724 186.444 355.832 186.543 355.922C186.642 356.013 186.76 356.085 186.89 356.134C187.02 356.183 187.159 356.208 187.299 356.208C187.44 356.208 187.579 356.183 187.709 356.134C187.838 356.085 187.956 356.013 188.055 355.922C188.155 355.832 188.234 355.724 188.287 355.606C188.341 355.487 188.369 355.361 188.369 355.232C188.369 352.995 189.489 350.932 191.443 349.573C191.669 349.416 191.817 349.184 191.854 348.928C191.892 348.671 191.817 348.411 191.645 348.206C191.56 348.104 191.454 348.018 191.332 347.954C191.211 347.889 191.077 347.848 190.938 347.83C190.798 347.813 190.657 347.822 190.521 347.854C190.385 347.887 190.258 347.944 190.146 348.022H190.147Z" fill="#FFDD88"/>
</svg>
