<svg width="500" height="500" viewBox="0 0 500 500" fill="none" xmlns="http://www.w3.org/2000/svg">
<path d="M209.255 421.817C208.263 421.332 207.287 420.813 206.33 420.261C204.917 419.444 203.713 418.309 202.814 416.946C201.915 415.583 201.347 414.029 201.153 412.408C200.96 410.787 201.147 409.143 201.699 407.607C202.252 406.07 203.155 404.684 204.336 403.557L209.845 398.311C218.452 390.111 229.095 384.363 240.672 381.662C252.249 378.962 264.337 379.407 275.683 382.951L309.821 391.292C311.515 391.822 312.991 392.887 314.028 394.328C315.064 395.769 315.605 397.507 315.569 399.281C315.533 401.056 314.921 402.771 313.827 404.168C312.732 405.565 311.214 406.569 309.499 407.029L281.673 414.485L209.255 421.817Z" fill="#F2B9A1"/>
<path d="M275.683 382.951C264.337 379.407 252.249 378.962 240.672 381.662C229.095 384.363 218.452 390.111 209.845 398.311L204.336 403.557C203.155 404.684 202.252 406.07 201.699 407.607C201.147 409.143 200.96 410.787 201.153 412.408C201.347 414.029 201.915 415.583 202.814 416.946C203.713 418.309 204.917 419.444 206.33 420.261C207.29 420.815 208.267 421.334 209.255 421.817L219.552 420.774L261.827 408.842L285.926 402.384C291.41 400.915 300.693 397.432 305.317 394.139L309.443 391.198L275.683 382.951Z" fill="#F4C8AD"/>
<path d="M291.518 396.834C297.771 395.159 303.764 393.257 309.412 391.189L275.686 382.951C265.317 379.717 254.315 379.067 243.637 381.058C232.96 383.049 222.931 387.62 214.425 394.374C222.291 405.308 254.97 406.627 291.518 396.834Z" fill="#FBDAC2"/>
<path d="M224.932 403.322C216.759 405.448 208.792 408.297 201.124 411.835C201.16 412.526 201.264 413.212 201.436 413.882C201.631 414.61 201.915 415.304 202.257 415.964L202.36 415.915C209.964 412.371 217.875 409.528 225.995 407.422L224.932 403.322Z" fill="#F2B9A1"/>
<path d="M282.845 409.688C285.962 409.997 289.197 410.853 291.81 411.769L295.269 410.842L296.115 408.901C293.024 407.552 288.023 405.946 283.262 405.474L282.845 409.688Z" fill="#F4C8AD"/>
<circle cx="253.923" cy="409.315" r="2.11765" transform="rotate(-15 253.923 409.315)" fill="#614207"/>
<circle cx="271.876" cy="407.793" r="2.11765" transform="rotate(-15 271.876 407.793)" fill="#614207"/>
<circle cx="290.362" cy="395.989" r="2.11765" transform="rotate(-15 290.362 395.989)" fill="#614207"/>
<circle cx="269.236" cy="395.895" r="1.58824" transform="rotate(-15 269.236 395.895)" fill="#614207"/>
<path d="M234.566 395.909C244.284 393.741 253.425 397.713 259.446 403.859" stroke="#D8AD8F" stroke-width="5"/>
<path d="M249.217 385.132C258.935 382.964 268.076 386.936 274.097 393.083" stroke="#D8AD8F" stroke-width="5"/>
<path d="M135.632 320.924C135.44 321.585 135.226 322.239 134.99 322.885C134.639 323.839 134.072 324.699 133.331 325.396C132.591 326.092 131.699 326.607 130.725 326.899C129.751 327.191 128.722 327.251 127.721 327.077C126.719 326.902 125.773 326.496 124.955 325.891L121.149 323.072C115.2 318.667 110.537 312.751 107.645 305.938C104.753 299.124 103.735 291.661 104.699 284.322L106.172 262.49C106.316 261.394 106.812 260.375 107.585 259.585C108.358 258.795 109.367 258.278 110.459 258.111C111.551 257.943 112.669 258.135 113.643 258.658C114.617 259.18 115.395 260.005 115.86 261.007L123.404 277.281L135.632 320.924Z" fill="#F2B9A1"/>
<path d="M104.699 284.322C103.735 291.661 104.753 299.124 107.645 305.938C110.537 312.751 115.2 318.667 121.149 323.072L124.955 325.891C125.773 326.496 126.719 326.902 127.721 327.077C128.722 327.251 129.751 327.191 130.725 326.899C131.699 326.607 132.591 326.092 133.331 325.396C134.072 324.699 134.639 323.839 134.99 322.885C135.227 322.237 135.441 321.582 135.632 320.924L133.893 314.719L122.06 290.059L115.527 275.964C114.04 272.757 110.912 267.434 108.398 264.948L106.154 262.732L104.699 284.322Z" fill="#F4C8AD"/>
<path d="M111.525 273.126C109.83 269.469 108.024 265.995 106.152 262.751L104.698 284.32C103.821 291.026 104.597 297.845 106.958 304.183C109.319 310.521 113.194 316.185 118.245 320.682C124.113 314.689 121.434 294.501 111.525 273.126Z" fill="#FBDAC2"/>
<path d="M122.613 313.281C124.789 318.068 127.387 322.651 130.376 326.978C130.796 326.882 131.206 326.745 131.599 326.568C132.025 326.371 132.42 326.122 132.788 325.842L132.747 325.784C129.762 321.498 127.173 316.948 125.014 312.191L122.613 313.281Z" fill="#F2B9A1"/>
<path d="M120.336 277.075C120.193 275.13 120.373 273.053 120.656 271.353L119.718 269.33L118.437 269.018C117.939 271.058 117.488 274.298 117.707 277.269L120.336 277.075Z" fill="#F4C8AD"/>
<circle cx="123.194" cy="294.857" r="1.31861" transform="rotate(-114.871 123.194 294.857)" fill="#614207"/>
<circle cx="120.345" cy="284.006" r="1.31861" transform="rotate(-114.871 120.345 284.006)" fill="#614207"/>
<circle cx="111.13" cy="273.926" r="1.31861" transform="rotate(-114.871 111.13 273.926)" fill="#614207"/>
<circle cx="113.327" cy="286.896" r="0.98896" transform="rotate(-114.871 113.327 286.896)" fill="#614207"/>
<path d="M117.037 308.162C114.669 302.432 116.13 296.401 119.258 292.051" stroke="#D8AD8F" stroke-width="5"/>
<path d="M108.862 300.325C106.494 294.595 107.955 288.563 111.083 284.214" stroke="#D8AD8F" stroke-width="5"/>
<path d="M282.596 239.653C282.758 240.321 282.896 240.995 283.011 241.674C283.18 242.676 283.114 243.704 282.816 244.676C282.519 245.649 281.999 246.538 281.298 247.274C280.597 248.011 279.735 248.574 278.778 248.918C277.822 249.263 276.798 249.38 275.789 249.261L271.085 248.7C263.735 247.826 256.752 245.001 250.861 240.519C244.97 236.037 240.386 230.061 237.582 223.211L228.033 203.522C227.615 202.499 227.54 201.368 227.82 200.299C228.1 199.23 228.719 198.28 229.585 197.593C230.45 196.906 231.516 196.519 232.62 196.489C233.725 196.46 234.81 196.79 235.711 197.43L250.333 207.82L282.596 239.653Z" fill="#F2B9A1"/>
<path d="M237.582 223.211C240.386 230.061 244.97 236.037 250.861 240.519C256.752 245.001 263.735 247.826 271.085 248.7L275.789 249.261C276.798 249.38 277.822 249.263 278.778 248.918C279.735 248.574 280.597 248.011 281.298 247.274C281.999 246.538 282.519 245.649 282.816 244.676C283.114 243.704 283.18 242.676 283.011 241.674C282.896 240.993 282.757 240.319 282.596 239.653L278.009 235.127L255.503 219.582L242.839 210.583C239.958 208.535 234.602 205.464 231.187 204.553L228.138 203.741L237.582 223.211Z" fill="#F4C8AD"/>
<path d="M237.957 210.103C234.671 207.768 231.38 205.648 228.146 203.759L237.581 223.21C240.145 229.468 244.201 235.004 249.394 239.337C254.588 243.669 260.762 246.666 267.378 248.066C269.501 239.952 257.163 223.75 237.957 210.103Z" fill="#FBDAC2"/>
<path d="M267.501 239.473C271.765 242.55 276.294 245.241 281.035 247.516C281.352 247.225 281.64 246.902 281.893 246.554C282.165 246.171 282.385 245.759 282.566 245.333L282.502 245.304C277.783 243.062 273.279 240.395 269.045 237.335L267.501 239.473Z" fill="#F2B9A1"/>
<path d="M247.567 209.162C246.478 207.544 245.604 205.652 245.006 204.035L243.189 202.743L241.922 203.108C242.502 205.126 243.716 208.164 245.38 210.635L247.567 209.162Z" fill="#F4C8AD"/>
<circle cx="258.868" cy="223.186" r="1.31861" transform="rotate(-144.604 258.868 223.186)" fill="#614207"/>
<circle cx="251.012" cy="215.177" r="1.31861" transform="rotate(-144.604 251.012 215.177)" fill="#614207"/>
<circle cx="238.011" cy="210.993" r="1.31861" transform="rotate(-144.604 238.011 210.993)" fill="#614207"/>
<circle cx="246.351" cy="221.166" r="0.98896" transform="rotate(-144.604 246.351 221.166)" fill="#614207"/>
<path d="M260.12 237.793C255.222 233.992 253.499 228.03 254.058 222.701" stroke="#D8AD8F" stroke-width="5"/>
<path d="M249.134 235.042C244.237 231.241 242.514 225.279 243.073 219.95" stroke="#D8AD8F" stroke-width="5"/>
<path d="M255.646 86.1174C255.137 85.6556 254.643 85.1763 254.167 84.6802C253.463 83.9468 252.939 83.0594 252.638 82.0884C252.337 81.1174 252.266 80.0896 252.431 79.0865C252.596 78.0834 252.993 77.1325 253.59 76.3094C254.186 75.4863 254.967 74.8135 255.869 74.3445L260.072 72.1611C266.641 68.7485 274.002 67.1551 281.394 67.5459C288.786 67.9368 295.939 70.2977 302.11 74.384L321.082 85.288C322.003 85.8983 322.702 86.7912 323.072 87.8325C323.442 88.8738 323.465 90.0072 323.135 91.0622C322.806 92.1172 322.143 93.0369 321.247 93.6828C320.35 94.3288 319.268 94.6662 318.163 94.6442L300.228 94.2816L255.646 86.1174Z" fill="#F2B9A1"/>
<path d="M302.11 74.384C295.939 70.2977 288.786 67.9368 281.394 67.5459C274.002 67.1551 266.641 68.7485 260.072 72.1611L255.869 74.3445C254.967 74.8135 254.186 75.4863 253.59 76.3094C252.993 77.1325 252.596 78.0834 252.431 79.0865C252.266 80.0896 252.337 81.1174 252.638 82.0884C252.939 83.0594 253.463 83.9468 254.167 84.6802C254.645 85.1779 255.139 85.6574 255.646 86.1174L261.985 87.2782L289.337 87.4672L304.869 87.7812C308.403 87.8527 314.559 87.3784 317.895 86.2101L320.872 85.1664L302.11 74.384Z" fill="#F4C8AD"/>
<path d="M309.175 85.4312C313.205 85.5127 317.119 85.4138 320.855 85.1557L302.112 74.3842C296.471 70.6532 290.003 68.3579 283.272 67.6984C276.541 67.0389 269.751 68.0352 263.494 70.6004C266.304 78.503 285.62 84.955 309.175 85.4312Z" fill="#FBDAC2"/>
<path d="M268.227 77.7729C262.971 77.6283 257.712 77.9514 252.513 78.7384C252.414 79.1579 252.358 79.5862 252.345 80.017C252.335 80.4863 252.385 80.9502 252.475 81.4044L252.545 81.3927C257.707 80.5909 262.931 80.2617 268.153 80.4091L268.227 77.7729Z" fill="#F2B9A1"/>
<path d="M301.761 91.6155C303.571 92.3406 305.358 93.4134 306.762 94.4138L308.991 94.4589L309.833 93.4445C308.219 92.1022 305.506 90.2748 302.74 89.1677L301.761 91.6155Z" fill="#F4C8AD"/>
<circle cx="284.528" cy="86.3809" r="1.31861" transform="rotate(1.15825 284.528 86.3809)" fill="#614207"/>
<circle cx="295.529" cy="88.5816" r="1.31861" transform="rotate(1.15825 295.529 88.5816)" fill="#614207"/>
<circle cx="308.63" cy="84.7251" r="1.31861" transform="rotate(1.15825 308.63 84.7251)" fill="#614207"/>
<circle cx="296.011" cy="81.008" r="0.98896" transform="rotate(1.15825 296.011 81.008)" fill="#614207"/>
<path d="M275.274 75.0088C281.462 75.396 286.24 79.3555 288.776 84.0752" stroke="#D8AD8F" stroke-width="5"/>
<path d="M285.903 71.1021C292.091 71.4893 296.87 75.4488 299.406 80.1684" stroke="#D8AD8F" stroke-width="5"/>
<path d="M353.842 180.943C353.519 179.887 353.233 178.82 352.984 177.744C352.617 176.153 352.626 174.498 353.01 172.911C353.393 171.324 354.142 169.849 355.195 168.601C356.248 167.354 357.578 166.369 359.078 165.725C360.579 165.081 362.208 164.796 363.838 164.891L371.432 165.34C383.299 166.04 394.763 169.902 404.634 176.525C414.506 183.148 422.427 192.29 427.575 203.005L444.762 233.657C445.531 235.257 445.759 237.063 445.412 238.804C445.066 240.544 444.164 242.126 442.842 243.31C441.519 244.494 439.848 245.216 438.08 245.369C436.312 245.522 434.542 245.096 433.036 244.157L408.603 228.896L353.842 180.943Z" fill="#F2B9A1"/>
<path d="M427.575 203.005C422.427 192.29 414.506 183.148 404.634 176.525C394.763 169.902 383.299 166.04 371.432 165.34L363.838 164.891C362.208 164.796 360.579 165.081 359.078 165.725C357.578 166.369 356.248 167.354 355.195 168.601C354.142 169.849 353.393 171.324 353.01 172.911C352.626 174.498 352.617 176.153 352.984 177.744C353.234 178.823 353.521 179.891 353.842 180.943L361.628 187.761L399.191 210.534L420.352 223.751C425.167 226.758 434.046 231.17 439.609 232.306L444.573 233.316L427.575 203.005Z" fill="#F4C8AD"/>
<path d="M428.225 224.054C433.715 227.483 439.194 230.568 444.559 233.287L427.577 203.006C422.869 193.218 415.839 184.73 407.099 178.281C398.36 171.831 388.176 167.616 377.435 166.003C374.806 179.214 396.133 204.01 428.225 224.054Z" fill="#FBDAC2"/>
<path d="M378.059 179.791C370.93 175.265 363.412 171.382 355.594 168.189C355.113 168.686 354.683 169.23 354.31 169.813C353.911 170.453 353.598 171.134 353.348 171.834L353.454 171.875C361.232 175.018 368.708 178.864 375.787 183.365L378.059 179.791Z" fill="#F2B9A1"/>
<path d="M412.91 226.48C414.81 228.97 416.391 231.92 417.504 234.455L420.541 236.352L422.537 235.647C421.415 232.466 419.178 227.714 416.275 223.911L412.91 226.48Z" fill="#F4C8AD"/>
<circle cx="393.454" cy="205.078" r="2.11765" transform="rotate(31.9885 393.454 205.078)" fill="#614207"/>
<circle cx="406.813" cy="217.167" r="2.11765" transform="rotate(31.9885 406.813 217.167)" fill="#614207"/>
<circle cx="428.054" cy="222.632" r="2.11765" transform="rotate(31.9885 428.054 222.632)" fill="#614207"/>
<circle cx="413.712" cy="207.12" r="1.58824" transform="rotate(31.9885 413.712 207.12)" fill="#614207"/>
<path d="M390.052 181.779C398.267 187.406 401.598 196.799 401.21 205.395" stroke="#D8AD8F" stroke-width="5"/>
<path d="M407.926 185.14C416.14 190.767 419.472 200.161 419.084 208.756" stroke="#D8AD8F" stroke-width="5"/>
<path d="M91.5702 180.756C91.0216 180.841 90.4702 180.907 89.917 180.954C89.0992 181.022 88.2767 180.9 87.5146 180.595C86.7526 180.291 86.0719 179.813 85.5267 179.2C84.9814 178.587 84.5866 177.855 84.3735 177.062C84.1605 176.27 84.135 175.438 84.2991 174.634L85.0657 170.888C86.2628 165.035 89.0039 159.608 93.0049 155.17C97.0058 150.733 102.121 147.446 107.82 145.651L124.298 139.293C125.149 139.025 126.064 139.041 126.906 139.338C127.747 139.634 128.469 140.196 128.963 140.939C129.458 141.681 129.698 142.564 129.647 143.455C129.597 144.346 129.259 145.196 128.683 145.878L119.343 156.942L91.5702 180.756Z" fill="#F2B9A1"/>
<path d="M107.82 145.651C102.121 147.446 97.0058 150.733 93.0049 155.17C89.0039 159.608 86.2628 165.035 85.0657 170.888L84.2991 174.634C84.135 175.438 84.1605 176.27 84.3735 177.062C84.5866 177.855 84.9814 178.587 85.5267 179.2C86.0719 179.813 86.7526 180.291 87.5146 180.595C88.2767 180.9 89.0992 181.022 89.917 180.954C90.4719 180.907 91.0237 180.84 91.5702 180.756L95.519 177.37L109.535 160.311L117.624 150.728C119.465 148.548 122.295 144.446 123.258 141.76L124.115 139.363L107.82 145.651Z" fill="#F4C8AD"/>
<path d="M118.338 146.834C120.437 144.347 122.364 141.842 124.1 139.368L107.821 145.651C102.614 147.293 97.8884 150.183 94.0547 154.07C90.221 157.956 87.3957 162.721 85.8249 167.95C92.2094 170.202 106.071 161.366 118.338 146.834Z" fill="#FBDAC2"/>
<path d="M92.7288 168.625C89.9674 171.849 87.498 175.311 85.3499 178.972C85.563 179.247 85.803 179.5 86.0663 179.727C86.3558 179.971 86.6722 180.176 87.0027 180.35L87.0309 180.3C89.1508 176.655 91.5988 173.212 94.3445 170.011L92.7288 168.625Z" fill="#F2B9A1"/>
<path d="M118.45 154.626C119.824 153.859 121.405 153.284 122.746 152.911L123.907 151.536L123.699 150.492C122.036 150.823 119.512 151.596 117.412 152.768L118.45 154.626Z" fill="#F4C8AD"/>
<circle cx="106.41" cy="162.775" r="1.06437" transform="rotate(-49.8301 106.41 162.775)" fill="#614207"/>
<circle cx="113.38" cy="156.994" r="1.06437" transform="rotate(-49.8301 113.38 156.994)" fill="#614207"/>
<circle cx="117.618" cy="146.817" r="1.06437" transform="rotate(-49.8301 117.618 146.817)" fill="#614207"/>
<circle cx="108.875" cy="152.842" r="0.79828" transform="rotate(-49.8301 108.875 152.842)" fill="#614207"/>
<path d="M94.5756 162.801C97.9625 159.117 102.874 158.131 107.123 158.939" stroke="#D8AD8F" stroke-width="5"/>
<path d="M97.5265 154.149C100.913 150.465 105.825 149.479 110.074 150.287" stroke="#D8AD8F" stroke-width="5"/>
</svg>
