<svg width="427" height="440" viewBox="0 0 427 440" fill="none" xmlns="http://www.w3.org/2000/svg">
<path d="M213.228 0C236.532 0 257.732 11.496 278.764 18.32C300.548 25.4 324.412 28.8 342.548 42.008C360.868 55.336 371.428 77.064 384.756 95.384C397.956 113.528 415.444 130.208 422.516 152C429.34 173.024 425.228 196.696 425.228 220C425.228 243.304 429.34 266.976 422.516 288C415.436 309.792 397.956 326.48 384.756 344.616C371.42 362.936 360.868 384.664 342.548 398C324.428 411.2 300.548 414.6 278.764 421.68C257.732 428.504 236.532 440 213.228 440C189.924 440 168.724 428.504 147.692 421.68C125.908 414.6 102.044 411.2 83.9082 397.992C65.5882 384.664 55.0282 362.936 41.7002 344.616C28.5002 326.472 11.0122 309.792 3.94018 288C-2.88382 266.976 1.22818 243.304 1.22818 220C1.22818 196.696 -2.88382 173.024 3.94018 152C11.0202 130.208 28.5002 113.52 41.7002 95.384C55.0362 77.064 65.5882 55.336 83.9082 42C102.044 28.8 125.908 25.4 147.692 18.32C168.724 11.496 189.924 0 213.228 0Z" fill="#F56167"/>
<path d="M361.836 71.392C377.556 87.112 384.1 109.184 393.668 127.984C403.596 147.464 417.388 165.864 420.708 187.016C424.068 208.384 416.508 230.216 413.124 251.552C409.78 272.712 410.308 295.776 400.364 315.264C390.764 334.072 371.996 347.264 356.26 363.032C340.524 378.8 327.3 397.536 308.492 407.136C289.004 417.08 265.932 416.552 244.78 419.936C223.412 423.32 201.58 430.88 180.244 427.52C159.092 424.16 140.692 410.4 121.228 400.44C102.428 390.84 80.3565 384.328 64.6365 368.608C48.9165 352.888 42.3725 330.816 32.8045 312.016C22.8765 292.536 9.08448 274.136 5.76448 252.984C2.40448 231.616 9.96448 209.784 13.3485 188.448C16.6925 167.288 16.1645 144.224 26.1485 124.736C35.7485 105.928 54.5165 92.736 70.2525 76.968C85.9885 61.2 99.2125 42.464 118.02 32.864C137.508 22.92 160.58 23.448 181.732 20.104C203.1 16.72 224.932 9.16 246.268 12.52C267.42 15.84 285.82 29.632 305.3 39.56C324.044 49.128 346.116 55.672 361.836 71.392Z" fill="#FFDF78"/>
<path d="M122.323 106.038C131.923 146.838 144.955 188.774 136.043 209.006C127.131 229.238 69.2273 248.838 55.1793 253.238C41.1313 257.638 47.1233 130.838 84.7233 104.038C122.323 77.2378 122.323 106.038 122.323 106.038Z" fill="#FCBF12"/>
<path d="M71.0582 299.498C83.7462 334.642 96.2582 379.898 128.258 390.698C160.258 401.498 175.858 371.898 201.058 391.898C226.258 411.898 242.658 359.098 215.058 330.698C187.458 302.298 134.658 315.898 110.258 289.898C85.8582 263.898 65.8582 285.098 71.0582 299.498Z" fill="#FCBF12"/>
<path d="M216.229 217.646C219.829 250.446 212.629 323.646 240.629 323.646C268.629 323.646 307.429 305.646 325.829 320.046C344.229 334.446 401.829 278.446 377.029 234.046C360.021 203.59 331.829 171.246 327.829 129.246C323.829 87.2458 245.429 153.646 234.629 176.846C223.829 200.046 216.229 217.646 216.229 217.646Z" fill="#FCBF12"/>
<path d="M139.234 65.4203C174.834 63.4203 192.034 59.0203 211.634 47.4203C231.234 35.8203 275.234 52.2203 290.434 77.4203C305.634 102.62 202.034 127.42 170.034 104.22C138.034 81.0202 139.234 65.4203 139.234 65.4203Z" fill="#FCBF12"/>
</svg>
