<svg width="500" height="500" viewBox="0 0 500 500" fill="none" xmlns="http://www.w3.org/2000/svg">
<path d="M283.665 392.764C293.548 398.469 279.666 416.808 260.18 422.029C238.658 427.796 221.591 426.104 201.826 414.692C172.836 397.955 174.743 369.532 175.392 364.158C175.515 363.266 273.782 387.058 283.665 392.764Z" fill="#EB6F6D"/>
<path d="M174.955 330L283.665 392.764C273.782 387.058 259.238 395.132 249.635 406.059C237.003 420.434 206.487 400.913 206.487 400.913C186.305 389.26 180.145 375.43 175.391 364.158C167.918 346.448 174.955 330 174.955 330Z" fill="#FF9494"/>
<path d="M227.399 393.221C228.975 390.492 228.04 387.002 225.311 385.427C222.582 383.851 219.092 384.786 217.516 387.515C215.941 390.244 216.876 393.734 219.605 395.309C222.334 396.885 225.824 395.95 227.399 393.221Z" fill="#F5CAA7"/>
<path d="M201.472 345.309C201.473 346.311 201.209 347.295 200.707 348.161C199.131 350.891 195.642 351.826 192.913 350.25C190.183 348.674 189.248 345.185 190.824 342.456C191.344 341.556 192.072 340.851 192.912 340.367L201.472 345.309Z" fill="#F5CAA7"/>
<path d="M241.179 397.882C241.967 396.518 241.499 394.773 240.135 393.985C238.77 393.197 237.025 393.665 236.237 395.029C235.45 396.394 235.917 398.139 237.282 398.926C238.646 399.714 240.391 399.247 241.179 397.882Z" fill="#F5CAA7"/>
<path d="M196.045 361.941C196.833 360.577 196.365 358.832 195.001 358.044C193.636 357.256 191.891 357.724 191.104 359.088C190.316 360.453 190.783 362.198 192.148 362.986C193.512 363.773 195.257 363.306 196.045 361.941Z" fill="#F5CAA7"/>
<path d="M414.222 206.164C420.788 202.658 426.159 216.666 422.334 229.255C418.11 243.161 411.291 252.028 398.16 259.041C378.9 269.326 363.818 258.473 361.065 256.262C360.614 255.886 407.657 209.67 414.222 206.164Z" fill="#EB6F6D"/>
<path d="M342 244.731L414.222 206.164C407.656 209.67 407.115 220.507 409.856 229.59C413.463 241.539 392.135 251.71 392.135 251.71C378.727 258.87 368.946 257.515 361.065 256.262C348.682 254.297 342 244.731 342 244.731Z" fill="#FF9494"/>
<path d="M395.084 237.479C394.115 235.666 391.861 234.981 390.048 235.949C388.235 236.917 387.55 239.172 388.518 240.985C389.486 242.798 391.741 243.483 393.554 242.515C395.367 241.547 396.052 239.292 395.084 237.479Z" fill="#F5CAA7"/>
<path d="M359.616 235.324C360.171 235.668 360.625 236.154 360.932 236.73C361.9 238.543 361.215 240.798 359.402 241.766C357.589 242.734 355.334 242.05 354.366 240.236C354.047 239.639 353.907 238.992 353.929 238.36L359.616 235.324Z" fill="#F5CAA7"/>
<path d="M402.414 231.455C401.93 230.548 400.803 230.206 399.896 230.69C398.99 231.174 398.647 232.301 399.131 233.208C399.615 234.114 400.743 234.457 401.649 233.973C402.556 233.488 402.898 232.361 402.414 231.455Z" fill="#F5CAA7"/>
<path d="M366.956 244.061C366.472 243.154 365.345 242.812 364.438 243.296C363.532 243.78 363.189 244.907 363.673 245.814C364.157 246.72 365.285 247.063 366.191 246.579C367.098 246.095 367.44 244.967 366.956 244.061Z" fill="#F5CAA7"/>
<path d="M104.571 231.316C102.287 237.63 90.23 231.485 85.1915 220.738C79.6265 208.869 78.8424 198.808 83.409 186.18C90.1069 167.658 106.768 165.824 109.947 165.644C110.477 165.624 106.854 225.002 104.571 231.316Z" fill="#EB6F6D"/>
<path d="M129.687 161.861L104.571 231.316C106.854 225.002 100.674 217.412 93.3519 212.98C83.7198 207.149 91.8723 187.455 91.8723 187.455C96.5353 174.561 103.909 169.563 109.947 165.644C119.433 159.485 129.687 161.861 129.687 161.861Z" fill="#FF9494"/>
<path d="M98.4895 198.773C100.233 199.403 102.158 198.501 102.788 196.757C103.419 195.014 102.516 193.089 100.773 192.459C99.0292 191.828 97.1046 192.73 96.4741 194.474C95.8436 196.218 96.7459 198.142 98.4895 198.773Z" fill="#F5CAA7"/>
<path d="M123.561 178.802C122.981 178.906 122.384 178.855 121.83 178.654C120.086 178.023 119.184 176.099 119.814 174.355C120.445 172.611 122.369 171.709 124.113 172.34C124.688 172.548 125.172 172.896 125.539 173.333L123.561 178.802Z" fill="#F5CAA7"/>
<path d="M97.2142 207.236C98.086 207.551 99.0483 207.1 99.3636 206.228C99.6788 205.357 99.2277 204.394 98.3559 204.079C97.4841 203.764 96.5218 204.215 96.2065 205.087C95.8913 205.959 96.3424 206.921 97.2142 207.236Z" fill="#F5CAA7"/>
<path d="M113.366 177.378C114.238 177.694 115.2 177.242 115.515 176.371C115.831 175.499 115.38 174.536 114.508 174.221C113.636 173.906 112.674 174.357 112.358 175.229C112.043 176.101 112.494 177.063 113.366 177.378Z" fill="#F5CAA7"/>
<path d="M204.324 158.082C189.685 161.376 186.758 131.275 200.939 108.86C216.602 84.1026 234.607 70.5257 263.884 63.9385C306.826 54.2768 330.317 83.4511 334.48 89.2237C335.155 90.1964 218.962 154.788 204.324 158.082Z" fill="#EB6F6D"/>
<path d="M365.348 121.852L204.325 158.082C218.963 154.789 225.825 134.02 225.368 114.899C224.764 89.7448 271.662 81.4133 271.662 81.4133C301.557 74.6871 319.838 82.5651 334.481 89.2239C357.49 99.6811 365.348 121.852 365.348 121.852Z" fill="#FF9494"/>
<path d="M258.304 107.488C259.213 111.53 263.227 114.07 267.27 113.16C271.312 112.251 273.852 108.237 272.942 104.194C272.033 100.152 268.018 97.6123 263.976 98.5218C259.934 99.4313 257.394 103.446 258.304 107.488Z" fill="#F5CAA7"/>
<path d="M326.071 130.69C325.178 129.722 324.556 128.536 324.269 127.251C323.359 123.208 325.899 119.194 329.941 118.285C333.984 117.375 337.998 119.914 338.907 123.957C339.207 125.29 339.132 126.62 338.751 127.837L326.071 130.69Z" fill="#F5CAA7"/>
<path d="M240.829 115.265C241.284 117.286 243.291 118.556 245.312 118.101C247.334 117.646 248.603 115.639 248.149 113.618C247.694 111.597 245.687 110.327 243.666 110.782C241.644 111.237 240.375 113.244 240.829 115.265Z" fill="#F5CAA7"/>
<path d="M316.492 109.776C316.947 111.797 318.954 113.067 320.975 112.612C322.996 112.157 324.266 110.15 323.811 108.129C323.356 106.108 321.349 104.838 319.328 105.293C317.307 105.747 316.037 107.755 316.492 109.776Z" fill="#F5CAA7"/>
</svg>
