<svg width="500" height="500" viewBox="0 0 500 500" fill="none" xmlns="http://www.w3.org/2000/svg">
<path d="M267.211 360.318C280.918 365.449 296.188 358.496 301.319 344.789C306.449 331.083 299.497 315.812 285.79 310.682C272.083 305.551 256.812 312.504 251.682 326.211C246.551 339.917 253.504 355.188 267.211 360.318Z" fill="#E64C3C"/>
<path d="M285.4 328.85L281.347 332.299L278.544 332.986C278.186 333.076 277.809 333.055 277.464 332.926C277.118 332.797 276.82 332.565 276.609 332.262L274.946 329.903L274.154 324.64C274.119 324.407 274.175 324.169 274.311 323.977C274.447 323.784 274.652 323.651 274.883 323.606C276.844 323.337 278.842 323.603 280.664 324.374C282.546 324.989 284.227 326.1 285.529 327.591C285.675 327.777 285.742 328.012 285.718 328.246C285.694 328.481 285.58 328.697 285.4 328.85Z" fill="#FB7B76"/>
<path d="M294.299 329.136L281.348 332.299L285.4 328.85C285.58 328.697 285.694 328.481 285.718 328.246C285.742 328.012 285.675 327.777 285.53 327.591C284.227 326.101 282.546 324.989 280.665 324.374C278.842 323.603 276.845 323.337 274.883 323.606C274.652 323.651 274.447 323.784 274.311 323.977C274.175 324.169 274.119 324.407 274.155 324.64L274.946 329.903L267.255 319.014C267.098 318.797 266.992 318.547 266.943 318.284C266.894 318.021 266.904 317.75 266.972 317.491C267.04 317.232 267.165 316.992 267.336 316.786C267.508 316.581 267.724 316.417 267.967 316.304C272.998 314.061 278.709 313.886 283.868 315.817C289.027 317.747 293.219 321.63 295.541 326.625C295.65 326.869 295.705 327.135 295.7 327.403C295.694 327.67 295.63 327.933 295.512 328.173C295.393 328.413 295.223 328.624 295.013 328.791C294.803 328.957 294.559 329.075 294.299 329.136ZM296.184 342.867C294.572 347.153 291.607 350.797 287.738 353.245C283.869 355.693 279.306 356.813 274.743 356.435C274.47 356.416 274.205 356.337 273.966 356.203C273.728 356.068 273.523 355.882 273.366 355.657C273.209 355.433 273.105 355.176 273.061 354.906C273.017 354.636 273.034 354.359 273.111 354.097L276.847 341.299L277.808 346.527C277.849 346.76 277.979 346.969 278.171 347.108C278.363 347.247 278.601 347.306 278.836 347.273C280.778 346.89 282.581 345.99 284.055 344.67C285.634 343.477 286.862 341.88 287.609 340.048C287.685 339.825 287.672 339.58 287.572 339.367C287.472 339.153 287.293 338.986 287.072 338.901L282.124 336.951L295.415 335.72C295.687 335.699 295.96 335.737 296.215 335.834C296.47 335.93 296.701 336.082 296.89 336.277C297.08 336.473 297.224 336.709 297.312 336.967C297.4 337.225 297.43 337.5 297.399 337.77C297.206 339.513 296.798 341.225 296.184 342.867ZM272.431 339.646L266.846 351.752C266.732 352.001 266.563 352.22 266.353 352.395C266.142 352.57 265.895 352.695 265.629 352.761C265.363 352.828 265.086 352.834 264.818 352.779C264.55 352.724 264.298 352.609 264.08 352.443C259.658 349.2 256.678 344.358 255.775 338.95C254.872 333.541 256.118 327.994 259.247 323.49C259.402 323.266 259.604 323.078 259.84 322.942C260.076 322.805 260.339 322.721 260.611 322.698C260.883 322.675 261.156 322.712 261.412 322.807C261.667 322.902 261.899 323.052 262.09 323.247L271.306 332.902L266.293 331.123C266.072 331.043 265.827 331.051 265.611 331.147C265.395 331.242 265.225 331.418 265.135 331.636C264.496 333.509 264.374 335.52 264.782 337.456C265.027 339.42 265.796 341.282 267.009 342.846C267.164 343.025 267.383 343.137 267.619 343.158C267.855 343.179 268.09 343.107 268.274 342.958L272.431 339.646Z" fill="#C03A2B"/>
<path d="M281.946 320.951C282.418 321.128 282.945 320.889 283.122 320.416C283.299 319.943 283.059 319.417 282.586 319.24C282.114 319.063 281.587 319.303 281.41 319.775C281.233 320.248 281.473 320.774 281.946 320.951Z" fill="#FB7B76"/>
<path d="M278.374 320.065C278.847 320.242 279.374 320.003 279.55 319.53C279.727 319.057 279.488 318.531 279.015 318.354C278.542 318.177 278.016 318.417 277.839 318.889C277.662 319.362 277.902 319.888 278.374 320.065Z" fill="#FB7B76"/>
<path d="M274.459 320.101C274.931 320.277 275.458 320.038 275.635 319.565C275.812 319.092 275.572 318.566 275.099 318.389C274.627 318.212 274.1 318.452 273.923 318.924C273.746 319.397 273.986 319.924 274.459 320.101Z" fill="#FB7B76"/>
<path d="M285.221 322.628C285.694 322.805 286.22 322.565 286.397 322.092C286.574 321.62 286.334 321.093 285.862 320.916C285.389 320.739 284.862 320.979 284.686 321.452C284.509 321.924 284.748 322.451 285.221 322.628Z" fill="#FB7B76"/>
<path d="M288.152 325.226C288.624 325.402 289.151 325.163 289.328 324.69C289.505 324.217 289.265 323.691 288.792 323.514C288.32 323.337 287.793 323.577 287.616 324.049C287.439 324.522 287.679 325.049 288.152 325.226Z" fill="#FB7B76"/>
<path d="M273.649 337.019L272.431 339.646L268.274 342.959C268.089 343.108 267.854 343.179 267.618 343.158C267.382 343.137 267.164 343.025 267.008 342.846C265.796 341.282 265.026 339.42 264.782 337.456C264.374 335.52 264.496 333.509 265.135 331.637C265.225 331.418 265.395 331.243 265.611 331.147C265.827 331.051 266.071 331.043 266.293 331.124L271.306 332.902L273.306 334.988C273.56 335.253 273.728 335.589 273.789 335.951C273.85 336.313 273.801 336.685 273.649 337.019Z" fill="#FB7B76"/>
<path d="M259.956 339.065C260.429 339.242 260.956 339.002 261.133 338.529C261.309 338.057 261.07 337.53 260.597 337.353C260.124 337.176 259.598 337.416 259.421 337.889C259.244 338.361 259.484 338.888 259.956 339.065Z" fill="#FB7B76"/>
<path d="M260.975 342.601C261.448 342.777 261.974 342.538 262.151 342.065C262.328 341.592 262.088 341.066 261.616 340.889C261.143 340.712 260.616 340.952 260.439 341.424C260.263 341.897 260.502 342.424 260.975 342.601Z" fill="#FB7B76"/>
<path d="M262.963 345.974C263.436 346.151 263.962 345.911 264.139 345.439C264.316 344.966 264.077 344.44 263.604 344.263C263.131 344.086 262.605 344.326 262.428 344.798C262.251 345.271 262.491 345.797 262.963 345.974Z" fill="#FB7B76"/>
<path d="M259.77 335.39C260.242 335.567 260.769 335.327 260.946 334.854C261.123 334.382 260.883 333.855 260.41 333.678C259.938 333.501 259.411 333.741 259.234 334.214C259.057 334.686 259.297 335.213 259.77 335.39Z" fill="#FB7B76"/>
<path d="M260.555 331.554C261.028 331.731 261.554 331.491 261.731 331.018C261.908 330.546 261.668 330.019 261.196 329.842C260.723 329.665 260.196 329.905 260.02 330.378C259.843 330.85 260.082 331.377 260.555 331.554Z" fill="#FB7B76"/>
<path d="M287.609 340.048C286.861 341.881 285.633 343.477 284.054 344.67C282.58 345.991 280.777 346.89 278.836 347.273C278.601 347.306 278.362 347.247 278.171 347.108C277.979 346.969 277.848 346.761 277.807 346.527L276.847 341.299L277.654 338.518C277.758 338.166 277.965 337.853 278.249 337.62C278.533 337.387 278.88 337.244 279.245 337.211L282.123 336.951L287.072 338.901C287.292 338.986 287.471 339.153 287.571 339.367C287.671 339.581 287.685 339.825 287.609 340.048Z" fill="#FB7B76"/>
<path d="M286.638 349.051C287.11 349.228 287.637 348.989 287.814 348.516C287.991 348.043 287.751 347.517 287.278 347.34C286.806 347.163 286.279 347.403 286.102 347.875C285.925 348.348 286.165 348.875 286.638 349.051Z" fill="#FB7B76"/>
<path d="M289.191 346.402C289.663 346.579 290.19 346.339 290.367 345.867C290.544 345.394 290.304 344.867 289.831 344.69C289.359 344.514 288.832 344.753 288.655 345.226C288.478 345.699 288.718 346.225 289.191 346.402Z" fill="#FB7B76"/>
<path d="M291.118 342.993C291.591 343.17 292.117 342.93 292.294 342.458C292.471 341.985 292.231 341.458 291.759 341.282C291.286 341.105 290.759 341.344 290.583 341.817C290.406 342.29 290.645 342.816 291.118 342.993Z" fill="#FB7B76"/>
<path d="M283.548 351.05C284.02 351.226 284.547 350.987 284.724 350.514C284.901 350.041 284.661 349.515 284.188 349.338C283.716 349.161 283.189 349.401 283.012 349.873C282.835 350.346 283.075 350.873 283.548 351.05Z" fill="#FB7B76"/>
<path d="M279.833 352.289C280.305 352.465 280.832 352.226 281.009 351.753C281.186 351.28 280.946 350.754 280.473 350.577C280.001 350.4 279.474 350.64 279.297 351.112C279.12 351.585 279.36 352.112 279.833 352.289Z" fill="#FB7B76"/>
<path d="M373.791 353.837C386.127 355.333 397.341 346.545 398.837 334.209C400.333 321.873 391.545 310.66 379.209 309.164C366.873 307.668 355.66 316.455 354.164 328.791C352.668 341.127 361.455 352.341 373.791 353.837Z" fill="#E64C3C"/>
<path d="M382.516 324.234L379.861 327.891L377.684 329.018C377.407 329.164 377.092 329.222 376.781 329.184C376.47 329.146 376.178 329.015 375.944 328.807L374.099 327.192L372.395 323.007C372.319 322.822 372.318 322.614 372.392 322.428C372.465 322.242 372.608 322.091 372.79 322.008C374.355 321.395 376.056 321.215 377.714 321.487C379.39 321.619 380.999 322.2 382.371 323.17C382.528 323.294 382.631 323.475 382.658 323.673C382.685 323.872 382.634 324.073 382.516 324.234Z" fill="#FB7B76"/>
<path d="M389.916 322.694L379.861 327.891L382.516 324.235C382.634 324.073 382.685 323.872 382.658 323.673C382.631 323.475 382.528 323.294 382.371 323.17C380.999 322.2 379.39 321.619 377.714 321.487C376.056 321.215 374.355 321.395 372.79 322.008C372.608 322.091 372.465 322.242 372.392 322.428C372.318 322.614 372.319 322.822 372.395 323.007L374.099 327.192L365.577 319.742C365.405 319.594 365.267 319.41 365.174 319.202C365.081 318.995 365.036 318.769 365.04 318.542C365.044 318.315 365.099 318.091 365.2 317.888C365.301 317.684 365.445 317.505 365.624 317.364C369.327 314.508 374.005 313.222 378.648 313.785C383.291 314.348 387.527 316.715 390.44 320.373C390.579 320.553 390.677 320.761 390.726 320.983C390.776 321.205 390.775 321.435 390.725 321.657C390.675 321.879 390.577 322.087 390.437 322.266C390.297 322.445 390.119 322.591 389.916 322.694ZM394.215 333.648C393.741 337.507 392.022 341.106 389.318 343.899C386.614 346.693 383.073 348.528 379.231 349.127C379.002 349.167 378.767 349.154 378.544 349.091C378.32 349.027 378.114 348.915 377.94 348.761C377.765 348.607 377.628 348.416 377.538 348.202C377.447 347.988 377.406 347.756 377.417 347.524L377.944 336.216L379.781 340.339C379.862 340.523 380.011 340.669 380.197 340.746C380.383 340.822 380.592 340.823 380.779 340.749C382.305 340.045 383.613 338.943 384.566 337.558C385.63 336.259 386.325 334.696 386.576 333.035C386.594 332.835 386.534 332.636 386.409 332.48C386.283 332.323 386.102 332.221 385.904 332.195L381.43 331.574L392.153 327.904C392.373 327.832 392.606 327.809 392.836 327.838C393.065 327.866 393.286 327.945 393.482 328.069C393.677 328.193 393.843 328.359 393.967 328.554C394.091 328.749 394.171 328.97 394.2 329.2C394.389 330.676 394.394 332.171 394.215 333.648ZM373.97 335.734L371.779 346.84C371.735 347.068 371.639 347.283 371.5 347.469C371.361 347.656 371.182 347.808 370.976 347.916C370.771 348.024 370.543 348.084 370.311 348.092C370.079 348.101 369.847 348.056 369.634 347.963C365.338 346.17 361.911 342.77 360.086 338.487C358.261 334.204 358.181 329.377 359.863 325.036C359.946 324.819 360.076 324.624 360.243 324.464C360.41 324.304 360.611 324.183 360.831 324.11C361.05 324.036 361.283 324.012 361.513 324.039C361.743 324.067 361.964 324.144 362.16 324.267L371.695 330.394L367.203 329.927C367.004 329.905 366.803 329.961 366.644 330.083C366.485 330.205 366.38 330.384 366.35 330.582C366.196 332.255 366.497 333.938 367.22 335.455C367.814 337.027 368.821 338.41 370.134 339.458C370.298 339.575 370.501 339.624 370.7 339.594C370.899 339.564 371.079 339.458 371.201 339.298L373.97 335.734Z" fill="#C03A2B"/>
<path d="M378.088 318.406C378.514 318.458 378.9 318.155 378.952 317.729C379.004 317.304 378.7 316.917 378.275 316.866C377.85 316.814 377.463 317.117 377.411 317.543C377.36 317.968 377.663 318.355 378.088 318.406Z" fill="#FB7B76"/>
<path d="M374.964 318.388C375.39 318.44 375.776 318.137 375.828 317.712C375.879 317.286 375.576 316.9 375.151 316.848C374.726 316.796 374.339 317.099 374.287 317.525C374.236 317.95 374.539 318.337 374.964 318.388Z" fill="#FB7B76"/>
<path d="M371.74 319.2C372.165 319.251 372.552 318.948 372.603 318.523C372.655 318.098 372.352 317.711 371.926 317.659C371.501 317.608 371.114 317.911 371.063 318.336C371.011 318.762 371.314 319.148 371.74 319.2Z" fill="#FB7B76"/>
<path d="M381.126 319.136C381.551 319.187 381.938 318.884 381.99 318.459C382.041 318.034 381.738 317.647 381.313 317.595C380.887 317.544 380.501 317.847 380.449 318.272C380.397 318.698 380.701 319.084 381.126 319.136Z" fill="#FB7B76"/>
<path d="M384.063 320.694C384.488 320.746 384.875 320.443 384.927 320.017C384.978 319.592 384.675 319.205 384.25 319.154C383.824 319.102 383.438 319.405 383.386 319.831C383.335 320.256 383.638 320.643 384.063 320.694Z" fill="#FB7B76"/>
<path d="M374.45 333.323L373.97 335.734L371.201 339.298C371.079 339.458 370.899 339.564 370.7 339.594C370.501 339.624 370.298 339.575 370.135 339.458C368.821 338.41 367.815 337.027 367.22 335.455C366.497 333.939 366.196 332.255 366.35 330.582C366.38 330.384 366.485 330.205 366.645 330.083C366.804 329.961 367.004 329.905 367.203 329.927L371.695 330.394L373.762 331.715C374.024 331.884 374.23 332.127 374.353 332.413C374.476 332.7 374.51 333.017 374.45 333.323Z" fill="#FB7B76"/>
<path d="M363.56 337.746C363.985 337.798 364.372 337.495 364.424 337.069C364.475 336.644 364.172 336.257 363.747 336.206C363.321 336.154 362.935 336.457 362.883 336.883C362.832 337.308 363.135 337.695 363.56 337.746Z" fill="#FB7B76"/>
<path d="M365.107 340.461C365.532 340.512 365.919 340.209 365.97 339.784C366.022 339.358 365.719 338.972 365.294 338.92C364.868 338.868 364.482 339.171 364.43 339.597C364.378 340.022 364.681 340.409 365.107 340.461Z" fill="#FB7B76"/>
<path d="M367.421 342.847C367.847 342.899 368.233 342.596 368.285 342.171C368.337 341.745 368.033 341.359 367.608 341.307C367.183 341.255 366.796 341.558 366.744 341.984C366.693 342.409 366.996 342.796 367.421 342.847Z" fill="#FB7B76"/>
<path d="M362.672 334.751C363.097 334.802 363.484 334.499 363.535 334.074C363.587 333.649 363.284 333.262 362.859 333.21C362.433 333.159 362.047 333.462 361.995 333.887C361.943 334.313 362.246 334.699 362.672 334.751Z" fill="#FB7B76"/>
<path d="M362.554 331.428C362.979 331.48 363.366 331.177 363.417 330.751C363.469 330.326 363.166 329.939 362.74 329.888C362.315 329.836 361.928 330.139 361.877 330.565C361.825 330.99 362.128 331.377 362.554 331.428Z" fill="#FB7B76"/>
<path d="M386.576 333.035C386.325 334.696 385.631 336.259 384.566 337.558C383.613 338.943 382.305 340.045 380.779 340.749C380.592 340.823 380.384 340.822 380.197 340.745C380.011 340.669 379.862 340.523 379.782 340.339L377.945 336.216L378.055 333.76C378.071 333.448 378.179 333.149 378.367 332.9C378.555 332.651 378.813 332.464 379.108 332.363L381.431 331.574L385.904 332.195C386.103 332.221 386.284 332.323 386.409 332.48C386.534 332.636 386.594 332.835 386.576 333.035Z" fill="#FB7B76"/>
<path d="M387.573 340.658C387.998 340.71 388.385 340.407 388.436 339.981C388.488 339.556 388.185 339.169 387.759 339.118C387.334 339.066 386.947 339.369 386.896 339.795C386.844 340.22 387.147 340.607 387.573 340.658Z" fill="#FB7B76"/>
<path d="M389.151 337.962C389.576 338.014 389.963 337.711 390.014 337.285C390.066 336.86 389.763 336.473 389.338 336.422C388.912 336.37 388.526 336.673 388.474 337.098C388.422 337.524 388.725 337.91 389.151 337.962Z" fill="#FB7B76"/>
<path d="M390.059 334.764C390.485 334.815 390.872 334.512 390.923 334.087C390.975 333.662 390.672 333.275 390.246 333.223C389.821 333.172 389.434 333.475 389.383 333.9C389.331 334.325 389.634 334.712 390.059 334.764Z" fill="#FB7B76"/>
<path d="M385.422 342.924C385.847 342.976 386.234 342.673 386.285 342.247C386.337 341.822 386.034 341.435 385.609 341.384C385.183 341.332 384.797 341.635 384.745 342.061C384.693 342.486 384.996 342.873 385.422 342.924Z" fill="#FB7B76"/>
<path d="M382.604 344.689C383.029 344.74 383.416 344.437 383.468 344.012C383.519 343.587 383.216 343.2 382.791 343.148C382.365 343.097 381.979 343.4 381.927 343.825C381.876 344.251 382.179 344.637 382.604 344.689Z" fill="#FB7B76"/>
<path d="M294.78 431.557C304.201 420.357 302.758 403.64 291.557 394.219C280.357 384.799 263.64 386.242 254.219 397.443C244.799 408.643 246.242 425.36 257.443 434.78C268.643 444.201 285.36 442.758 294.78 431.557Z" fill="#E64C3C"/>
<path d="M271.21 403.888L273.105 408.861L272.815 411.734C272.78 412.101 272.634 412.449 272.397 412.731C272.159 413.014 271.841 413.217 271.485 413.314L268.705 414.092L263.481 413.078C263.25 413.033 263.044 412.901 262.908 412.708C262.772 412.516 262.715 412.278 262.75 412.045C263.153 410.107 264.072 408.313 265.408 406.854C266.617 405.286 268.227 404.074 270.067 403.345C270.291 403.271 270.535 403.286 270.748 403.387C270.961 403.488 271.126 403.668 271.21 403.888Z" fill="#FB7B76"/>
<path d="M274.457 395.599L273.105 408.861L271.21 403.888C271.127 403.668 270.961 403.488 270.748 403.387C270.535 403.286 270.291 403.271 270.067 403.345C268.227 404.074 266.618 405.286 265.409 406.854C264.072 408.313 263.153 410.107 262.75 412.045C262.715 412.278 262.772 412.516 262.908 412.708C263.044 412.901 263.25 413.033 263.481 413.078L268.706 414.092L255.871 417.697C255.614 417.772 255.343 417.789 255.079 417.747C254.814 417.705 254.562 417.605 254.341 417.454C254.12 417.304 253.935 417.106 253.799 416.875C253.663 416.645 253.58 416.387 253.555 416.12C253.124 410.629 254.87 405.188 258.416 400.972C261.961 396.756 267.022 394.104 272.507 393.588C272.773 393.566 273.042 393.604 273.292 393.698C273.543 393.793 273.769 393.941 273.956 394.133C274.142 394.325 274.284 394.556 274.371 394.81C274.457 395.063 274.487 395.332 274.457 395.599ZM288.028 398.416C291.528 401.368 293.969 405.382 294.982 409.847C295.995 414.312 295.524 418.986 293.64 423.16C293.532 423.411 293.368 423.635 293.162 423.814C292.955 423.994 292.711 424.125 292.447 424.198C292.183 424.27 291.906 424.283 291.637 424.234C291.368 424.185 291.113 424.076 290.891 423.916L280.081 416.113L285.329 416.957C285.563 416.997 285.802 416.943 285.998 416.809C286.193 416.675 286.329 416.47 286.376 416.238C286.664 414.28 286.42 412.28 285.668 410.449C285.073 408.562 283.979 406.871 282.502 405.553C282.317 405.407 282.083 405.338 281.848 405.36C281.613 405.383 281.396 405.496 281.242 405.675L277.749 409.686L281.036 396.749C281.106 396.486 281.234 396.241 281.41 396.033C281.586 395.825 281.806 395.658 282.054 395.545C282.302 395.432 282.572 395.375 282.845 395.379C283.118 395.382 283.386 395.446 283.631 395.565C285.209 396.33 286.686 397.288 288.028 398.416ZM277.045 419.722L286.585 429.035C286.782 429.226 286.932 429.459 287.026 429.716C287.121 429.973 287.156 430.247 287.13 430.52C287.103 430.792 287.016 431.055 286.875 431.29C286.733 431.524 286.541 431.723 286.312 431.873C281.776 434.956 276.216 436.144 270.817 435.185C265.418 434.227 260.607 431.197 257.41 426.741C257.25 426.52 257.142 426.267 257.091 425.999C257.041 425.731 257.051 425.455 257.12 425.191C257.189 424.927 257.315 424.682 257.49 424.473C257.665 424.264 257.884 424.096 258.132 423.981L270.314 418.526L266.961 422.655C266.81 422.837 266.737 423.07 266.754 423.305C266.772 423.541 266.881 423.76 267.057 423.918C268.608 425.147 270.461 425.934 272.423 426.198C274.355 426.624 276.367 426.522 278.247 425.902C278.468 425.816 278.646 425.648 278.745 425.432C278.844 425.217 278.855 424.971 278.776 424.748L277.045 419.722Z" fill="#C03A2B"/>
<path d="M262.611 404.501C262.936 404.115 262.886 403.538 262.5 403.213C262.114 402.889 261.538 402.938 261.213 403.325C260.888 403.711 260.938 404.287 261.324 404.612C261.71 404.937 262.287 404.887 262.611 404.501Z" fill="#FB7B76"/>
<path d="M260.582 407.57C260.906 407.184 260.857 406.607 260.47 406.283C260.084 405.958 259.508 406.007 259.183 406.394C258.858 406.78 258.908 407.356 259.294 407.681C259.68 408.006 260.257 407.956 260.582 407.57Z" fill="#FB7B76"/>
<path d="M259.305 411.272C259.63 410.885 259.58 410.309 259.194 409.984C258.807 409.659 258.231 409.709 257.906 410.095C257.581 410.482 257.631 411.058 258.017 411.383C258.403 411.708 258.98 411.658 259.305 411.272Z" fill="#FB7B76"/>
<path d="M265.287 401.975C265.612 401.589 265.562 401.013 265.176 400.688C264.79 400.363 264.213 400.413 263.888 400.799C263.564 401.185 263.613 401.762 264 402.086C264.386 402.411 264.962 402.362 265.287 401.975Z" fill="#FB7B76"/>
<path d="M268.716 400.083C269.041 399.696 268.991 399.12 268.605 398.795C268.218 398.47 267.642 398.52 267.317 398.906C266.992 399.292 267.042 399.869 267.428 400.194C267.815 400.518 268.391 400.469 268.716 400.083Z" fill="#FB7B76"/>
<path d="M274.977 417.695L277.046 419.722L278.777 424.748C278.855 424.971 278.844 425.217 278.745 425.432C278.647 425.647 278.468 425.816 278.247 425.902C276.367 426.522 274.355 426.624 272.423 426.198C270.461 425.934 268.608 425.146 267.057 423.917C266.881 423.76 266.772 423.541 266.755 423.305C266.737 423.07 266.811 422.837 266.961 422.655L270.314 418.526L272.949 417.338C273.283 417.188 273.656 417.142 274.017 417.205C274.379 417.269 274.713 417.44 274.977 417.695Z" fill="#FB7B76"/>
<path d="M272.325 431.283C272.65 430.897 272.6 430.32 272.214 429.995C271.827 429.671 271.251 429.72 270.926 430.107C270.601 430.493 270.651 431.069 271.037 431.394C271.423 431.719 272 431.669 272.325 431.283Z" fill="#FB7B76"/>
<path d="M275.997 431.506C276.322 431.12 276.272 430.543 275.886 430.219C275.5 429.894 274.923 429.943 274.598 430.33C274.274 430.716 274.323 431.292 274.71 431.617C275.096 431.942 275.672 431.892 275.997 431.506Z" fill="#FB7B76"/>
<path d="M279.842 430.761C280.167 430.375 280.117 429.798 279.731 429.473C279.344 429.149 278.768 429.198 278.443 429.585C278.118 429.971 278.168 430.547 278.554 430.872C278.941 431.197 279.517 431.147 279.842 430.761Z" fill="#FB7B76"/>
<path d="M268.799 430.229C269.124 429.843 269.074 429.267 268.688 428.942C268.301 428.617 267.725 428.667 267.4 429.053C267.075 429.439 267.125 430.016 267.511 430.34C267.898 430.665 268.474 430.615 268.799 430.229Z" fill="#FB7B76"/>
<path d="M265.446 428.206C265.771 427.82 265.721 427.243 265.335 426.918C264.949 426.593 264.373 426.643 264.048 427.029C263.723 427.416 263.773 427.992 264.159 428.317C264.545 428.642 265.121 428.592 265.446 428.206Z" fill="#FB7B76"/>
<path d="M282.503 405.553C283.979 406.871 285.073 408.562 285.668 410.449C286.42 412.28 286.664 414.28 286.376 416.238C286.329 416.47 286.193 416.675 285.998 416.809C285.802 416.943 285.563 416.997 285.329 416.957L280.081 416.113L277.729 414.422C277.433 414.207 277.207 413.906 277.083 413.561C276.958 413.216 276.94 412.841 277.03 412.485L277.749 409.686L281.242 405.675C281.396 405.496 281.613 405.383 281.848 405.36C282.083 405.338 282.317 405.407 282.503 405.553Z" fill="#FB7B76"/>
<path d="M290.662 409.481C290.987 409.094 290.937 408.518 290.551 408.193C290.165 407.868 289.588 407.918 289.263 408.304C288.939 408.691 288.988 409.267 289.375 409.592C289.761 409.917 290.337 409.867 290.662 409.481Z" fill="#FB7B76"/>
<path d="M289.02 406.188C289.344 405.802 289.295 405.225 288.908 404.9C288.522 404.575 287.946 404.625 287.621 405.011C287.296 405.398 287.346 405.974 287.732 406.299C288.118 406.624 288.695 406.574 289.02 406.188Z" fill="#FB7B76"/>
<path d="M286.452 403.231C286.777 402.845 286.727 402.269 286.341 401.944C285.954 401.619 285.378 401.669 285.053 402.055C284.728 402.441 284.778 403.018 285.164 403.343C285.55 403.667 286.127 403.618 286.452 403.231Z" fill="#FB7B76"/>
<path d="M291.511 413.061C291.836 412.674 291.786 412.098 291.4 411.773C291.014 411.448 290.437 411.498 290.113 411.884C289.788 412.27 289.838 412.847 290.224 413.172C290.61 413.497 291.186 413.447 291.511 413.061Z" fill="#FB7B76"/>
<path d="M291.436 416.976C291.761 416.59 291.711 416.013 291.325 415.689C290.939 415.364 290.362 415.413 290.037 415.8C289.713 416.186 289.762 416.762 290.149 417.087C290.535 417.412 291.111 417.362 291.436 416.976Z" fill="#FB7B76"/>
<path d="M149.623 386.098C161.828 389.62 174.576 382.581 178.098 370.377C181.62 358.172 174.581 345.423 162.377 341.902C150.172 338.38 137.423 345.419 133.902 357.623C130.38 369.828 137.419 382.577 149.623 386.098Z" fill="#E64C3C"/>
<path d="M163.256 357.649L159.98 360.906L157.6 361.688C157.296 361.79 156.969 361.797 156.661 361.708C156.354 361.62 156.08 361.439 155.878 361.191L154.28 359.261L153.243 354.76C153.197 354.561 153.229 354.351 153.334 354.175C153.439 353.999 153.607 353.87 153.804 353.816C155.484 353.452 157.23 353.548 158.859 354.094C160.528 354.5 162.057 355.349 163.284 356.551C163.422 356.702 163.496 356.901 163.491 357.106C163.486 357.311 163.401 357.505 163.256 357.649Z" fill="#FB7B76"/>
<path d="M170.975 357.301L159.98 360.906L163.256 357.649C163.401 357.505 163.485 357.31 163.49 357.106C163.496 356.901 163.422 356.702 163.284 356.551C162.056 355.349 160.528 354.5 158.858 354.094C157.229 353.548 155.483 353.452 153.804 353.816C153.607 353.87 153.438 353.999 153.334 354.175C153.229 354.351 153.196 354.56 153.243 354.76L154.28 359.261L146.895 350.353C146.746 350.175 146.637 349.967 146.577 349.742C146.517 349.518 146.507 349.283 146.549 349.054C146.59 348.826 146.682 348.609 146.817 348.42C146.952 348.231 147.127 348.074 147.33 347.96C151.533 345.682 156.464 345.148 161.057 346.474C165.651 347.799 169.539 350.878 171.882 355.045C171.993 355.249 172.058 355.475 172.071 355.707C172.085 355.939 172.047 356.171 171.96 356.387C171.874 356.603 171.74 356.796 171.57 356.954C171.4 357.113 171.197 357.231 170.975 357.301ZM173.526 369.057C172.418 372.874 170.096 376.225 166.912 378.603C163.728 380.981 159.855 382.255 155.881 382.233C155.643 382.236 155.408 382.185 155.193 382.084C154.978 381.984 154.788 381.836 154.637 381.653C154.486 381.469 154.379 381.254 154.323 381.023C154.266 380.792 154.263 380.552 154.312 380.319L156.688 368.994L157.869 373.454C157.921 373.654 158.047 373.825 158.223 373.933C158.398 374.04 158.608 374.075 158.809 374.031C160.464 373.569 161.963 372.67 163.151 371.429C164.437 370.291 165.393 368.827 165.917 367.192C165.968 366.993 165.94 366.783 165.839 366.604C165.738 366.426 165.572 366.294 165.376 366.235L160.963 364.879L172.382 362.924C172.616 362.887 172.855 362.902 173.082 362.969C173.309 363.035 173.519 363.151 173.696 363.307C173.873 363.464 174.014 363.658 174.107 363.876C174.2 364.093 174.244 364.329 174.236 364.565C174.186 366.086 173.947 367.595 173.526 369.057ZM152.756 367.86L148.734 378.71C148.652 378.932 148.52 379.134 148.35 379.299C148.179 379.465 147.973 379.59 147.748 379.665C147.523 379.74 147.283 379.764 147.048 379.734C146.812 379.704 146.586 379.622 146.386 379.493C142.343 376.983 139.44 372.993 138.296 368.373C137.153 363.753 137.86 358.869 140.266 354.763C140.385 354.558 140.547 354.382 140.742 354.248C140.937 354.114 141.159 354.024 141.393 353.986C141.626 353.948 141.866 353.961 142.093 354.026C142.321 354.091 142.531 354.206 142.709 354.362L151.331 362.1L146.874 360.896C146.677 360.841 146.466 360.865 146.285 360.962C146.105 361.059 145.969 361.222 145.907 361.418C145.479 363.081 145.508 364.829 145.99 366.477C146.333 368.16 147.124 369.72 148.278 370.992C148.424 371.137 148.621 371.219 148.827 371.221C149.032 371.224 149.231 371.146 149.381 371.005L152.756 367.86Z" fill="#C03A2B"/>
<path d="M159.738 351.046C160.159 351.167 160.598 350.924 160.72 350.504C160.841 350.083 160.598 349.643 160.178 349.522C159.757 349.4 159.317 349.643 159.196 350.064C159.074 350.485 159.317 350.924 159.738 351.046Z" fill="#FB7B76"/>
<path d="M156.588 350.518C157.009 350.64 157.449 350.397 157.57 349.976C157.692 349.555 157.449 349.116 157.028 348.994C156.607 348.873 156.168 349.115 156.046 349.536C155.925 349.957 156.167 350.397 156.588 350.518Z" fill="#FB7B76"/>
<path d="M153.202 350.811C153.622 350.932 154.062 350.689 154.184 350.268C154.305 349.848 154.062 349.408 153.641 349.287C153.221 349.165 152.781 349.408 152.66 349.829C152.538 350.25 152.781 350.689 153.202 350.811Z" fill="#FB7B76"/>
<path d="M162.684 352.277C163.105 352.399 163.545 352.156 163.666 351.735C163.787 351.314 163.545 350.875 163.124 350.753C162.703 350.632 162.263 350.874 162.142 351.295C162.02 351.716 162.263 352.156 162.684 352.277Z" fill="#FB7B76"/>
<path d="M165.394 354.329C165.815 354.45 166.254 354.208 166.376 353.787C166.497 353.366 166.255 352.926 165.834 352.805C165.413 352.683 164.973 352.926 164.852 353.347C164.73 353.768 164.973 354.207 165.394 354.329Z" fill="#FB7B76"/>
<path d="M153.634 365.505L152.756 367.86L149.38 371.005C149.231 371.146 149.032 371.224 148.826 371.221C148.621 371.219 148.424 371.137 148.278 370.992C147.123 369.72 146.333 368.16 145.99 366.477C145.507 364.829 145.478 363.081 145.906 361.418C145.969 361.223 146.105 361.059 146.285 360.962C146.466 360.865 146.677 360.841 146.874 360.896L151.331 362.1L153.201 363.77C153.439 363.983 153.607 364.262 153.684 364.571C153.761 364.88 153.743 365.206 153.634 365.505Z" fill="#FB7B76"/>
<path d="M141.922 368.192C142.343 368.314 142.783 368.071 142.904 367.65C143.026 367.229 142.783 366.79 142.362 366.668C141.941 366.547 141.502 366.79 141.38 367.21C141.259 367.631 141.501 368.071 141.922 368.192Z" fill="#FB7B76"/>
<path d="M143.04 371.184C143.461 371.305 143.901 371.062 144.022 370.641C144.144 370.221 143.901 369.781 143.48 369.66C143.059 369.538 142.62 369.781 142.498 370.202C142.377 370.623 142.62 371.062 143.04 371.184Z" fill="#FB7B76"/>
<path d="M144.987 373.97C145.408 374.091 145.847 373.849 145.969 373.428C146.09 373.007 145.847 372.567 145.427 372.446C145.006 372.325 144.566 372.567 144.445 372.988C144.323 373.409 144.566 373.849 144.987 373.97Z" fill="#FB7B76"/>
<path d="M141.515 365.025C141.935 365.146 142.375 364.903 142.497 364.483C142.618 364.062 142.375 363.622 141.954 363.501C141.534 363.379 141.094 363.622 140.972 364.043C140.851 364.464 141.094 364.903 141.515 365.025Z" fill="#FB7B76"/>
<path d="M141.937 361.652C142.358 361.774 142.798 361.531 142.919 361.11C143.041 360.689 142.798 360.25 142.377 360.128C141.956 360.007 141.517 360.25 141.395 360.67C141.274 361.091 141.517 361.531 141.937 361.652Z" fill="#FB7B76"/>
<path d="M165.917 367.192C165.393 368.828 164.437 370.291 163.151 371.429C161.963 372.671 160.464 373.57 158.809 374.031C158.608 374.076 158.398 374.04 158.223 373.933C158.047 373.825 157.921 373.654 157.869 373.455L156.688 368.995L157.2 366.534C157.267 366.222 157.425 365.938 157.655 365.717C157.885 365.497 158.176 365.35 158.49 365.296L160.963 364.879L165.376 366.235C165.572 366.294 165.738 366.426 165.839 366.605C165.94 366.783 165.968 366.993 165.917 367.192Z" fill="#FB7B76"/>
<path d="M165.679 375.048C166.1 375.169 166.54 374.926 166.661 374.506C166.783 374.085 166.54 373.645 166.119 373.524C165.698 373.402 165.258 373.645 165.137 374.066C165.016 374.487 165.258 374.926 165.679 375.048Z" fill="#FB7B76"/>
<path d="M167.711 372.584C168.132 372.705 168.572 372.463 168.693 372.042C168.815 371.621 168.572 371.181 168.151 371.06C167.73 370.939 167.291 371.181 167.169 371.602C167.048 372.023 167.291 372.463 167.711 372.584Z" fill="#FB7B76"/>
<path d="M169.15 369.505C169.571 369.627 170.011 369.384 170.132 368.963C170.254 368.542 170.011 368.103 169.59 367.981C169.169 367.86 168.73 368.102 168.608 368.523C168.487 368.944 168.73 369.384 169.15 369.505Z" fill="#FB7B76"/>
<path d="M163.139 376.983C163.56 377.105 164 376.862 164.121 376.441C164.242 376.02 164 375.581 163.579 375.459C163.158 375.338 162.718 375.581 162.597 376.002C162.476 376.422 162.718 376.862 163.139 376.983Z" fill="#FB7B76"/>
<path d="M160.008 378.304C160.429 378.426 160.868 378.183 160.99 377.762C161.111 377.341 160.868 376.902 160.448 376.78C160.027 376.659 159.587 376.902 159.466 377.323C159.344 377.743 159.587 378.183 160.008 378.304Z" fill="#FB7B76"/>
<path d="M108.988 274.012C122.617 268.68 129.344 253.308 124.012 239.679C118.68 226.049 103.309 219.322 89.6788 224.654C76.0491 229.986 69.3224 245.358 74.6544 258.987C79.9863 272.617 95.3578 279.344 108.988 274.012Z" fill="#E64C3C"/>
<path d="M101.519 238.44L100.805 243.714L99.1763 246.098C98.9701 246.403 98.6756 246.639 98.332 246.774C97.9884 246.908 97.6121 246.935 97.253 246.85L94.4393 246.204L90.3365 242.815C90.1544 242.665 90.0372 242.45 90.0096 242.216C89.982 241.982 90.046 241.746 90.1883 241.558C91.469 240.049 93.1332 238.913 95.0054 238.27C96.8167 237.472 98.8098 237.177 100.775 237.416C101.007 237.458 101.214 237.588 101.353 237.779C101.491 237.969 101.551 238.206 101.519 238.44Z" fill="#FB7B76"/>
<path d="M108.335 232.712L100.805 243.714L101.519 238.44C101.551 238.206 101.491 237.969 101.353 237.779C101.214 237.588 101.007 237.458 100.775 237.416C98.8099 237.177 96.8168 237.472 95.0055 238.27C93.1333 238.913 91.4692 240.048 90.1884 241.558C90.0461 241.746 89.9821 241.982 90.0097 242.216C90.0374 242.45 90.1545 242.665 90.3366 242.815L94.4395 246.204L81.4433 243.232C81.1818 243.175 80.9361 243.061 80.724 242.897C80.5119 242.734 80.3384 242.526 80.2162 242.288C80.094 242.049 80.0259 241.787 80.0169 241.52C80.0079 241.252 80.0582 240.986 80.1641 240.74C82.4116 235.711 86.5466 231.767 91.6765 229.76C96.8064 227.753 102.52 227.844 107.583 230.014C107.828 230.122 108.045 230.284 108.22 230.486C108.395 230.689 108.523 230.928 108.595 231.186C108.667 231.444 108.681 231.714 108.636 231.978C108.591 232.242 108.488 232.493 108.335 232.712ZM118.906 241.676C120.568 245.943 120.793 250.635 119.547 255.041C118.301 259.447 115.652 263.327 112.002 266.091C111.787 266.26 111.536 266.379 111.269 266.438C111.002 266.497 110.725 266.495 110.458 266.432C110.192 266.37 109.942 266.248 109.729 266.077C109.516 265.905 109.344 265.688 109.226 265.441L103.463 253.418L107.669 256.669C107.855 256.816 108.091 256.884 108.327 256.859C108.563 256.835 108.78 256.72 108.932 256.538C110.122 254.956 110.864 253.083 111.079 251.116C111.459 249.174 111.307 247.165 110.64 245.302C110.547 245.085 110.374 244.912 110.157 244.82C109.94 244.727 109.695 244.722 109.475 244.806L104.489 246.659L113.562 236.869C113.75 236.671 113.979 236.517 114.233 236.419C114.487 236.32 114.76 236.279 115.032 236.298C115.304 236.318 115.569 236.397 115.806 236.53C116.044 236.664 116.25 236.848 116.408 237.07C117.428 238.496 118.267 240.043 118.906 241.676ZM99.072 255.136L102.997 267.878C103.078 268.139 103.099 268.415 103.059 268.686C103.018 268.957 102.918 269.215 102.765 269.442C102.611 269.669 102.409 269.858 102.172 269.996C101.936 270.134 101.672 270.217 101.399 270.239C95.9418 270.777 90.4905 269.162 86.2072 265.739C81.9239 262.315 79.1477 257.353 78.4704 251.911C78.4359 251.641 78.4615 251.366 78.5457 251.107C78.6298 250.847 78.7702 250.61 78.957 250.411C79.1437 250.212 79.3721 250.057 79.6257 249.957C79.8794 249.857 80.152 249.815 80.4241 249.832L93.732 250.867L88.8125 252.889C88.5935 252.978 88.417 253.147 88.3202 253.362C88.2233 253.578 88.2136 253.822 88.293 254.044C89.0673 255.865 90.3186 257.444 91.9151 258.613C93.4085 259.912 95.2243 260.784 97.1716 261.139C97.4067 261.169 97.6442 261.106 97.834 260.964C98.0238 260.822 98.151 260.612 98.1887 260.378L99.072 255.136Z" fill="#C03A2B"/>
<path d="M93.6735 234.866C94.1435 234.682 94.3755 234.152 94.1916 233.682C94.0078 233.212 93.4777 232.98 93.0077 233.164C92.5377 233.348 92.3058 233.878 92.4896 234.348C92.6735 234.818 93.2036 235.05 93.6735 234.866Z" fill="#FB7B76"/>
<path d="M90.4235 236.591C90.8935 236.407 91.1255 235.877 90.9416 235.407C90.7578 234.937 90.2277 234.705 89.7577 234.889C89.2877 235.073 89.0558 235.603 89.2396 236.073C89.4235 236.543 89.9536 236.775 90.4235 236.591Z" fill="#FB7B76"/>
<path d="M87.5315 239.231C88.0015 239.048 88.2334 238.517 88.0495 238.047C87.8657 237.577 87.3356 237.346 86.8656 237.529C86.3957 237.713 86.1637 238.243 86.3476 238.713C86.5314 239.183 87.0615 239.415 87.5315 239.231Z" fill="#FB7B76"/>
<path d="M97.2312 233.928C97.7012 233.744 97.9331 233.214 97.7493 232.744C97.5654 232.274 97.0353 232.042 96.5653 232.226C96.0954 232.41 95.8634 232.94 96.0473 233.41C96.2311 233.88 96.7612 234.112 97.2312 233.928Z" fill="#FB7B76"/>
<path d="M101.147 233.905C101.617 233.721 101.849 233.191 101.665 232.721C101.481 232.251 100.951 232.019 100.481 232.203C100.011 232.387 99.7794 232.917 99.9633 233.387C100.147 233.857 100.677 234.089 101.147 233.905Z" fill="#FB7B76"/>
<path d="M98.224 252.367L99.0718 255.136L98.1885 260.378C98.1507 260.612 98.0236 260.822 97.8338 260.964C97.644 261.106 97.4065 261.169 97.1713 261.139C95.2241 260.785 93.4083 259.912 91.9148 258.613C90.3184 257.444 89.0671 255.866 88.2927 254.045C88.2133 253.822 88.2231 253.578 88.32 253.362C88.4168 253.147 88.5933 252.978 88.8123 252.89L93.7318 250.867L96.6132 251.084C96.9793 251.112 97.3285 251.25 97.6156 251.478C97.9028 251.707 98.1147 252.017 98.224 252.367Z" fill="#FB7B76"/>
<path d="M89.3967 263.032C89.8667 262.848 90.0986 262.318 89.9148 261.848C89.7309 261.378 89.2009 261.146 88.7309 261.33C88.2609 261.514 88.0289 262.044 88.2128 262.514C88.3967 262.984 88.9267 263.216 89.3967 263.032Z" fill="#FB7B76"/>
<path d="M92.5153 264.985C92.9853 264.801 93.2173 264.271 93.0334 263.801C92.8496 263.331 92.3195 263.099 91.8495 263.283C91.3795 263.466 91.1476 263.996 91.3314 264.466C91.5153 264.936 92.0454 265.168 92.5153 264.985Z" fill="#FB7B76"/>
<path d="M96.2483 266.169C96.7182 265.985 96.9502 265.455 96.7663 264.985C96.5825 264.515 96.0524 264.283 95.5824 264.467C95.1124 264.651 94.8805 265.181 95.0644 265.651C95.2482 266.121 95.7783 266.352 96.2483 266.169Z" fill="#FB7B76"/>
<path d="M86.8044 260.421C87.2744 260.237 87.5064 259.707 87.3225 259.237C87.1386 258.767 86.6086 258.535 86.1386 258.719C85.6686 258.903 85.4366 259.433 85.6205 259.903C85.8044 260.373 86.3344 260.605 86.8044 260.421Z" fill="#FB7B76"/>
<path d="M84.8274 257.041C85.2973 256.857 85.5293 256.327 85.3454 255.857C85.1616 255.387 84.6315 255.155 84.1615 255.339C83.6915 255.523 83.4596 256.053 83.6435 256.523C83.8273 256.993 84.3574 257.225 84.8274 257.041Z" fill="#FB7B76"/>
<path d="M110.64 245.302C111.307 247.165 111.459 249.174 111.079 251.116C110.864 253.083 110.122 254.957 108.932 256.538C108.78 256.72 108.563 256.835 108.327 256.859C108.091 256.884 107.855 256.816 107.669 256.67L103.463 253.418L102.207 250.809C102.049 250.478 101.995 250.106 102.05 249.743C102.106 249.381 102.269 249.043 102.519 248.774L104.488 246.659L109.474 244.807C109.695 244.723 109.94 244.727 110.157 244.82C110.374 244.912 110.547 245.085 110.64 245.302Z" fill="#FB7B76"/>
<path d="M115.927 252.654C116.397 252.47 116.629 251.94 116.446 251.47C116.262 251 115.732 250.768 115.262 250.952C114.792 251.135 114.56 251.665 114.744 252.135C114.927 252.605 115.457 252.837 115.927 252.654Z" fill="#FB7B76"/>
<path d="M116.06 248.976C116.53 248.792 116.762 248.262 116.578 247.792C116.394 247.322 115.864 247.09 115.394 247.274C114.924 247.458 114.692 247.988 114.876 248.458C115.06 248.928 115.59 249.16 116.06 248.976Z" fill="#FB7B76"/>
<path d="M115.218 245.152C115.688 244.968 115.92 244.438 115.736 243.968C115.552 243.498 115.022 243.266 114.552 243.45C114.082 243.634 113.85 244.164 114.034 244.634C114.218 245.104 114.748 245.336 115.218 245.152Z" fill="#FB7B76"/>
<path d="M114.961 256.204C115.431 256.02 115.663 255.49 115.479 255.02C115.295 254.55 114.765 254.318 114.295 254.502C113.825 254.686 113.593 255.216 113.777 255.686C113.961 256.156 114.491 256.388 114.961 256.204Z" fill="#FB7B76"/>
<path d="M113.023 259.606C113.493 259.423 113.725 258.892 113.541 258.422C113.357 257.952 112.827 257.721 112.357 257.904C111.887 258.088 111.655 258.618 111.839 259.088C112.023 259.558 112.553 259.79 113.023 259.606Z" fill="#FB7B76"/>
<path d="M175.5 197C190.136 197 202 185.136 202 170.5C202 155.864 190.136 144 175.5 144C160.864 144 149 155.864 149 170.5C149 185.136 160.864 197 175.5 197Z" fill="#E64C3C"/>
<path d="M181.504 161.152L178.918 165.803L176.533 167.43C176.229 167.639 175.869 167.752 175.5 167.752C175.131 167.752 174.771 167.639 174.467 167.43L172.082 165.803L169.496 161.152C169.381 160.946 169.35 160.704 169.41 160.475C169.47 160.247 169.615 160.051 169.816 159.927C171.559 158.988 173.522 158.537 175.5 158.621C177.478 158.537 179.441 158.988 181.184 159.927C181.385 160.051 181.53 160.247 181.59 160.475C181.65 160.704 181.619 160.946 181.504 161.152Z" fill="#FB7B76"/>
<path d="M189.938 158.301L178.917 165.803L181.503 161.152C181.618 160.946 181.649 160.704 181.59 160.475C181.53 160.247 181.385 160.051 181.184 159.927C179.441 158.988 177.477 158.537 175.5 158.621C173.522 158.537 171.559 158.988 169.816 159.927C169.615 160.051 169.469 160.247 169.41 160.475C169.35 160.704 169.381 160.946 169.496 161.152L172.082 165.803L161.062 158.301C160.839 158.152 160.652 157.956 160.514 157.727C160.376 157.497 160.29 157.24 160.263 156.974C160.236 156.708 160.268 156.439 160.357 156.186C160.447 155.934 160.59 155.704 160.779 155.514C164.704 151.649 169.991 149.483 175.5 149.483C181.008 149.483 186.296 151.649 190.221 155.514C190.409 155.704 190.553 155.934 190.642 156.186C190.731 156.439 190.763 156.708 190.736 156.974C190.709 157.24 190.624 157.497 190.486 157.727C190.348 157.956 190.16 158.152 189.938 158.301ZM196.517 170.5C196.51 175.079 195.01 179.53 192.245 183.18C189.479 186.829 185.599 189.477 181.193 190.722C180.931 190.801 180.654 190.82 180.384 190.777C180.113 190.735 179.856 190.632 179.63 190.477C179.405 190.322 179.217 190.118 179.081 189.88C178.945 189.643 178.864 189.378 178.844 189.105L177.857 175.809L180.59 180.369C180.71 180.573 180.905 180.722 181.134 180.786C181.362 180.849 181.606 180.82 181.814 180.707C183.498 179.667 184.871 178.193 185.789 176.44C186.85 174.769 187.44 172.843 187.498 170.865C187.491 170.629 187.393 170.405 187.224 170.24C187.055 170.075 186.829 169.981 186.593 169.979L181.275 169.888L193.291 164.076C193.538 163.96 193.808 163.901 194.08 163.902C194.353 163.902 194.622 163.963 194.869 164.081C195.115 164.198 195.332 164.368 195.505 164.579C195.678 164.789 195.802 165.036 195.868 165.3C196.299 167 196.516 168.747 196.517 170.5ZM173.142 175.809L172.155 189.105C172.135 189.378 172.054 189.643 171.918 189.88C171.782 190.118 171.595 190.322 171.369 190.477C171.144 190.632 170.886 190.735 170.616 190.777C170.346 190.82 170.069 190.801 169.807 190.722C164.529 189.235 160.04 185.745 157.299 180.996C154.557 176.247 153.78 170.615 155.131 165.3C155.198 165.036 155.322 164.789 155.495 164.579C155.667 164.368 155.885 164.198 156.131 164.081C156.377 163.963 156.646 163.902 156.919 163.902C157.192 163.901 157.461 163.96 157.708 164.076L169.725 169.888L164.406 169.979C164.17 169.981 163.944 170.075 163.776 170.24C163.607 170.405 163.509 170.629 163.502 170.865C163.559 172.843 164.15 174.769 165.21 176.44C166.128 178.193 167.501 179.667 169.185 180.707C169.394 180.82 169.638 180.849 169.866 180.786C170.095 180.722 170.29 180.573 170.41 180.369L173.142 175.809Z" fill="#C03A2B"/>
<path d="M175.5 154.966C176.005 154.966 176.414 154.556 176.414 154.052C176.414 153.547 176.005 153.138 175.5 153.138C174.996 153.138 174.586 153.547 174.586 154.052C174.586 154.556 174.996 154.966 175.5 154.966Z" fill="#FB7B76"/>
<path d="M171.845 155.388C172.35 155.388 172.759 154.979 172.759 154.474C172.759 153.969 172.35 153.56 171.845 153.56C171.34 153.56 170.931 153.969 170.931 154.474C170.931 154.979 171.34 155.388 171.845 155.388Z" fill="#FB7B76"/>
<path d="M168.19 156.793C168.694 156.793 169.103 156.384 169.103 155.879C169.103 155.375 168.694 154.966 168.19 154.966C167.685 154.966 167.276 155.375 167.276 155.879C167.276 156.384 167.685 156.793 168.19 156.793Z" fill="#FB7B76"/>
<path d="M179.155 155.388C179.66 155.388 180.069 154.979 180.069 154.474C180.069 153.969 179.66 153.56 179.155 153.56C178.65 153.56 178.241 153.969 178.241 154.474C178.241 154.979 178.65 155.388 179.155 155.388Z" fill="#FB7B76"/>
<path d="M182.81 156.793C183.315 156.793 183.724 156.384 183.724 155.879C183.724 155.375 183.315 154.966 182.81 154.966C182.306 154.966 181.896 155.375 181.896 155.879C181.896 156.384 182.306 156.793 182.81 156.793Z" fill="#FB7B76"/>
<path d="M173.362 172.921L173.142 175.809L170.41 180.369C170.29 180.573 170.095 180.722 169.866 180.786C169.638 180.849 169.394 180.82 169.186 180.707C167.501 179.667 166.128 178.193 165.211 176.44C164.15 174.769 163.56 172.843 163.502 170.865C163.509 170.629 163.607 170.405 163.776 170.24C163.944 170.075 164.171 169.981 164.407 169.979L169.725 169.888L172.329 171.14C172.66 171.299 172.935 171.554 173.119 171.872C173.303 172.19 173.388 172.555 173.362 172.921Z" fill="#FB7B76"/>
<path d="M161.256 179.638C161.76 179.638 162.169 179.229 162.169 178.724C162.169 178.219 161.76 177.81 161.256 177.81C160.751 177.81 160.342 178.219 160.342 178.724C160.342 179.229 160.751 179.638 161.256 179.638Z" fill="#FB7B76"/>
<path d="M163.449 182.592C163.954 182.592 164.363 182.183 164.363 181.678C164.363 181.174 163.954 180.765 163.449 180.765C162.944 180.765 162.535 181.174 162.535 181.678C162.535 182.183 162.944 182.592 163.449 182.592Z" fill="#FB7B76"/>
<path d="M166.494 185.055C166.999 185.055 167.408 184.646 167.408 184.141C167.408 183.636 166.999 183.227 166.494 183.227C165.989 183.227 165.58 183.636 165.58 184.141C165.58 184.646 165.989 185.055 166.494 185.055Z" fill="#FB7B76"/>
<path d="M159.793 176.261C160.297 176.261 160.706 175.852 160.706 175.348C160.706 174.843 160.297 174.434 159.793 174.434C159.288 174.434 158.879 174.843 158.879 175.348C158.879 175.852 159.288 176.261 159.793 176.261Z" fill="#FB7B76"/>
<path d="M159.183 172.394C159.688 172.394 160.097 171.984 160.097 171.48C160.097 170.975 159.688 170.566 159.183 170.566C158.679 170.566 158.27 170.975 158.27 171.48C158.27 171.984 158.679 172.394 159.183 172.394Z" fill="#FB7B76"/>
<path d="M187.498 170.865C187.44 172.843 186.85 174.769 185.789 176.44C184.872 178.193 183.499 179.667 181.814 180.707C181.606 180.82 181.362 180.849 181.134 180.786C180.905 180.722 180.71 180.573 180.59 180.369L177.858 175.809L177.638 172.921C177.612 172.555 177.697 172.19 177.881 171.872C178.065 171.554 178.34 171.299 178.671 171.14L181.275 169.888L186.594 169.979C186.83 169.981 187.056 170.075 187.224 170.24C187.393 170.405 187.491 170.629 187.498 170.865Z" fill="#FB7B76"/>
<path d="M189.744 179.638C190.249 179.638 190.658 179.229 190.658 178.724C190.658 178.219 190.249 177.81 189.744 177.81C189.24 177.81 188.831 178.219 188.831 178.724C188.831 179.229 189.24 179.638 189.744 179.638Z" fill="#FB7B76"/>
<path d="M191.207 176.261C191.712 176.261 192.121 175.852 192.121 175.348C192.121 174.843 191.712 174.434 191.207 174.434C190.703 174.434 190.293 174.843 190.293 175.348C190.293 175.852 190.703 176.261 191.207 176.261Z" fill="#FB7B76"/>
<path d="M191.817 172.394C192.321 172.394 192.73 171.984 192.73 171.48C192.73 170.975 192.321 170.566 191.817 170.566C191.312 170.566 190.903 170.975 190.903 171.48C190.903 171.984 191.312 172.394 191.817 172.394Z" fill="#FB7B76"/>
<path d="M187.551 182.592C188.056 182.592 188.465 182.183 188.465 181.678C188.465 181.174 188.056 180.765 187.551 180.765C187.046 180.765 186.637 181.174 186.637 181.678C186.637 182.183 187.046 182.592 187.551 182.592Z" fill="#FB7B76"/>
<path d="M184.507 185.055C185.011 185.055 185.42 184.646 185.42 184.141C185.42 183.636 185.011 183.227 184.507 183.227C184.002 183.227 183.593 183.636 183.593 184.141C183.593 184.646 184.002 185.055 184.507 185.055Z" fill="#FB7B76"/>
<path d="M347.5 155C362.136 155 374 143.136 374 128.5C374 113.864 362.136 102 347.5 102C332.864 102 321 113.864 321 128.5C321 143.136 332.864 155 347.5 155Z" fill="#E64C3C"/>
<path d="M353.504 119.152L350.918 123.803L348.533 125.43C348.229 125.639 347.869 125.752 347.5 125.752C347.131 125.752 346.771 125.639 346.467 125.43L344.082 123.803L341.496 119.152C341.381 118.946 341.35 118.704 341.41 118.475C341.47 118.247 341.615 118.051 341.816 117.927C343.559 116.988 345.522 116.537 347.5 116.621C349.478 116.537 351.441 116.988 353.184 117.927C353.385 118.051 353.53 118.247 353.59 118.475C353.65 118.704 353.619 118.946 353.504 119.152Z" fill="#FB7B76"/>
<path d="M361.938 116.301L350.917 123.803L353.503 119.152C353.618 118.946 353.649 118.704 353.59 118.475C353.53 118.247 353.385 118.051 353.184 117.927C351.441 116.988 349.477 116.537 347.5 116.621C345.522 116.537 343.559 116.988 341.816 117.927C341.615 118.051 341.469 118.247 341.41 118.475C341.35 118.704 341.381 118.946 341.496 119.152L344.082 123.803L333.062 116.301C332.839 116.152 332.652 115.956 332.514 115.727C332.376 115.497 332.29 115.24 332.263 114.974C332.236 114.708 332.268 114.439 332.357 114.186C332.447 113.934 332.59 113.704 332.779 113.514C336.704 109.649 341.991 107.483 347.5 107.483C353.008 107.483 358.296 109.649 362.221 113.514C362.409 113.704 362.553 113.934 362.642 114.186C362.731 114.439 362.763 114.708 362.736 114.974C362.709 115.24 362.624 115.497 362.486 115.727C362.348 115.956 362.16 116.152 361.938 116.301ZM368.517 128.5C368.51 133.079 367.01 137.53 364.245 141.18C361.479 144.829 357.599 147.477 353.193 148.722C352.931 148.801 352.654 148.82 352.384 148.777C352.113 148.735 351.856 148.632 351.63 148.477C351.405 148.322 351.217 148.118 351.081 147.88C350.945 147.643 350.864 147.378 350.844 147.105L349.857 133.809L352.59 138.369C352.71 138.573 352.905 138.722 353.134 138.786C353.362 138.849 353.606 138.82 353.814 138.707C355.498 137.667 356.871 136.193 357.789 134.44C358.85 132.769 359.44 130.843 359.498 128.865C359.491 128.629 359.393 128.405 359.224 128.24C359.055 128.075 358.829 127.981 358.593 127.979L353.275 127.888L365.291 122.076C365.538 121.96 365.808 121.901 366.08 121.902C366.353 121.902 366.622 121.963 366.869 122.081C367.115 122.198 367.332 122.368 367.505 122.579C367.678 122.789 367.802 123.036 367.868 123.3C368.299 125 368.516 126.747 368.517 128.5ZM345.142 133.809L344.155 147.105C344.135 147.378 344.054 147.643 343.918 147.88C343.782 148.118 343.595 148.322 343.369 148.477C343.144 148.632 342.886 148.735 342.616 148.777C342.346 148.82 342.069 148.801 341.807 148.722C336.529 147.235 332.04 143.745 329.299 138.996C326.557 134.247 325.78 128.615 327.131 123.3C327.198 123.036 327.322 122.789 327.495 122.579C327.667 122.368 327.885 122.198 328.131 122.081C328.377 121.963 328.646 121.902 328.919 121.902C329.192 121.901 329.461 121.96 329.708 122.076L341.725 127.888L336.406 127.979C336.17 127.981 335.944 128.075 335.776 128.24C335.607 128.405 335.509 128.629 335.502 128.865C335.559 130.843 336.15 132.769 337.21 134.44C338.128 136.193 339.501 137.667 341.185 138.707C341.394 138.82 341.638 138.849 341.866 138.786C342.095 138.722 342.29 138.573 342.41 138.369L345.142 133.809Z" fill="#C03A2B"/>
<path d="M347.5 112.966C348.005 112.966 348.414 112.556 348.414 112.052C348.414 111.547 348.005 111.138 347.5 111.138C346.996 111.138 346.586 111.547 346.586 112.052C346.586 112.556 346.996 112.966 347.5 112.966Z" fill="#FB7B76"/>
<path d="M343.845 113.388C344.35 113.388 344.759 112.979 344.759 112.474C344.759 111.969 344.35 111.56 343.845 111.56C343.34 111.56 342.931 111.969 342.931 112.474C342.931 112.979 343.34 113.388 343.845 113.388Z" fill="#FB7B76"/>
<path d="M340.19 114.793C340.694 114.793 341.103 114.384 341.103 113.879C341.103 113.375 340.694 112.966 340.19 112.966C339.685 112.966 339.276 113.375 339.276 113.879C339.276 114.384 339.685 114.793 340.19 114.793Z" fill="#FB7B76"/>
<path d="M351.155 113.388C351.66 113.388 352.069 112.979 352.069 112.474C352.069 111.969 351.66 111.56 351.155 111.56C350.65 111.56 350.241 111.969 350.241 112.474C350.241 112.979 350.65 113.388 351.155 113.388Z" fill="#FB7B76"/>
<path d="M354.81 114.793C355.315 114.793 355.724 114.384 355.724 113.879C355.724 113.375 355.315 112.966 354.81 112.966C354.306 112.966 353.896 113.375 353.896 113.879C353.896 114.384 354.306 114.793 354.81 114.793Z" fill="#FB7B76"/>
<path d="M345.362 130.921L345.142 133.809L342.41 138.369C342.29 138.573 342.095 138.722 341.866 138.786C341.638 138.849 341.394 138.82 341.186 138.707C339.501 137.667 338.128 136.193 337.211 134.44C336.15 132.769 335.56 130.843 335.502 128.865C335.509 128.629 335.607 128.405 335.776 128.24C335.944 128.075 336.171 127.981 336.407 127.979L341.725 127.888L344.329 129.14C344.66 129.299 344.935 129.554 345.119 129.872C345.303 130.19 345.388 130.555 345.362 130.921Z" fill="#FB7B76"/>
<path d="M333.256 137.638C333.76 137.638 334.169 137.229 334.169 136.724C334.169 136.219 333.76 135.81 333.256 135.81C332.751 135.81 332.342 136.219 332.342 136.724C332.342 137.229 332.751 137.638 333.256 137.638Z" fill="#FB7B76"/>
<path d="M335.449 140.592C335.954 140.592 336.363 140.183 336.363 139.678C336.363 139.174 335.954 138.765 335.449 138.765C334.944 138.765 334.535 139.174 334.535 139.678C334.535 140.183 334.944 140.592 335.449 140.592Z" fill="#FB7B76"/>
<path d="M338.494 143.055C338.999 143.055 339.408 142.646 339.408 142.141C339.408 141.636 338.999 141.227 338.494 141.227C337.989 141.227 337.58 141.636 337.58 142.141C337.58 142.646 337.989 143.055 338.494 143.055Z" fill="#FB7B76"/>
<path d="M331.793 134.261C332.297 134.261 332.706 133.852 332.706 133.348C332.706 132.843 332.297 132.434 331.793 132.434C331.288 132.434 330.879 132.843 330.879 133.348C330.879 133.852 331.288 134.261 331.793 134.261Z" fill="#FB7B76"/>
<path d="M331.183 130.394C331.688 130.394 332.097 129.984 332.097 129.48C332.097 128.975 331.688 128.566 331.183 128.566C330.679 128.566 330.27 128.975 330.27 129.48C330.27 129.984 330.679 130.394 331.183 130.394Z" fill="#FB7B76"/>
<path d="M359.498 128.865C359.44 130.843 358.85 132.769 357.789 134.44C356.872 136.193 355.499 137.667 353.814 138.707C353.606 138.82 353.362 138.849 353.134 138.786C352.905 138.722 352.71 138.573 352.59 138.369L349.858 133.809L349.638 130.921C349.612 130.555 349.697 130.19 349.881 129.872C350.065 129.554 350.34 129.299 350.671 129.14L353.275 127.888L358.594 127.979C358.83 127.981 359.056 128.075 359.224 128.24C359.393 128.405 359.491 128.629 359.498 128.865Z" fill="#FB7B76"/>
<path d="M361.744 137.638C362.249 137.638 362.658 137.229 362.658 136.724C362.658 136.219 362.249 135.81 361.744 135.81C361.24 135.81 360.831 136.219 360.831 136.724C360.831 137.229 361.24 137.638 361.744 137.638Z" fill="#FB7B76"/>
<path d="M363.207 134.261C363.712 134.261 364.121 133.852 364.121 133.348C364.121 132.843 363.712 132.434 363.207 132.434C362.703 132.434 362.293 132.843 362.293 133.348C362.293 133.852 362.703 134.261 363.207 134.261Z" fill="#FB7B76"/>
<path d="M363.817 130.394C364.321 130.394 364.73 129.984 364.73 129.48C364.73 128.975 364.321 128.566 363.817 128.566C363.312 128.566 362.903 128.975 362.903 129.48C362.903 129.984 363.312 130.394 363.817 130.394Z" fill="#FB7B76"/>
<path d="M359.551 140.592C360.056 140.592 360.465 140.183 360.465 139.678C360.465 139.174 360.056 138.765 359.551 138.765C359.046 138.765 358.637 139.174 358.637 139.678C358.637 140.183 359.046 140.592 359.551 140.592Z" fill="#FB7B76"/>
<path d="M356.507 143.055C357.011 143.055 357.42 142.646 357.42 142.141C357.42 141.636 357.011 141.227 356.507 141.227C356.002 141.227 355.593 141.636 355.593 142.141C355.593 142.646 356.002 143.055 356.507 143.055Z" fill="#FB7B76"/>
<path d="M237.5 105C252.136 105 264 93.1355 264 78.5C264 63.8645 252.136 52 237.5 52C222.864 52 211 63.8645 211 78.5C211 93.1355 222.864 105 237.5 105Z" fill="#E64C3C"/>
<path d="M243.504 69.1519L240.918 73.8031L238.533 75.4296C238.229 75.6394 237.869 75.7518 237.5 75.7518C237.131 75.7518 236.771 75.6394 236.467 75.4296L234.082 73.8031L231.496 69.1519C231.381 68.9459 231.35 68.7035 231.41 68.4753C231.47 68.2471 231.615 68.0508 231.816 67.9274C233.559 66.9885 235.522 66.5371 237.5 66.6207C239.478 66.5371 241.441 66.9885 243.184 67.9274C243.385 68.0508 243.53 68.2471 243.59 68.4753C243.65 68.7035 243.619 68.9459 243.504 69.1519Z" fill="#FB7B76"/>
<path d="M251.938 66.3008L240.917 73.8031L243.503 69.1519C243.618 68.9459 243.649 68.7035 243.59 68.4753C243.53 68.2471 243.385 68.0508 243.184 67.9274C241.441 66.9885 239.477 66.5371 237.5 66.6207C235.522 66.5371 233.559 66.9885 231.816 67.9274C231.615 68.0508 231.469 68.2471 231.41 68.4753C231.35 68.7035 231.381 68.9459 231.496 69.1519L234.082 73.8031L223.062 66.3008C222.839 66.1522 222.652 65.9562 222.514 65.7269C222.376 65.4975 222.29 65.2404 222.263 64.9741C222.236 64.7077 222.268 64.4387 222.357 64.1862C222.447 63.9338 222.59 63.7041 222.779 63.5138C226.704 59.6491 231.991 57.4829 237.5 57.4829C243.008 57.4829 248.296 59.6491 252.221 63.5138C252.409 63.7041 252.553 63.9338 252.642 64.1862C252.731 64.4387 252.763 64.7077 252.736 64.9741C252.709 65.2404 252.624 65.4975 252.486 65.7269C252.348 65.9562 252.16 66.1522 251.938 66.3008ZM258.517 78.5C258.51 83.0788 257.01 87.5304 254.245 91.1798C251.479 94.8292 247.599 97.4772 243.193 98.7222C242.931 98.801 242.654 98.8198 242.384 98.7774C242.113 98.7349 241.856 98.6323 241.63 98.477C241.405 98.3218 241.217 98.1179 241.081 97.8803C240.945 97.6428 240.864 97.3778 240.844 97.1048L239.857 83.8091L242.59 88.3689C242.71 88.5731 242.905 88.7225 243.134 88.7856C243.362 88.8486 243.606 88.8205 243.814 88.707C245.498 87.6674 246.871 86.1933 247.789 84.4396C248.85 82.7692 249.44 80.8434 249.498 78.8655C249.491 78.6295 249.393 78.4054 249.224 78.2402C249.055 78.0749 248.829 77.9814 248.593 77.9791L243.275 77.8877L255.291 72.076C255.538 71.9604 255.808 71.9008 256.08 71.9016C256.353 71.9024 256.622 71.9635 256.869 72.0805C257.115 72.1976 257.332 72.3676 257.505 72.5785C257.678 72.7895 257.802 73.036 257.868 73.3005C258.299 75.0002 258.516 76.7467 258.517 78.5ZM235.142 83.8091L234.155 97.1048C234.135 97.3778 234.054 97.6428 233.918 97.8803C233.782 98.1179 233.595 98.3218 233.369 98.477C233.144 98.6323 232.886 98.7349 232.616 98.7774C232.346 98.8198 232.069 98.801 231.807 98.7222C226.529 97.2352 222.04 93.745 219.299 88.996C216.557 84.247 215.78 78.6148 217.131 73.3005C217.198 73.036 217.322 72.7895 217.495 72.5785C217.667 72.3676 217.885 72.1976 218.131 72.0805C218.377 71.9635 218.646 71.9024 218.919 71.9016C219.192 71.9008 219.461 71.9604 219.708 72.076L231.725 77.8877L226.406 77.9791C226.17 77.9814 225.944 78.0749 225.776 78.2402C225.607 78.4054 225.509 78.6295 225.502 78.8655C225.559 80.8434 226.15 82.7692 227.21 84.4396C228.128 86.1933 229.501 87.6674 231.185 88.707C231.394 88.8205 231.638 88.8486 231.866 88.7856C232.095 88.7225 232.29 88.5731 232.41 88.3689L235.142 83.8091Z" fill="#C03A2B"/>
<path d="M237.5 62.9655C238.005 62.9655 238.414 62.5564 238.414 62.0517C238.414 61.5471 238.005 61.1379 237.5 61.1379C236.996 61.1379 236.586 61.5471 236.586 62.0517C236.586 62.5564 236.996 62.9655 237.5 62.9655Z" fill="#FB7B76"/>
<path d="M233.845 63.3876C234.35 63.3876 234.759 62.9785 234.759 62.4739C234.759 61.9692 234.35 61.5601 233.845 61.5601C233.34 61.5601 232.931 61.9692 232.931 62.4739C232.931 62.9785 233.34 63.3876 233.845 63.3876Z" fill="#FB7B76"/>
<path d="M230.19 64.7932C230.694 64.7932 231.103 64.384 231.103 63.8794C231.103 63.3747 230.694 62.9656 230.19 62.9656C229.685 62.9656 229.276 63.3747 229.276 63.8794C229.276 64.384 229.685 64.7932 230.19 64.7932Z" fill="#FB7B76"/>
<path d="M241.155 63.3876C241.66 63.3876 242.069 62.9785 242.069 62.4739C242.069 61.9692 241.66 61.5601 241.155 61.5601C240.65 61.5601 240.241 61.9692 240.241 62.4739C240.241 62.9785 240.65 63.3876 241.155 63.3876Z" fill="#FB7B76"/>
<path d="M244.81 64.7932C245.315 64.7932 245.724 64.384 245.724 63.8794C245.724 63.3747 245.315 62.9656 244.81 62.9656C244.306 62.9656 243.896 63.3747 243.896 63.8794C243.896 64.384 244.306 64.7932 244.81 64.7932Z" fill="#FB7B76"/>
<path d="M235.362 80.9215L235.142 83.8091L232.41 88.3689C232.29 88.5731 232.095 88.7224 231.866 88.7855C231.638 88.8486 231.394 88.8205 231.186 88.707C229.501 87.6674 228.128 86.1933 227.211 84.4396C226.15 82.7691 225.56 80.8434 225.502 78.8655C225.509 78.6295 225.607 78.4054 225.776 78.2401C225.944 78.0749 226.171 77.9813 226.407 77.9791L231.725 77.8877L234.329 79.1396C234.66 79.2992 234.935 79.5543 235.119 79.872C235.303 80.1897 235.388 80.5553 235.362 80.9215Z" fill="#FB7B76"/>
<path d="M223.256 87.6379C223.76 87.6379 224.169 87.2288 224.169 86.7241C224.169 86.2194 223.76 85.8103 223.256 85.8103C222.751 85.8103 222.342 86.2194 222.342 86.7241C222.342 87.2288 222.751 87.6379 223.256 87.6379Z" fill="#FB7B76"/>
<path d="M225.449 90.5922C225.954 90.5922 226.363 90.1831 226.363 89.6784C226.363 89.1738 225.954 88.7646 225.449 88.7646C224.944 88.7646 224.535 89.1738 224.535 89.6784C224.535 90.1831 224.944 90.5922 225.449 90.5922Z" fill="#FB7B76"/>
<path d="M228.494 93.0549C228.999 93.0549 229.408 92.6458 229.408 92.1411C229.408 91.6364 228.999 91.2273 228.494 91.2273C227.989 91.2273 227.58 91.6364 227.58 92.1411C227.58 92.6458 227.989 93.0549 228.494 93.0549Z" fill="#FB7B76"/>
<path d="M221.793 84.2614C222.297 84.2614 222.706 83.8523 222.706 83.3476C222.706 82.843 222.297 82.4338 221.793 82.4338C221.288 82.4338 220.879 82.843 220.879 83.3476C220.879 83.8523 221.288 84.2614 221.793 84.2614Z" fill="#FB7B76"/>
<path d="M221.183 80.3935C221.688 80.3935 222.097 79.9844 222.097 79.4797C222.097 78.975 221.688 78.5659 221.183 78.5659C220.679 78.5659 220.27 78.975 220.27 79.4797C220.27 79.9844 220.679 80.3935 221.183 80.3935Z" fill="#FB7B76"/>
<path d="M249.498 78.8655C249.44 80.8434 248.85 82.7691 247.789 84.4396C246.872 86.1933 245.499 87.6674 243.814 88.707C243.606 88.8205 243.362 88.8486 243.134 88.7855C242.905 88.7224 242.71 88.5731 242.59 88.3689L239.858 83.8091L239.638 80.9215C239.612 80.5553 239.697 80.1897 239.881 79.872C240.065 79.5543 240.34 79.2992 240.671 79.1396L243.275 77.8877L248.594 77.9791C248.83 77.9813 249.056 78.0749 249.224 78.2401C249.393 78.4054 249.491 78.6295 249.498 78.8655Z" fill="#FB7B76"/>
<path d="M251.744 87.6379C252.249 87.6379 252.658 87.2288 252.658 86.7241C252.658 86.2194 252.249 85.8103 251.744 85.8103C251.24 85.8103 250.831 86.2194 250.831 86.7241C250.831 87.2288 251.24 87.6379 251.744 87.6379Z" fill="#FB7B76"/>
<path d="M253.207 84.2614C253.712 84.2614 254.121 83.8523 254.121 83.3476C254.121 82.843 253.712 82.4338 253.207 82.4338C252.703 82.4338 252.293 82.843 252.293 83.3476C252.293 83.8523 252.703 84.2614 253.207 84.2614Z" fill="#FB7B76"/>
<path d="M253.817 80.3935C254.321 80.3935 254.73 79.9844 254.73 79.4797C254.73 78.975 254.321 78.5659 253.817 78.5659C253.312 78.5659 252.903 78.975 252.903 79.4797C252.903 79.9844 253.312 80.3935 253.817 80.3935Z" fill="#FB7B76"/>
<path d="M249.551 90.5922C250.056 90.5922 250.465 90.1831 250.465 89.6784C250.465 89.1738 250.056 88.7646 249.551 88.7646C249.046 88.7646 248.637 89.1738 248.637 89.6784C248.637 90.1831 249.046 90.5922 249.551 90.5922Z" fill="#FB7B76"/>
<path d="M246.507 93.0549C247.011 93.0549 247.42 92.6458 247.42 92.1411C247.42 91.6364 247.011 91.2273 246.507 91.2273C246.002 91.2273 245.593 91.6364 245.593 92.1411C245.593 92.6458 246.002 93.0549 246.507 93.0549Z" fill="#FB7B76"/>
<path d="M218.88 236.902C229.595 240.558 241.245 234.836 244.902 224.121C248.558 213.406 242.836 201.755 232.121 198.099C221.406 194.442 209.755 200.164 206.099 210.88C202.442 221.595 208.164 233.245 218.88 236.902Z" fill="#E64C3C"/>
<path d="M232.231 212.156L229.176 214.915L227.023 215.51C226.749 215.588 226.457 215.58 226.187 215.488C225.917 215.396 225.681 215.224 225.511 214.994L224.172 213.208L223.44 209.156C223.408 208.977 223.445 208.791 223.546 208.639C223.647 208.487 223.802 208.38 223.98 208.34C225.491 208.088 227.041 208.248 228.468 208.803C229.937 209.236 231.262 210.057 232.303 211.18C232.419 211.32 232.477 211.5 232.463 211.682C232.45 211.864 232.367 212.034 232.231 212.156Z" fill="#FB7B76"/>
<path d="M239.118 212.176L229.176 214.915L232.231 212.156C232.367 212.034 232.45 211.864 232.463 211.682C232.477 211.5 232.419 211.32 232.303 211.179C231.261 210.057 229.937 209.236 228.468 208.803C227.041 208.247 225.49 208.087 223.98 208.339C223.802 208.379 223.646 208.487 223.546 208.639C223.445 208.791 223.407 208.976 223.44 209.156L224.171 213.207L217.977 204.961C217.851 204.797 217.763 204.607 217.72 204.404C217.676 204.202 217.677 203.992 217.724 203.791C217.771 203.589 217.862 203.4 217.99 203.237C218.118 203.075 218.281 202.943 218.466 202.85C222.305 201.001 226.718 200.736 230.751 202.113C234.784 203.489 238.114 206.396 240.022 210.206C240.112 210.392 240.16 210.596 240.162 210.803C240.164 211.011 240.121 211.216 240.034 211.404C239.948 211.592 239.821 211.759 239.663 211.892C239.504 212.026 239.318 212.122 239.118 212.176ZM240.887 222.751C239.738 226.101 237.528 228.986 234.592 230.967C231.655 232.948 228.153 233.917 224.616 233.728C224.404 233.72 224.197 233.664 224.01 233.566C223.822 233.467 223.659 233.328 223.533 233.158C223.407 232.988 223.32 232.792 223.28 232.584C223.24 232.376 223.247 232.162 223.3 231.957L225.9 221.976L226.761 225.997C226.798 226.176 226.903 226.335 227.055 226.438C227.206 226.541 227.392 226.581 227.573 226.55C229.066 226.21 230.439 225.474 231.549 224.419C232.743 223.461 233.656 222.199 234.193 220.765C234.247 220.591 234.231 220.402 234.149 220.239C234.066 220.076 233.924 219.951 233.752 219.89L229.881 218.495L240.131 217.242C240.34 217.219 240.553 217.242 240.752 217.311C240.951 217.38 241.133 217.492 241.284 217.639C241.435 217.786 241.552 217.965 241.626 218.163C241.7 218.36 241.729 218.572 241.711 218.782C241.602 220.134 241.325 221.467 240.887 222.751ZM222.448 220.798L218.403 230.286C218.32 230.48 218.195 230.654 218.036 230.794C217.877 230.934 217.689 231.036 217.485 231.094C217.281 231.151 217.067 231.162 216.858 231.125C216.65 231.089 216.452 231.006 216.28 230.883C212.787 228.476 210.373 224.799 209.552 220.637C208.732 216.475 209.569 212.158 211.887 208.604C212.001 208.427 212.154 208.278 212.333 208.167C212.512 208.055 212.714 207.985 212.923 207.961C213.133 207.937 213.345 207.959 213.545 208.027C213.745 208.095 213.927 208.205 214.079 208.352L221.425 215.609L217.508 214.347C217.335 214.29 217.146 214.302 216.981 214.381C216.816 214.459 216.689 214.599 216.624 214.77C216.173 216.233 216.124 217.79 216.483 219.278C216.717 220.791 217.354 222.213 218.327 223.395C218.451 223.53 218.623 223.612 218.806 223.623C218.989 223.634 219.169 223.573 219.308 223.454L222.448 220.798Z" fill="#C03A2B"/>
<path d="M229.381 206.127C229.75 206.253 230.152 206.056 230.278 205.686C230.404 205.317 230.207 204.915 229.837 204.789C229.468 204.663 229.066 204.86 228.94 205.23C228.814 205.599 229.011 206.001 229.381 206.127Z" fill="#FB7B76"/>
<path d="M226.6 205.523C226.969 205.649 227.371 205.452 227.497 205.082C227.623 204.713 227.426 204.311 227.056 204.185C226.687 204.059 226.285 204.256 226.159 204.626C226.033 204.995 226.23 205.397 226.6 205.523Z" fill="#FB7B76"/>
<path d="M223.572 205.639C223.942 205.765 224.344 205.567 224.47 205.198C224.596 204.828 224.398 204.427 224.029 204.301C223.659 204.174 223.258 204.372 223.132 204.741C223.005 205.111 223.203 205.513 223.572 205.639Z" fill="#FB7B76"/>
<path d="M231.951 207.349C232.321 207.475 232.722 207.278 232.849 206.908C232.975 206.539 232.777 206.137 232.408 206.011C232.038 205.885 231.637 206.082 231.51 206.452C231.384 206.821 231.582 207.223 231.951 207.349Z" fill="#FB7B76"/>
<path d="M234.276 209.291C234.646 209.418 235.048 209.22 235.174 208.851C235.3 208.481 235.102 208.079 234.733 207.953C234.363 207.827 233.962 208.025 233.836 208.394C233.71 208.764 233.907 209.165 234.276 209.291Z" fill="#FB7B76"/>
<path d="M223.329 218.739L222.447 220.798L219.308 223.454C219.169 223.573 218.989 223.634 218.806 223.623C218.623 223.612 218.451 223.531 218.327 223.396C217.354 222.214 216.717 220.791 216.483 219.278C216.124 217.79 216.172 216.233 216.624 214.77C216.689 214.599 216.816 214.46 216.981 214.381C217.146 214.302 217.335 214.29 217.508 214.347L221.425 215.609L223.019 217.176C223.221 217.376 223.358 217.631 223.414 217.91C223.469 218.188 223.44 218.477 223.329 218.739Z" fill="#FB7B76"/>
<path d="M212.788 220.632C213.158 220.758 213.559 220.56 213.685 220.191C213.812 219.821 213.614 219.42 213.245 219.293C212.875 219.167 212.473 219.365 212.347 219.734C212.221 220.104 212.419 220.505 212.788 220.632Z" fill="#FB7B76"/>
<path d="M213.656 223.342C214.025 223.469 214.427 223.271 214.553 222.902C214.679 222.532 214.482 222.131 214.112 222.004C213.743 221.878 213.341 222.076 213.215 222.445C213.089 222.815 213.286 223.216 213.656 223.342Z" fill="#FB7B76"/>
<path d="M215.27 225.906C215.64 226.032 216.041 225.835 216.167 225.465C216.293 225.096 216.096 224.694 215.727 224.568C215.357 224.442 214.955 224.639 214.829 225.009C214.703 225.378 214.901 225.78 215.27 225.906Z" fill="#FB7B76"/>
<path d="M212.561 217.794C212.93 217.92 213.332 217.723 213.458 217.353C213.584 216.984 213.387 216.582 213.017 216.456C212.648 216.33 212.246 216.527 212.12 216.897C211.994 217.266 212.191 217.668 212.561 217.794Z" fill="#FB7B76"/>
<path d="M213.081 214.81C213.451 214.936 213.852 214.739 213.978 214.369C214.104 214 213.907 213.598 213.538 213.472C213.168 213.346 212.766 213.543 212.64 213.913C212.514 214.282 212.712 214.684 213.081 214.81Z" fill="#FB7B76"/>
<path d="M234.193 220.765C233.656 222.199 232.743 223.461 231.549 224.419C230.439 225.474 229.065 226.21 227.573 226.551C227.392 226.582 227.206 226.541 227.055 226.438C226.903 226.335 226.798 226.177 226.761 225.997L225.899 221.976L226.46 219.807C226.533 219.533 226.686 219.286 226.9 219.1C227.114 218.913 227.379 218.795 227.661 218.761L229.881 218.495L233.752 219.89C233.924 219.951 234.066 220.076 234.148 220.239C234.231 220.402 234.246 220.591 234.193 220.765Z" fill="#FB7B76"/>
<path d="M233.646 227.749C234.015 227.875 234.417 227.678 234.543 227.308C234.669 226.939 234.472 226.537 234.102 226.411C233.733 226.285 233.331 226.482 233.205 226.852C233.079 227.221 233.276 227.623 233.646 227.749Z" fill="#FB7B76"/>
<path d="M235.56 225.643C235.93 225.769 236.331 225.571 236.457 225.202C236.583 224.832 236.386 224.431 236.017 224.304C235.647 224.178 235.245 224.376 235.119 224.745C234.993 225.115 235.191 225.516 235.56 225.643Z" fill="#FB7B76"/>
<path d="M236.973 222.963C237.342 223.089 237.744 222.892 237.87 222.522C237.996 222.153 237.799 221.751 237.429 221.625C237.06 221.499 236.658 221.696 236.532 222.066C236.406 222.435 236.603 222.837 236.973 222.963Z" fill="#FB7B76"/>
<path d="M231.302 229.364C231.671 229.49 232.073 229.293 232.199 228.923C232.325 228.554 232.128 228.152 231.758 228.026C231.389 227.9 230.987 228.097 230.861 228.467C230.735 228.836 230.932 229.238 231.302 229.364Z" fill="#FB7B76"/>
<path d="M228.458 230.406C228.827 230.533 229.229 230.335 229.355 229.966C229.481 229.596 229.284 229.194 228.914 229.068C228.545 228.942 228.143 229.14 228.017 229.509C227.891 229.879 228.088 230.28 228.458 230.406Z" fill="#FB7B76"/>
<path d="M351.506 263.201C365.593 267.172 380.231 258.971 384.201 244.884C388.172 230.797 379.97 216.159 365.884 212.189C351.797 208.219 337.159 216.42 333.189 230.506C329.218 244.593 337.42 259.231 351.506 263.201Z" fill="#E64C3C"/>
<path d="M367.01 230.326L363.259 234.101L360.522 235.02C360.173 235.139 359.796 235.15 359.441 235.05C359.086 234.95 358.769 234.744 358.534 234.46L356.68 232.247L355.453 227.069C355.398 226.839 355.434 226.598 355.553 226.394C355.672 226.191 355.866 226.041 356.093 225.977C358.025 225.546 360.037 225.644 361.918 226.261C363.844 226.717 365.611 227.684 367.034 229.061C367.194 229.234 367.281 229.462 367.276 229.698C367.272 229.934 367.176 230.159 367.01 230.326Z" fill="#FB7B76"/>
<path d="M375.901 229.87L363.258 234.101L367.009 230.326C367.176 230.159 367.271 229.934 367.276 229.698C367.28 229.463 367.194 229.234 367.034 229.061C365.611 227.684 363.844 226.717 361.917 226.261C360.037 225.644 358.024 225.546 356.092 225.977C355.865 226.041 355.672 226.191 355.553 226.394C355.433 226.598 355.397 226.839 355.452 227.069L356.68 232.247L348.108 222.037C347.934 221.833 347.807 221.594 347.736 221.336C347.665 221.077 347.653 220.807 347.699 220.543C347.745 220.279 347.849 220.029 348.003 219.81C348.158 219.592 348.358 219.41 348.591 219.277C353.417 216.622 359.094 215.972 364.396 217.466C369.698 218.96 374.2 222.48 376.929 227.264C377.059 227.499 377.135 227.759 377.152 228.026C377.17 228.293 377.128 228.561 377.029 228.81C376.931 229.059 376.779 229.283 376.584 229.466C376.389 229.649 376.155 229.787 375.901 229.87ZM378.924 243.396C377.675 247.802 375.024 251.68 371.372 254.442C367.72 257.204 363.267 258.7 358.689 258.703C358.415 258.708 358.144 258.651 357.895 258.537C357.646 258.423 357.426 258.254 357.251 258.044C357.077 257.833 356.951 257.586 356.885 257.32C356.818 257.055 356.812 256.778 356.867 256.51L359.524 243.445L360.917 248.575C360.977 248.804 361.124 249.001 361.327 249.123C361.53 249.246 361.772 249.285 362.004 249.232C363.907 248.689 365.628 247.642 366.987 246.203C368.461 244.883 369.552 243.19 370.144 241.302C370.201 241.073 370.167 240.83 370.05 240.625C369.932 240.421 369.74 240.269 369.514 240.203L364.42 238.672L377.562 236.338C377.831 236.294 378.107 236.31 378.369 236.385C378.631 236.459 378.874 236.591 379.079 236.771C379.284 236.95 379.447 237.173 379.556 237.423C379.665 237.672 379.718 237.943 379.71 238.216C379.663 239.969 379.399 241.709 378.924 243.396ZM354.985 242.166L350.429 254.695C350.336 254.952 350.186 255.185 349.99 255.377C349.795 255.569 349.559 255.714 349.3 255.803C349.041 255.891 348.765 255.92 348.493 255.887C348.222 255.855 347.961 255.762 347.73 255.615C343.053 252.752 339.68 248.175 338.329 242.86C336.979 237.545 337.758 231.914 340.501 227.165C340.636 226.929 340.823 226.725 341.046 226.569C341.27 226.413 341.525 226.308 341.794 226.262C342.063 226.216 342.338 226.23 342.601 226.304C342.864 226.377 343.107 226.507 343.313 226.686L353.302 235.539L348.159 234.184C347.931 234.123 347.688 234.151 347.481 234.265C347.274 234.378 347.118 234.567 347.048 234.792C346.567 236.712 346.612 238.725 347.18 240.621C347.588 242.558 348.509 244.349 349.848 245.807C350.018 245.972 350.245 246.065 350.482 246.067C350.719 246.068 350.947 245.977 351.119 245.813L354.985 242.166Z" fill="#C03A2B"/>
<path d="M362.91 222.743C363.395 222.88 363.9 222.597 364.037 222.111C364.174 221.626 363.891 221.121 363.405 220.984C362.92 220.847 362.415 221.13 362.278 221.616C362.141 222.101 362.424 222.606 362.91 222.743Z" fill="#FB7B76"/>
<path d="M359.277 222.158C359.763 222.295 360.267 222.012 360.404 221.526C360.541 221.04 360.258 220.536 359.773 220.399C359.287 220.262 358.782 220.545 358.645 221.03C358.508 221.516 358.791 222.021 359.277 222.158Z" fill="#FB7B76"/>
<path d="M355.377 222.519C355.863 222.656 356.368 222.373 356.505 221.887C356.642 221.402 356.359 220.897 355.873 220.76C355.387 220.623 354.883 220.906 354.746 221.391C354.609 221.877 354.892 222.382 355.377 222.519Z" fill="#FB7B76"/>
<path d="M366.313 224.141C366.799 224.278 367.303 223.995 367.44 223.509C367.577 223.024 367.294 222.519 366.809 222.382C366.323 222.245 365.818 222.528 365.681 223.014C365.544 223.499 365.827 224.004 366.313 224.141Z" fill="#FB7B76"/>
<path d="M369.45 226.485C369.935 226.622 370.44 226.339 370.577 225.854C370.714 225.368 370.431 224.863 369.945 224.726C369.46 224.589 368.955 224.872 368.818 225.358C368.681 225.844 368.964 226.348 369.45 226.485Z" fill="#FB7B76"/>
<path d="M355.98 239.446L354.986 242.166L351.119 245.813C350.948 245.977 350.719 246.068 350.482 246.067C350.245 246.065 350.018 245.972 349.849 245.807C348.51 244.349 347.588 242.558 347.18 240.621C346.613 238.725 346.567 236.712 347.048 234.792C347.119 234.567 347.274 234.378 347.481 234.265C347.688 234.151 347.931 234.123 348.159 234.184L353.303 235.539L355.47 237.451C355.745 237.694 355.94 238.014 356.031 238.37C356.122 238.726 356.104 239.1 355.98 239.446Z" fill="#FB7B76"/>
<path d="M342.506 242.626C342.992 242.763 343.497 242.48 343.634 241.994C343.771 241.509 343.488 241.004 343.002 240.867C342.516 240.73 342.012 241.013 341.875 241.499C341.738 241.984 342.021 242.489 342.506 242.626Z" fill="#FB7B76"/>
<path d="M343.816 246.065C344.302 246.201 344.806 245.919 344.943 245.433C345.08 244.947 344.797 244.442 344.312 244.306C343.826 244.169 343.321 244.451 343.184 244.937C343.047 245.423 343.33 245.928 343.816 246.065Z" fill="#FB7B76"/>
<path d="M346.079 249.261C346.564 249.398 347.069 249.115 347.206 248.629C347.343 248.143 347.06 247.639 346.574 247.502C346.089 247.365 345.584 247.648 345.447 248.133C345.31 248.619 345.593 249.124 346.079 249.261Z" fill="#FB7B76"/>
<path d="M342.014 238.979C342.5 239.116 343.005 238.833 343.142 238.348C343.278 237.862 342.996 237.357 342.51 237.22C342.024 237.083 341.519 237.366 341.382 237.852C341.246 238.338 341.528 238.842 342.014 238.979Z" fill="#FB7B76"/>
<path d="M342.477 235.091C342.963 235.228 343.468 234.945 343.604 234.46C343.741 233.974 343.459 233.469 342.973 233.332C342.487 233.195 341.982 233.478 341.845 233.964C341.708 234.45 341.991 234.954 342.477 235.091Z" fill="#FB7B76"/>
<path d="M370.144 241.302C369.552 243.19 368.462 244.883 366.987 246.203C365.629 247.642 363.907 248.689 362.004 249.232C361.773 249.285 361.53 249.246 361.328 249.123C361.125 249.001 360.978 248.804 360.917 248.575L359.524 243.445L360.096 240.606C360.171 240.246 360.351 239.917 360.615 239.662C360.878 239.406 361.212 239.235 361.574 239.171L364.42 238.672L369.514 240.203C369.741 240.269 369.933 240.421 370.05 240.625C370.168 240.83 370.202 241.073 370.144 241.302Z" fill="#FB7B76"/>
<path d="M369.927 250.354C370.412 250.491 370.917 250.208 371.054 249.723C371.191 249.237 370.908 248.732 370.422 248.595C369.937 248.458 369.432 248.741 369.295 249.227C369.158 249.713 369.441 250.217 369.927 250.354Z" fill="#FB7B76"/>
<path d="M372.25 247.501C372.736 247.638 373.241 247.355 373.378 246.87C373.515 246.384 373.232 245.879 372.746 245.742C372.26 245.605 371.756 245.888 371.619 246.374C371.482 246.86 371.765 247.364 372.25 247.501Z" fill="#FB7B76"/>
<path d="M373.887 243.944C374.372 244.081 374.877 243.798 375.014 243.312C375.151 242.826 374.868 242.322 374.382 242.185C373.897 242.048 373.392 242.331 373.255 242.816C373.118 243.302 373.401 243.807 373.887 243.944Z" fill="#FB7B76"/>
<path d="M367.014 252.603C367.5 252.74 368.005 252.457 368.142 251.971C368.278 251.486 367.996 250.981 367.51 250.844C367.024 250.707 366.519 250.99 366.382 251.475C366.246 251.961 366.528 252.466 367.014 252.603Z" fill="#FB7B76"/>
<path d="M363.415 254.147C363.901 254.284 364.406 254.001 364.543 253.516C364.68 253.03 364.397 252.525 363.911 252.388C363.426 252.251 362.921 252.534 362.784 253.02C362.647 253.506 362.93 254.01 363.415 254.147Z" fill="#FB7B76"/>
</svg>
